<?xml version="1.0" encoding="UTF-8" standalone="no"?>
<!-- Created with Inkscape (http://www.inkscape.org/) -->
<svg id="svg2" xmlns:rdf="http://www.w3.org/1999/02/22-rdf-syntax-ns#" xmlns="http://www.w3.org/2000/svg" height="16" width="16" version="1.1" xmlns:cc="http://creativecommons.org/ns#" xmlns:xlink="http://www.w3.org/1999/xlink" viewBox="0 0 16 16" xmlns:dc="http://purl.org/dc/elements/1.1/">
	<defs id="defs4">
		<linearGradient id="linearGradient4992-6" y2="1043.7" gradientUnits="userSpaceOnUse" x2="45.875" gradientTransform="translate(450,59)" y1="1030.4" x1="45.875">
			<stop id="stop4988" stop-color="#cfd5d5" offset="0"/>
			<stop id="stop4990" stop-color="#b0b8b8" offset="1"/>
		</linearGradient>
		<linearGradient id="linearGradient13088" y2="996.36" gradientUnits="userSpaceOnUse" x2="25.856" gradientTransform="translate(453 62)" y1="1044.4" x1="25.856">
			<stop id="stop4996" stop-color="#fcfcfc" offset="0"/>
			<stop id="stop4998" stop-color="#eff1f1" offset="1"/>
		</linearGradient>
	</defs>
	<metadata id="metadata7">
		<rdf:RDF>
			<cc:Work rdf:about="">
				<dc:format>image/svg+xml</dc:format>
				<dc:type rdf:resource="http://purl.org/dc/dcmitype/StillImage"/>
				<dc:title/>
			</cc:Work>
		</rdf:RDF>
	</metadata>
	<g id="layer1" transform="translate(0 -1036.4)">
		<g id="g13159" transform="translate(-491,-52)">
			<g>
				<rect id="rect4943-27" style="color-rendering:auto;color:#000000;isolation:auto;mix-blend-mode:normal;shape-rendering:auto;solid-color:#000000;image-rendering:auto" ry="2" height="14" width="14" y="1089.4" x="492" fill="url(#linearGradient4992-6)"/>
				<path id="rect4943-27-3" opacity=".2" style="color-rendering:auto;color:#000000;isolation:auto;mix-blend-mode:normal;shape-rendering:auto;solid-color:#000000;image-rendering:auto" d="m504 103-10 10 2 2h8c1.108 0 2-0.89199 2-2v-8l-2-2z" transform="translate(0 988.36)" fill="#172525"/>
				<rect id="rect4943-6-9" style="color-rendering:auto;color:#000000;isolation:auto;mix-blend-mode:normal;shape-rendering:auto;solid-color:#000000;image-rendering:auto" ry=".000017383" height="10" width="10" y="1091.4" x="494" fill="url(#linearGradient13088)"/>
			</g>
			<g id="g13090" fill-rule="evenodd" fill="#334545" transform="matrix(.5 0 0 .5 252 550.68)">
				<path id="path11379-1" d="m496 1087.4c-3.75 0-3.75 3-3.75 3h1.5s0-1.5 2.25-1.5c3 0 3 2.25 3 2.25 0 0.75 0 1.5-3.75 1.5-3 0-3.75 2.25-3.75 3.75 0 2.25 2.25 3 3.75 3 3 0 3.75-1.5 3.75-1.5s0.75 1.5 2.25 1.5h0.75v-1.5s-1.5 0-1.5-0.75v-5.25c0-3.75-2.25-4.5-4.5-4.5zm3 6v1.5c0 1.5-1.5 3-3.75 3-1.5 0-2.25-0.75-2.25-1.5 0-1.5 0.75-2.25 2.25-2.25 3.75 0 3.75-0.75 3.75-0.75z"/>
				<path id="path11384-5" d="m497.62 1085.4 0.38-0.8c-0.56987-0.8129-2.5694-1.2858-3.8912-1.1956l-0.11 1.7c1.4457-0.4076 2.7386-0.2715 3.6244 0.2143z"/>
			</g>
			<path id="rect4943-27-7" style="color-rendering:auto;color:#000000;isolation:auto;mix-blend-mode:normal;shape-rendering:auto;solid-color:#000000;image-rendering:auto" d="m492 112v1c0 1.108 0.89199 2 2 2h10c1.108 0 2-0.89199 2-2v-1c0 1.108-0.89199 2-2 2h-10c-1.108 0-2-0.89199-2-2z" transform="translate(0 988.36)" fill="#909c9c"/>
		</g>
	</g>
</svg>
