<?xml version="1.0" encoding="UTF-8" standalone="no"?>
<!-- Created with Inkscape (http://www.inkscape.org/) -->
<svg id="svg2" xmlns:rdf="http://www.w3.org/1999/02/22-rdf-syntax-ns#" xmlns="http://www.w3.org/2000/svg" height="16" width="16" version="1.1" xmlns:cc="http://creativecommons.org/ns#" xmlns:xlink="http://www.w3.org/1999/xlink" viewBox="0 0 16 16" xmlns:dc="http://purl.org/dc/elements/1.1/">
	<defs id="defs4">
		<linearGradient id="linearGradient6924" y2="62" gradientUnits="userSpaceOnUse" x2="21" gradientTransform="matrix(.5 0 0 .5 445 179)" y1="18" x1="21">
			<stop id="stop6144" stop-color="#6f8181" offset="0"/>
			<stop id="stop6146" stop-color="#334545" offset="1"/>
		</linearGradient>
		<linearGradient id="linearGradient6930" y2="62" gradientUnits="userSpaceOnUse" x2="21" gradientTransform="matrix(.5 0 0 .5 443 1165.4)" y1="18" x1="21">
			<stop id="stop9109" stop-color="#54a3d8" offset="0"/>
			<stop id="stop9111" stop-color="#3b85b5" offset="1"/>
		</linearGradient>
	</defs>
	<metadata id="metadata7">
		<rdf:RDF>
			<cc:Work rdf:about="">
				<dc:format>image/svg+xml</dc:format>
				<dc:type rdf:resource="http://purl.org/dc/dcmitype/StillImage"/>
				<dc:title/>
			</cc:Work>
		</rdf:RDF>
	</metadata>
	<g id="layer1" transform="translate(0 -1036.4)">
		<g id="g7110" transform="translate(-450,-141)">
			<g fill="#eff1f1">
				<rect id="rect6859-12-6-0-2-0" style="color-rendering:auto;color:#000000;isolation:auto;mix-blend-mode:normal;shape-rendering:auto;solid-color:#000000;image-rendering:auto" ry=".5" height="4" width="1" y="1179.9" x="454"/>
				<rect id="rect6861-0-2-2-2-3" style="color-rendering:auto;color:#000000;isolation:auto;mix-blend-mode:normal;shape-rendering:auto;solid-color:#000000;image-rendering:auto" ry=".5" height="1" width="4" y="1181.4" x="452.5"/>
				<rect id="rect6865-7-8-1-7-4" style="color-rendering:auto;color:#000000;isolation:auto;mix-blend-mode:normal;shape-rendering:auto;solid-color:#000000;image-rendering:auto" ry=".48895" height="1" width="4" y="1181.4" x="459.5"/>
			</g>
			<path id="path8839-7-0-6" style="color-rendering:auto;color:#000000;isolation:auto;mix-blend-mode:normal;shape-rendering:auto;solid-color:#000000;image-rendering:auto" d="m453 190c-1.108 0-2 0.892-2 2v5 5c0 1.108 0.89199 2 2 2h5l7-7v-5c0-1.108-0.89199-2-2-2h-5z" transform="translate(0 988.36)" fill="url(#linearGradient6924)"/>
			<path id="path7297-3-9-7-6-2" style="color-rendering:auto;color:#000000;isolation:auto;mix-blend-mode:normal;shape-rendering:auto;solid-color:#000000;image-rendering:auto" d="m458 1185.4v7h5c1.108 0 2-0.892 2-2v-5h-7z" fill="url(#linearGradient6930)"/>
			<path id="rect6773-0-11-6-4-3-5" style="color-rendering:auto;color:#000000;isolation:auto;mix-blend-mode:normal;shape-rendering:auto;solid-color:#000000;image-rendering:auto" d="m453 1178.4c-0.74108 0-1.379 0.4042-1.7246 1h6.7246v-1h-5z" fill="#909c9c"/>
			<path id="rect6773-5-4-9-0-1-6-8" style="color-rendering:auto;color:#000000;isolation:auto;mix-blend-mode:normal;shape-rendering:auto;solid-color:#000000;image-rendering:auto" d="m458 1178.4v1h6.7246c-0.34556-0.5958-0.98353-1-1.7246-1h-5z" fill="#909c9c"/>
			<g fill="#eff1f1">
				<rect id="rect6859-1-0-7-7-3-9" style="color-rendering:auto;color:#000000;isolation:auto;mix-blend-mode:normal;shape-rendering:auto;solid-color:#000000;image-rendering:auto" ry=".5" height="3" width="1" y="1180.4" x="454"/>
				<rect id="rect6861-04-56-0-1-3-5" style="color-rendering:auto;color:#000000;isolation:auto;mix-blend-mode:normal;shape-rendering:auto;solid-color:#000000;image-rendering:auto" ry=".49999" height=".99998" width="3" y="1181.4" x="453"/>
				<rect id="rect6865-22-7-1-1-4-0" style="color-rendering:auto;color:#000000;isolation:auto;mix-blend-mode:normal;shape-rendering:auto;solid-color:#000000;image-rendering:auto" ry=".4375" height="1" width="3" y="1181.4" x="460"/>
			</g>
			<rect id="rect6773-0-9-4-1-7-4-6" style="color-rendering:auto;color:#000000;isolation:auto;mix-blend-mode:normal;shape-rendering:auto;solid-color:#000000;image-rendering:auto" ry="0" height=".99997" width="7" y="1185.4" x="451" fill="#6f8181"/>
			<rect id="rect6773-5-4-78-0-3-0-3-0" style="color-rendering:auto;color:#000000;isolation:auto;mix-blend-mode:normal;shape-rendering:auto;solid-color:#000000;image-rendering:auto" ry="0" height=".99999" width="7" y="1185.4" x="458" fill="#54a3d8"/>
			<g id="g7905-6-7-4-9-8" transform="matrix(.35355 .35355 -.35355 .35355 811.36 817.15)" fill="#eff1f1">
				<rect id="rect6859-1-2-4-7-0-7-3" style="color-rendering:auto;color:#000000;isolation:auto;mix-blend-mode:normal;shape-rendering:auto;solid-color:#000000;image-rendering:auto" transform="scale(-1)" ry="1" height="8" width="2" y="-1034.4" x="-22"/>
				<rect id="rect6861-04-5-7-2-8-2-7" style="color-rendering:auto;color:#000000;isolation:auto;mix-blend-mode:normal;shape-rendering:auto;solid-color:#000000;image-rendering:auto" transform="scale(-1)" ry="1" height="2" width="8" y="-1031.4" x="-25"/>
			</g>
			<rect id="rect6865-22-3-4-6-5-5-8" style="color-rendering:auto;color:#000000;isolation:auto;mix-blend-mode:normal;shape-rendering:auto;solid-color:#000000;image-rendering:auto" ry=".48438" height="1" width="3" y="1189.4" x="460" fill="#fcfcfc"/>
			<rect id="rect6865-22-3-4-6-2-8-2" style="color-rendering:auto;color:#000000;isolation:auto;mix-blend-mode:normal;shape-rendering:auto;solid-color:#000000;image-rendering:auto" ry=".45312" height=".99998" width="3" y="1187.4" x="460" fill="#fcfcfc"/>
		</g>
	</g>
</svg>
