<?xml version="1.0" encoding="UTF-8" standalone="no"?>
<!-- Created with Inkscape (http://www.inkscape.org/) -->
<svg id="svg2" xmlns:rdf="http://www.w3.org/1999/02/22-rdf-syntax-ns#" xmlns="http://www.w3.org/2000/svg" height="16" viewBox="0 0 16 16" width="16" version="1.1" xmlns:cc="http://creativecommons.org/ns#" xmlns:xlink="http://www.w3.org/1999/xlink" xmlns:dc="http://purl.org/dc/elements/1.1/">
	<defs id="defs4">
		<linearGradient id="linearGradient4211" y2="43" gradientUnits="userSpaceOnUse" x2="74" gradientTransform="translate(-65,-41)" y1="56" x1="74">
			<stop id="stop6409" stop-color="#cd7223" offset="0"/>
			<stop id="stop6411" stop-color="#ffa92d" offset="1"/>
		</linearGradient>
	</defs>
	<metadata id="metadata7">
		<rdf:RDF>
			<cc:Work rdf:about="">
				<dc:format>image/svg+xml</dc:format>
				<dc:type rdf:resource="http://purl.org/dc/dcmitype/StillImage"/>
				<dc:title/>
			</cc:Work>
		</rdf:RDF>
	</metadata>
	<g>
		<path id="rect4147" style="color-rendering:auto;color:#000000;isolation:auto;mix-blend-mode:normal;shape-rendering:auto;solid-color:#000000;image-rendering:auto" d="m4 2c-1.108 0-2 0.892-2 2v7.2715a2 2 0 0 0 -1 1.728 2 2 0 0 0 2 2 2 2 0 0 0 1.7305 -1h7.2695c1.108 0 2-0.892 2-2v-8c0-1.108-0.892-2-2-2h-8z" fill="url(#linearGradient4211)"/>
		<g fill="#fcfcfc">
			<circle id="path4151" style="color-rendering:auto;color:#000000;isolation:auto;mix-blend-mode:normal;shape-rendering:auto;solid-color:#000000;image-rendering:auto" cx="3" cy="13" r="1"/>
			<path id="path4165" style="color-rendering:auto;color:#000000;isolation:auto;mix-blend-mode:normal;shape-rendering:auto;solid-color:#000000;image-rendering:auto" d="m3 10v1a2 2 0 0 1 2 2h1a3 3 0 0 0 -3 -3z"/>
			<path id="path4170" style="color-rendering:auto;color:#000000;isolation:auto;mix-blend-mode:normal;shape-rendering:auto;solid-color:#000000;image-rendering:auto" d="m3 8v1a4 4 0 0 1 4 4h1a5 5 0 0 0 -5 -5z"/>
			<path id="path4175" style="color-rendering:auto;color:#000000;isolation:auto;mix-blend-mode:normal;shape-rendering:auto;solid-color:#000000;image-rendering:auto" d="m3 6v1a6 6 0 0 1 6 6h1a7 7 0 0 0 -7 -7z"/>
		</g>
		<path id="rect4147-5" opacity=".2" style="color-rendering:auto;color:#000000;isolation:auto;mix-blend-mode:normal;shape-rendering:auto;solid-color:#000000;image-rendering:auto" d="m14 11c0 1.108-0.892 2-2 2h-7.2695a2 2 0 0 1 -1.7305 1 2 2 0 0 1 -1.9355 -1.502 2 2 0 0 0 -0.0645 0.502 2 2 0 0 0 2 2 2 2 0 0 0 1.7305 -1h7.2695c1.108 0 2-0.892 2-2v-1z" fill="#884d2c"/>
	</g>
</svg>
