<?xml version="1.0" encoding="UTF-8" standalone="no"?>
<!-- Created with Inkscape (http://www.inkscape.org/) -->
<svg id="svg2" xmlns:rdf="http://www.w3.org/1999/02/22-rdf-syntax-ns#" xmlns="http://www.w3.org/2000/svg" height="16" width="16" version="1.1" xmlns:cc="http://creativecommons.org/ns#" xmlns:xlink="http://www.w3.org/1999/xlink" viewBox="0 0 16 16" xmlns:dc="http://purl.org/dc/elements/1.1/">
	<defs id="defs4">
		<linearGradient id="linearGradient6113-4" y2="93" gradientUnits="userSpaceOnUse" x2="29" gradientTransform="matrix(.28571 0 0 .28571 -1.1429 1009.5)" y1="159" x1="29">
			<stop id="stop6109" stop-color="#172525" offset="0"/>
			<stop id="stop6111" stop-color="#334545" offset="1"/>
		</linearGradient>
	</defs>
	<metadata id="metadata7">
		<rdf:RDF>
			<cc:Work rdf:about="">
				<dc:format>image/svg+xml</dc:format>
				<dc:type rdf:resource="http://purl.org/dc/dcmitype/StillImage"/>
				<dc:title/>
			</cc:Work>
		</rdf:RDF>
	</metadata>
	<g id="layer1" transform="translate(0 -1036.4)">
		<g>
			<circle id="path6564" style="color-rendering:auto;color:#000000;isolation:auto;mix-blend-mode:normal;shape-rendering:auto;solid-color:#000000;image-rendering:auto" cx="8" cy="1044.4" r="2" fill="#334545"/>
			<path id="path6005-75" style="color-rendering:auto;color:#000000;isolation:auto;mix-blend-mode:normal;shape-rendering:auto;solid-color:#000000;image-rendering:auto" d="m8 1036.4a8 8 0 0 0 -8 8 8 8 0 0 0 8 8 8 8 0 0 0 8 -8 8 8 0 0 0 -8 -8zm0 6a2 2 0 0 1 2 2 2 2 0 0 1 -2 2 2 2 0 0 1 -2 -2 2 2 0 0 1 2 -2z" fill="url(#linearGradient6113-4)"/>
			<path id="path6003-9" style="color-rendering:auto;color:#000000;isolation:auto;mix-blend-mode:normal;shape-rendering:auto;solid-color:#000000;image-rendering:auto" d="m8 1041.4a3 3 0 0 0 -3 3 3 3 0 0 0 3 3 3 3 0 0 0 3 -3 3 3 0 0 0 -3 -3zm0 2a1 1 0 0 1 1 1 1 1 0 0 1 -1 1 1 1 0 0 1 -1 -1 1 1 0 0 1 1 -1z" fill="#f58273"/>
		</g>
		<path id="path6531" fill-rule="evenodd" fill="#334545" d="m11.5 1038.3a7 7 0 0 0 -2.3527 -0.8351l-0.49137 2.9526a4 4 0 0 1 1.3441 0.4806 4 4 0 0 1 1.0846 0.9261l2.3187-1.9066a7 7 0 0 0 -1.9032 -1.6176zm-4.3 10a4 4 0 0 1 -1.1998 -0.4492 4 4 0 0 1 -0.98988 -0.8128l-2.2412 1.9874a7 7 0 0 0 1.7311 1.4235 7 7 0 0 0 2.0973 0.7892l0.6025-2.9z"/>
	</g>
</svg>
