<?xml version="1.0" encoding="UTF-8" standalone="no"?>
<!-- Created with Inkscape (http://www.inkscape.org/) -->
<svg id="svg2" xmlns:rdf="http://www.w3.org/1999/02/22-rdf-syntax-ns#" xmlns="http://www.w3.org/2000/svg" height="16" width="16" version="1.1" xmlns:cc="http://creativecommons.org/ns#" xmlns:xlink="http://www.w3.org/1999/xlink" viewBox="0 0 16 16" xmlns:dc="http://purl.org/dc/elements/1.1/">
	<defs id="defs4">
		<linearGradient id="linearGradient6571-1-6" y2="1274.4" gradientUnits="userSpaceOnUse" x2="692" gradientTransform="matrix(0 -1 -1 0 1282.4 1729.4)" y1="1274.4" x1="675.17">
			<stop id="stop5895" stop-color="#172525" offset="0"/>
			<stop id="stop5897" stop-color="#536161" offset="1"/>
		</linearGradient>
	</defs>
	<metadata id="metadata7">
		<rdf:RDF>
			<cc:Work rdf:about="">
				<dc:format>image/svg+xml</dc:format>
				<dc:type rdf:resource="http://purl.org/dc/dcmitype/StillImage"/>
				<dc:title/>
			</cc:Work>
		</rdf:RDF>
	</metadata>
	<g id="layer1" transform="translate(0 -1036.4)">
		<path id="path5963" style="color-rendering:auto;color:#000000;isolation:auto;mix-blend-mode:normal;shape-rendering:auto;solid-color:#000000;image-rendering:auto" d="m8 1037.4h-5c-1.108 0-2 0.892-2 2v10c0 1.108 0.89199 2 2 2h10c1.108 0 2-0.892 2-2v-5l-7-7z" fill="url(#linearGradient6571-1-6)"/>
		<path id="rect6548-6-2" style="color-rendering:auto;color:#000000;isolation:auto;mix-blend-mode:normal;shape-rendering:auto;solid-color:#000000;image-rendering:auto" d="m8 1037.4 7 7v-5c0-1.108-0.89199-2-2-2h-5z" fill="#172525"/>
		<path id="path5958" d="m7 1037.4h2l6 6v2z" fill-rule="evenodd" fill="#eff1f1"/>
		<path id="path5963-0" style="color-rendering:auto;color:#000000;isolation:auto;mix-blend-mode:normal;shape-rendering:auto;solid-color:#000000;image-rendering:auto" d="m1 1048.4v1c0 1.108 0.89199 2 2 2h10c1.108 0 2-0.892 2-2v-1c0 1.108-0.89199 2-2 2h-10c-1.108 0-2-0.892-2-2z" fill="#172525"/>
	</g>
</svg>
