<?xml version="1.0" encoding="UTF-8" standalone="no"?>
<!-- Created with Inkscape (http://www.inkscape.org/) -->
<svg id="svg2" xmlns:rdf="http://www.w3.org/1999/02/22-rdf-syntax-ns#" xmlns="http://www.w3.org/2000/svg" height="16" width="16" version="1.1" xmlns:cc="http://creativecommons.org/ns#" xmlns:xlink="http://www.w3.org/1999/xlink" viewBox="0 0 16 16" xmlns:dc="http://purl.org/dc/elements/1.1/">
	<defs id="defs4">
		<linearGradient id="linearGradient7301-2" y2="1191.4" gradientUnits="userSpaceOnUse" x2="514" gradientTransform="matrix(1 0 0 .99423 150 6.8299)" y1="1177.4" x1="514">
			<stop id="stop11375" stop-color="#54d883" offset="0"/>
			<stop id="stop11377" stop-color="#3bb566" offset="1"/>
		</linearGradient>
		<linearGradient id="linearGradient7397" y2="196" gradientUnits="userSpaceOnUse" x2="514" gradientTransform="matrix(1.25 0 0 1 20.755 988.36)" y1="196" x1="513">
			<stop id="stop7393" stop-color="#172525" offset="0"/>
			<stop id="stop7395" stop-color="#172525" stop-opacity="0" offset="1"/>
		</linearGradient>
		<linearGradient id="linearGradient7407" y2="1184.4" gradientUnits="userSpaceOnUse" x2="513" gradientTransform="translate(-1174)" y1="1184.4" x1="512">
			<stop id="stop7403" stop-color="#fcfcfc" offset="0"/>
			<stop id="stop7405" stop-color="#fcfcfc" stop-opacity="0" offset="1"/>
		</linearGradient>
	</defs>
	<metadata id="metadata7">
		<rdf:RDF>
			<cc:Work rdf:about="">
				<dc:format>image/svg+xml</dc:format>
				<dc:type rdf:resource="http://purl.org/dc/dcmitype/StillImage"/>
				<dc:title/>
			</cc:Work>
		</rdf:RDF>
	</metadata>
	<g id="layer1" transform="translate(0 -1036.4)">
		<g id="g5418" transform="translate(-658,-140)">
			<rect id="rect7293" style="color-rendering:auto;color:#000000;isolation:auto;mix-blend-mode:normal;shape-rendering:auto;solid-color:#000000;image-rendering:auto" ry="2" height="14" width="12" y="1177.4" x="661" fill="#377d50"/>
			<g id="g7345" transform="translate(150)">
				<rect id="rect7328" style="color-rendering:auto;color:#000000;isolation:auto;mix-blend-mode:normal;shape-rendering:auto;solid-color:#000000;image-rendering:auto" ry="0" height="12" width="10" y="1178.4" x="512" fill="#eff1f1"/>
				<rect id="rect7328-9" style="color-rendering:auto;color:#000000;isolation:auto;mix-blend-mode:normal;shape-rendering:auto;solid-color:#000000;image-rendering:auto" ry="0" height="1" width="10" y="1178.4" x="512" fill="#fcfcfc"/>
			</g>
			<g>
				<rect id="rect7445" style="color-rendering:auto;color:#000000;isolation:auto;mix-blend-mode:normal;shape-rendering:auto;solid-color:#000000;image-rendering:auto" height="4" width="1" y="1185.4" x="670" fill="#54d883"/>
				<rect id="rect7447" style="color-rendering:auto;color:#000000;isolation:auto;mix-blend-mode:normal;shape-rendering:auto;solid-color:#000000;image-rendering:auto" height="2" width="1" y="1187.4" x="669" fill="#d7e04c"/>
				<rect id="rect7449" style="color-rendering:auto;color:#000000;isolation:auto;mix-blend-mode:normal;shape-rendering:auto;solid-color:#000000;image-rendering:auto" height="3" width="1" y="1186.4" x="668" fill="#e05e4c"/>
				<rect id="rect7451" style="color-rendering:auto;color:#000000;isolation:auto;mix-blend-mode:normal;shape-rendering:auto;solid-color:#000000;image-rendering:auto" height="2" width="1" y="1187.4" x="667" fill="#3b85b5"/>
				<rect id="rect7453" style="color-rendering:auto;color:#000000;isolation:auto;mix-blend-mode:normal;shape-rendering:auto;solid-color:#000000;image-rendering:auto" height="1" width="4" y="1179.4" x="667" fill="#7ceca4"/>
				<g fill="#abf9c7">
					<rect id="rect7455" style="color-rendering:auto;color:#000000;isolation:auto;mix-blend-mode:normal;shape-rendering:auto;solid-color:#000000;image-rendering:auto" height="1" width="2" y="1181.4" x="669"/>
					<rect id="rect7457" style="color-rendering:auto;color:#000000;isolation:auto;mix-blend-mode:normal;shape-rendering:auto;solid-color:#000000;image-rendering:auto" height="1" width="1" y="1181.4" x="667"/>
					<rect id="rect7459" style="color-rendering:auto;color:#000000;isolation:auto;mix-blend-mode:normal;shape-rendering:auto;solid-color:#000000;image-rendering:auto" height="1" width="2" y="1183.4" x="669"/>
					<rect id="rect7461" style="color-rendering:auto;color:#000000;isolation:auto;mix-blend-mode:normal;shape-rendering:auto;solid-color:#000000;image-rendering:auto" height="1" width="1" y="1183.4" x="667"/>
				</g>
			</g>
			<path id="path7463" opacity=".1" d="m664.57 1177.4-0.57227 14h7c1.108 0 2-0.892 2-2v-6l-6-6z" fill-rule="evenodd" fill="#172525"/>
			<path id="path7463-2" opacity=".6" d="m673 1188.4c0 1.108-0.89199 2-2 2h-6.959l-0.041 1h7c1.108 0 2-0.892 2-2v-1z" fill-rule="evenodd" fill="#377d50"/>
			<g>
				<path id="rect7293-4" style="color-rendering:auto;color:#000000;isolation:auto;mix-blend-mode:normal;shape-rendering:auto;solid-color:#000000;image-rendering:auto" d="m661 1177.4h0.99995l3-0.8984c0.90262-0.2703 1.9999 0.8314 1.9999 1.933v11.931c0 1.1016-1.1056 2.2848-2 1.9885l-3-0.9h-0.99995c-1.108 0-2-0.8984-2-2v-10c0-1.1016 0.89241-1.9713 2-2z" fill="url(#linearGradient7301-2)"/>
				<path id="rect7293-4-5-7" opacity=".05" style="color-rendering:auto;color:#000000;isolation:auto;mix-blend-mode:normal;shape-rendering:auto;solid-color:#000000;image-rendering:auto" d="m663.25 1176.9-1.25 0.5v14l1.25 0.5v-15z" fill="url(#linearGradient7397)"/>
				<rect id="rect7399" opacity=".05" style="color-rendering:auto;color:#000000;isolation:auto;mix-blend-mode:normal;shape-rendering:auto;solid-color:#000000;image-rendering:auto" transform="scale(-1,1)" height="14" width="1" y="1177.4" x="-662" fill="url(#linearGradient7407)"/>
			</g>
			<path id="path7409" d="m665.46 1176.4c-0.15304 0.01-0.30901 0.04-0.46386 0.1016l-2.0381 0.6149 4.0381 2.5827v-1.1986c0-0.969-0.46485-2.1518-1.5361-2.1006z" fill-rule="evenodd" fill="#2b4d37"/>
			<path id="path7427" d="m662.96 1177.1-0.9619 0.2832 5 3.1992v-1z" fill-rule="evenodd" fill="#eff1f1"/>
			<path id="rect7293-4-9" opacity=".2" style="color-rendering:auto;color:#000000;isolation:auto;mix-blend-mode:normal;shape-rendering:auto;solid-color:#000000;image-rendering:auto" d="m659 1188.4v1c0 1.1016 0.89199 2 2 2h1l3 0.9531c0.89443 0.2963 2-0.8867 2-1.9883v-1c0 1.1016-1.1056 2.2846-2 1.9883l-3-0.9531h-1c-1.108 0-2-0.8984-2-2z" fill="#2b4d37"/>
			<path id="rect7293-4-75-9-1" opacity=".1" style="color-rendering:auto;color:#000000;isolation:auto;mix-blend-mode:normal;shape-rendering:auto;solid-color:#000000;image-rendering:auto" d="m665.46 1176.4c-0.14203 0.01-0.28585 0.041-0.42969 0.094l-3.0332 0.9043v14l3 0.9531c0.89443 0.2963 2-0.8867 2-1.9883v-10.664-1.1992-0.066c0-0.2075-0.0331-0.407-0.0801-0.5997-0.16697-0.7702-0.62543-1.4733-1.457-1.4335z" fill="#172525"/>
		</g>
	</g>
</svg>
