<?xml version="1.0" encoding="UTF-8" standalone="no"?>
<!-- Created with Inkscape (http://www.inkscape.org/) -->
<svg id="svg2" xmlns:rdf="http://www.w3.org/1999/02/22-rdf-syntax-ns#" xmlns="http://www.w3.org/2000/svg" height="16" width="16" version="1.1" xmlns:cc="http://creativecommons.org/ns#" xmlns:xlink="http://www.w3.org/1999/xlink" viewBox="0 0 16 16" xmlns:dc="http://purl.org/dc/elements/1.1/">
	<defs id="defs4">
		<linearGradient id="linearGradient5859-2-9-7" y2="1250.4" gradientUnits="userSpaceOnUse" x2="843" gradientTransform="matrix(.38889 0 0 .99998 435.22 28.022)" y1="1249.4" x1="843">
			<stop id="stop13572" stop-color="#fcfcfc" offset="0"/>
			<stop id="stop13574" stop-color="#fcfcfc" stop-opacity="0" offset="1"/>
		</linearGradient>
		<linearGradient id="linearGradient5859-2-2" y2="1250.4" gradientUnits="userSpaceOnUse" x2="843" gradientTransform="matrix(.38889 0 0 .99998 435.22 -2526.7)" y1="1249.4" x1="843">
			<stop id="stop13580" stop-color="#172525" offset="0"/>
			<stop id="stop13582" stop-color="#172525" stop-opacity="0" offset="1"/>
		</linearGradient>
		<linearGradient id="linearGradient6136" y2="996.36" gradientUnits="userSpaceOnUse" x2="30" gradientTransform="matrix(.5 0 0 .5 754 -1782.5)" y1="1044.4" x1="30">
			<stop id="stop5936" stop-color="#172525" offset="0"/>
			<stop id="stop5938" stop-color="#334545" offset="1"/>
		</linearGradient>
	</defs>
	<metadata id="metadata7">
		<rdf:RDF>
			<cc:Work rdf:about="">
				<dc:format>image/svg+xml</dc:format>
				<dc:type rdf:resource="http://purl.org/dc/dcmitype/StillImage"/>
				<dc:title/>
			</cc:Work>
		</rdf:RDF>
	</metadata>
	<g id="layer1" transform="translate(0 -1036.4)">
		<g id="g6142" transform="translate(-757,-233)">
			<rect id="rect5932-0" style="color-rendering:auto;color:#000000;isolation:auto;mix-blend-mode:normal;shape-rendering:auto;solid-color:#000000;image-rendering:auto" transform="scale(1,-1)" ry="2" height="14" width="14" y="-1284.4" x="758" fill="url(#linearGradient6136)"/>
			<path id="path5942-6" style="color-rendering:auto;text-decoration-color:#000000;color:#000000;isolation:auto;mix-blend-mode:normal;shape-rendering:auto;solid-color:#000000;block-progression:tb;text-decoration-line:none;text-decoration-style:solid;image-rendering:auto;white-space:normal;text-indent:0;text-transform:none" d="m763.85 1273.5-0.70704 0.707 3.1465 3.1465-3.1465 3.1464 0.70704 0.7071 3.8535-3.8535z" fill-rule="evenodd" fill="#eff1f1"/>
			<g>
				<path id="rect5987-8-1" opacity=".05" style="color-rendering:auto;color:#000000;isolation:auto;mix-blend-mode:normal;shape-rendering:auto;solid-color:#000000;image-rendering:auto" d="m760 1284.4c-1.108 0-2-0.892-2-2v-5h14v5c0 1.108-0.89199 2-2 2z" fill="#fcfcfc"/>
				<path id="rect5932-3-5" opacity=".4" style="color-rendering:auto;color:#000000;isolation:auto;mix-blend-mode:normal;shape-rendering:auto;solid-color:#000000;image-rendering:auto" d="m760 1284.4c-1.108 0-2-0.892-2-2v-0.5c0 1.108 0.892 2 2 2h10c1.108 0 2-0.892 2-2v0.5c0 1.108-0.89199 2-2 2z" fill="#172525"/>
				<rect id="rect5825-4-9" opacity=".05" ry="0" style="color-rendering:auto;color:#000000;isolation:auto;mix-blend-mode:normal;shape-rendering:auto;solid-color:#000000;image-rendering:auto" transform="scale(1,-1)" height=".99998" width="14" y="-1277.4" x="758" fill="url(#linearGradient5859-2-2)"/>
				<rect id="rect5825-4-4-4" opacity=".05" style="color-rendering:auto;color:#000000;isolation:auto;mix-blend-mode:normal;shape-rendering:auto;solid-color:#000000;image-rendering:auto" ry="0" height=".99998" width="14" y="1277.4" x="758" fill="url(#linearGradient5859-2-9-7)"/>
			</g>
		</g>
	</g>
</svg>
