<?xml version="1.0" encoding="UTF-8" standalone="no"?>
<!-- Created with Inkscape (http://www.inkscape.org/) -->
<svg id="svg2" xmlns:rdf="http://www.w3.org/1999/02/22-rdf-syntax-ns#" xmlns="http://www.w3.org/2000/svg" height="16" width="16" version="1.1" xmlns:cc="http://creativecommons.org/ns#" xmlns:xlink="http://www.w3.org/1999/xlink" viewBox="0 0 16 16" xmlns:dc="http://purl.org/dc/elements/1.1/">
	<defs id="defs4">
		<linearGradient id="linearGradient6213">
			<stop id="stop6215" stop-color="#ffa92d" offset="0"/>
			<stop id="stop6217" stop-color="#cd7223" offset="1"/>
		</linearGradient>
		<linearGradient id="linearGradient6605" y2="1434.4" xlink:href="#linearGradient6213" gradientUnits="userSpaceOnUse" x2="-398" gradientTransform="translate(406,-380)" y1="1430.4" x1="-398"/>
		<linearGradient id="linearGradient6692" y2="1432.4" xlink:href="#linearGradient6213" gradientUnits="userSpaceOnUse" x2="-398" gradientTransform="translate(406,-380)" y1="1416.4" x1="-398"/>
		<linearGradient id="linearGradient6701" y2="1427.4" gradientUnits="userSpaceOnUse" x2="-398" gradientTransform="translate(406,-380)" y1="1418.4" x1="-398">
			<stop id="stop6278" stop-color="#fcfcfc" offset="0"/>
			<stop id="stop6280" stop-color="#eff1f1" offset="1"/>
		</linearGradient>
	</defs>
	<metadata id="metadata7">
		<rdf:RDF>
			<cc:Work rdf:about="">
				<dc:format>image/svg+xml</dc:format>
				<dc:type rdf:resource="http://purl.org/dc/dcmitype/StillImage"/>
				<dc:title/>
			</cc:Work>
		</rdf:RDF>
	</metadata>
	<g id="layer1" transform="translate(0 -1036.4)">
		<path id="path6690" d="m6 1036.4-0.40039 2 0.7002 1.5-1.2998 1.5-0.59961 3 0.7002 1.5-1.2998 1.5-0.80078 4h10l-0.80078-4-1.2998-1.5 0.7002-1.5-0.59961-3-1.2998-1.5 0.70019-1.5-0.40039-2z" fill-rule="evenodd" fill="url(#linearGradient6692)"/>
		<g>
			<rect id="rect6593" style="color-rendering:auto;color:#000000;isolation:auto;mix-blend-mode:normal;shape-rendering:auto;solid-color:#000000;image-rendering:auto" ry=".000017383" height="2" width="14" y="1050.4" x="1" fill="url(#linearGradient6605)"/>
			<path id="rect6607-7" style="color-rendering:auto;color:#000000;isolation:auto;mix-blend-mode:normal;shape-rendering:auto;solid-color:#000000;image-rendering:auto" d="m5.5996 1038.4-0.59961 3h6l-0.59961-3h-4.8008zm-1.1992 6-0.59961 3h8.3984l-0.59961-3h-7.1992z" fill="url(#linearGradient6701)"/>
			<path id="rect6703" opacity=".2" style="color-rendering:auto;color:#000000;isolation:auto;mix-blend-mode:normal;shape-rendering:auto;solid-color:#000000;image-rendering:auto" d="m5.8008 1037.4-0.20117 1h4.8008l-0.20117-1h-4.3984zm-1.2012 6-0.19922 1h7.1992l-0.19922-1h-6.8008zm-1.1992 6-0.20117 1h9.6016l-0.20117-1h-9.1992z" fill="#cd7223"/>
			<path id="rect6709" style="color-rendering:auto;color:#000000;isolation:auto;mix-blend-mode:normal;shape-rendering:auto;solid-color:#000000;image-rendering:auto" d="m5.5996 1038.4-0.19922 1h5.1992l-0.19922-1h-4.8008zm-1.1992 6-0.19922 1h7.5977l-0.19922-1h-7.1992z" fill="#fcfcfc"/>
		</g>
	</g>
</svg>
