<?xml version="1.0" encoding="UTF-8" standalone="no"?>
<!-- Created with Inkscape (http://www.inkscape.org/) -->
<svg id="svg2" xmlns:rdf="http://www.w3.org/1999/02/22-rdf-syntax-ns#" xmlns="http://www.w3.org/2000/svg" height="64" viewBox="0 0 64 64.000001" width="64" version="1.1" xmlns:cc="http://creativecommons.org/ns#" xmlns:dc="http://purl.org/dc/elements/1.1/">
	<defs id="defs4">
		<linearGradient id="linearGradient4992" y2="1044.4" gradientUnits="userSpaceOnUse" y1="996.36" gradientTransform="translate(0,-988.36)" x2="20" x1="20">
			<stop id="stop4988" stop-color="#dddbdb" offset="0"/>
			<stop id="stop4990" stop-color="#b6b2b6" offset="1"/>
		</linearGradient>
		<linearGradient id="linearGradient5000" x1="25.856" gradientUnits="userSpaceOnUse" y1="1044.4" gradientTransform="translate(0 -988.36)" x2="25.856" y2="996.36">
			<stop id="stop4996" stop-color="#fcfcfc" offset="0"/>
			<stop id="stop4998" stop-color="#eff1f1" offset="1"/>
		</linearGradient>
	</defs>
	<metadata id="metadata7">
		<rdf:RDF>
			<cc:Work rdf:about="">
				<dc:format>image/svg+xml</dc:format>
				<dc:type rdf:resource="http://purl.org/dc/dcmitype/StillImage"/>
				<dc:title/>
			</cc:Work>
		</rdf:RDF>
	</metadata>
	<rect id="rect4943" style="color-rendering:auto;color:#000000;isolation:auto;mix-blend-mode:normal;shape-rendering:auto;solid-color:#000000;image-rendering:auto" ry="4" height="48" width="48" y="8" x="8" fill="url(#linearGradient4992)"/>
	<path id="rect4943-6-1" opacity=".2" style="color-rendering:auto;color:#000000;isolation:auto;mix-blend-mode:normal;shape-rendering:auto;solid-color:#000000;image-rendering:auto" fill="#172525" d="m14 12.04c-1.108 0-2 0.892-2 2v36c0 0.554 0.22249 1.0545 0.58398 1.416l4.584 4.584h34.832c2.216 0 4-1.784 4-4v-34.832l-4.584-4.584c-0.3615-0.3615-0.86201-0.584-1.416-0.584h-36z"/>
	<rect id="rect4943-6" style="color-rendering:auto;color:#000000;isolation:auto;mix-blend-mode:normal;shape-rendering:auto;solid-color:#000000;image-rendering:auto" ry="2" height="40" width="40" y="12.04" x="12" fill="url(#linearGradient5000)"/>
	<path id="rect4943-4" style="color-rendering:auto;color:#000000;isolation:auto;mix-blend-mode:normal;shape-rendering:auto;solid-color:#000000;image-rendering:auto" fill="#7a747c" d="m8 51.04v1c0 2.216 1.784 4 4 4h40c2.216 0 4-1.784 4-4v-1c0 2.216-1.784 4-4 4h-40c-2.216 0-4-1.784-4-4z"/>
	<path id="path11379" d="m40 32.04c-5 0-5 4-5 4h2s0-2 3-2c4 0 4 3 4 3 0 1 0 2-5 2-4 0-5 3-5 5 0 3 3 4 5 4 4 0 5-2 5-2s1 2 3 2h1v-2s-2 0-2-1v-7c0-5-3-6-6-6zm4 8v2c0 2-2 4-5 4-2 0-3-1-3-2 0-2 1-3 3-3 5 0 5-1 5-1z" fill-rule="evenodd" fill="#343031"/>
	<path id="path11384" d="m40.722 30.94 1.278-0.9c-0.14111-1.7408-2.7396-4.206-4.8132-5.2191l-1.7424 2.639c2.5409 0.6353 4.371 1.9696 5.2779 3.4848z" fill-rule="evenodd" fill="#343031"/>
</svg>
