<?xml version="1.0" encoding="UTF-8" standalone="no"?>
<!-- Created with Inkscape (http://www.inkscape.org/) -->

<svg
   xmlns:dc="http://purl.org/dc/elements/1.1/"
   xmlns:cc="http://creativecommons.org/ns#"
   xmlns:rdf="http://www.w3.org/1999/02/22-rdf-syntax-ns#"
   xmlns:svg="http://www.w3.org/2000/svg"
   xmlns="http://www.w3.org/2000/svg"
   xmlns:xlink="http://www.w3.org/1999/xlink"
   xmlns:sodipodi="http://sodipodi.sourceforge.net/DTD/sodipodi-0.dtd"
   xmlns:inkscape="http://www.inkscape.org/namespaces/inkscape"
   id="svg2"
   height="64"
   viewBox="0 0 64 64.000001"
   width="64"
   version="1.1"
   inkscape:version="0.91 r13725"
   sodipodi:docname="accessories-calculator.svg">
  <sodipodi:namedview
     pagecolor="#ffffff"
     bordercolor="#666666"
     borderopacity="1"
     objecttolerance="10"
     gridtolerance="10"
     guidetolerance="10"
     inkscape:pageopacity="0"
     inkscape:pageshadow="2"
     inkscape:window-width="2690"
     inkscape:window-height="1586"
     id="namedview27"
     showgrid="false"
     inkscape:zoom="1"
     inkscape:cx="22.265796"
     inkscape:cy="10.782885"
     inkscape:window-x="0"
     inkscape:window-y="0"
     inkscape:window-maximized="0"
     inkscape:current-layer="svg2" />
  <defs
     id="defs4">
    <linearGradient
       id="linearGradient6148-4-1-3"
       y2="1046.4"
       gradientUnits="userSpaceOnUse"
       x2="46"
       gradientTransform="translate(0,-988.4)"
       y1="1015.8"
       x1="46">
      <stop
         id="stop9109-6"
         stop-color="#37a4f5"
         offset="0" />
      <stop
         id="stop9111-7"
         stop-color="#0566af"
         offset="1" />
    </linearGradient>
    <linearGradient
       id="linearGradient6104-5"
       y2="56"
       xlink:href="#linearGradient6142-3"
       gradientUnits="userSpaceOnUse"
       x2="23"
       gradientTransform="translate(0 -.03996)"
       y1="4"
       x1="23" />
    <linearGradient
       id="linearGradient6142-3">
      <stop
         id="stop6144-5"
         stop-color="#7a747c"
         offset="0" />
      <stop
         id="stop6146-6"
         stop-color="#534d52"
         offset="1" />
    </linearGradient>
    <linearGradient
       id="linearGradient6102-2"
       y2="60"
       xlink:href="#linearGradient6142-3"
       gradientUnits="userSpaceOnUse"
       x2="23"
       gradientTransform="translate(0,4e-5)"
       y1="8"
       x1="23" />
    <linearGradient
       id="linearGradient6100-9"
       y2="61"
       xlink:href="#linearGradient6142-3"
       gradientUnits="userSpaceOnUse"
       x2="23"
       gradientTransform="translate(0,4e-5)"
       y1="8"
       x1="23" />
    <linearGradient
       id="linearGradient6148-4-1-3-3"
       y2="1046.4"
       gradientUnits="userSpaceOnUse"
       x2="46"
       gradientTransform="translate(0,-988.4)"
       y1="1015.8"
       x1="46">
      <stop
         id="stop9109-6-6"
         stop-color="#37a4f5"
         offset="0" />
      <stop
         id="stop9111-7-7"
         stop-color="#0566af"
         offset="1" />
    </linearGradient>
    <linearGradient
       id="linearGradient6104-5-5"
       y2="56"
       xlink:href="#linearGradient6142-3"
       gradientUnits="userSpaceOnUse"
       x2="23"
       gradientTransform="translate(0,-0.03996)"
       y1="4"
       x1="23" />
    <linearGradient
       id="linearGradient6148-4-1-3-9"
       y2="1046.4"
       gradientUnits="userSpaceOnUse"
       x2="46"
       gradientTransform="translate(0,-989.4)"
       y1="1015.8"
       x1="46">
      <stop
         id="stop9109-6-1"
         stop-color="#37a4f5"
         offset="0" />
      <stop
         id="stop9111-7-2"
         stop-color="#0566af"
         offset="1" />
    </linearGradient>
    <linearGradient
       id="linearGradient6104-5-7"
       y2="56"
       xlink:href="#linearGradient6142-3"
       gradientUnits="userSpaceOnUse"
       x2="23"
       gradientTransform="translate(0,-1.03996)"
       y1="4"
       x1="23" />
  </defs>
  <metadata
     id="metadata7">
    <rdf:RDF>
      <cc:Work
         rdf:about="">
        <dc:format>image/svg+xml</dc:format>
        <dc:type
           rdf:resource="http://purl.org/dc/dcmitype/StillImage" />
        <dc:title />
      </cc:Work>
    </rdf:RDF>
  </metadata>
  <path
     id="rect6095-3-2-1"
     style="color-rendering:auto;color:#000000;isolation:auto;mix-blend-mode:normal;shape-rendering:auto;solid-color:#000000;image-rendering:auto"
     d="m31 8-1 1v20.96l-21 0.04-1 1c0.554 0 1 0.446 1 1s-0.446 1-1 1l1 1 21-0.04v21.04l1 1c0-0.554 0.446-1 1-1s1 0.446 1 1l1-1v-21.04l21 0.04 1-1c-0.554 0-1-0.446-1-1s0.446-1 1-1l-1-1-21-0.04v-20.96l-1-1c0 0.554-0.446 1-1 1s-1-0.446-1-1z"
     fill="#343031" />
  <path
     id="path4922-2-2"
     style="color-rendering:auto;color:#000000;isolation:auto;mix-blend-mode:normal;shape-rendering:auto;solid-color:#000000;image-rendering:auto"
     fill="url(#linearGradient6100-9)"
     d="m12 8c-2.216 0-4 1.784-4 4v19h23v-23z" />
  <path
     id="path4920-4-7"
     style="color-rendering:auto;color:#000000;isolation:auto;mix-blend-mode:normal;shape-rendering:auto;solid-color:#000000;image-rendering:auto"
     fill="url(#linearGradient6102-2)"
     d="m33 8v23h23v-19c0-2.216-1.784-4-4-4z" />
  <path
     id="path6140-9-5-0"
     style="color-rendering:auto;color:#000000;isolation:auto;mix-blend-mode:normal;shape-rendering:auto;solid-color:#000000;image-rendering:auto"
     fill="url(#linearGradient6104-5)"
     d="m8 33v19c0 2.216 1.784 4 4 4h19v-23z" />
  <path
     id="rect6074-4-1-9"
     style="color-rendering:auto;color:#000000;isolation:auto;mix-blend-mode:normal;shape-rendering:auto;solid-color:#000000;image-rendering:auto"
     fill="url(#linearGradient6148-4-1-3)"
     d="m33 33v23h19c2.216 0 4-1.784 4-4v-19z" />
  <g
     id="g19">
    <path
       id="rect6299-1-7-3"
       style="color-rendering:auto;color:#000000;isolation:auto;mix-blend-mode:normal;shape-rendering:auto;solid-color:#000000;image-rendering:auto"
       fill="#fafafa"
       d="m21 15c-0.554 0-1 0.446-1 1v4h-4c-0.554 0-1 0.446-1 1s0.46254 1.1344 1 1h4v4c0 0.554 0.446 1 1 1s1-0.446 1-1v-4h4c0.554 0 1-0.446 1-1s-0.46254-0.8656-1-1h-4v-4c0-0.554-0.446-1-1-1zm17 5c-0.554 0-1 0.446-1 1s0.446 1 1 1h10c0.554 0 1-0.446 1-1s-0.446-1-1-1zm-20.535 18.463c-0.25562 0-0.51116 0.099-0.70703 0.2949-0.39174 0.3917-0.39174 1.0223 0 1.4141l2.8281 2.8281-2.8281 2.8281c-0.39174 0.3918-0.39174 1.0224 0 1.4141 0.39174 0.3918 1.0223 0.3918 1.4141 0l2.828-2.9 2.8281 2.8281c0.39174 0.3918 1.0223 0.3918 1.4141 0 0.39173-0.3917 0.39173-1.0223 0-1.4141l-2.8281-2.8281 2.8281-2.8281c0.39173-0.3918 0.39173-1.0224 0-1.4141-0.39174-0.3918-1.0223-0.3918-1.4141 0l-2.828 2.8-2.828-2.8c-0.19586-0.1959-0.45141-0.2949-0.70703-0.2949z" />
    <path
       id="rect6317-7-5-5-6"
       style="color-rendering:auto;color:#000000;isolation:auto;mix-blend-mode:normal;shape-rendering:auto;solid-color:#000000;image-rendering:auto"
       fill="#e2f2fe"
       d="m38 40c-0.554 0-1 0.446-1 1s0.446 1 1 1h10c0.554 0 1-0.446 1-1s-0.446-1-1-1zm0 4c-0.554 0-1 0.446-1 1s0.446 1 1 1h10c0.554 0 1-0.446 1-1s-0.446-1-1-1z" />
    <path
       id="path6472-5-71-0"
       style="color-rendering:auto;color:#000000;isolation:auto;mix-blend-mode:normal;shape-rendering:auto;solid-color:#000000;image-rendering:auto"
       fill="#b6b2b6"
       d="m33 8v1h19c2.216 0 4 1.784 4 4v-1c0-2.216-1.784-4-4-4z" />
    <path
       id="path6470-5-6-6"
       style="color-rendering:auto;color:#000000;isolation:auto;mix-blend-mode:normal;shape-rendering:auto;solid-color:#000000;image-rendering:auto"
       fill="#7a747c"
       d="m8 33v1h23v-1z" />
    <path
       id="path6140-2-4-9-2"
       style="color-rendering:auto;color:#000000;isolation:auto;mix-blend-mode:normal;shape-rendering:auto;solid-color:#000000;image-rendering:auto"
       fill="#37a4f5"
       d="m33 33v1h23v-1z" />
    <path
       id="path6472-5-7-8-6"
       style="color-rendering:auto;color:#000000;isolation:auto;mix-blend-mode:normal;shape-rendering:auto;solid-color:#000000;image-rendering:auto"
       fill="#b6b2b6"
       d="m31 8v1h-19c-2.216 0-4 1.784-4 4v-1c0-2.216 1.784-4 4-4z" />
  </g>
  <path
     style="color:#000000;isolation:auto;mix-blend-mode:normal;solid-color:#000000;fill:#343031;color-rendering:auto;image-rendering:auto;shape-rendering:auto"
     d="M 8 51 L 8 52 C 8 54.216 9.784 56 12 56 L 31 56 L 31 55 L 12 55 C 9.784 55 8 53.216 8 51 z "
     id="path6140-9-5-0-6" />
  <path
     style="color:#000000;isolation:auto;mix-blend-mode:normal;solid-color:#000000;fill:#023962;color-rendering:auto;image-rendering:auto;shape-rendering:auto"
     d="M 56 51 C 56 53.216 54.216 55 52 55 L 33 55 L 33 56 L 52 56 C 54.216 56 56 54.216 56 52 L 56 51 z "
     id="rect6074-4-1-9-2" />
</svg>
