<?xml version="1.0" encoding="UTF-8" standalone="no"?>
<!-- Created with Inkscape (http://www.inkscape.org/) -->
<svg id="svg2" xmlns:rdf="http://www.w3.org/1999/02/22-rdf-syntax-ns#" xmlns="http://www.w3.org/2000/svg" viewBox="0 0 64 64.000001" height="64" width="64" version="1.1" xmlns:cc="http://creativecommons.org/ns#" xmlns:dc="http://purl.org/dc/elements/1.1/">
	<defs id="defs4">
		<linearGradient id="linearGradient8644-7-3" y2="518.86" gradientUnits="userSpaceOnUse" x2="179" gradientTransform="matrix(0,1,-1,0,536.36,-124)" y1="518.86" x1="124">
			<stop id="stop8173-2" stop-color="#ec4040" offset="0"/>
			<stop id="stop8175-8" stop-color="#d71919" offset="1"/>
		</linearGradient>
		<linearGradient id="linearGradient8646-1-6" y2="1030.4" gradientUnits="userSpaceOnUse" x2="16" gradientTransform="translate(-4.0012,-1051.4)" y1="1029.4" x1="16">
			<stop id="stop7403-9" stop-color="#fcfcfc" offset="0"/>
			<stop id="stop7405-6" stop-opacity="0" stop-color="#fcfcfc" offset="1"/>
		</linearGradient>
		<linearGradient id="linearGradient8648-2-7" y2="1030.4" gradientUnits="userSpaceOnUse" x2="16" gradientTransform="matrix(0,1.1458,1,0,-1007.4,-7.1612)" y1="1029.4" x1="16">
			<stop id="stop7393-5" stop-color="#172525" offset="0"/>
			<stop id="stop7395-3" stop-opacity="0" stop-color="#172525" offset="1"/>
		</linearGradient>
	</defs>
	<metadata id="metadata7">
		<rdf:RDF>
			<cc:Work rdf:about="">
				<dc:format>image/svg+xml</dc:format>
				<dc:type rdf:resource="http://purl.org/dc/dcmitype/StillImage"/>
				<dc:title/>
			</cc:Work>
		</rdf:RDF>
	</metadata>
	<rect id="rect6214-9-8-5" style="color-rendering:auto;color:#000000;isolation:auto;mix-blend-mode:normal;shape-rendering:auto;solid-color:#000000;image-rendering:auto" ry="4" height="56" width="26" y="3.9988" x="26" fill="#ac0808"/>
	<path id="rect6214-9-1-1-6" style="color-rendering:auto;color:#000000;isolation:auto;mix-blend-mode:normal;shape-rendering:auto;solid-color:#000000;image-rendering:auto" fill="#600404" d="m26 55.039v1c0 2.216 1.784 4 4 4h18c2.216 0 4-1.784 4-4v-1c0 2.216-1.784 4-4 4h-18c-2.216 0-4-1.784-4-4z"/>
	<g id="g4206" transform="translate(-50)">
		<path id="rect4165" style="color-rendering:auto;color:#000000;isolation:auto;mix-blend-mode:normal;shape-rendering:auto;solid-color:#000000;image-rendering:auto" d="m66 6h32c1.108 0 2 0.892 2 2v48c0 1.108-0.892 2-2 2h-32c-1.108 0-2-0.892-2-2v-48c0-1.108 0.892-2 2-2z" fill="#b6b2b6"/>
		<path id="rect4165-3" style="color-rendering:auto;color:#000000;isolation:auto;mix-blend-mode:normal;shape-rendering:auto;solid-color:#000000;image-rendering:auto" d="m66 6c-1.108 0-2 0.892-2 2v1c0-1.108 0.892-2 2-2h32c1.108 0 2 0.892 2 2v-1c0-1.108-0.892-2-2-2h-32z" fill="#dddbdb"/>
		<path id="rect4167" style="color-rendering:auto;color:#000000;isolation:auto;mix-blend-mode:normal;shape-rendering:auto;solid-color:#000000;image-rendering:auto" d="m66 6 30-2c1.1055-0.073703 2 0.892 2 2v52c0 1.108-0.89445 2.0737-2 2l-30-2c-1.106-0.074-2-0.892-2-2v-48c0-1.108 0.89445-1.9263 2-2z" fill="#dddbdb"/>
		<path id="rect4167-6" style="color-rendering:auto;color:#000000;isolation:auto;mix-blend-mode:normal;shape-rendering:auto;solid-color:#000000;image-rendering:auto" d="m96 4-30 2c-1.1055 0.073703-2 0.892-2 2v1c0-1.108 0.894-1.9263 2-2l30-2c1.1055-0.073703 2 0.892 2 2v-1c0-1.108-0.894-2.0737-2-2z" fill="#fcfcfc"/>
		<path id="rect4163" style="color-rendering:auto;color:#000000;isolation:auto;mix-blend-mode:normal;shape-rendering:auto;solid-color:#000000;image-rendering:auto" d="m66 6 26-4c1.0951-0.16848 2 0.892 2 2v56c0 1.108-0.90488 2.1685-2 2l-26-4c-1.095-0.168-2-0.892-2-2v-48c0-1.108 0.90488-1.8315 2-2z" fill="#fcfcfc"/>
		<path id="rect4163-7" style="color-rendering:auto;color:#000000;isolation:auto;mix-blend-mode:normal;shape-rendering:auto;solid-color:#000000;image-rendering:auto" d="m92.4 1.9922c-0.129-0.015-0.263-0.0133-0.4 0.0078l-26 4c-1.0951 0.16848-2 0.892-2 2v1c0-1.108 0.905-1.8315 2-2l26-4c1.0951-0.16848 2 0.892 2 2v-1c0-0.9695-0.693-1.9025-1.6-2.0078z" fill="#fff"/>
	</g>
	<path id="path6501-8-2" opacity=".1" fill-rule="evenodd" d="m40.5 3.498l-3.5 0.5-2 2-0.432 2.8594-18.568-2.8574c-1.095-0.1685-2 0.892-2 2v48c0 1.108 0.905 1.832 2 2l26 4c1.095 0.168 2-0.892 2-2v-0.002h4c2 0 4-2 4-4v-45l-4-4v2l-4-4v2l-3.5-3.5z"/>
	<path id="rect5605-6-1-4-9-7" style="color-rendering:auto;color:#000000;isolation:auto;mix-blend-mode:normal;shape-rendering:auto;solid-color:#000000;image-rendering:auto" fill="url(#linearGradient8644-7-3)" d="m37.106-0.0312c-0.1078 0-0.2177 0.012-0.3282 0.031l-14.777 4h-6.7773c-1.7713 0.2748-3.2227 1.784-3.2227 4v48c0 2.216 1.4514 3.7251 3.2227 4h6.7773l14.777 4c1.7671 0.3133 3.2227-1.784 3.2227-4v-56c0-2.0775-1.2786-4.0509-2.8945-4.0312z"/>
	<path id="path4527-0" style="color-rendering:auto;color:#000000;isolation:auto;mix-blend-mode:normal;shape-rendering:auto;solid-color:#000000;image-rendering:auto" fill="#fcfcfc" d="m22 30.039-0.56641 2.2695-0.59375 2.3711c-1 0.1541-2.1701 0.4303-3.1055 0.959-2.0329 1.149-3.6252 4.1561-1.8574 5.9238 1.7678 1.7678 4.7748 0.1755 5.9238-1.8574 0.10967-0.194 0.11002-0.4338 0.19922-0.6445v-9.0215zm-1.4316 6.834c-0.13441 0.6739-0.25624 1.401-0.50976 1.8496-0.49274 0.8717-2.0605 2.1329-2.7676 1.4258-0.70711-0.7071 0.55593-2.2749 1.4277-2.7676 0.2244-0.1268 0.51755-0.2184 0.83984-0.2969 0.3224-0.078 0.67262-0.1438 1.0098-0.2109z"/>
	<path id="path4525-9" style="color-rendering:auto;color:#000000;isolation:auto;mix-blend-mode:normal;shape-rendering:auto;solid-color:#000000;image-rendering:auto" fill="#fcfcfc" d="m22 21.539c-2.8965 0.7761-3.4087 4.0454-2.2227 6.057 0.5487 0.9306 1.4304 1.758 2.2227 2.3926v-2.901c-0.164-0.17-0.405-0.343-0.502-0.508-0.509-0.862-0.722-2.701 0.502-3.028z"/>
	<rect id="rect5679-8-2-8-8-3" opacity=".1" style="color-rendering:auto;color:#000000;isolation:auto;mix-blend-mode:normal;shape-rendering:auto;solid-color:#000000;image-rendering:auto" transform="rotate(90)" height="1" width="56" y="-22" x="3.9988" fill="url(#linearGradient8646-1-6)"/>
	<path id="path4423-6" style="color-rendering:auto;color:#000000;isolation:auto;mix-blend-mode:normal;shape-rendering:auto;solid-color:#000000;image-rendering:auto" fill="#eff1f1" d="m22 21.539v2.0128c0.55608 0.063 0.96914 0.9783 0.96318 1.9032-0.004 0.5477-0.19556 1.7132-0.35751 2.4241-0.235-0.261-0.411-0.53-0.606-0.792v11.946c0.24001-0.7792 0.45292-1.6363 0.54164-2.4489l1.7286-0.4342 1.924-0.4838c0.57993 0.9874 1.3632 2.1349 2.2817 2.946 2.1718 1.9184 6.4652 2.6191 7.389-0.7754 0.96299-3.5386-3.0368-6.2135-5.8057-6.1427-1.1559 0.03-2.3229 0.468-3.2264 0.9061l-1.5219-2.0132-1.3733-1.8137c0.29671-1.0775 0.58199-2.416 0.59014-3.6266 0.0153-2.2648-1.0973-3.9316-2.5277-3.6066v-0.0007m1.2559 9.3226 1.8666 2.7303-2.4425 0.7788 0.57588-3.5091m6.825 3.4157c1.143 0.044 3.4705 1.1874 3.1334 2.5111-0.33181 1.303-2.7182 0.5723-3.672-0.198-0.47353-0.3822-0.95994-1.1426-1.4201-1.8162 0.32903-0.115 0.6736-0.2428 1.0071-0.3402 0.33936-0.1 0.6679-0.1678 0.95164-0.1567"/>
	<path id="rect5605-6-7-7-9-1-0" style="color-rendering:auto;color:#000000;isolation:auto;mix-blend-mode:normal;shape-rendering:auto;solid-color:#000000;image-rendering:auto" fill="#ac0808" d="m12 55.039v1c0 2.216 1.4514 3.7251 3.2227 4h6.7773l14.777 4c1.7671 0.3134 3.2227-1.784 3.2227-4v-1c0 2.216-1.4556 4.3134-3.2227 4l-14.777-4h-6.7773c-1.772-0.275-3.223-1.784-3.223-4z"/>
	<path id="rect5605-5-0-0-0-3-9-4-6" opacity=".1" style="color-rendering:auto;color:#000000;isolation:auto;mix-blend-mode:normal;shape-rendering:auto;solid-color:#000000;image-rendering:auto" d="m40 3.9988v56c0 2.216-1.4551 4.3134-3.2222 4l-14.778-4v-56l14.778-4c1.767-0.35 3.222 1.75 3.222 3.96z"/>
	<path id="rect5679-9-5-47-3-6-2" opacity=".1" style="color-rendering:auto;color:#000000;isolation:auto;mix-blend-mode:normal;shape-rendering:auto;solid-color:#000000;image-rendering:auto" d="m23 3.7288-1 0.2714v56l1 0.2715z" fill="url(#linearGradient8648-2-7)"/>
</svg>
