<?xml version="1.0" encoding="UTF-8" standalone="no"?>
<!-- Created with Inkscape (http://www.inkscape.org/) -->

<svg
   xmlns:dc="http://purl.org/dc/elements/1.1/"
   xmlns:cc="http://creativecommons.org/ns#"
   xmlns:rdf="http://www.w3.org/1999/02/22-rdf-syntax-ns#"
   xmlns:svg="http://www.w3.org/2000/svg"
   xmlns="http://www.w3.org/2000/svg"
   xmlns:xlink="http://www.w3.org/1999/xlink"
   xmlns:sodipodi="http://sodipodi.sourceforge.net/DTD/sodipodi-0.dtd"
   xmlns:inkscape="http://www.inkscape.org/namespaces/inkscape"
   id="svg2"
   height="64"
   viewBox="0 0 64 64.000001"
   width="64"
   version="1.1"
   inkscape:version="0.91 r13725"
   sodipodi:docname="akregator.svg">
  <sodipodi:namedview
     pagecolor="#ffffff"
     bordercolor="#666666"
     borderopacity="1"
     objecttolerance="10"
     gridtolerance="10"
     guidetolerance="10"
     inkscape:pageopacity="0"
     inkscape:pageshadow="2"
     inkscape:window-width="3071"
     inkscape:window-height="1538"
     id="namedview21"
     showgrid="true"
     inkscape:zoom="1"
     inkscape:cx="21.428252"
     inkscape:cy="27.359268"
     inkscape:window-x="0"
     inkscape:window-y="0"
     inkscape:window-maximized="0"
     inkscape:current-layer="svg2">
    <inkscape:grid
       type="xygrid"
       id="grid4153" />
  </sodipodi:namedview>
  <defs
     id="defs4">
    <linearGradient
       id="linearGradient4145">
      <stop
         id="stop4147"
         stop-color="#fcfcfc"
         offset="0" />
      <stop
         id="stop4149"
         stop-color="#dddbdb"
         offset="1" />
    </linearGradient>
    <linearGradient
       id="linearGradient6413"
       y2="8"
       gradientUnits="userSpaceOnUse"
       y1="64"
       x2="32"
       x1="32">
      <stop
         id="stop6409"
         stop-color="#e4720c"
         offset="0" />
      <stop
         id="stop6411"
         stop-color="#f99133"
         offset="1" />
    </linearGradient>
    <linearGradient
       id="linearGradient4155"
       y2="1047.3"
       xlink:href="#linearGradient4145"
       gradientUnits="userSpaceOnUse"
       x2="31"
       gradientTransform="translate(1,-989.36)"
       y1="997.62"
       x1="31" />
    <linearGradient
       id="linearGradient4176"
       y2="1028.4"
       xlink:href="#linearGradient4145"
       gradientUnits="userSpaceOnUse"
       x2="40"
       gradientTransform="translate(0,-988.36)"
       y1="1028.4"
       x1="8" />
    <linearGradient
       inkscape:collect="always"
       xlink:href="#linearGradient4145"
       id="linearGradient4149"
       gradientUnits="userSpaceOnUse"
       gradientTransform="translate(1,-989.36)"
       x1="8"
       y1="1028.4"
       x2="40"
       y2="1028.4" />
    <linearGradient
       inkscape:collect="always"
       xlink:href="#linearGradient4145"
       id="linearGradient4151"
       gradientUnits="userSpaceOnUse"
       gradientTransform="translate(1,-989.36)"
       x1="8"
       y1="1028.4"
       x2="40"
       y2="1028.4" />
  </defs>
  <metadata
     id="metadata7">
    <rdf:RDF>
      <cc:Work
         rdf:about="">
        <dc:format>image/svg+xml</dc:format>
        <dc:type
           rdf:resource="http://purl.org/dc/dcmitype/StillImage" />
        <dc:title />
      </cc:Work>
    </rdf:RDF>
  </metadata>
  <path
     id="rect5993"
     style="color-rendering:auto;color:#000000;isolation:auto;mix-blend-mode:normal;shape-rendering:auto;solid-color:#000000;image-rendering:auto"
     fill="url(#linearGradient6413)"
     d="m12 8c-2.216 0-4 1.784-4 4v33.084a8 8 0 0 0 -4 6.916 8 8 0 0 0 8 8 8 8 0 0 0 6.92 -4h33.08c2.216 0 4-1.784 4-4v-40c0-2.216-1.784-4-4-4h-40z" />
  <g
     fill="url(#linearGradient4176)"
     id="g14">
    <circle
       id="path5995"
       style="color-rendering:auto;color:#000000;isolation:auto;mix-blend-mode:normal;shape-rendering:auto;solid-color:#000000;image-rendering:auto"
       cx="12"
       cy="52.04"
       r="4" />
    <path
       id="path5995-2-3"
       style="color:#000000;isolation:auto;mix-blend-mode:normal;solid-color:#000000;fill:url(#linearGradient4149);color-rendering:auto;image-rendering:auto;shape-rendering:auto"
       d="m 13,39.04 a 2,2 0 0 0 -2,2 2,2 0 0 0 2,2 8,8 0 0 1 8,8 2,2 0 0 0 2,2 2,2 0 0 0 2,-2 12,12 0 0 0 -12,-12 z"
       inkscape:connector-curvature="0" />
    <path
       id="path5995-2-3-7-5"
       style="color:#000000;isolation:auto;mix-blend-mode:normal;solid-color:#000000;fill:url(#linearGradient4151);color-rendering:auto;image-rendering:auto;shape-rendering:auto"
       d="m 13,31.04 a 2,2 0 0 0 -2,2 2,2 0 0 0 2,2 16,16 0 0 1 16,16 2,2 0 0 0 2,2 2,2 0 0 0 2,-2 20,20 0 0 0 -20,-20 z"
       inkscape:connector-curvature="0" />
  </g>
  <path
     id="path5995-2-3-7-9"
     style="color:#000000;isolation:auto;mix-blend-mode:normal;solid-color:#000000;fill:url(#linearGradient4155);color-rendering:auto;image-rendering:auto;shape-rendering:auto"
     d="m 13,23.04 a 2,2 0 0 0 -2,2 2,2 0 0 0 2,2 24,24 0 0 1 24,24 2,2 0 0 0 2,2 2,2 0 0 0 2,-2 28,28 0 0 0 -28,-28 z"
     inkscape:connector-curvature="0" />
  <path
     id="rect5993-4"
     style="color-rendering:auto;color:#000000;isolation:auto;mix-blend-mode:normal;shape-rendering:auto;solid-color:#000000;image-rendering:auto"
     d="m56 51c0 2.216-1.784 4-4 4h-33.08a8 8 0 0 1 -6.92 4 8 8 0 0 1 -7.9766 -7.512 8 8 0 0 0 -0.0234 0.512 8 8 0 0 0 8 8 8 8 0 0 0 6.92 -4h33.08c2.216 0 4-1.784 4-4v-1z"
     fill="#af5505" />
</svg>
