<?xml version="1.0" encoding="UTF-8" standalone="no"?>
<!-- Created with Inkscape (http://www.inkscape.org/) -->

<svg
   xmlns:dc="http://purl.org/dc/elements/1.1/"
   xmlns:cc="http://creativecommons.org/ns#"
   xmlns:rdf="http://www.w3.org/1999/02/22-rdf-syntax-ns#"
   xmlns:svg="http://www.w3.org/2000/svg"
   xmlns="http://www.w3.org/2000/svg"
   xmlns:xlink="http://www.w3.org/1999/xlink"
   xmlns:sodipodi="http://sodipodi.sourceforge.net/DTD/sodipodi-0.dtd"
   xmlns:inkscape="http://www.inkscape.org/namespaces/inkscape"
   id="svg2"
   height="64"
   viewBox="0 0 64 64.000001"
   width="64"
   version="1.1"
   inkscape:version="0.91 r13725"
   sodipodi:docname="alienarena.svg">
  <sodipodi:namedview
     pagecolor="#ffffff"
     bordercolor="#666666"
     borderopacity="1"
     objecttolerance="10"
     gridtolerance="10"
     guidetolerance="10"
     inkscape:pageopacity="0"
     inkscape:pageshadow="2"
     inkscape:window-width="3023"
     inkscape:window-height="1405"
     id="namedview23"
     showgrid="false"
     inkscape:zoom="10.429825"
     inkscape:cx="45.666608"
     inkscape:cy="39.935285"
     inkscape:window-x="0"
     inkscape:window-y="0"
     inkscape:window-maximized="0"
     inkscape:current-layer="layer1" />
  <defs
     id="defs4">
    <linearGradient
       id="linearGradient4146"
       y2="4.405"
       gradientUnits="userSpaceOnUse"
       x2="25.061"
       gradientTransform="matrix(1.375 0 0 1.375 -1 987.86)"
       y1="43.939"
       x1="24.705">
      <stop
         id="stop17"
         stop-color="#2c8862"
         offset="0"
         style="stop-color:#4e8133;stop-opacity:1" />
      <stop
         id="stop19"
         stop-color="#9ce0c4"
         offset="1"
         style="stop-color:#6ca749;stop-opacity:1" />
    </linearGradient>
    <linearGradient
       id="linearGradient4166"
       y2="24"
       xlink:href="#linearGradient4192"
       gradientUnits="userSpaceOnUse"
       x2="31"
       gradientTransform="matrix(1.2 0 0 1.2 4.8 991.56)"
       y1="34"
       x1="31" />
    <linearGradient
       id="linearGradient4192">
      <stop
         id="stop12"
         stop-color="#ac0808"
         offset="0" />
      <stop
         id="stop14"
         stop-color="#343031"
         offset="1" />
    </linearGradient>
    <linearGradient
       id="linearGradient4168"
       y2="24"
       xlink:href="#linearGradient4192"
       gradientUnits="userSpaceOnUse"
       x2="18"
       gradientTransform="matrix(1.2 0 0 1.2169 1.6 990.99)"
       y1="34"
       x1="18" />
    <linearGradient
       id="linearGradient4372"
       y2="42"
       gradientUnits="userSpaceOnUse"
       x2="33"
       y1="32.354"
       x1="33">
      <stop
         id="stop4368"
         stop-color="#343031"
         offset="0" />
      <stop
         id="stop4370"
         stop-color="#d71919"
         offset="1" />
    </linearGradient>
  </defs>
  <metadata
     id="metadata7">
    <rdf:RDF>
      <cc:Work
         rdf:about="">
        <dc:format>image/svg+xml</dc:format>
        <dc:type
           rdf:resource="http://purl.org/dc/dcmitype/StillImage" />
        <dc:title />
      </cc:Work>
    </rdf:RDF>
  </metadata>
  <g
     id="layer1"
     transform="translate(0 -988.36)">
    <path
       id="path26"
       d="m37.716 1025.1c2.6862-2.6488 6.434-3.6123 9.8929-2.8913 0.73099 3.4109-0.24589 7.1066-2.9321 9.7555s-6.434 3.6123-9.8929 2.8913c-0.73109-3.411 0.24588-7.1067 2.9321-9.7555z" />
    <path
       id="path28"
       d="m10 1014.6c0 14.148 11.682 33.717 22 33.717 9.7133 0 22-19.568 22-33.717 0-14.148-9.8497-22.283-22-22.283s-22 8.1345-22 22.283z"
       fill="url(#linearGradient4146)" />
    <path
       id="path32"
       d="m38.858 1025.2c2.4247-2.4246 5.8076-5.3065 8.9298-4.6466 0.65982 3.1221-0.22195 6.505-2.6466 8.9297-2.4247 2.4247-5.8076 3.3065-8.9297 2.6467-0.6599-3.1223 0.22194-4.5052 2.6466-6.9298z"
       fill="url(#linearGradient4166)" />
    <path
       id="path38"
       d="m16.212 1020.6c3.1222-0.6598 6.5051 2.2219 8.9297 4.6466 2.4247 2.4248 3.3065 3.8077 2.6466 6.9299-3.1222 0.6598-6.5051-0.222-8.9298-2.6467-2.4247-2.4248-3.3064-5.8076-2.6466-8.9298z"
       fill="url(#linearGradient4168)" />
    <path
       id="path28-5"
       d="m53.988 25.744c-0.259 14.109-12.379 33.256-21.988 33.256-10.204 0-21.734-19.135-21.988-33.242-0.003 0.175-0.012 0.348-0.012 0.525 0 14.149 11.682 33.717 22 33.717 9.713 0 22-19.568 22-33.717 0-0.182-0.008-0.359-0.012-0.539z"
       fill="#184c37"
       transform="translate(0 988.36)"
       style="fill:#2b481c" />
    <path
       id="path4303"
       d="m22.289 34.318c-0.171 0.619-0.289 1.208-0.289 1.682 0 2 2 5 2 5s1.059-1.6024 1.6348-3.6309c-0.16202-0.16859-0.31534-0.33291-0.49414-0.51172-0.84958-0.84959-1.8191-1.7493-2.8516-2.5391zm19.422 0.002c-1.0321 0.78967-2.0022 1.6897-2.8516 2.5391-0.17865 0.17865-0.33224 0.34132-0.49414 0.50977 0.576 2.029 1.635 3.631 1.635 3.631s2-3 2-5c0-0.4733-0.11806-1.0619-0.28906-1.6797z"
       fill="url(#linearGradient4372)"
       transform="translate(0 988.36)"
       fill-rule="evenodd" />
  </g>
</svg>
