<?xml version="1.0" encoding="UTF-8" standalone="no"?>
<!-- Created with Inkscape (http://www.inkscape.org/) -->
<svg id="svg2" xmlns:rdf="http://www.w3.org/1999/02/22-rdf-syntax-ns#" xmlns="http://www.w3.org/2000/svg" height="64" width="64" version="1.1" xmlns:cc="http://creativecommons.org/ns#" xmlns:xlink="http://www.w3.org/1999/xlink" viewBox="0 0 64 64.000001" xmlns:dc="http://purl.org/dc/elements/1.1/">
	<defs id="defs4">
		<linearGradient id="linearGradient6852" y2="1096.4" gradientUnits="userSpaceOnUse" x2="-64" gradientTransform="translate(-928.36 -1064.4)" y1="1096.4" x1="-120">
			<stop id="stop6848" stop-color="#1287de" offset="0"/>
			<stop id="stop6850" stop-color="#023962" offset="1"/>
		</linearGradient>
		<linearGradient id="linearGradient6844" y2="1122.4" gradientUnits="userSpaceOnUse" x2="-89" gradientTransform="translate(124 -2116.7)" y1="1070.4" x1="-89">
			<stop id="stop4867" stop-color="#fcfcfc" offset="0"/>
			<stop id="stop4869" stop-color="#dddbdb" offset="1"/>
		</linearGradient>
		<linearGradient id="linearGradient6927" y2="1095.4" gradientUnits="userSpaceOnUse" x2="-117" gradientTransform="matrix(1.4107 0 0 1 160.29 -76)" y1="1096.4" x1="-117">
			<stop id="stop4877" offset="0"/>
			<stop id="stop4879" stop-opacity="0" offset="1"/>
		</linearGradient>
		<linearGradient id="linearGradient6927-9" y2="1095.4" gradientUnits="userSpaceOnUse" x2="-117" gradientTransform="matrix(1.4107 0 0 -1 160.29 2116.7)" y1="1096.4" x1="-117">
			<stop id="stop6150" stop-color="#fff" offset="0"/>
			<stop id="stop6152" stop-color="#fff" stop-opacity="0" offset="1"/>
		</linearGradient>
		<linearGradient id="linearGradient6887" y2="1121.8" gradientUnits="userSpaceOnUse" x2="-88.092" gradientTransform="translate(124 -76)" y1="1077.6" x1="-88.092">
			<stop id="stop6883" stop-color="#37a4f5" offset="0"/>
			<stop id="stop6885" stop-color="#1287de" offset="1"/>
		</linearGradient>
	</defs>
	<metadata id="metadata7">
		<rdf:RDF>
			<cc:Work rdf:about="">
				<dc:format>image/svg+xml</dc:format>
				<dc:type rdf:resource="http://purl.org/dc/dcmitype/StillImage"/>
				<dc:title/>
			</cc:Work>
		</rdf:RDF>
	</metadata>
	<g id="layer1" transform="translate(0 -988.36)">
		<g>
			<circle id="path6752" style="color-rendering:auto;color:#000000;isolation:auto;mix-blend-mode:normal;shape-rendering:auto;solid-color:#000000;image-rendering:auto" cx="-1020.4" transform="rotate(-90)" cy="32" r="28" fill="url(#linearGradient6852)"/>
			<circle id="path6754" style="color-rendering:auto;color:#000000;isolation:auto;mix-blend-mode:normal;shape-rendering:auto;solid-color:#000000;image-rendering:auto" cx="32" transform="scale(1,-1)" cy="-1020.4" r="26" fill="url(#linearGradient6844)"/>
			<path id="rect6854" opacity=".1" style="color-rendering:auto;color:#000000;isolation:auto;mix-blend-mode:normal;shape-rendering:auto;solid-color:#000000;image-rendering:auto" d="m32 992.36a28 28 0 0 0 -28 28h56a28 28 0 0 0 -28 -28z"/>
			<path id="rect6917" opacity=".1" style="color-rendering:auto;color:#000000;isolation:auto;mix-blend-mode:normal;shape-rendering:auto;solid-color:#000000;image-rendering:auto" d="m4.0508 1019.4a28 28 0 0 0 -0.05078 1h56a28 28 0 0 0 -0.03516 -1h-55.914z" fill="url(#linearGradient6927)"/>
			<path id="rect6917-0" opacity=".1" style="color-rendering:auto;color:#000000;isolation:auto;mix-blend-mode:normal;shape-rendering:auto;solid-color:#000000;image-rendering:auto" d="m4 1020.4a28 28 0 0 0 0.0352 1h55.914a28 28 0 0 0 0.05074 -1h-56z" fill="url(#linearGradient6927-9)"/>
		</g>
		<g fill-rule="evenodd">
			<path id="path6822" d="m53.947 1002.1c-0.55225 0-1.1973 0.078-1.9473 0.2656-4 1-8.0614 3.7809-13 3-6.149-0.9723-6.6949-0.8062-8.8223-0.2481 0 0-0.17773 0.9801-1.1777 1.2481-2.1599 0.5787-7 1-9 2s-12 5-12 5 0 4 2 6l4 4-4 2s1 2-2 2c-1.3201 0-2.2344 0.3905-2.8652 0.8242a28 28 0 0 0 26.865 20.2 28 28 0 0 0 5.0918 -0.4883l0.908-1.5c0-3 2-6 2-6s-2-8 1-12 7-6 9-7 5-1 5-1c1.2732-0.2902 1.668-2.0215 1.668-2.0215s-0.37152-1.9843-1.668-1.9785l-3.6016 0.016 2.602-7s3-2 3-4c0-1.625-0.65967-3.2498-3.0527-3.2656z" fill="url(#linearGradient6887)"/>
			<path id="path6824" fill="#343031" d="m52 1002.4s1 1 2 1h2s0-2-1-2-3 1-3 1z"/>
			<path id="path6826" d="m10 1014.4s3-1 4-1 1 4 1 4l2 2s3-3 6-1 4 5-3 5c-5 0-6-3-8-5s-2-4-2-4z" fill="#023962"/>
			<path id="path6830" d="m28.663 1015.3s4.4476 0.4857 7.4476-1.5139c3-2 2.2983-3.2122 2.1382-3.7569-0.35016-1.1917-2.6942-1.8282-5.6906-0.8176-3.7513 1.2652-3.8951 6.0884-3.8951 6.0884z" fill="#343031"/>
			<path id="path6828" d="m30.438 1013.8c2.8232 0.1629 3.8295-0.1345 5.1894-0.8916 1.5436-0.8594 2.3595-2.6627 1.8106-3.1084-0.82321-0.6685-3.4861-0.2708-4.5581 0.3094-1.9665 1.0643-2.4419 3.6906-2.4419 3.6906z" fill="#fcfcfc"/>
			<path id="path6833" fill="#343031" d="m56 1007.4s-2 1-4 3-3 6-3 6 2 1 4 1 3-1 2-1-2-1-2-2 0-2 1-4 2-3 2-3z"/>
		</g>
		<g>
			<path id="path6835" style="color-rendering:auto;color:#000000;isolation:auto;mix-blend-mode:normal;shape-rendering:auto;solid-color:#000000;image-rendering:auto" d="m54 1016.9c0 0.2761-0.44772 0.5-1 0.5s-1-0.2239-1-0.5 0.44772-1.5 1-1.5 1 1.2239 1 1.5z" fill="#fff"/>
			<path id="path6752-1" style="color-rendering:auto;color:#000000;isolation:auto;mix-blend-mode:normal;shape-rendering:auto;solid-color:#000000;image-rendering:auto" d="m59.979 1019.8a28 28 0 0 1 -27.979 27.6 28 28 0 0 1 -27.978 -27.5 28 28 0 0 0 -0.022 0.5 28 28 0 0 0 28 28 28 28 0 0 0 28 -28 28 28 0 0 0 -0.0215 -0.5859z" fill="#023962"/>
			<path id="path6822-1" style="color-rendering:auto;text-decoration-color:#000000;color:#000000;isolation:auto;mix-blend-mode:normal;shape-rendering:auto;solid-color:#000000;block-progression:tb;text-decoration-line:none;text-decoration-style:solid;image-rendering:auto;white-space:normal;text-indent:0;text-transform:none" d="m54.791 1019.9c-0.3193 0-2.8818 0.1145-5.2383 1.0496-2 1-6.1935 2.8164-9.3535 7.0297-1.756 2.3414-1.9526 5.3673-1.8223 7.9736 0.11828 2.3655 0.51114 3.922 0.5918 4.2598-0.31561 0.4782-1.7884 2.8527-1.9199 5.832l-0.55664 0.9258c-1.0324 0.179-2.0727 0.3107-3.1172 0.3789l0.74414 0.9395c0.99683-0.071 1.9891-0.1958 2.9727-0.3731l0.908-1.4c0-3 2-6 2-6s-2-8 1-12 7-6 9-7 5-1 5-1c1.2732-0.2902 1.668-2.0215 1.668-2.0215s-0.31692 1.1111-1.877 1.5174z" fill-rule="evenodd" fill="#023962"/>
		</g>
	</g>
</svg>
