<?xml version="1.0" encoding="UTF-8" standalone="no"?>
<!-- Created with Inkscape (http://www.inkscape.org/) -->

<svg
   xmlns:dc="http://purl.org/dc/elements/1.1/"
   xmlns:cc="http://creativecommons.org/ns#"
   xmlns:rdf="http://www.w3.org/1999/02/22-rdf-syntax-ns#"
   xmlns:svg="http://www.w3.org/2000/svg"
   xmlns="http://www.w3.org/2000/svg"
   xmlns:xlink="http://www.w3.org/1999/xlink"
   xmlns:sodipodi="http://sodipodi.sourceforge.net/DTD/sodipodi-0.dtd"
   xmlns:inkscape="http://www.inkscape.org/namespaces/inkscape"
   id="svg2"
   height="64"
   viewBox="0 0 64 64.000001"
   width="64"
   version="1.1"
   inkscape:version="0.91 r13725"
   sodipodi:docname="android-file-transfer.svg">
  <sodipodi:namedview
     pagecolor="#ffffff"
     bordercolor="#666666"
     borderopacity="1"
     objecttolerance="10"
     gridtolerance="10"
     guidetolerance="10"
     inkscape:pageopacity="0"
     inkscape:pageshadow="2"
     inkscape:window-width="2817"
     inkscape:window-height="1513"
     id="namedview25"
     showgrid="false"
     inkscape:zoom="14.75"
     inkscape:cx="1.9158069"
     inkscape:cy="38.527086"
     inkscape:window-x="949"
     inkscape:window-y="148"
     inkscape:window-maximized="0"
     inkscape:current-layer="svg2">
    <inkscape:grid
       type="xygrid"
       id="grid4161" />
  </sodipodi:namedview>
  <defs
     id="defs4">
    <linearGradient
       inkscape:collect="always"
       id="linearGradient4153">
      <stop
         style="stop-color:#dddbdb;stop-opacity:1;"
         offset="0"
         id="stop4155" />
      <stop
         style="stop-color:#cac6c9;stop-opacity:1"
         offset="1"
         id="stop4157" />
    </linearGradient>
    <linearGradient
       inkscape:collect="always"
       xlink:href="#linearGradient4934"
       id="linearGradient4940"
       x1="33"
       y1="60"
       x2="33"
       y2="25"
       gradientUnits="userSpaceOnUse" />
    <linearGradient
       inkscape:collect="always"
       id="linearGradient4934">
      <stop
         style="stop-color:#4e8133;stop-opacity:1"
         offset="0"
         id="stop4936" />
      <stop
         style="stop-color:#89c369;stop-opacity:1"
         offset="1"
         id="stop4938" />
    </linearGradient>
    <linearGradient
       inkscape:collect="always"
       xlink:href="#linearGradient5033"
       id="linearGradient5039"
       x1="31"
       y1="28"
       x2="31"
       y2="10"
       gradientUnits="userSpaceOnUse" />
    <linearGradient
       inkscape:collect="always"
       id="linearGradient5033">
      <stop
         style="stop-color:#af5505;stop-opacity:1"
         offset="0"
         id="stop5035" />
      <stop
         style="stop-color:#e4720c;stop-opacity:1"
         offset="1"
         id="stop5037" />
    </linearGradient>
    <linearGradient
       inkscape:collect="always"
       xlink:href="#linearGradient4962"
       id="linearGradient4968"
       x1="28"
       y1="994.36218"
       x2="28"
       y2="1024.3622"
       gradientUnits="userSpaceOnUse"
       gradientTransform="translate(0,-988.3622)" />
    <linearGradient
       inkscape:collect="always"
       id="linearGradient4962">
      <stop
         style="stop-color:#534d52;stop-opacity:1;"
         offset="0"
         id="stop4964" />
      <stop
         style="stop-color:#343031;stop-opacity:1"
         offset="1"
         id="stop4966" />
    </linearGradient>
    <linearGradient
       inkscape:collect="always"
       xlink:href="#linearGradient4153"
       id="linearGradient4159"
       x1="34"
       y1="3.6530707"
       x2="34"
       y2="32"
       gradientUnits="userSpaceOnUse" />
  </defs>
  <metadata
     id="metadata7">
    <rdf:RDF>
      <cc:Work
         rdf:about="">
        <dc:format>image/svg+xml</dc:format>
        <dc:type
           rdf:resource="http://purl.org/dc/dcmitype/StillImage" />
        <dc:title />
      </cc:Work>
    </rdf:RDF>
  </metadata>
  <rect
     style="color:#000000;clip-rule:nonzero;display:inline;overflow:visible;visibility:visible;opacity:1;isolation:auto;mix-blend-mode:normal;color-interpolation:sRGB;color-interpolation-filters:linearRGB;solid-color:#000000;solid-opacity:1;fill:url(#linearGradient4968);fill-opacity:1;fill-rule:nonzero;stroke:none;stroke-width:2;stroke-linecap:round;stroke-linejoin:miter;stroke-miterlimit:4;stroke-dasharray:none;stroke-dashoffset:0;stroke-opacity:1;color-rendering:auto;image-rendering:auto;shape-rendering:auto;text-rendering:auto;enable-background:accumulate"
     id="rect4960"
     width="28"
     height="30"
     x="18"
     y="5.9999828"
     ry="0" />
  <path
     style="color:#000000;clip-rule:nonzero;display:inline;overflow:visible;visibility:visible;opacity:1;isolation:auto;mix-blend-mode:normal;color-interpolation:sRGB;color-interpolation-filters:linearRGB;solid-color:#000000;solid-opacity:1;fill:url(#linearGradient5039);fill-opacity:1;fill-rule:nonzero;stroke:none;stroke-width:2;stroke-linecap:round;stroke-linejoin:miter;stroke-miterlimit:4;stroke-dasharray:none;stroke-dashoffset:0;stroke-opacity:1;color-rendering:auto;image-rendering:auto;shape-rendering:auto;text-rendering:auto;enable-background:accumulate"
     d="m 21,10 c -0.55401,0 -1,0.44599 -1,1 l 0,16 c 0,0.554 0.44599,1 1,1 l 2,0 c 0.55401,0 1,-0.446 1,-1 l 0,-16 c 0,-0.55401 -0.44599,-1 -1,-1 l -2,0 z m 20,0 c -0.55401,0 -1,0.44599 -1,1 l 0,16 c 0,0.554 0.44599,1 1,1 l 2,0 c 0.55401,0 1,-0.446 1,-1 l 0,-16 c 0,-0.55401 -0.44599,-1 -1,-1 l -2,0 z m -14,2 c -0.55401,0 -1,0.446 -1,1 l 0,12 c 0,0.554 0.44599,1 1,1 l 2,0 c 0.55401,0 1,-0.446 1,-1 l 0,-12 c 0,-0.554 -0.44599,-1 -1,-1 l -2,0 z m 8,0 c -0.55401,0 -1,0.446 -1,1 l 0,12 c 0,0.554 0.44599,1 1,1 l 2,0 c 0.55401,0 1,-0.446 1,-1 l 0,-12 c 0,-0.554 -0.44599,-1 -1,-1 l -2,0 z"
     id="rect4970-9"
     inkscape:connector-curvature="0" />
  <path
     inkscape:connector-curvature="0"
     style="color:#000000;clip-rule:nonzero;display:inline;overflow:visible;visibility:visible;opacity:1;isolation:auto;mix-blend-mode:normal;color-interpolation:sRGB;color-interpolation-filters:linearRGB;solid-color:#000000;solid-opacity:1;fill:url(#linearGradient4159);fill-opacity:1;fill-rule:nonzero;stroke:none;stroke-width:2;stroke-linecap:butt;stroke-linejoin:miter;stroke-miterlimit:4;stroke-dasharray:none;stroke-dashoffset:0;stroke-opacity:1;color-rendering:auto;image-rendering:auto;shape-rendering:auto;text-rendering:auto;enable-background:accumulate"
     d="m 18,4 c -1.10801,0 -2,0.8919904 -2,2 l 0,35 c 0,1.10801 0.89199,2 2,2 l 28,0 c 1.10801,0 2,-0.89199 2,-2 L 48,6 C 48,4.8919904 47.10801,4 46,4 L 18,4 Z m 4,10 6,0 0,6 -6,0 0,-6 z m 14,0 6,0 0,6 -6,0 0,-6 z"
     id="rect4886" />
  <path
     style="color:#000000;clip-rule:nonzero;display:inline;overflow:visible;visibility:visible;opacity:1;isolation:auto;mix-blend-mode:normal;color-interpolation:sRGB;color-interpolation-filters:linearRGB;solid-color:#000000;solid-opacity:1;fill:url(#linearGradient4940);fill-opacity:1;fill-rule:nonzero;stroke:none;stroke-width:2;stroke-linecap:butt;stroke-linejoin:miter;stroke-miterlimit:4;stroke-dasharray:none;stroke-dashoffset:0;stroke-opacity:1;color-rendering:auto;image-rendering:auto;shape-rendering:auto;text-rendering:auto;enable-background:accumulate"
     d="m 12.033203,24.9883 a 1.0001,1.0001 0 0 0 -0.09961,0 1.0001,1.0001 0 0 0 -0.734375,1.6114 l 4.101562,5.4668 C 13.421648,32.3982 12,34.0235 12,36 l 0,20 c 0,2.216 1.78399,4 4,4 l 32,0 c 2.21601,0 4,-1.784 4,-4 l 0,-20 c 0,-1.9765 -1.42165,-3.6018 -3.30078,-3.9316 l 4.10156,-5.4668 a 1.0001,1.0001 0 0 0 -0.76367,-1.6114 1.0001,1.0001 0 0 0 -0.83789,0.4102 L 46.25,32 17.75,32 12.800781,25.4004 a 1.0001,1.0001 0 0 0 -0.767578,-0.4121 z"
     id="rect4888"
     inkscape:connector-curvature="0" />
  <path
     style="color:#000000;clip-rule:nonzero;display:inline;overflow:visible;visibility:visible;opacity:1;isolation:auto;mix-blend-mode:normal;color-interpolation:sRGB;color-interpolation-filters:linearRGB;solid-color:#000000;solid-opacity:1;fill:#2b481c;fill-opacity:1;fill-rule:nonzero;stroke:none;stroke-width:2;stroke-linecap:round;stroke-linejoin:miter;stroke-miterlimit:4;stroke-dasharray:none;stroke-dashoffset:0;stroke-opacity:1;color-rendering:auto;image-rendering:auto;shape-rendering:auto;text-rendering:auto;enable-background:accumulate"
     d="m 12,55 0,1 c 0,2.216 1.783989,4 4,4 l 32,0 c 2.21601,0 4,-1.784 4,-4 l 0,-1 c 0,2.216 -1.78399,4 -4,4 l -32,0 c -2.216011,0 -4,-1.784 -4,-4 z"
     id="rect4916"
     inkscape:connector-curvature="0" />
  <circle
     style="color:#000000;clip-rule:nonzero;display:inline;overflow:visible;visibility:visible;opacity:1;isolation:auto;mix-blend-mode:normal;color-interpolation:sRGB;color-interpolation-filters:linearRGB;solid-color:#000000;solid-opacity:1;fill:#89c369;fill-opacity:1;fill-rule:nonzero;stroke:none;stroke-width:2;stroke-linecap:round;stroke-linejoin:miter;stroke-miterlimit:4;stroke-dasharray:none;stroke-dashoffset:0;stroke-opacity:1;color-rendering:auto;image-rendering:auto;shape-rendering:auto;text-rendering:auto;enable-background:accumulate"
     id="path4899-5"
     cx="22"
     cy="42.999981"
     r="2" />
  <circle
     style="color:#000000;clip-rule:nonzero;display:inline;overflow:visible;visibility:visible;opacity:1;isolation:auto;mix-blend-mode:normal;color-interpolation:sRGB;color-interpolation-filters:linearRGB;solid-color:#000000;solid-opacity:1;fill:#343031;fill-opacity:1;fill-rule:nonzero;stroke:none;stroke-width:2;stroke-linecap:round;stroke-linejoin:miter;stroke-miterlimit:4;stroke-dasharray:none;stroke-dashoffset:0;stroke-opacity:1;color-rendering:auto;image-rendering:auto;shape-rendering:auto;text-rendering:auto;enable-background:accumulate"
     id="path4899"
     cx="22"
     cy="41.999981"
     r="2" />
  <circle
     style="color:#000000;clip-rule:nonzero;display:inline;overflow:visible;visibility:visible;opacity:1;isolation:auto;mix-blend-mode:normal;color-interpolation:sRGB;color-interpolation-filters:linearRGB;solid-color:#000000;solid-opacity:1;fill:#89c369;fill-opacity:1;fill-rule:nonzero;stroke:none;stroke-width:2;stroke-linecap:round;stroke-linejoin:miter;stroke-miterlimit:4;stroke-dasharray:none;stroke-dashoffset:0;stroke-opacity:1;color-rendering:auto;image-rendering:auto;shape-rendering:auto;text-rendering:auto;enable-background:accumulate"
     id="path4899-7-6"
     cx="42"
     cy="42.999981"
     r="2" />
  <circle
     style="color:#000000;clip-rule:nonzero;display:inline;overflow:visible;visibility:visible;opacity:1;isolation:auto;mix-blend-mode:normal;color-interpolation:sRGB;color-interpolation-filters:linearRGB;solid-color:#000000;solid-opacity:1;fill:#343031;fill-opacity:1;fill-rule:nonzero;stroke:none;stroke-width:2;stroke-linecap:round;stroke-linejoin:miter;stroke-miterlimit:4;stroke-dasharray:none;stroke-dashoffset:0;stroke-opacity:1;color-rendering:auto;image-rendering:auto;shape-rendering:auto;text-rendering:auto;enable-background:accumulate"
     id="path4899-7"
     cx="42"
     cy="41.999981"
     r="2" />
</svg>
