<?xml version="1.0" encoding="UTF-8" standalone="no"?>
<!-- Created with Inkscape (http://www.inkscape.org/) -->

<svg
   xmlns:dc="http://purl.org/dc/elements/1.1/"
   xmlns:cc="http://creativecommons.org/ns#"
   xmlns:rdf="http://www.w3.org/1999/02/22-rdf-syntax-ns#"
   xmlns:svg="http://www.w3.org/2000/svg"
   xmlns="http://www.w3.org/2000/svg"
   xmlns:xlink="http://www.w3.org/1999/xlink"
   xmlns:sodipodi="http://sodipodi.sourceforge.net/DTD/sodipodi-0.dtd"
   xmlns:inkscape="http://www.inkscape.org/namespaces/inkscape"
   id="svg2"
   height="64"
   viewBox="0 0 64 64.000001"
   width="64"
   version="1.1"
   inkscape:version="0.91 r13725"
   sodipodi:docname="mediacontrol.svg">
  <sodipodi:namedview
     pagecolor="#ffffff"
     bordercolor="#666666"
     borderopacity="1"
     objecttolerance="10"
     gridtolerance="10"
     guidetolerance="10"
     inkscape:pageopacity="0"
     inkscape:pageshadow="2"
     inkscape:window-width="1366"
     inkscape:window-height="697"
     id="namedview22"
     showgrid="false"
     inkscape:zoom="2.828427"
     inkscape:cx="-13.253786"
     inkscape:cy="62.838667"
     inkscape:window-x="0"
     inkscape:window-y="0"
     inkscape:window-maximized="0"
     inkscape:current-layer="svg2" />
  <defs
     id="defs4">
    <linearGradient
       inkscape:collect="always"
       xlink:href="#linearGradient4865"
       id="linearGradient4871-3"
       x1="20.000017"
       y1="1032.3622"
       x2="43.999985"
       y2="1032.3622"
       gradientUnits="userSpaceOnUse"
       gradientTransform="matrix(0,-1,1,0,-1000.3622,76)" />
    <linearGradient
       inkscape:collect="always"
       id="linearGradient4865">
      <stop
         style="stop-color:#534d52;stop-opacity:1;"
         offset="0"
         id="stop4867" />
      <stop
         style="stop-color:#343031;stop-opacity:1"
         offset="1"
         id="stop4869" />
    </linearGradient>
    <linearGradient
       inkscape:collect="always"
       xlink:href="#linearGradient4865"
       id="linearGradient4903"
       x1="29"
       y1="1005.3622"
       x2="35"
       y2="1005.3622"
       gradientUnits="userSpaceOnUse"
       gradientTransform="translate(-15.00002,-1037.3622)" />
    <linearGradient
       inkscape:collect="always"
       xlink:href="#linearGradient4881"
       id="linearGradient4887"
       x1="27.000017"
       y1="1005.3622"
       x2="36.999985"
       y2="1005.3622"
       gradientUnits="userSpaceOnUse"
       gradientTransform="translate(-15.00002,-1037.3622)" />
    <linearGradient
       inkscape:collect="always"
       id="linearGradient4881">
      <stop
         style="stop-color:#f1d23b;stop-opacity:1;"
         offset="0"
         id="stop4883" />
      <stop
         style="stop-color:#dbb715;stop-opacity:1"
         offset="1"
         id="stop4885" />
    </linearGradient>
    <linearGradient
       inkscape:collect="always"
       xlink:href="#linearGradient4865"
       id="linearGradient4879"
       x1="25"
       y1="1005.3622"
       x2="39"
       y2="1005.3622"
       gradientUnits="userSpaceOnUse"
       gradientTransform="translate(-49,-973.36218)" />
    <linearGradient
       inkscape:collect="always"
       xlink:href="#linearGradient4760"
       id="linearGradient4766"
       x1="48"
       y1="8"
       x2="48"
       y2="56"
       gradientUnits="userSpaceOnUse" />
    <linearGradient
       inkscape:collect="always"
       id="linearGradient4760">
      <stop
         style="stop-color:#e7e5e5;stop-opacity:1"
         offset="0"
         id="stop4762" />
      <stop
         style="stop-color:#cac6c9;stop-opacity:1"
         offset="1"
         id="stop4764" />
    </linearGradient>
    <linearGradient
       inkscape:collect="always"
       xlink:href="#linearGradient4865"
       id="linearGradient4911"
       x1="26.000017"
       y1="1032.3622"
       x2="37.999985"
       y2="1032.3622"
       gradientUnits="userSpaceOnUse"
       gradientTransform="translate(12,-1064.3622)" />
    <linearGradient
       inkscape:collect="always"
       xlink:href="#linearGradient4881"
       id="linearGradient4895"
       x1="24.000017"
       y1="1032.3622"
       x2="39.999985"
       y2="1032.3622"
       gradientUnits="userSpaceOnUse"
       gradientTransform="translate(12,-1064.3622)" />
    <linearGradient
       inkscape:collect="always"
       xlink:href="#linearGradient4865"
       id="linearGradient4871"
       x1="20.000017"
       y1="1032.3622"
       x2="43.999985"
       y2="1032.3622"
       gradientUnits="userSpaceOnUse"
       gradientTransform="translate(-76,-1000.3622)" />
    <linearGradient
       gradientTransform="translate(0,-988.3622)"
       inkscape:collect="always"
       xlink:href="#linearGradient4760"
       id="linearGradient4774"
       x1="48"
       y1="996.36218"
       x2="48"
       y2="1044.3622"
       gradientUnits="userSpaceOnUse" />
    <linearGradient
       gradientTransform="translate(0,-988.3622)"
       inkscape:collect="always"
       xlink:href="#linearGradient4865"
       id="linearGradient5212"
       x1="60"
       y1="988.36218"
       x2="60"
       y2="1060.3622"
       gradientUnits="userSpaceOnUse" />
    <linearGradient
       gradientTransform="translate(0,-988.3622)"
       inkscape:collect="always"
       xlink:href="#linearGradient4760"
       id="linearGradient4863"
       x1="44"
       y1="992.36218"
       x2="44"
       y2="1056.3622"
       gradientUnits="userSpaceOnUse" />
  </defs>
  <metadata
     id="metadata7">
    <rdf:RDF>
      <cc:Work
         rdf:about="">
        <dc:format>image/svg+xml</dc:format>
        <dc:type
           rdf:resource="http://purl.org/dc/dcmitype/StillImage" />
        <dc:title />
      </cc:Work>
    </rdf:RDF>
  </metadata>
  <rect
     style="opacity:1;fill:url(#linearGradient4863);fill-opacity:1;stroke:none;stroke-width:8;stroke-miterlimit:4;stroke-dasharray:none;stroke-opacity:1"
     id="rect4532"
     width="40"
     height="56"
     x="12"
     y="3.9999831"
     ry="4.0000172" />
  <path
     inkscape:connector-curvature="0"
     style="opacity:1;fill:#7a747c;fill-opacity:1;stroke:none;stroke-width:8;stroke-miterlimit:4;stroke-dasharray:none;stroke-opacity:1"
     d="m 12,55 0,1 c 0,2.21601 1.78399,4 4,4 l 32,0 c 2.21601,0 4,-1.78399 4,-4 l 0,-1 c 0,2.21601 -1.78399,4 -4,4 l -32,0 c -2.21601,0 -4,-1.78399 -4,-4 z"
     id="rect4532-3" />
  <rect
     style="opacity:1;fill:url(#linearGradient5212);fill-opacity:1;stroke:none;stroke-width:8;stroke-miterlimit:4;stroke-dasharray:none;stroke-opacity:1"
     id="rect5204"
     width="32"
     height="56"
     x="16"
     y="3.9999831"
     ry="0" />
  <rect
     style="opacity:1;fill:url(#linearGradient4774);fill-opacity:1;stroke:none;stroke-width:8;stroke-miterlimit:4;stroke-dasharray:none;stroke-opacity:1"
     id="rect4647"
     width="27.999962"
     height="27.999962"
     x="18"
     y="29.999983"
     ry="4.0000172" />
  <circle
     style="opacity:1;fill:url(#linearGradient4871);fill-opacity:1;stroke:none;stroke-width:8;stroke-miterlimit:4;stroke-dasharray:none;stroke-opacity:1"
     id="path4534-9"
     cx="-43.999985"
     cy="32"
     r="11.999983"
     transform="matrix(0,-1,1,0,0,0)" />
  <circle
     style="opacity:1;fill:#343031;fill-opacity:1;stroke:none;stroke-width:8;stroke-miterlimit:4;stroke-dasharray:none;stroke-opacity:1"
     id="path4582"
     cx="21"
     cy="32.999985"
     r="1" />
  <circle
     style="opacity:1;fill:#343031;fill-opacity:1;stroke:none;stroke-width:8;stroke-miterlimit:4;stroke-dasharray:none;stroke-opacity:1"
     id="path4582-2"
     cx="21"
     cy="54.999985"
     r="1" />
  <circle
     style="opacity:1;fill:#343031;fill-opacity:1;stroke:none;stroke-width:8;stroke-miterlimit:4;stroke-dasharray:none;stroke-opacity:1"
     id="path4582-7"
     cx="43"
     cy="32.999985"
     r="1" />
  <circle
     style="opacity:1;fill:#343031;fill-opacity:1;stroke:none;stroke-width:8;stroke-miterlimit:4;stroke-dasharray:none;stroke-opacity:1"
     id="path4582-2-0"
     cx="43"
     cy="54.999985"
     r="1" />
  <circle
     style="opacity:1;fill:url(#linearGradient4895);fill-opacity:1;stroke:none;stroke-width:8;stroke-miterlimit:4;stroke-dasharray:none;stroke-opacity:1"
     id="path4534-9-9"
     cx="43.999985"
     cy="-32"
     r="7.9999828"
     transform="matrix(0,1,-1,0,0,0)" />
  <circle
     style="opacity:1;fill:url(#linearGradient4911);fill-opacity:1;stroke:none;stroke-width:8;stroke-miterlimit:4;stroke-dasharray:none;stroke-opacity:1"
     id="path4534-9-9-3"
     cx="43.999985"
     cy="-32"
     r="5.9999828"
     transform="matrix(0,1,-1,0,0,0)" />
  <path
     inkscape:connector-curvature="0"
     style="opacity:1;fill:url(#linearGradient4766);fill-opacity:1;stroke:none;stroke-width:8;stroke-miterlimit:4;stroke-dasharray:none;stroke-opacity:1"
     d="M 25,6.0000004 A 4,4 0 0 0 21,10 4,4 0 0 0 23.619141,13.748047 9,9 0 0 0 23,17 9,9 0 0 0 23.607422,20.251953 4,4 0 0 0 21,24 4,4 0 0 0 25,28 4,4 0 0 0 28.748047,25.380859 9,9 0 0 0 32,26 9,9 0 0 0 35.251953,25.392578 4,4 0 0 0 39,28 4,4 0 0 0 43,24 4,4 0 0 0 40.380859,20.251953 9,9 0 0 0 41,17 9,9 0 0 0 40.392578,13.748047 4,4 0 0 0 43,10 4,4 0 0 0 39,6.0000004 4,4 0 0 0 35.251953,8.619141 9,9 0 0 0 32,8.0000004 9,9 0 0 0 28.748047,8.6074223 4,4 0 0 0 25,6.0000004 Z"
     id="path4688" />
  <circle
     style="opacity:1;fill:url(#linearGradient4879);fill-opacity:1;stroke:none;stroke-width:8;stroke-miterlimit:4;stroke-dasharray:none;stroke-opacity:1"
     id="path4534-2-1"
     cx="-16.999983"
     cy="32"
     r="7"
     transform="matrix(0,-1,1,0,0,0)" />
  <circle
     style="opacity:1;fill:url(#linearGradient4887);fill-opacity:1;stroke:none;stroke-width:8;stroke-miterlimit:4;stroke-dasharray:none;stroke-opacity:1"
     id="path4534-2"
     cx="16.999983"
     cy="-32"
     r="4.9999828"
     transform="matrix(0,1,-1,0,0,0)" />
  <circle
     style="opacity:1;fill:url(#linearGradient4903);fill-opacity:1;stroke:none;stroke-width:8;stroke-miterlimit:4;stroke-dasharray:none;stroke-opacity:1"
     id="path4534-2-0"
     cx="16.999983"
     cy="-32"
     r="3"
     transform="matrix(0,1,-1,0,0,0)" />
  <circle
     style="opacity:1;fill:#343031;fill-opacity:1;stroke:none;stroke-width:8;stroke-miterlimit:4;stroke-dasharray:none;stroke-opacity:1"
     id="path4688-6"
     cx="39"
     cy="23.999983"
     r="1" />
  <circle
     style="opacity:1;fill:#343031;fill-opacity:1;stroke:none;stroke-width:8;stroke-miterlimit:4;stroke-dasharray:none;stroke-opacity:1"
     id="path4688-6-6"
     cx="39"
     cy="9.9999828"
     r="1" />
  <circle
     style="opacity:1;fill:#343031;fill-opacity:1;stroke:none;stroke-width:8;stroke-miterlimit:4;stroke-dasharray:none;stroke-opacity:1"
     id="path4688-6-6-8"
     cx="25"
     cy="9.9999828"
     r="1" />
  <circle
     style="opacity:1;fill:#343031;fill-opacity:1;stroke:none;stroke-width:8;stroke-miterlimit:4;stroke-dasharray:none;stroke-opacity:1"
     id="path4688-6-6-8-9"
     cx="25"
     cy="23.999983"
     r="1" />
  <path
     style="opacity:1;fill:#f5f4f4;fill-opacity:1;stroke:none;stroke-width:8;stroke-miterlimit:4;stroke-dasharray:none;stroke-opacity:1"
     d="m 22,30 c -2.21601,0 -4,1.784 -4,4 l 0,1 c 0,-2.216 1.78399,-4 4,-4 l 20,0 c 2.21601,0 4,1.784 4,4 l 0,-1 c 0,-2.216 -1.78399,-4 -4,-4 l -20,0 z"
     id="rect4647-9"
     inkscape:connector-curvature="0" />
  <path
     style="opacity:1;fill:#f5f4f4;fill-opacity:1;stroke:none;stroke-width:8;stroke-miterlimit:4;stroke-dasharray:none;stroke-opacity:1"
     d="M 25,6.0000004 A 4,4 0 0 0 21,10 a 4,4 0 0 0 0.03711,0.5 4,4 0 0 1 3.962891,-3.4999996 4,4 0 0 1 3.748047,2.60742 A 9,9 0 0 1 32,9.0000004 9,9 0 0 1 35.251953,9.6191404 4,4 0 0 1 39,7.0000004 4,4 0 0 1 42.964844,10.50391 4,4 0 0 0 43,10 4,4 0 0 0 39,6.0000004 4,4 0 0 0 35.251953,8.6191404 9,9 0 0 0 32,8.0000004 9,9 0 0 0 28.748047,8.6074204 4,4 0 0 0 25,6.0000004 Z M 23.328125,14.623 A 9,9 0 0 0 23,17 a 9,9 0 0 0 0.02148,0.4277 9,9 0 0 1 0.597657,-2.6797 4,4 0 0 1 -0.291016,-0.125 z m 17.34375,0.01 a 4,4 0 0 1 -0.279297,0.1191 9,9 0 0 1 0.585938,2.8243 9,9 0 0 0 0.02148,-0.5723 9,9 0 0 0 -0.328125,-2.3711 z m -17.34375,5.7422 A 4,4 0 0 0 21,24 a 4,4 0 0 0 0.03516,0.4961 4,4 0 0 1 2.572266,-3.2441 9,9 0 0 1 -0.279297,-0.8809 z m 17.341797,0.01 a 9,9 0 0 1 -0.289063,0.875 4,4 0 0 1 2.582032,3.248 4,4 0 0 0 0.03711,-0.5 4,4 0 0 0 -2.330078,-3.623 z"
     id="path4688-5"
     inkscape:connector-curvature="0" />
  <path
     inkscape:connector-curvature="0"
     style="opacity:1;fill:url(#linearGradient4871-3);fill-opacity:1;stroke:none;stroke-width:8;stroke-miterlimit:4;stroke-dasharray:none;stroke-opacity:1"
     d="M 32,32 A 11.999983,11.999983 0 0 0 20,44 11.999983,11.999983 0 0 0 20.019531,44.59375 11.999983,11.999983 0 0 1 32,33 11.999983,11.999983 0 0 1 43.980469,44.40625 11.999983,11.999983 0 0 0 44,44 11.999983,11.999983 0 0 0 32,32 Z"
     id="path4534-9-4" />
  <path
     inkscape:connector-curvature="0"
     style="opacity:1;fill:#343031;fill-opacity:1;stroke:none;stroke-width:8;stroke-miterlimit:4;stroke-dasharray:none;stroke-opacity:1"
     d="m 32,10 a 7,7 0 0 0 -7,7 7,7 0 0 0 0.02344,0.541016 A 7,7 0 0 1 32,11 7,7 0 0 1 38.976562,17.458984 7,7 0 0 0 39,17 7,7 0 0 0 32,10 Z"
     id="path4534-2-1-7" />
  <rect
     style="opacity:1;fill:#343031;fill-opacity:1;stroke:none;stroke-width:8;stroke-miterlimit:4;stroke-dasharray:none;stroke-opacity:1"
     id="rect5204-4"
     width="32"
     height="0.99996519"
     x="16"
     y="58.999985"
     ry="0" />
</svg>
