<?xml version="1.0" encoding="UTF-8" standalone="no"?>
<!-- Created with Inkscape (http://www.inkscape.org/) -->

<svg
   xmlns:dc="http://purl.org/dc/elements/1.1/"
   xmlns:cc="http://creativecommons.org/ns#"
   xmlns:rdf="http://www.w3.org/1999/02/22-rdf-syntax-ns#"
   xmlns:svg="http://www.w3.org/2000/svg"
   xmlns="http://www.w3.org/2000/svg"
   xmlns:xlink="http://www.w3.org/1999/xlink"
   xmlns:sodipodi="http://sodipodi.sourceforge.net/DTD/sodipodi-0.dtd"
   xmlns:inkscape="http://www.inkscape.org/namespaces/inkscape"
   id="svg2"
   height="64"
   viewBox="0 0 64 64.000001"
   width="64"
   version="1.1"
   inkscape:version="0.91 r13725"
   sodipodi:docname="aptana.svg">
  <sodipodi:namedview
     pagecolor="#ffffff"
     bordercolor="#666666"
     borderopacity="1"
     objecttolerance="10"
     gridtolerance="10"
     guidetolerance="10"
     inkscape:pageopacity="0"
     inkscape:pageshadow="2"
     inkscape:window-width="2817"
     inkscape:window-height="1513"
     id="namedview25"
     showgrid="false"
     inkscape:zoom="16"
     inkscape:cx="8.2971225"
     inkscape:cy="26.343473"
     inkscape:window-x="0"
     inkscape:window-y="0"
     inkscape:window-maximized="0"
     inkscape:current-layer="svg2"
     inkscape:snap-bbox="true"
     inkscape:bbox-nodes="true">
    <inkscape:grid
       type="xygrid"
       id="grid4161" />
  </sodipodi:namedview>
  <defs
     id="defs4">
    <linearGradient
       inkscape:collect="always"
       xlink:href="#linearGradient6334"
       id="linearGradient6340"
       x1="19"
       y1="1020.3622"
       x2="45"
       y2="1020.3622"
       gradientUnits="userSpaceOnUse"
       gradientTransform="matrix(0,1,-1,0,1052.3622,4e-7)" />
    <linearGradient
       inkscape:collect="always"
       id="linearGradient6334">
      <stop
         style="stop-color:#fcfcfc;stop-opacity:1"
         offset="0"
         id="stop6336" />
      <stop
         style="stop-color:#e7e5e5;stop-opacity:1"
         offset="1"
         id="stop6338" />
    </linearGradient>
    <linearGradient
       id="linearGradient5859-2-9"
       y2="1250.4"
       gradientUnits="userSpaceOnUse"
       x2="843"
       gradientTransform="matrix(1.3333,0,0,1,-1098.7,-1217.3)"
       y1="1249.4"
       x1="843">
      <stop
         id="stop13572"
         stop-color="#fff"
         offset="0" />
      <stop
         id="stop13574"
         stop-color="#fff"
         stop-opacity="0"
         offset="1" />
    </linearGradient>
    <linearGradient
       id="linearGradient5859-2"
       y2="1250.4"
       gradientUnits="userSpaceOnUse"
       x2="843"
       gradientTransform="matrix(1.3333,0,0,1,-1098.7,-1281.4)"
       y1="1249.4"
       x1="843">
      <stop
         id="stop13580"
         offset="0" />
      <stop
         id="stop13582"
         stop-opacity="0"
         offset="1" />
    </linearGradient>
    <linearGradient
       inkscape:collect="always"
       xlink:href="#linearGradient6288"
       id="linearGradient6294"
       x1="976.79968"
       y1="-32"
       x2="1044.3622"
       y2="-32"
       gradientUnits="userSpaceOnUse"
       gradientTransform="translate(-1052.3622,0)" />
    <linearGradient
       inkscape:collect="always"
       id="linearGradient6288">
      <stop
         style="stop-color:#f1d23b;stop-opacity:1"
         offset="0"
         id="stop6290" />
      <stop
         style="stop-color:#e4720c;stop-opacity:1"
         offset="1"
         id="stop6292" />
    </linearGradient>
  </defs>
  <metadata
     id="metadata7">
    <rdf:RDF>
      <cc:Work
         rdf:about="">
        <dc:format>image/svg+xml</dc:format>
        <dc:type
           rdf:resource="http://purl.org/dc/dcmitype/StillImage" />
        <dc:title />
      </cc:Work>
    </rdf:RDF>
  </metadata>
  <rect
     style="color:#000000;clip-rule:nonzero;display:inline;overflow:visible;visibility:visible;opacity:1;isolation:auto;mix-blend-mode:normal;color-interpolation:sRGB;color-interpolation-filters:linearRGB;solid-color:#000000;solid-opacity:1;fill:url(#linearGradient6294);fill-opacity:1;fill-rule:nonzero;stroke:none;stroke-width:2;stroke-linecap:butt;stroke-linejoin:miter;stroke-miterlimit:4;stroke-dasharray:none;stroke-dashoffset:0;stroke-opacity:1;color-rendering:auto;image-rendering:auto;shape-rendering:auto;text-rendering:auto;enable-background:accumulate"
     id="rect4991-98"
     width="48"
     height="48"
     x="-55.999985"
     y="-56"
     ry="4.0000172"
     transform="matrix(0,-1,-1,0,0,0)" />
  <path
     style="color:#000000;clip-rule:nonzero;display:inline;overflow:visible;visibility:visible;opacity:1;isolation:auto;mix-blend-mode:normal;color-interpolation:sRGB;color-interpolation-filters:linearRGB;solid-color:#000000;solid-opacity:1;fill:#e4720c;fill-opacity:1;fill-rule:nonzero;stroke:none;stroke-width:2;stroke-linecap:butt;stroke-linejoin:miter;stroke-miterlimit:4;stroke-dasharray:none;stroke-dashoffset:0;stroke-opacity:1;color-rendering:auto;image-rendering:auto;shape-rendering:auto;text-rendering:auto;enable-background:accumulate"
     d="m 8,51 0,1 c 0,2.216 1.78399,4 4,4 l 40,0 c 2.21601,0 4,-1.784 4,-4 l 0,-1 c 0,2.216 -1.78399,4 -4,4 L 12,55 C 9.78399,55 8,53.216 8,51 Z"
     id="rect4991-9-0"
     inkscape:connector-curvature="0" />
  <path
     inkscape:connector-curvature="0"
     id="rect5987-8"
     style="color:#000000;opacity:0.1;isolation:auto;mix-blend-mode:normal;solid-color:#000000;color-rendering:auto;image-rendering:auto;shape-rendering:auto"
     d="m 12,8.0800004 c -2.216,0 -4,1.784 -4,3.9999996 l 0,20 48,0 0,-20 C 56,9.8640004 54.216,8.0800004 52,8.0800004 l -40,0 z" />
  <rect
     id="rect5825-4"
     style="color:#000000;opacity:0.05;isolation:auto;mix-blend-mode:normal;solid-color:#000000;fill:url(#linearGradient5859-2);color-rendering:auto;image-rendering:auto;shape-rendering:auto"
     transform="scale(1,-1)"
     ry="0"
     height="1"
     width="48"
     y="-32.080002"
     x="8" />
  <rect
     id="rect5825-4-4"
     style="color:#000000;opacity:0.05;isolation:auto;mix-blend-mode:normal;solid-color:#000000;fill:url(#linearGradient5859-2-9);color-rendering:auto;image-rendering:auto;shape-rendering:auto"
     ry="0"
     height="1"
     width="48"
     y="32.080002"
     x="8" />
  <path
     style="color:#000000;clip-rule:nonzero;display:inline;overflow:visible;visibility:visible;opacity:1;isolation:auto;mix-blend-mode:normal;color-interpolation:sRGB;color-interpolation-filters:linearRGB;solid-color:#000000;solid-opacity:1;fill:url(#linearGradient6340);fill-opacity:1;fill-rule:nonzero;stroke:none;stroke-width:2;stroke-linecap:butt;stroke-linejoin:miter;stroke-miterlimit:4;stroke-dasharray:none;stroke-dashoffset:0;stroke-opacity:1;color-rendering:auto;image-rendering:auto;shape-rendering:auto;text-rendering:auto;enable-background:accumulate"
     d="m 45,32 a 13,13 0 0 0 -0.127,-1.6953 l -3.166,-0.6602 a 10,10 0 0 0 -1.1758,-2.8437 l 1.7754,-2.711 a 13,13 0 0 0 -2.4043,-2.3906 l -2.705,1.7715 A 10,10 0 0 0 34.3574,22.2949 L 33.6953,19.125 A 13,13 0 0 0 32,19 13,13 0 0 0 30.3047,19.127 l -0.6602,3.166 a 10,10 0 0 0 -2.8437,1.1758 l -2.711,-1.7754 a 13,13 0 0 0 -2.3906,2.4043 l 1.7715,2.705 a 10,10 0 0 0 -1.1758,2.8399 L 19.125,30.3047 A 13,13 0 0 0 19,32 a 13,13 0 0 0 0.127,1.6953 l 3.166,0.6602 a 10,10 0 0 0 1.1757,2.8437 l -1.7753,2.711 a 13,13 0 0 0 2.4043,2.3906 l 2.705,-1.7715 a 10,10 0 0 0 2.8399,1.1758 l 0.6621,3.1699 A 13,13 0 0 0 32,45 13,13 0 0 0 33.6953,44.873 l 0.6602,-3.166 a 10,10 0 0 0 2.8437,-1.1757 l 2.711,1.7753 a 13,13 0 0 0 2.3906,-2.4043 l -1.7715,-2.705 a 10,10 0 0 0 1.1758,-2.8399 L 44.875,33.6953 A 13,13 0 0 0 45,32 Z m -7,0 a 6,6 0 0 1 -6,6 6,6 0 0 1 -6,-6 6,6 0 0 1 6,-6 6,6 0 0 1 6,6 z"
     id="path6302"
     inkscape:connector-curvature="0" />
</svg>
