<?xml version="1.0" encoding="UTF-8" standalone="no"?>
<!-- Created with Inkscape (http://www.inkscape.org/) -->

<svg
   xmlns:dc="http://purl.org/dc/elements/1.1/"
   xmlns:cc="http://creativecommons.org/ns#"
   xmlns:rdf="http://www.w3.org/1999/02/22-rdf-syntax-ns#"
   xmlns:svg="http://www.w3.org/2000/svg"
   xmlns="http://www.w3.org/2000/svg"
   xmlns:xlink="http://www.w3.org/1999/xlink"
   xmlns:sodipodi="http://sodipodi.sourceforge.net/DTD/sodipodi-0.dtd"
   xmlns:inkscape="http://www.inkscape.org/namespaces/inkscape"
   id="svg2"
   height="64"
   viewBox="0 0 64 64.000001"
   width="64"
   version="1.1"
   inkscape:version="0.91 r13725"
   sodipodi:docname="assistant.svg">
  <sodipodi:namedview
     pagecolor="#ffffff"
     bordercolor="#666666"
     borderopacity="1"
     objecttolerance="10"
     gridtolerance="10"
     guidetolerance="10"
     inkscape:pageopacity="0"
     inkscape:pageshadow="2"
     inkscape:window-width="2986"
     inkscape:window-height="1590"
     id="namedview15"
     showgrid="false"
     inkscape:zoom="3.6875"
     inkscape:cx="32"
     inkscape:cy="29.830508"
     inkscape:window-x="0"
     inkscape:window-y="0"
     inkscape:window-maximized="0"
     inkscape:current-layer="svg2" />
  <defs
     id="defs4">
    <linearGradient
       id="linearGradient13945"
       x1="32"
       gradientUnits="userSpaceOnUse"
       y1="56"
       gradientTransform="translate(0 992.36)"
       x2="32"
       y2="8">
      <stop
         id="stop13941"
         stop-color="#0566af"
         offset="0" />
      <stop
         id="stop13943"
         stop-color="#1287de"
         offset="1" />
    </linearGradient>
    <linearGradient
       id="linearGradient5193"
       x1="616.52"
       gradientUnits="userSpaceOnUse"
       y1="235.36"
       gradientTransform="translate(-580 778.36)"
       x2="616.52"
       y2="258">
      <stop
         id="stop4996"
         stop-color="#fcfcfc"
         offset="0" />
      <stop
         id="stop4998"
         stop-color="#dddbdb"
         offset="1" />
    </linearGradient>
    <linearGradient
       gradientTransform="translate(-932.22292,-578.66943)"
       inkscape:collect="always"
       xlink:href="#linearGradient5688"
       id="linearGradient5694"
       x1="967.5874"
       y1="568.8587"
       x2="987.3894"
       y2="588.54718"
       gradientUnits="userSpaceOnUse" />
    <linearGradient
       inkscape:collect="always"
       id="linearGradient5688">
      <stop
         style="stop-color:#ab458d;stop-opacity:1;"
         offset="0"
         id="stop5690" />
      <stop
         style="stop-color:#892b6d;stop-opacity:1"
         offset="1"
         id="stop5692" />
    </linearGradient>
    <linearGradient
       inkscape:collect="always"
       xlink:href="#linearGradient4927"
       id="linearGradient5084-6-9-9"
       gradientUnits="userSpaceOnUse"
       gradientTransform="translate(30,-988.3622)"
       x1="0"
       y1="1040.3622"
       x2="0"
       y2="1000.3622" />
    <linearGradient
       inkscape:collect="always"
       id="linearGradient4927">
      <stop
         style="stop-color:#4e8133;stop-opacity:1"
         offset="0"
         id="stop4929" />
      <stop
         style="stop-color:#60d61a;stop-opacity:1"
         offset="1"
         id="stop4931" />
    </linearGradient>
  </defs>
  <metadata
     id="metadata7">
    <rdf:RDF>
      <cc:Work
         rdf:about="">
        <dc:format>image/svg+xml</dc:format>
        <dc:type
           rdf:resource="http://purl.org/dc/dcmitype/StillImage" />
        <dc:title />
      </cc:Work>
    </rdf:RDF>
  </metadata>
  <path
     style="fill:url(#linearGradient5084-6-9-9);fill-opacity:1;fill-rule:evenodd;stroke:none;stroke-width:1px;stroke-linecap:butt;stroke-linejoin:miter;stroke-opacity:1"
     d="m 14,12 c -1,0 -2,0 -3.5,1.5 l -5,5 C 4,20 4,21 4,22 l 0,28 c 0,1 1,2 2,2 l 44,0 c 1,0 2,0 3.5,-1.5 l 5,-5 C 60,44 60,43 60,42 l 0,-28 c 0,-1 -1,-2 -2,-2 z"
     id="path4925-2-6-3-1"
     inkscape:connector-curvature="0"
     sodipodi:nodetypes="sssssssssssss" />
  <path
     style="fill:#2b481c;fill-opacity:1;fill-rule:evenodd;stroke:none;stroke-width:1px;stroke-linecap:butt;stroke-linejoin:miter;stroke-opacity:1"
     d="m 60,41 c 0,1 0,2 -1.5,3.5 l -5,5 C 52,51 51,51 50,51 L 6,51 C 5,51 4,50 4,49 l 0,1 c 0,1 1,2 2,2 l 44,0 c 1,0 2,0 3.5,-1.5 l 5,-5 C 60,44 60,43 60,42 l 0,-1 z"
     id="path4925-6-3-2-7-7"
     inkscape:connector-curvature="0" />
  <circle
     style="color:#000000;clip-rule:nonzero;display:inline;overflow:visible;visibility:visible;opacity:1;isolation:auto;mix-blend-mode:normal;color-interpolation:sRGB;color-interpolation-filters:linearRGB;solid-color:#000000;solid-opacity:1;fill:url(#linearGradient5694);fill-opacity:1;fill-rule:nonzero;stroke:none;stroke-width:2;stroke-linecap:butt;stroke-linejoin:miter;stroke-miterlimit:4;stroke-dasharray:none;stroke-dashoffset:0;stroke-opacity:1;color-rendering:auto;image-rendering:auto;shape-rendering:auto;text-rendering:auto;enable-background:accumulate"
     id="path5294-8-7"
     cx="45.254341"
     cy="0.00033569155"
     r="14.000005"
     transform="matrix(0.70710678,0.70710678,-0.70710678,0.70710678,0,0)" />
  <path
     inkscape:connector-curvature="0"
     d="M 31.9961,22.0009 C 28,22 25,24 25,28 l 4.0025,0 c 0,-1.0557 0.9975,-2.0033 2.9956,-2.0033 C 34,25.9967 35,27 34.9975,28.9964 34.9945,31 30,31 30,35 l -0.002,0.9967 4.0025,0 L 34,35 c 0,-1 5.00027,-1 5.00012,-6 C 39,25 36,22 32.00022,22 m -1.9963,16.0004 0,3.9996 4.0025,0 0,-3.9996 z"
     id="path5567"
     style="fill:#dddbdb;fill-opacity:1;stroke-width:2;stroke-linejoin:round"
     sodipodi:nodetypes="cccssccccscccccc" />
</svg>
