<?xml version="1.0" encoding="UTF-8" standalone="no"?>
<!-- Created with Inkscape (http://www.inkscape.org/) -->
<svg id="svg2" xmlns:rdf="http://www.w3.org/1999/02/22-rdf-syntax-ns#" xmlns="http://www.w3.org/2000/svg" height="64" width="64" version="1.1" xmlns:cc="http://creativecommons.org/ns#" xmlns:xlink="http://www.w3.org/1999/xlink" viewBox="0 0 64 64.000001" xmlns:dc="http://purl.org/dc/elements/1.1/">
	<defs id="defs4">
		<linearGradient id="linearGradient5881" y2="1097.4" xlink:href="#linearGradient5865" gradientUnits="userSpaceOnUse" x2="61" gradientTransform="translate(-45 -76)" y1="1123.4" x1="61"/>
		<linearGradient id="linearGradient5865">
			<stop id="stop5867" stop-color="#0566af" offset="0"/>
			<stop id="stop5869" stop-color="#1287de" offset="1"/>
		</linearGradient>
		<linearGradient id="linearGradient5879" y2="1097.4" xlink:href="#linearGradient5865" gradientUnits="userSpaceOnUse" x2="97" gradientTransform="translate(-47 -76)" y1="1123.4" x1="97"/>
		<linearGradient id="linearGradient7498" y2="648" gradientUnits="userSpaceOnUse" x2="-94" gradientTransform="translate(125 376.36)" y1="668" x1="-94">
			<stop id="stop7494" stop-color="#e4720c" offset="0"/>
			<stop id="stop7496" stop-color="#f1d23b" offset="1"/>
		</linearGradient>
		<linearGradient id="linearGradient5871" y2="1068.4" xlink:href="#linearGradient5865" gradientUnits="userSpaceOnUse" x2="70" gradientTransform="translate(-46 -76)" y1="1099.4" x1="70"/>
		<linearGradient id="linearGradient5910" y2="652.61" gradientUnits="userSpaceOnUse" x2="646.27" gradientTransform="translate(-616 376.36)" y1="664.77" x1="646.27">
			<stop id="stop5906" stop-color="#d71919" offset="0"/>
			<stop id="stop5908" stop-color="#f99133" offset="1"/>
		</linearGradient>
	</defs>
	<metadata id="metadata7">
		<rdf:RDF>
			<cc:Work rdf:about="">
				<dc:format>image/svg+xml</dc:format>
				<dc:type rdf:resource="http://purl.org/dc/dcmitype/StillImage"/>
				<dc:title/>
			</cc:Work>
		</rdf:RDF>
	</metadata>
	<g id="layer1" transform="translate(0 -988.36)">
		<path id="rect7407" style="color-rendering:auto;color:#000000;isolation:auto;mix-blend-mode:normal;shape-rendering:auto;solid-color:#000000;image-rendering:auto" d="m56 1020.4v14h3c0.55399 0 1-0.446 1-1v-13h-4z" fill="#343031"/>
		<path id="rect7407-9" style="color-rendering:auto;color:#000000;isolation:auto;mix-blend-mode:normal;shape-rendering:auto;solid-color:#000000;image-rendering:auto" d="m4 1020.4v13c0 0.554 0.44601 1 1 1h3v-14h-4z" fill="#343031"/>
		<path id="path7366" style="color-rendering:auto;color:#000000;isolation:auto;mix-blend-mode:normal;shape-rendering:auto;solid-color:#000000;image-rendering:auto" d="m18 1021.4a13 13 0 0 0 -13 13 13 13 0 0 0 13 13v-26z" fill="url(#linearGradient5881)"/>
		<path id="path7366-1" style="color-rendering:auto;color:#000000;isolation:auto;mix-blend-mode:normal;shape-rendering:auto;solid-color:#000000;image-rendering:auto" d="m46 1021.4a13 13 0 0 1 13 13 13 13 0 0 1 -13 13v-26z" fill="url(#linearGradient5879)"/>
		<path id="rect7397" style="color-rendering:auto;color:#000000;isolation:auto;mix-blend-mode:normal;shape-rendering:auto;solid-color:#000000;image-rendering:auto" d="m35 1024.4c-0.554 0-1 0.446-1 1v12c0 0.554 0.446 1 1 1s1-0.446 1-1v-12c0-0.554-0.446-1-1-1zm-8 2c-0.554 0-1 0.446-1 1v8c0 0.554 0.446 1 1 1s1-0.446 1-1v-8c0-0.554-0.446-1-1-1zm16-2c-0.554 0-1 0.446-1 1v10c0 0.554 0.446 1 1 1s1-0.446 1-1v-10c0-0.554-0.446-1-1-1zm-12 4c-0.554 0-1 0.446-1 1v14c0 0.554 0.446 1 1 1s1-0.446 1-1v-14c0-0.554-0.446-1-1-1zm-8 2c-0.554 0-1 0.446-1 1v8c0 0.554 0.446 1 1 1s1-0.446 1-1v-8c0-0.554-0.446-1-1-1zm16-2c-0.554 0-1 0.446-1 1v10c0 0.554 0.446 1 1 1s1-0.446 1-1v-10c0-0.554-0.446-1-1-1z" fill="url(#linearGradient7498)"/>
		<path id="path7424" style="color-rendering:auto;color:#000000;isolation:auto;mix-blend-mode:normal;shape-rendering:auto;solid-color:#000000;image-rendering:auto" d="m32 992.36c-15.464 0-28 12.536-28 28v4h2c2.2091 0 4-1.7909 4-4 0.00001-12.15 9.8497-22 22-22s22 9.8497 22 22c0 2.2091 1.7909 4 4 4h2v-4c0-15.464-12.536-28-28-28z" fill="url(#linearGradient5871)"/>
		<path id="rect5883" style="color-rendering:auto;color:#000000;isolation:auto;mix-blend-mode:normal;shape-rendering:auto;solid-color:#000000;image-rendering:auto" d="m29 1030.4c-0.554 0-1 0.446-1 1v2c0 0.554 0.446 1 1 1s1-0.446 1-1v-2c0-0.554-0.446-1-1-1zm4 0c-0.554 0-1 0.446-1 1v4c0 0.554 0.446 1 1 1s1-0.446 1-1v-4c0-0.554-0.446-1-1-1zm4 0c-0.554 0-1 0.446-1 1v4c0 0.554 0.446 1 1 1s1-0.446 1-1v-4c0-0.554-0.446-1-1-1zm4 0c-0.554 0-1 0.446-1 1v2c0 0.554 0.446 1 1 1s1-0.446 1-1v-2c0-0.554-0.446-1-1-1zm-20 2c-0.554 0-1 0.446-1 1v4c0 0.554 0.446 1 1 1s1-0.446 1-1v-4c0-0.554-0.446-1-1-1zm4 0c-0.55399 0-1 0.446-1 1s0.44601 1 1 1 1-0.446 1-1-0.44601-1-1-1z" fill="url(#linearGradient5910)"/>
		<path id="path7424-5" style="color-rendering:auto;color:#000000;isolation:auto;mix-blend-mode:normal;shape-rendering:auto;solid-color:#000000;image-rendering:auto" d="m32 997.36c-12.15 0-22 9.8497-22 22 0 2.2091-1.7909 4-4 4h-2v1h2c2.2091 0 4-1.7909 4-4 0.00001-12.15 9.8497-22 22-22s22 9.8497 22 22c0 2.2091 1.7909 4 4 4h2v-1h-2c-2.2091 0-4-1.7909-4-4-0.00001-12.15-9.8497-22-22-22z" fill="#023962"/>
		<path id="path7366-9" style="color-rendering:auto;color:#000000;isolation:auto;mix-blend-mode:normal;shape-rendering:auto;solid-color:#000000;image-rendering:auto" d="m5.0215 1033.8a13 13 0 0 0 -0.0215 0.6 13 13 0 0 0 13 13v-1a13 13 0 0 1 -12.978 -12.6zm53.957 0.1582a13 13 0 0 1 -12.978 12.4v1a13 13 0 0 0 13 -13 13 13 0 0 0 -0.0215 -0.4199z" fill="#023962"/>
		<rect id="rect7371" style="color-rendering:auto;color:#000000;isolation:auto;mix-blend-mode:normal;shape-rendering:auto;solid-color:#000000;image-rendering:auto" ry="2" height="28" width="4" y="1020.4" x="16" fill="#343031"/>
		<rect id="rect7371-8" style="color-rendering:auto;color:#000000;isolation:auto;mix-blend-mode:normal;shape-rendering:auto;solid-color:#000000;image-rendering:auto" transform="scale(-1,1)" ry="2" height="28" width="4" y="1020.4" x="-48" fill="#343031"/>
	</g>
</svg>
