<?xml version="1.0" encoding="UTF-8" standalone="no"?>
<!-- Created with Inkscape (http://www.inkscape.org/) -->

<svg
   xmlns:dc="http://purl.org/dc/elements/1.1/"
   xmlns:cc="http://creativecommons.org/ns#"
   xmlns:rdf="http://www.w3.org/1999/02/22-rdf-syntax-ns#"
   xmlns:svg="http://www.w3.org/2000/svg"
   xmlns="http://www.w3.org/2000/svg"
   xmlns:xlink="http://www.w3.org/1999/xlink"
   xmlns:sodipodi="http://sodipodi.sourceforge.net/DTD/sodipodi-0.dtd"
   xmlns:inkscape="http://www.inkscape.org/namespaces/inkscape"
   id="svg2"
   height="64"
   viewBox="0 0 64 64.000001"
   width="64"
   version="1.1"
   inkscape:version="0.91 r13725"
   sodipodi:docname="babe.svg">
  <sodipodi:namedview
     pagecolor="#ffffff"
     bordercolor="#666666"
     borderopacity="1"
     objecttolerance="10"
     gridtolerance="10"
     guidetolerance="10"
     inkscape:pageopacity="0"
     inkscape:pageshadow="2"
     inkscape:window-width="3840"
     inkscape:window-height="2045"
     id="namedview25"
     showgrid="true"
     inkscape:zoom="22.627417"
     inkscape:cx="32.557058"
     inkscape:cy="33.07346"
     inkscape:window-x="0"
     inkscape:window-y="0"
     inkscape:window-maximized="1"
     inkscape:current-layer="svg2"
     inkscape:snap-bbox="true"
     inkscape:bbox-nodes="true">
    <inkscape:grid
       type="xygrid"
       id="grid4161" />
  </sodipodi:namedview>
  <defs
     id="defs4">
    <linearGradient
       gradientTransform="translate(-160,-988.3622)"
       inkscape:collect="always"
       xlink:href="#linearGradient4723"
       id="linearGradient4729"
       x1="191"
       y1="1004.3622"
       x2="191"
       y2="1038.3622"
       gradientUnits="userSpaceOnUse" />
    <linearGradient
       inkscape:collect="always"
       id="linearGradient4723">
      <stop
         style="stop-color:#fcbb80;stop-opacity:1"
         offset="0"
         id="stop4725" />
      <stop
         style="stop-color:#ec4040;stop-opacity:1"
         offset="1"
         id="stop4727" />
    </linearGradient>
    <linearGradient
       inkscape:collect="always"
       xlink:href="#linearGradient4690"
       id="linearGradient4696"
       x1="-107"
       y1="-70"
       x2="-107"
       y2="-26"
       gradientUnits="userSpaceOnUse"
       gradientTransform="translate(140,82)" />
    <linearGradient
       inkscape:collect="always"
       id="linearGradient4690">
      <stop
         style="stop-color:#d71919;stop-opacity:1;"
         offset="0"
         id="stop4692" />
      <stop
         style="stop-color:#ac0808;stop-opacity:1"
         offset="1"
         id="stop4694" />
    </linearGradient>
  </defs>
  <metadata
     id="metadata7">
    <rdf:RDF>
      <cc:Work
         rdf:about="">
        <dc:format>image/svg+xml</dc:format>
        <dc:type
           rdf:resource="http://purl.org/dc/dcmitype/StillImage" />
        <dc:title />
      </cc:Work>
    </rdf:RDF>
  </metadata>
  <path
     style="color:#000000;clip-rule:nonzero;display:inline;overflow:visible;visibility:visible;opacity:1;isolation:auto;mix-blend-mode:normal;color-interpolation:sRGB;color-interpolation-filters:linearRGB;solid-color:#000000;solid-opacity:1;fill:url(#linearGradient4696);fill-opacity:1;fill-rule:nonzero;stroke:none;stroke-width:8;stroke-linecap:butt;stroke-linejoin:miter;stroke-miterlimit:4;stroke-dasharray:none;stroke-dashoffset:0;stroke-opacity:1;color-rendering:auto;image-rendering:auto;shape-rendering:auto;text-rendering:auto;enable-background:accumulate"
     d="m 20,10 c -2.21601,0 -4,1.784 -4,4 l -6,0 c -2.21601,0 -4,1.784 -4,4 l 0,2 0,22 0,2 c 0,2.216 1.78399,4 4,4 l 6,0 c 0,2.216 1.78399,4 4,4 l 6,0 c 0,2.216 1.78399,4 4,4 l 4,0 c 2.21601,0 4,-1.784 4,-4 l 6,0 c 2.21601,0 4,-1.784 4,-4 l 6,0 c 2.21601,0 4,-1.784 4,-4 l 0,-2 0,-22 0,-2 c 0,-2.216 -1.78399,-4 -4,-4 l -6,0 c 0,-2.216 -1.78399,-4 -4,-4 l -4,0 c -2.21601,0 -4,1.784 -4,4 l -8,0 c 0,-2.216 -1.78399,-4 -4,-4 l -4,0 z"
     id="rect4630"
     inkscape:connector-curvature="0" />
  <path
     style="color:#000000;clip-rule:nonzero;display:inline;overflow:visible;visibility:visible;opacity:1;isolation:auto;mix-blend-mode:normal;color-interpolation:sRGB;color-interpolation-filters:linearRGB;solid-color:#000000;solid-opacity:1;fill:url(#linearGradient4729);fill-opacity:1;fill-rule:nonzero;stroke:none;stroke-width:8;stroke-linecap:butt;stroke-linejoin:miter;stroke-miterlimit:4;stroke-dasharray:none;stroke-dashoffset:0;stroke-opacity:1;color-rendering:auto;image-rendering:auto;shape-rendering:auto;text-rendering:auto;enable-background:accumulate"
     d="m 20,16 c -1.10801,0 -2,0.892 -2,2 l 0,2 c 0,1.108 0.89199,2 2,2 l 4,0 c 1.10801,0 2,-0.892 2,-2 l 0,-2 c 0,-1.108 -0.89199,-2 -2,-2 l -4,0 z m 20,0 c -1.10801,0 -2,0.892 -2,2 l 0,2 c 0,1.108 0.89199,2 2,2 l 4,0 c 1.10801,0 2,-0.892 2,-2 l 0,-2 c 0,-1.108 -0.89199,-2 -2,-2 l -4,0 z m -30,4 c -1.10801,0 -2,0.892 -2,2 l 0,2 c 0,1.108 0.89199,2 2,2 l 4,0 c 1.10801,0 2,-0.892 2,-2 l 0,-2 c 0,-1.108 -0.89199,-2 -2,-2 l -4,0 z m 20,0 c -1.10801,0 -2,0.892 -2,2 l 0,2 c 0,1.108 0.89199,2 2,2 l 4,0 c 1.10801,0 2,-0.892 2,-2 l 0,-2 c 0,-1.108 -0.89199,-2 -2,-2 l -4,0 z m 20,0 c -1.10801,0 -2,0.892 -2,2 l 0,2 c 0,1.108 0.89199,2 2,2 l 4,0 c 1.10801,0 2,-0.892 2,-2 l 0,-2 c 0,-1.108 -0.89199,-2 -2,-2 l -4,0 z m -30,4 c -1.10801,0 -2,0.892 -2,2 l 0,2 c 0,1.108 0.89199,2 2,2 l 4,0 c 1.10801,0 2,-0.892 2,-2 l 0,-2 c 0,-1.108 -0.89199,-2 -2,-2 l -4,0 z m 20,0 c -1.10801,0 -2,0.892 -2,2 l 0,2 c 0,1.108 0.89199,2 2,2 l 4,0 c 1.10801,0 2,-0.892 2,-2 l 0,-2 c 0,-1.108 -0.89199,-2 -2,-2 l -4,0 z m -30,4 c -1.10801,0 -2,0.892 -2,2 l 0,2 c 0,1.108 0.89199,2 2,2 l 4,0 c 1.10801,0 2,-0.892 2,-2 l 0,-2 c 0,-1.108 -0.89199,-2 -2,-2 l -4,0 z m 20,0 c -1.10801,0 -2,0.892 -2,2 l 0,2 c 0,1.108 0.89199,2 2,2 l 4,0 c 1.10801,0 2,-0.892 2,-2 l 0,-2 c 0,-1.108 -0.89199,-2 -2,-2 l -4,0 z m 20,0 c -1.10801,0 -2,0.892 -2,2 l 0,2 c 0,1.108 0.89199,2 2,2 l 4,0 c 1.10801,0 2,-0.892 2,-2 l 0,-2 c 0,-1.108 -0.89199,-2 -2,-2 l -4,0 z m -30,4 c -1.10801,0 -2,0.892 -2,2 l 0,2 c 0,1.108 0.89199,2 2,2 l 4,0 c 1.10801,0 2,-0.892 2,-2 l 0,-2 c 0,-1.108 -0.89199,-2 -2,-2 l -4,0 z m 20,0 c -1.10801,0 -2,0.892 -2,2 l 0,2 c 0,1.108 0.89199,2 2,2 l 4,0 c 1.10801,0 2,-0.892 2,-2 l 0,-2 c 0,-1.108 -0.89199,-2 -2,-2 l -4,0 z m -30,4 c -1.10801,0 -2,0.892 -2,2 l 0,2 c 0,1.108 0.89199,2 2,2 l 4,0 c 1.10801,0 2,-0.892 2,-2 l 0,-2 c 0,-1.108 -0.89199,-2 -2,-2 l -4,0 z m 20,0 c -1.10801,0 -2,0.892 -2,2 l 0,2 c 0,1.108 0.89199,2 2,2 l 4,0 c 1.10801,0 2,-0.892 2,-2 l 0,-2 c 0,-1.108 -0.89199,-2 -2,-2 l -4,0 z m 20,0 c -1.10801,0 -2,0.892 -2,2 l 0,2 c 0,1.108 0.89199,2 2,2 l 4,0 c 1.10801,0 2,-0.892 2,-2 l 0,-2 c 0,-1.108 -0.89199,-2 -2,-2 l -4,0 z m -30,4 c -1.10801,0 -2,0.892 -2,2 l 0,2 c 0,1.108 0.89199,2 2,2 l 4,0 c 1.10801,0 2,-0.892 2,-2 l 0,-2 c 0,-1.108 -0.89199,-2 -2,-2 l -4,0 z m 20,0 c -1.10801,0 -2,0.892 -2,2 l 0,2 c 0,1.108 0.89199,2 2,2 l 4,0 c 1.10801,0 2,-0.892 2,-2 l 0,-2 c 0,-1.108 -0.89199,-2 -2,-2 l -4,0 z m -10,4 c -1.10801,0 -2,0.892 -2,2 l 0,2 c 0,1.108 0.89199,2 2,2 l 4,0 c 1.10801,0 2,-0.892 2,-2 l 0,-2 c 0,-1.108 -0.89199,-2 -2,-2 l -4,0 z"
     id="rect7140-3"
     inkscape:connector-curvature="0" />
  <path
     style="color:#000000;clip-rule:nonzero;display:inline;overflow:visible;visibility:visible;opacity:1;isolation:auto;mix-blend-mode:normal;color-interpolation:sRGB;color-interpolation-filters:linearRGB;solid-color:#000000;solid-opacity:1;fill:#600404;fill-opacity:1;fill-rule:nonzero;stroke:none;stroke-width:8;stroke-linecap:butt;stroke-linejoin:miter;stroke-miterlimit:4;stroke-dasharray:none;stroke-dashoffset:0;stroke-opacity:1;color-rendering:auto;image-rendering:auto;shape-rendering:auto;text-rendering:auto;enable-background:accumulate"
     d="m 6,43 0,1 c 0,2.216 1.78399,4 4,4 l 6,0 c 0,2.216 1.78399,4 4,4 l 6,0 c 0,2.216 1.78399,4 4,4 l 4,0 c 2.21601,0 4,-1.784 4,-4 l 6,0 c 2.21601,0 4,-1.784 4,-4 l 6,0 c 2.21601,0 4,-1.784 4,-4 l 0,-1 c 0,2.216 -1.78399,4 -4,4 l -6,0 c 0,2.216 -1.78399,4 -4,4 l -6,0 c 0,2.216 -1.78399,4 -4,4 l -4,0 c -2.21601,0 -4,-1.784 -4,-4 l -6,0 c -2.21601,0 -4,-1.784 -4,-4 l -6,0 C 7.78399,47 6,45.216 6,43 Z"
     id="rect4630-9"
     inkscape:connector-curvature="0" />
</svg>
