<?xml version="1.0" encoding="UTF-8" standalone="no"?>
<!-- Created with Inkscape (http://www.inkscape.org/) -->
<svg id="svg2" xmlns:rdf="http://www.w3.org/1999/02/22-rdf-syntax-ns#" xmlns="http://www.w3.org/2000/svg" height="64" viewBox="0 0 64 64.000001" width="64" version="1.1" xmlns:cc="http://creativecommons.org/ns#" xmlns:xlink="http://www.w3.org/1999/xlink" xmlns:dc="http://purl.org/dc/elements/1.1/">
	<defs id="defs4">
		<linearGradient id="linearGradient7320">
			<stop id="stop7322" stop-color="#e4720c" offset="0"/>
			<stop id="stop7324" stop-color="#f7e385" offset="1"/>
		</linearGradient>
		<linearGradient id="linearGradient7111" x1="-494.36" gradientUnits="userSpaceOnUse" y1="150" gradientTransform="translate(526.36 866.36)" x2="-493.36" y2="150">
			<stop id="stop7107" offset="0"/>
			<stop id="stop7109" stop-opacity="0" offset="1"/>
		</linearGradient>
		<linearGradient id="linearGradient7143" x1="494.36" gradientUnits="userSpaceOnUse" y1="150" gradientTransform="matrix(-1 0 0 1 526.36 866.36)" x2="495.36" y2="150">
			<stop id="stop7139" stop-color="#fff" offset="0"/>
			<stop id="stop7141" stop-color="#fff" stop-opacity="0" offset="1"/>
		</linearGradient>
		<linearGradient id="linearGradient7239" x1="130" gradientUnits="userSpaceOnUse" y1="494.36" gradientTransform="matrix(0,1,-1,0,526.36,866.36)" x2="169" y2="494.36">
			<stop id="stop7235" stop-color="#fcfcfc" offset="0"/>
			<stop id="stop7237" stop-color="#dddbdb" offset="1"/>
		</linearGradient>
		<linearGradient id="linearGradient7248" x1="33" gradientUnits="userSpaceOnUse" y1="52" gradientTransform="translate(0,984.36)" x2="33" y2="42">
			<stop id="stop7244" stop-color="#534d52" offset="0"/>
			<stop id="stop7246" stop-color="#343031" offset="1"/>
		</linearGradient>
		<linearGradient id="linearGradient7326" x1="180" xlink:href="#linearGradient7320" gradientUnits="userSpaceOnUse" y1="485.36" gradientTransform="matrix(0,1,-1,0,526.36,864.36)" x2="172" y2="485.36"/>
		<linearGradient id="linearGradient7328" x1="180" xlink:href="#linearGradient7320" gradientUnits="userSpaceOnUse" y1="499.36" gradientTransform="matrix(0,1,-1,0,526.36,864.36)" x2="172" y2="499.36"/>
		<linearGradient id="linearGradient4179" y2="1037" gradientUnits="userSpaceOnUse" x2="25" gradientTransform="translate(0,-988.36)" y1="997.36" x1="25">
			<stop id="stop4175" stop-color="#dddbdb" offset="0"/>
			<stop id="stop4177" stop-color="#b6b2b6" offset="1"/>
		</linearGradient>
	</defs>
	<metadata id="metadata7">
		<rdf:RDF>
			<cc:Work rdf:about="">
				<dc:format>image/svg+xml</dc:format>
				<dc:type rdf:resource="http://purl.org/dc/dcmitype/StillImage"/>
				<dc:title/>
			</cc:Work>
		</rdf:RDF>
	</metadata>
	<g id="layer1" transform="translate(0 -988.36)">
		<path id="path7085-3" style="color-rendering:auto;color:#000000;isolation:auto;mix-blend-mode:normal;shape-rendering:auto;solid-color:#000000;image-rendering:auto" fill="url(#linearGradient7326)" d="m41 1038.4c0 1.1046-0.89543 6-2 6s-2-4.8954-2-6 0.89543-2 2-2 2 0.8954 2 2z"/>
		<path id="path7085" style="color-rendering:auto;color:#000000;isolation:auto;mix-blend-mode:normal;shape-rendering:auto;solid-color:#000000;image-rendering:auto" fill="url(#linearGradient7328)" d="m27 1038.4c0 1.1046-0.89543 6-2 6s-2-4.8954-2-6 0.89543-2 2-2 2 0.8954 2 2z"/>
		<path id="path7064" d="m22 1017.4-5 7 6 12h4l5-10 5 10h4l6-12-5-7-10 6.3633-10-6.3633z" fill-rule="evenodd" fill="url(#linearGradient7248)"/>
		<path id="path7062" d="m4 1024.4 28-28 28 28-11 11-8-8-9 5.1962-9-5.1962-8 8z" fill-rule="evenodd" fill="url(#linearGradient7239)"/>
		<path id="path7300" d="m32 8l-28 28 9 9 1.5-1.5-3.5-3.5 4-4-3-3 8-8h8l4-4 4 4h8l8 8-3 3 4 4-3.5 3.5 1.5 1.5 9-9-28-28zm-9 26.014v0.025l-2 2v3l-3 3 1 1 4-4 7 4 0.613-1.227-5.613-3.298v-2.5l-2-2zm18 0.025l-2 2v2.5l-5.613 3.273 0.613 1.227 7-4 4 4 1-1-3-3v-3l-2-2z" transform="translate(0,988.36)" fill="url(#linearGradient4179)"/>
		<circle id="path7081" style="color-rendering:auto;color:#000000;isolation:auto;mix-blend-mode:normal;shape-rendering:auto;solid-color:#000000;image-rendering:auto" cx="25" cy="1038.4" r="1" fill="#f7e385"/>
		<circle id="path7083" style="color-rendering:auto;color:#000000;isolation:auto;mix-blend-mode:normal;shape-rendering:auto;solid-color:#000000;image-rendering:auto" cx="39" cy="1038.4" r="1" fill="#f7e385"/>
		<path id="path7062-3" opacity=".1" d="m32 996.36 28 28-11 11-8-8-9 5.1962z" fill-rule="evenodd"/>
		<path id="rect7103" opacity=".05" style="color-rendering:auto;color:#000000;isolation:auto;mix-blend-mode:normal;shape-rendering:auto;solid-color:#000000;image-rendering:auto" fill="url(#linearGradient7111)" d="m32 996.36v36.195l1-0.5781v-34.617l-1-1z"/>
		<path id="rect7103-6" opacity=".05" style="color-rendering:auto;color:#000000;isolation:auto;mix-blend-mode:normal;shape-rendering:auto;solid-color:#000000;image-rendering:auto" fill="url(#linearGradient7143)" d="m32 996.36-1 1v34.617l1 0.5781v-36.195z"/>
		<g id="g37" fill="#343031" fill-rule="evenodd">
			<path id="path7183" d="m33 999.36v6l2 1 3-2z"/>
			<path id="path7183-6" d="m31 999.36v6l-2 1-3-2z"/>
			<path id="path7183-6-1" d="m25.4 1005-1.4 1.4l2 1 2-0.666-2.5996-1.7344z"/>
			<path id="path7183-6-1-5" d="m38.6 1005 1.4004 1.4004-2 1-2-0.666 2.5996-1.7344z"/>
		</g>
	</g>
</svg>
