<?xml version="1.0" encoding="UTF-8" standalone="no"?>
<!-- Created with Inkscape (http://www.inkscape.org/) -->
<svg id="svg2" xmlns:rdf="http://www.w3.org/1999/02/22-rdf-syntax-ns#" xmlns="http://www.w3.org/2000/svg" height="64" width="64" version="1.1" xmlns:cc="http://creativecommons.org/ns#" xmlns:xlink="http://www.w3.org/1999/xlink" viewBox="0 0 64 64.000001" xmlns:dc="http://purl.org/dc/elements/1.1/">
	<defs id="defs4">
		<linearGradient id="linearGradient4352">
			<stop id="stop4354" stop-color="#e4720c" offset="0"/>
			<stop id="stop4356" stop-color="#af5505" offset="1"/>
		</linearGradient>
		<linearGradient id="linearGradient4871" y2="178" gradientUnits="userSpaceOnUse" x2="-493.36" gradientTransform="translate(526.36 -1172.4)" y1="126" x1="-493.36">
			<stop id="stop4867" stop-color="#fcfcfc" offset="0"/>
			<stop id="stop4869" stop-color="#dddbdb" offset="1"/>
		</linearGradient>
		<linearGradient id="linearGradient4881" y2="153.5" gradientUnits="userSpaceOnUse" x2="-493.36" gradientTransform="translate(526.36 -120)" y1="153.5" x1="-494.36">
			<stop id="stop4877" offset="0"/>
			<stop id="stop4879" stop-opacity="0" offset="1"/>
		</linearGradient>
		<linearGradient id="linearGradient4913" y2="153.5" gradientUnits="userSpaceOnUse" x2="-493.36" gradientTransform="matrix(-1 0 0 1 -462.36 -120)" y1="153.5" x1="-494.36">
			<stop id="stop4909" stop-color="#f5f4f4" offset="0"/>
			<stop id="stop4911" stop-color="#f5f4f4" stop-opacity="0" offset="1"/>
		</linearGradient>
		<linearGradient id="linearGradient5037" y2="1020.4" gradientUnits="userSpaceOnUse" x2="60" gradientTransform="translate(-1052.4 -1052.4)" y1="1020.4" x1="4">
			<stop id="stop5033" stop-color="#1287de" offset="0"/>
			<stop id="stop5035" stop-color="#0566af" offset="1"/>
		</linearGradient>
		<linearGradient id="linearGradient4350" y2="1028" gradientUnits="userSpaceOnUse" x2="32" y1="996.36" x1="32">
			<stop id="stop4346" stop-color="#f99133" offset="0"/>
			<stop id="stop4348" stop-color="#e4720c" offset="1"/>
		</linearGradient>
		<linearGradient id="linearGradient4358" y2="57" xlink:href="#linearGradient4352" gradientUnits="userSpaceOnUse" x2="44" y1="28.812" x1="44"/>
		<linearGradient id="linearGradient4360" y2="59.125" xlink:href="#linearGradient4352" gradientUnits="userSpaceOnUse" x2="22" y1="28.25" x1="22"/>
	</defs>
	<metadata id="metadata7">
		<rdf:RDF>
			<cc:Work rdf:about="">
				<dc:format>image/svg+xml</dc:format>
				<dc:type rdf:resource="http://purl.org/dc/dcmitype/StillImage"/>
				<dc:title/>
			</cc:Work>
		</rdf:RDF>
	</metadata>
	<g id="layer1" transform="translate(0 -988.36)">
		<circle id="path4333" style="color-rendering:auto;color:#000000;isolation:auto;mix-blend-mode:normal;shape-rendering:auto;solid-color:#000000;image-rendering:auto" transform="matrix(0,-1,-1,0,0,0)" cy="-32" cx="-1020.4" r="28" fill="url(#linearGradient5037)"/>
		<circle id="path4333-7" style="color-rendering:auto;color:#000000;isolation:auto;mix-blend-mode:normal;shape-rendering:auto;solid-color:#000000;image-rendering:auto" transform="scale(1,-1)" cy="-1020.4" cx="32" r="26" fill="url(#linearGradient4871)"/>
		<g id="g4338">
			<path id="path4200-3-6" style="color-rendering:auto;color:#000000;isolation:auto;mix-blend-mode:normal;shape-rendering:auto;solid-color:#000000;image-rendering:auto" d="m32 996.36c-13.255 0-24 10.745-24 24 0.0069 0.7319 0.04733 1.4632 0.12109 2.1914l27.902 12.301 14.863-29.289c-4.546-5.84-11.511-9.24-18.886-9.24z" fill="url(#linearGradient4350)"/>
			<path id="path4200-3" style="color-rendering:auto;color:#000000;isolation:auto;mix-blend-mode:normal;shape-rendering:auto;solid-color:#000000;image-rendering:auto" d="m8.1211 34.191c0.86 9.257 6.9889 17.185 15.731 20.348l12.148-5.539-1.977-8.508z" transform="translate(0 988.36)" fill="url(#linearGradient4360)"/>
			<path id="path4200-3-1" style="color-rendering:auto;color:#000000;isolation:auto;mix-blend-mode:normal;shape-rendering:auto;solid-color:#000000;image-rendering:auto" d="m50.887 17.203-16.864 23.289 2.977 8.508 15.223-4.08c2.465-3.858 3.776-8.341 3.777-12.92-0.003-5.365-1.803-10.575-5.113-14.797z" transform="translate(0 988.36)" fill="url(#linearGradient4358)"/>
			<path id="path4200-6" style="color-rendering:auto;color:#000000;isolation:auto;mix-blend-mode:normal;shape-rendering:auto;solid-color:#000000;image-rendering:auto" d="m34.023 40.492-10.173 14.049a24 24 0 0 0 8.15 1.459 24 24 0 0 0 20.199 -11.086l-18.176-4.422z" transform="translate(0 988.36)" fill="#af5505"/>
		</g>
		<g id="g4956" transform="translate(-120 526)">
			<path id="rect4873" opacity=".05" style="color-rendering:auto;color:#000000;isolation:auto;mix-blend-mode:normal;shape-rendering:auto;solid-color:#000000;image-rendering:auto" d="m32 4v56a28 28 0 0 0 1 -0.03516v-55.914a28 28 0 0 0 -1 -0.051z" transform="matrix(0 -1 1 0 120 526.36)" fill="url(#linearGradient4881)"/>
			<path id="rect4873-5" opacity=".05" style="color-rendering:auto;color:#000000;isolation:auto;mix-blend-mode:normal;shape-rendering:auto;solid-color:#000000;image-rendering:auto" d="m32 4a28 28 0 0 0 -1 0.035156v55.914a28 28 0 0 0 1 0.051v-56z" transform="matrix(0 -1 1 0 120 526.36)" fill="url(#linearGradient4913)"/>
			<path id="rect4915" opacity=".1" style="color-rendering:auto;color:#000000;isolation:auto;mix-blend-mode:normal;shape-rendering:auto;solid-color:#000000;image-rendering:auto" d="m32 4v56a28 28 0 0 0 28 -28 28 28 0 0 0 -28 -28z" transform="matrix(0 -1 1 0 120 526.36)"/>
		</g>
		<path id="path4333-5" style="color-rendering:auto;color:#000000;isolation:auto;mix-blend-mode:normal;shape-rendering:auto;solid-color:#000000;image-rendering:auto" d="m4.0215 31.414a28 28 0 0 0 -0.0215 0.586 28 28 0 0 0 28 28 28 28 0 0 0 28 -28 28 28 0 0 0 -0.021 -0.414 28 28 0 0 1 -27.979 27.414 28 28 0 0 1 -27.978 -27.586z" transform="translate(0 988.36)" fill="#023962"/>
	</g>
</svg>
