<?xml version="1.0" encoding="UTF-8" standalone="no"?>
<!-- Created with Inkscape (http://www.inkscape.org/) -->

<svg
   xmlns:dc="http://purl.org/dc/elements/1.1/"
   xmlns:cc="http://creativecommons.org/ns#"
   xmlns:rdf="http://www.w3.org/1999/02/22-rdf-syntax-ns#"
   xmlns:svg="http://www.w3.org/2000/svg"
   xmlns="http://www.w3.org/2000/svg"
   xmlns:xlink="http://www.w3.org/1999/xlink"
   xmlns:sodipodi="http://sodipodi.sourceforge.net/DTD/sodipodi-0.dtd"
   xmlns:inkscape="http://www.inkscape.org/namespaces/inkscape"
   id="svg2"
   height="64"
   viewBox="0 0 64 64.000001"
   width="64"
   version="1.1"
   inkscape:version="0.91 r13725"
   sodipodi:docname="digikam.svg">
  <sodipodi:namedview
     pagecolor="#ffffff"
     bordercolor="#666666"
     borderopacity="1"
     objecttolerance="10"
     gridtolerance="10"
     guidetolerance="10"
     inkscape:pageopacity="0"
     inkscape:pageshadow="2"
     inkscape:window-width="3006"
     inkscape:window-height="1611"
     id="namedview50"
     showgrid="false"
     inkscape:zoom="11.313708"
     inkscape:cx="14.875377"
     inkscape:cy="39.82526"
     inkscape:window-x="0"
     inkscape:window-y="0"
     inkscape:window-maximized="0"
     inkscape:current-layer="svg2"
     inkscape:snap-bbox="true"
     inkscape:bbox-nodes="true"
     showguides="false">
    <inkscape:grid
       type="xygrid"
       id="grid4156" />
  </sodipodi:namedview>
  <defs
     id="defs4">
    <linearGradient
       inkscape:collect="always"
       id="linearGradient4177">
      <stop
         style="stop-color:#343031;stop-opacity:1;"
         offset="0"
         id="stop4179" />
      <stop
         style="stop-color:#534d52;stop-opacity:1"
         offset="1"
         id="stop4181" />
    </linearGradient>
    <linearGradient
       inkscape:collect="always"
       xlink:href="#linearGradient4467"
       id="linearGradient4473"
       x1="-520.36218"
       y1="152.00002"
       x2="-468.36221"
       y2="152.00002"
       gradientUnits="userSpaceOnUse"
       gradientTransform="matrix(0.84615367,0,0,0.84615367,450.30637,-160.61539)" />
    <linearGradient
       inkscape:collect="always"
       id="linearGradient4467">
      <stop
         style="stop-color:#1287de;stop-opacity:1;"
         offset="0"
         id="stop4469" />
      <stop
         style="stop-color:#37a4f5;stop-opacity:1"
         offset="1"
         id="stop4471" />
    </linearGradient>
    <linearGradient
       inkscape:collect="always"
       xlink:href="#linearGradient4492"
       id="linearGradient4498"
       x1="-539.78754"
       y1="152.00002"
       x2="-463.22632"
       y2="152.00002"
       gradientUnits="userSpaceOnUse"
       gradientTransform="matrix(0.83333377,0,0,0.83333377,443.9687,-158.66676)" />
    <linearGradient
       inkscape:collect="always"
       id="linearGradient4492">
      <stop
         style="stop-color:#1287de;stop-opacity:1"
         offset="0"
         id="stop4494" />
      <stop
         style="stop-color:#0566af;stop-opacity:1"
         offset="1"
         id="stop4496" />
    </linearGradient>
    <linearGradient
       inkscape:collect="always"
       xlink:href="#linearGradient4467"
       id="linearGradient4489"
       x1="6"
       y1="32"
       x2="58"
       y2="32"
       gradientUnits="userSpaceOnUse"
       gradientTransform="matrix(0,1,-1,0,64,0)" />
    <linearGradient
       inkscape:collect="always"
       xlink:href="#linearGradient4467"
       id="linearGradient4158"
       gradientUnits="userSpaceOnUse"
       gradientTransform="matrix(0,0.81818183,-0.81818183,0,156.36366,436.47815)"
       x1="-520.36218"
       y1="152.00002"
       x2="-468.36218"
       y2="152.00002" />
    <linearGradient
       inkscape:collect="always"
       xlink:href="#linearGradient4177"
       id="linearGradient4183"
       x1="6.0000229"
       y1="-31.999996"
       x2="58.000015"
       y2="-31.999996"
       gradientUnits="userSpaceOnUse"
       gradientTransform="translate(-2.2888184e-5,64.000015)" />
    <linearGradient
       inkscape:collect="always"
       xlink:href="#linearGradient4177"
       id="linearGradient4191"
       x1="4.0000191"
       y1="31.999996"
       x2="73.762733"
       y2="31.999996"
       gradientUnits="userSpaceOnUse"
       gradientTransform="translate(-64.000015,2.2888184e-5)" />
  </defs>
  <metadata
     id="metadata7">
    <rdf:RDF>
      <cc:Work
         rdf:about="">
        <dc:format>image/svg+xml</dc:format>
        <dc:type
           rdf:resource="http://purl.org/dc/dcmitype/StillImage" />
        <dc:title />
      </cc:Work>
    </rdf:RDF>
  </metadata>
  <circle
     style="color:#000000;clip-rule:nonzero;display:inline;overflow:visible;visibility:visible;opacity:1;isolation:auto;mix-blend-mode:normal;color-interpolation:sRGB;color-interpolation-filters:linearRGB;solid-color:#000000;solid-opacity:1;fill:url(#linearGradient4191);fill-opacity:1;fill-rule:nonzero;stroke:none;stroke-width:4;stroke-linecap:round;stroke-linejoin:miter;stroke-miterlimit:4;stroke-dasharray:none;stroke-dashoffset:0;stroke-opacity:1;color-rendering:auto;image-rendering:auto;shape-rendering:auto;text-rendering:auto;enable-background:accumulate"
     id="path4233"
     cx="-31.999996"
     cy="32.000019"
     r="28"
     transform="matrix(0,-1,1,0,0,0)" />
  <circle
     style="color:#000000;clip-rule:nonzero;display:inline;overflow:visible;visibility:visible;opacity:1;isolation:auto;mix-blend-mode:normal;color-interpolation:sRGB;color-interpolation-filters:linearRGB;solid-color:#000000;solid-opacity:1;fill:url(#linearGradient4183);fill-opacity:1;fill-rule:nonzero;stroke:none;stroke-width:4;stroke-linecap:round;stroke-linejoin:miter;stroke-miterlimit:4;stroke-dasharray:none;stroke-dashoffset:0;stroke-opacity:1;color-rendering:auto;image-rendering:auto;shape-rendering:auto;text-rendering:auto;enable-background:accumulate"
     id="path4233-36"
     cx="31.999996"
     cy="32.000019"
     r="25.999996"
     transform="matrix(0,1,1,0,0,0)" />
  <circle
     style="color:#000000;clip-rule:nonzero;display:inline;overflow:visible;visibility:visible;opacity:1;isolation:auto;mix-blend-mode:normal;color-interpolation:sRGB;color-interpolation-filters:linearRGB;solid-color:#000000;solid-opacity:1;fill:url(#linearGradient4473);fill-opacity:1;fill-rule:nonzero;stroke:none;stroke-width:4;stroke-linecap:round;stroke-linejoin:miter;stroke-miterlimit:4;stroke-dasharray:none;stroke-dashoffset:0;stroke-opacity:1;color-rendering:auto;image-rendering:auto;shape-rendering:auto;text-rendering:auto;enable-background:accumulate"
     id="path4233-7"
     cx="31.999996"
     cy="-32.000019"
     r="21.999981"
     transform="matrix(0,1,-1,0,0,0)" />
  <circle
     style="color:#000000;clip-rule:nonzero;display:inline;overflow:visible;visibility:visible;opacity:1;isolation:auto;mix-blend-mode:normal;color-interpolation:sRGB;color-interpolation-filters:linearRGB;solid-color:#000000;solid-opacity:1;fill:url(#linearGradient4498);fill-opacity:1;fill-rule:nonzero;stroke:none;stroke-width:4;stroke-linecap:round;stroke-linejoin:miter;stroke-miterlimit:4;stroke-dasharray:none;stroke-dashoffset:0;stroke-opacity:1;color-rendering:auto;image-rendering:auto;shape-rendering:auto;text-rendering:auto;enable-background:accumulate"
     id="path4233-7-3"
     cx="31.999996"
     cy="-32.000019"
     r="19.999996"
     transform="matrix(0,1,-1,0,0,0)" />
  <path
     style="color:#000000;clip-rule:nonzero;display:inline;overflow:visible;visibility:visible;opacity:1;isolation:auto;mix-blend-mode:normal;color-interpolation:sRGB;color-interpolation-filters:linearRGB;solid-color:#000000;solid-opacity:1;fill:url(#linearGradient4158);fill-opacity:1;fill-rule:nonzero;stroke:none;stroke-width:4;stroke-linecap:round;stroke-linejoin:miter;stroke-miterlimit:4;stroke-dasharray:none;stroke-dashoffset:0;stroke-opacity:1;color-rendering:auto;image-rendering:auto;shape-rendering:auto;text-rendering:auto;enable-background:accumulate"
     d="M 32,14 A 17.999986,17.999986 0 0 0 14,32 17.999986,17.999986 0 0 0 32,50 17.999986,17.999986 0 0 0 50,32 17.999986,17.999986 0 0 0 32,14 Z m 0,3 A 14.999983,14.999983 0 0 1 47,32 14.999983,14.999983 0 0 1 32,47 14.999983,14.999983 0 0 1 17,32 14.999983,14.999983 0 0 1 32,17 Z"
     id="path4154"
     inkscape:connector-curvature="0" />
  <path
     style="color:#000000;clip-rule:nonzero;display:inline;overflow:visible;visibility:visible;opacity:1;isolation:auto;mix-blend-mode:normal;color-interpolation:sRGB;color-interpolation-filters:linearRGB;solid-color:#000000;solid-opacity:1;fill:url(#linearGradient4489);fill-opacity:1;fill-rule:nonzero;stroke:none;stroke-width:4;stroke-linecap:round;stroke-linejoin:miter;stroke-miterlimit:4;stroke-dasharray:none;stroke-dashoffset:0;stroke-opacity:1;color-rendering:auto;image-rendering:auto;shape-rendering:auto;text-rendering:auto;enable-background:accumulate"
     d="M 45,32 A 12.999995,12.999995 0 0 0 42.36328,24.16992 L 34,28.99805 44.60352,35.12109 A 12.999995,12.999995 0 0 0 45,32 Z m -1.02734,5.06641 -8.375,-4.83594 0,12.25391 a 12.999995,12.999995 0 0 0 8.375,-7.41797 z M 41.00586,22.64453 A 12.999995,12.999995 0 0 0 32,19 12.999995,12.999995 0 0 0 30.40039,19.11523 l 0,9.6504 10.60547,-6.1211 z m -7.4082,8.43164 -1.59961,-0.92383 -1.59766,0.92383 0,1.84375 1.59961,0.92383 1.59766,-0.92383 0,-1.84375 z m 0,4.1543 -10.60547,6.12305 A 12.999995,12.999995 0 0 0 32,45 12.999995,12.999995 0 0 0 33.59766,44.88477 l 0,-9.6543 z M 29.99805,34.99805 19.39648,28.87695 A 12.999995,12.999995 0 0 0 19,32 a 12.999995,12.999995 0 0 0 2.63477,7.82617 l 8.36328,-4.82812 z M 28.40039,19.51563 a 12.999995,12.999995 0 0 0 -8.37305,7.41601 l 8.37305,4.83399 0,-12.25 z"
     id="path4233-7-5"
     inkscape:connector-curvature="0" />
  <circle
     style="color:#000000;clip-rule:nonzero;display:inline;overflow:visible;visibility:visible;opacity:1;isolation:auto;mix-blend-mode:normal;color-interpolation:sRGB;color-interpolation-filters:linearRGB;solid-color:#000000;solid-opacity:1;fill:#023962;fill-opacity:1;fill-rule:nonzero;stroke:none;stroke-width:4;stroke-linecap:round;stroke-linejoin:miter;stroke-miterlimit:4;stroke-dasharray:none;stroke-dashoffset:0;stroke-opacity:1;color-rendering:auto;image-rendering:auto;shape-rendering:auto;text-rendering:auto;enable-background:accumulate"
     id="path4233-7-5-6"
     cx="32.000019"
     cy="31.999996"
     r="1.9999952" />
  <path
     style="color:#000000;clip-rule:nonzero;display:inline;overflow:visible;visibility:visible;opacity:1;isolation:auto;mix-blend-mode:normal;color-interpolation:sRGB;color-interpolation-filters:linearRGB;solid-color:#000000;solid-opacity:1;fill:#343031;fill-opacity:1;fill-rule:nonzero;stroke:none;stroke-width:4;stroke-linecap:round;stroke-linejoin:miter;stroke-miterlimit:4;stroke-dasharray:none;stroke-dashoffset:0;stroke-opacity:1;color-rendering:auto;image-rendering:auto;shape-rendering:auto;text-rendering:auto;enable-background:accumulate"
     d="M 59.97852,31.41406 A 28,28 0 0 1 32,59 28,28 0 0 1 4.02148,31.58594 28,28 0 0 0 3.99998,32 a 28,28 0 0 0 28,28 28,28 0 0 0 28,-28 28,28 0 0 0 -0.0215,-0.58594 z"
     id="path4233-3"
     inkscape:connector-curvature="0" />
  <circle
     style="color:#000000;clip-rule:nonzero;display:inline;overflow:visible;visibility:visible;opacity:1;isolation:auto;mix-blend-mode:normal;color-interpolation:sRGB;color-interpolation-filters:linearRGB;solid-color:#000000;solid-opacity:1;fill:#82c8fa;fill-opacity:1;fill-rule:nonzero;stroke:none;stroke-width:2;stroke-linecap:round;stroke-linejoin:miter;stroke-miterlimit:4;stroke-dasharray:none;stroke-dashoffset:0;stroke-opacity:1;color-rendering:auto;image-rendering:auto;shape-rendering:auto;text-rendering:auto;enable-background:accumulate"
     id="path4463"
     cx="26.999987"
     cy="26.999996"
     r="2" />
  <circle
     style="color:#000000;clip-rule:nonzero;display:inline;overflow:visible;visibility:visible;opacity:1;isolation:auto;mix-blend-mode:normal;color-interpolation:sRGB;color-interpolation-filters:linearRGB;solid-color:#000000;solid-opacity:1;fill:#82c8fa;fill-opacity:1;fill-rule:nonzero;stroke:none;stroke-width:2;stroke-linecap:round;stroke-linejoin:miter;stroke-miterlimit:4;stroke-dasharray:none;stroke-dashoffset:0;stroke-opacity:1;color-rendering:auto;image-rendering:auto;shape-rendering:auto;text-rendering:auto;enable-background:accumulate"
     id="path4465"
     cx="19.999987"
     cy="19.999996"
     r="4" />
  <path
     style="color:#000000;clip-rule:nonzero;display:inline;overflow:visible;visibility:visible;opacity:1;isolation:auto;mix-blend-mode:normal;color-interpolation:sRGB;color-interpolation-filters:linearRGB;solid-color:#000000;solid-opacity:1;fill:#37a4f5;fill-opacity:1;fill-rule:nonzero;stroke:none;stroke-width:4;stroke-linecap:round;stroke-linejoin:miter;stroke-miterlimit:4;stroke-dasharray:none;stroke-dashoffset:0;stroke-opacity:1;color-rendering:auto;image-rendering:auto;shape-rendering:auto;text-rendering:auto;enable-background:accumulate"
     d="M 32 10 A 21.999981 21.999981 0 0 0 10 32 A 21.999981 21.999981 0 0 0 10.021484 32.585938 A 21.999981 21.999981 0 0 1 32 11 A 21.999981 21.999981 0 0 1 53.978516 32.414062 A 21.999981 21.999981 0 0 0 54 32 A 21.999981 21.999981 0 0 0 32 10 z "
     id="path4233-7-56" />
</svg>
