<?xml version="1.0" encoding="UTF-8" standalone="no"?>
<!-- Created with Inkscape (http://www.inkscape.org/) -->

<svg
   xmlns:dc="http://purl.org/dc/elements/1.1/"
   xmlns:cc="http://creativecommons.org/ns#"
   xmlns:rdf="http://www.w3.org/1999/02/22-rdf-syntax-ns#"
   xmlns:svg="http://www.w3.org/2000/svg"
   xmlns="http://www.w3.org/2000/svg"
   xmlns:sodipodi="http://sodipodi.sourceforge.net/DTD/sodipodi-0.dtd"
   xmlns:inkscape="http://www.inkscape.org/namespaces/inkscape"
   width="64"
   height="64"
   viewBox="0 0 64 64.000001"
   id="svg2"
   version="1.1"
   inkscape:version="0.91 r13725"
   sodipodi:docname="edit-select.svg">
  <defs
     id="defs4" />
  <sodipodi:namedview
     id="base"
     pagecolor="#ffffff"
     bordercolor="#666666"
     borderopacity="1.0"
     inkscape:pageopacity="0.0"
     inkscape:pageshadow="2"
     inkscape:zoom="5.6568543"
     inkscape:cx="22.76674"
     inkscape:cy="39.738295"
     inkscape:document-units="px"
     inkscape:current-layer="g8719"
     showgrid="false"
     units="px"
     inkscape:snap-bbox="true"
     inkscape:bbox-nodes="true"
     inkscape:window-width="1366"
     inkscape:window-height="697"
     inkscape:window-x="0"
     inkscape:window-y="0"
     inkscape:window-maximized="1"
     inkscape:snap-global="true"
     inkscape:object-nodes="true"
     inkscape:snap-object-midpoints="true"
     inkscape:snap-center="true"
     inkscape:snap-smooth-nodes="false"
     inkscape:snap-others="false"
     inkscape:snap-bbox-edge-midpoints="false"
     inkscape:snap-nodes="true">
    <inkscape:grid
       type="xygrid"
       id="grid4136"
       empspacing="4" />
  </sodipodi:namedview>
  <metadata
     id="metadata7">
    <rdf:RDF>
      <cc:Work
         rdf:about="">
        <dc:format>image/svg+xml</dc:format>
        <dc:type
           rdf:resource="http://purl.org/dc/dcmitype/StillImage" />
        <dc:title />
      </cc:Work>
    </rdf:RDF>
  </metadata>
  <g
     inkscape:label="icon"
     inkscape:groupmode="layer"
     id="layer1"
     transform="translate(0,-988.3622)">
    <g
       id="g8210" />
    <g
       id="g8719">
      <path
         style="color:#000000;font-style:normal;font-variant:normal;font-weight:normal;font-stretch:normal;font-size:medium;line-height:normal;font-family:sans-serif;text-indent:0;text-align:start;text-decoration:none;text-decoration-line:none;text-decoration-style:solid;text-decoration-color:#000000;letter-spacing:normal;word-spacing:normal;text-transform:none;direction:ltr;block-progression:tb;writing-mode:lr-tb;baseline-shift:baseline;text-anchor:start;white-space:normal;clip-rule:nonzero;display:inline;overflow:visible;visibility:visible;opacity:1;isolation:auto;mix-blend-mode:normal;color-interpolation:sRGB;color-interpolation-filters:linearRGB;solid-color:#000000;solid-opacity:1;fill:#e7e5e5;fill-opacity:1;fill-rule:evenodd;stroke:none;stroke-width:4;stroke-linecap:round;stroke-linejoin:round;stroke-miterlimit:4;stroke-dasharray:none;stroke-dashoffset:0;stroke-opacity:1;color-rendering:auto;image-rendering:auto;shape-rendering:auto;text-rendering:auto;enable-background:accumulate"
         d="M 7.970703,1002.3633 A 2.0002,2.0002 0 0 0 6,1004.3613 l 0,29 a 2.0002,2.0002 0 0 0 2.083984,2 l 7.953125,-0.332 3.869141,5.1035 a 2.0002,2.0002 0 0 0 2.414062,0.6152 l 2.5,-1.125 a 2.0002,2.0002 0 0 0 1.103516,-2.3691 l -1.691406,-5.9707 5.224609,-5.5508 a 2.0002,2.0002 0 0 0 -0.04297,-2.7851 l -20,-20 a 2.0002,2.0002 0 0 0 -1.443359,-0.584 z M 10,1009.1914 l 15.212891,15.2129 -4.669922,4.9629 a 2.0002,2.0002 0 0 0 -0.466797,1.914 l 1.109375,3.918 -2.591797,-3.4199 a 2.0002,2.0002 0 0 0 -1.677734,-0.791 L 10,1031.2773 l 0,-22.0859 z"
         id="path9105-3-1"
         inkscape:connector-curvature="0" />
      <path
         style="fill:#0566af;fill-rule:evenodd;stroke:none;stroke-width:1px;stroke-linecap:butt;stroke-linejoin:miter;stroke-opacity:1"
         d="m 8,1033.3622 0,-29 20,20 -6,6.375 2,7.0625 -2.5,1.125 -4.5,-5.9375 z"
         id="path9105-3"
         inkscape:connector-curvature="0"
         sodipodi:nodetypes="cccccccc" />
      <path
         style="color:#000000;font-style:normal;font-variant:normal;font-weight:normal;font-stretch:normal;font-size:medium;line-height:normal;font-family:sans-serif;text-indent:0;text-align:start;text-decoration:none;text-decoration-line:none;text-decoration-style:solid;text-decoration-color:#000000;letter-spacing:normal;word-spacing:normal;text-transform:none;direction:ltr;block-progression:tb;writing-mode:lr-tb;baseline-shift:baseline;text-anchor:start;white-space:normal;clip-rule:nonzero;display:inline;overflow:visible;visibility:visible;opacity:1;isolation:auto;mix-blend-mode:normal;color-interpolation:sRGB;color-interpolation-filters:linearRGB;solid-color:#000000;solid-opacity:1;fill:#343031;fill-opacity:1;fill-rule:evenodd;stroke:none;stroke-width:4;stroke-linecap:round;stroke-linejoin:round;stroke-miterlimit:4;stroke-dasharray:none;stroke-dashoffset:0;stroke-opacity:1;color-rendering:auto;image-rendering:auto;shape-rendering:auto;text-rendering:auto;enable-background:accumulate"
         d="M 21.970703,1004.3633 A 2.0002,2.0002 0 0 0 20,1006.3613 l 0,29 a 2.0002,2.0002 0 0 0 3.199219,1.6016 l 6.019531,-4.5137 2.214844,4.8125 a 2.0002,2.0002 0 0 0 2.636718,0.9863 l 2.5,-1.125 a 2.0002,2.0002 0 0 0 1.039063,-2.5605 l -1.884766,-4.7578 6.708985,-1.4902 a 2.0002,2.0002 0 0 0 0.980468,-3.3672 l -20,-20 a 2.0002,2.0002 0 0 0 -1.443359,-0.584 z M 24,1011.1914 l 14.009766,14.0098 -5.44336,1.209 a 2.0002,2.0002 0 0 0 -1.453125,1.2929 2.0002,2.0002 0 0 0 -2.3125,0.059 L 24,1031.3633 l 0,-20.1719 z"
         id="path9105-3-8-3"
         inkscape:connector-curvature="0" />
      <path
         style="fill:#e7e5e5;fill-rule:evenodd;stroke:none;stroke-width:1px;stroke-linecap:butt;stroke-linejoin:miter;stroke-opacity:1"
         d="m 22,1006.3622 0,29 8,-6 3.25,7.0625 2.5,-1.125 -2.75,-6.9375 9,-2 z"
         id="path9105-3-8"
         inkscape:connector-curvature="0"
         sodipodi:nodetypes="cccccccc" />
      <path
         style="color:#000000;font-style:normal;font-variant:normal;font-weight:normal;font-stretch:normal;font-size:medium;line-height:normal;font-family:sans-serif;text-indent:0;text-align:start;text-decoration:none;text-decoration-line:none;text-decoration-style:solid;text-decoration-color:#000000;letter-spacing:normal;word-spacing:normal;text-transform:none;direction:ltr;block-progression:tb;writing-mode:lr-tb;baseline-shift:baseline;text-anchor:start;white-space:normal;clip-rule:nonzero;display:inline;overflow:visible;visibility:visible;opacity:1;isolation:auto;mix-blend-mode:normal;color-interpolation:sRGB;color-interpolation-filters:linearRGB;solid-color:#000000;solid-opacity:1;fill:#fcfcfc;fill-opacity:1;fill-rule:evenodd;stroke:none;stroke-width:4;stroke-linecap:round;stroke-linejoin:round;stroke-miterlimit:4;stroke-dasharray:none;stroke-dashoffset:0;stroke-opacity:1;color-rendering:auto;image-rendering:auto;shape-rendering:auto;text-rendering:auto;enable-background:accumulate"
         d="M 35.970703,1002.3633 A 2.0002,2.0002 0 0 0 34,1004.3613 l 0,29 a 2.0002,2.0002 0 0 0 2.568359,1.918 l 6.613282,-1.9629 4.673828,6.7481 a 2.0002,2.0002 0 0 0 2.464843,0.6835 l 2.5,-1.125 a 2.0002,2.0002 0 0 0 1.078126,-2.4511 l -2.50586,-7.5723 5.667969,-3.541 a 2.0002,2.0002 0 0 0 0.353515,-3.1113 l -20,-20 a 2.0002,2.0002 0 0 0 -1.443359,-0.584 z M 38,1009.1914 l 14.806641,14.8066 -4.867188,3.043 a 2.0002,2.0002 0 0 0 -0.837891,2.3242 l 1.638672,4.9493 -3.095703,-4.4668 a 2.0002,2.0002 0 0 0 -2.21289,-0.7774 L 38,1030.6836 l 0,-21.4922 z"
         id="path9105-3-3-8"
         inkscape:connector-curvature="0" />
      <path
         style="fill:#343031;fill-rule:evenodd;stroke:none;stroke-width:1px;stroke-linecap:butt;stroke-linejoin:miter;stroke-opacity:1"
         d="m 36,1033.3622 0,-29 20,20 -7,4.375 3,9.0625 -2.5,1.125 -5.5,-7.9375 z"
         id="path9105-3-3"
         inkscape:connector-curvature="0"
         sodipodi:nodetypes="cccccccc" />
    </g>
  </g>
</svg>
