<?xml version="1.0" encoding="UTF-8" standalone="no"?>
<!-- Created with Inkscape (http://www.inkscape.org/) -->
<svg id="svg2" xmlns:rdf="http://www.w3.org/1999/02/22-rdf-syntax-ns#" xmlns="http://www.w3.org/2000/svg" height="64" viewBox="0 0 64 64.000001" width="64" version="1.1" xmlns:cc="http://creativecommons.org/ns#" xmlns:xlink="http://www.w3.org/1999/xlink" xmlns:dc="http://purl.org/dc/elements/1.1/">
	<defs id="defs4">
		<linearGradient id="linearGradient4994">
			<stop id="stop4996" stop-color="#fcfcfc" offset="0"/>
			<stop id="stop4998" stop-color="#eff1f1" offset="1"/>
		</linearGradient>
		<linearGradient id="linearGradient5281-3" y2="474.36" xlink:href="#linearGradient5259-6" gradientUnits="userSpaceOnUse" x2="132" gradientTransform="matrix(0 1 -1 0 526.36 -120)" y1="474.36" x1="180"/>
		<linearGradient id="linearGradient5259-6">
			<stop id="stop5261-7" stop-color="#4e3716" offset="0"/>
			<stop id="stop5263-5" stop-color="#b08240" offset="1"/>
		</linearGradient>
		<linearGradient id="linearGradient5279-3" y2="516.36" xlink:href="#linearGradient5259-6" gradientUnits="userSpaceOnUse" x2="132" gradientTransform="matrix(0 1 -1 0 526.36 -120)" y1="516.36" x1="180"/>
		<linearGradient id="linearGradient11379" y2="967.36" gradientUnits="userSpaceOnUse" x2="492" gradientTransform="translate(-456 -904.36)" y1="909.36" x1="492">
			<stop id="stop11375" stop-color="#dddbdb" offset="0"/>
			<stop id="stop11377" stop-color="#fafafa" offset="1"/>
		</linearGradient>
		<linearGradient id="linearGradient5113-5" y2="505.58" xlink:href="#linearGradient5099-6" gradientUnits="userSpaceOnUse" x2="151" gradientTransform="matrix(0 1 -1 0 528.36 -120)" y1="505.58" x1="130"/>
		<linearGradient id="linearGradient5099-6">
			<stop id="stop5101-2" stop-color="#f99133" offset="0"/>
			<stop id="stop5103-9" stop-color="#af5505" offset="1"/>
		</linearGradient>
		<linearGradient id="linearGradient5121-1" y2="485.36" xlink:href="#linearGradient5099-6" gradientUnits="userSpaceOnUse" x2="163" gradientTransform="matrix(0 1 -1 0 528.36 -120)" y1="485.36" x1="136"/>
		<linearGradient id="linearGradient5165-2" y2="491.99" xlink:href="#linearGradient4994" gradientUnits="userSpaceOnUse" x2="154.17" gradientTransform="matrix(0 1 -1 0 528.36 -120)" y1="491.99" x1="144.05"/>
		<linearGradient id="linearGradient5167-9" y2="504.1" xlink:href="#linearGradient4994" gradientUnits="userSpaceOnUse" x2="152.84" gradientTransform="matrix(0 1 -1 0 528.36 -120)" y1="504.1" x1="143.42"/>
		<linearGradient id="linearGradient5157-3" x1="-510.36" gradientUnits="userSpaceOnUse" x2="-510.36" gradientTransform="translate(528.36 -120)" y1="164" y2="152">
			<stop id="stop5153-6" stop-color="#343031" offset="0"/>
			<stop id="stop5155-0" stop-color="#534d52" offset="1"/>
		</linearGradient>
		<linearGradient id="linearGradient5277-6" y2="124" xlink:href="#linearGradient5259-6" gradientUnits="userSpaceOnUse" x2="-494.36" gradientTransform="translate(526.36 -120)" y1="180" x1="-494.36"/>
		<linearGradient id="linearGradient5273-2" y2="117.88" xlink:href="#linearGradient5259-6" gradientUnits="userSpaceOnUse" x2="-491.36" gradientTransform="translate(526.36 -120)" y1="179" x1="-491.36"/>
		<linearGradient id="linearGradient5265-6" y2="170" xlink:href="#linearGradient5259-7-1" gradientUnits="userSpaceOnUse" x2="-494.36" gradientTransform="translate(526.36 -120)" y1="174" x1="-494.36"/>
		<linearGradient id="linearGradient5259-7-1">
			<stop id="stop5285-8" stop-color="#88622c" offset="0"/>
			<stop id="stop5287-7" stop-color="#cc9f60" offset="1"/>
		</linearGradient>
		<linearGradient id="linearGradient5275-9" y2="130" xlink:href="#linearGradient5259-7-1" gradientUnits="userSpaceOnUse" x2="-496.36" gradientTransform="translate(526.36 -120)" y1="134" x1="-496.36"/>
		<linearGradient id="linearGradient5177-2" y2="151" gradientUnits="userSpaceOnUse" x2="-509.36" gradientTransform="translate(526.36 -120)" y1="152" x1="-509.36">
			<stop id="stop7344-0" offset="0"/>
			<stop id="stop7346-2" stop-opacity="0" offset="1"/>
		</linearGradient>
		<linearGradient id="linearGradient5177-3-3" x1="-509.36" gradientUnits="userSpaceOnUse" x2="-509.36" gradientTransform="translate(526.36 -119)" y1="152" y2="151">
			<stop id="stop9572-7" stop-opacity="0" stop-color="#fff" offset="0"/>
			<stop id="stop9574-5" stop-color="#fff" offset="1"/>
		</linearGradient>
	</defs>
	<metadata id="metadata7">
		<rdf:RDF>
			<cc:Work rdf:about="">
				<dc:format>image/svg+xml</dc:format>
				<dc:type rdf:resource="http://purl.org/dc/dcmitype/StillImage"/>
				<dc:title/>
			</cc:Work>
		</rdf:RDF>
	</metadata>
	<path id="path5225-9" fill-rule="evenodd" fill="url(#linearGradient5281-3)" d="m52 60h-4l-14-44h4z"/>
	<path id="path5225-1-2" fill-rule="evenodd" fill="url(#linearGradient5279-3)" d="m12 60h4l14-44h-4z"/>
	<rect id="rect5039-2" style="color-rendering:auto;color:#000000;isolation:auto;mix-blend-mode:normal;shape-rendering:auto;solid-color:#000000;image-rendering:auto" rx="4.0012" height="40" width="56" y="12" x="4" fill="url(#linearGradient11379)"/>
	<path id="path5097-8" fill-rule="evenodd" fill="url(#linearGradient5113-5)" d="m16 17s-1 4 0 7c0.66253 1.9876 2.5793 4.321 3.8398 5.7324-0.26492 0.29221-0.55075 0.68941-0.83984 1.2676-1 2-1 3-1 3l4-2-0.4707-1.4121 8.4707-6.5879 1-3c-4 0-5-1-8-1s-7-3-7-3z"/>
	<path id="path5095-9" fill-rule="evenodd" fill="url(#linearGradient5121-1)" d="m50 15-4 2c-1.6186 0.80929-4.5574 1.8657-10.258 4.2676-1.1968-0.17161-2.6917-0.26758-4.7422-0.26758-7 0-9 4-9 4l-3 16s1 3 4 4 2 2 6 2 7.5007-1.6834 10.625-2.5625c8.1241-2.2861 10.375-11.062 10.375-15.438 0-3 1-4 1-8s-1-6-1-6z"/>
	<path id="path5052-3-7" style="color-rendering:auto;color:#000000;isolation:auto;mix-blend-mode:normal;shape-rendering:auto;solid-color:#000000;image-rendering:auto" fill="url(#linearGradient5165-2)" d="m41.75 29.52c0 2.8988-2.0213 4.6527-5.143 4.6527s-5.6046-2.273-5.6046-5.1718 2.4107-4.9532 5.5324-4.9532 5.2152 2.5735 5.2152 5.4723z"/>
	<path id="path5052-3-6-3" style="color-rendering:auto;color:#000000;isolation:auto;mix-blend-mode:normal;shape-rendering:auto;solid-color:#000000;image-rendering:auto" fill="url(#linearGradient5167-9)" d="m29 28c0 2.7502-3.1063 4.9335-5.1919 4.8402-2.2104-0.0988-4.2804-1.126-4.2804-3.8762s2.5627-5.5422 5.5244-5.5422 3.9479 1.828 3.9479 4.5782z"/>
	<path id="path5085-6" d="m26 45c1.0541 0 1 1 3 1s1.4167-1.0625 0.75-1.0625c-2 0-4.75 0.0625-3.75 0.0625z" fill-rule="evenodd" fill="#343031"/>
	<path id="path5052-1" d="m27.56 38.13c0 3.5898-3.134 6.4375-7 6.4375s-7.3125-1.9102-7.3125-5.5 3.884-7.0625 7.75-7.0625 6.5625 2.5352 6.5625 6.125z" style="color-rendering:auto;color:#000000;isolation:auto;mix-blend-mode:normal;shape-rendering:auto;solid-color:#000000;image-rendering:auto" fill="url(#linearGradient5157-3)"/>
	<path id="rect5039-9-2" opacity=".1" style="color-rendering:auto;color:#000000;isolation:auto;mix-blend-mode:normal;shape-rendering:auto;solid-color:#000000;image-rendering:auto" d="m8.002 12c-2.2167 0-4.002 1.785-4.002 4.002v15.998h56v-15.998c0-2.217-1.785-4.002-4.002-4.002h-47.996z" fill="#172525"/>
	<rect id="rect5223-9" style="color-rendering:auto;color:#000000;isolation:auto;mix-blend-mode:normal;shape-rendering:auto;solid-color:#000000;image-rendering:auto" height="8" width="4" y="52" x="30" fill="url(#linearGradient5277-6)"/>
	<rect id="rect5257-3" style="color-rendering:auto;color:#000000;isolation:auto;mix-blend-mode:normal;shape-rendering:auto;solid-color:#000000;image-rendering:auto" height="7" width="4" y="4" x="30" fill="url(#linearGradient5273-2)"/>
	<g>
		<circle id="path5087-1" style="color-rendering:auto;color:#000000;isolation:auto;mix-blend-mode:normal;shape-rendering:auto;solid-color:#000000;image-rendering:auto" cx="26" cy="30" r="2" fill="#343031"/>
		<circle id="path5089-9" style="color-rendering:auto;color:#000000;isolation:auto;mix-blend-mode:normal;shape-rendering:auto;solid-color:#000000;image-rendering:auto" cx="36" cy="30" r="2" fill="#343031"/>
		<path id="rect5039-9-9-2" style="color-rendering:auto;color:#000000;isolation:auto;mix-blend-mode:normal;shape-rendering:auto;solid-color:#000000;image-rendering:auto" d="m8.002 52c-2.2167 0-4.002-1.785-4.002-4.002v-1c0 2.217 1.7853 4.002 4.002 4.002h47.996c2.217 0 4.002-1.785 4.002-4.002v1c0 2.217-1.785 4.002-4.002 4.002h-47.996z" fill="#dddbdb"/>
	</g>
	<rect id="rect5221-4" style="color-rendering:auto;color:#000000;isolation:auto;mix-blend-mode:normal;shape-rendering:auto;solid-color:#000000;image-rendering:auto" height="4" width="18" y="50" x="23" fill="url(#linearGradient5265-6)"/>
	<rect id="rect5289-7" opacity=".2" style="color-rendering:auto;color:#000000;isolation:auto;mix-blend-mode:normal;shape-rendering:auto;solid-color:#000000;image-rendering:auto" height="1" width="18" y="50" x="23" fill="#fff"/>
	<rect id="rect5221-2-8" style="color-rendering:auto;color:#000000;isolation:auto;mix-blend-mode:normal;shape-rendering:auto;solid-color:#000000;image-rendering:auto" height="4" width="10" y="10" x="27" fill="url(#linearGradient5275-9)"/>
	<rect id="rect5289-0-4" opacity=".2" style="color-rendering:auto;color:#000000;isolation:auto;mix-blend-mode:normal;shape-rendering:auto;solid-color:#000000;image-rendering:auto" height="1" width="10" y="10" x="27" fill="#fff"/>
	<rect id="rect5169-5" opacity=".05" style="color-rendering:auto;color:#000000;isolation:auto;mix-blend-mode:normal;shape-rendering:auto;solid-color:#000000;image-rendering:auto" rx="0" height="1" width="56" y="31" x="4" fill="url(#linearGradient5177-2)"/>
	<rect id="rect5169-2-0" opacity=".1" style="color-rendering:auto;color:#000000;isolation:auto;mix-blend-mode:normal;shape-rendering:auto;solid-color:#000000;image-rendering:auto" rx="0" height="1" width="56" y="32" x="4" fill="url(#linearGradient5177-3-3)"/>
</svg>
