<?xml version="1.0" encoding="UTF-8" standalone="no"?>
<!-- Created with Inkscape (http://www.inkscape.org/) -->

<svg
   xmlns:dc="http://purl.org/dc/elements/1.1/"
   xmlns:cc="http://creativecommons.org/ns#"
   xmlns:rdf="http://www.w3.org/1999/02/22-rdf-syntax-ns#"
   xmlns:svg="http://www.w3.org/2000/svg"
   xmlns="http://www.w3.org/2000/svg"
   xmlns:sodipodi="http://sodipodi.sourceforge.net/DTD/sodipodi-0.dtd"
   xmlns:inkscape="http://www.inkscape.org/namespaces/inkscape"
   id="svg2"
   height="64"
   viewBox="0 0 64 64.000001"
   width="64"
   version="1.1"
   inkscape:version="0.91 r13725"
   sodipodi:docname="gwenview.svg">
  <sodipodi:namedview
     pagecolor="#ffffff"
     bordercolor="#666666"
     borderopacity="1"
     objecttolerance="10"
     gridtolerance="10"
     guidetolerance="10"
     inkscape:pageopacity="0"
     inkscape:pageshadow="2"
     inkscape:window-width="2160"
     inkscape:window-height="1415"
     id="namedview25"
     showgrid="false"
     inkscape:snap-bbox="true"
     inkscape:snap-bbox-edge-midpoints="true"
     inkscape:zoom="16"
     inkscape:cx="35.541916"
     inkscape:cy="45.430439"
     inkscape:window-x="0"
     inkscape:window-y="0"
     inkscape:window-maximized="0"
     inkscape:current-layer="svg2">
    <inkscape:grid
       type="xygrid"
       id="grid4153" />
  </sodipodi:namedview>
  <defs
     id="defs4">
    <linearGradient
       id="linearGradient5997-3"
       x1="31"
       gradientUnits="userSpaceOnUse"
       x2="31"
       gradientTransform="matrix(1.1428229,0,0,-1,-4.570763,1052.3)"
       y1="1000.4"
       y2="1040.4">
      <stop
         id="stop9446-6"
         stop-color="#f88484"
         offset="0" />
      <stop
         id="stop9448-7"
         stop-color="#600445"
         offset="1" />
    </linearGradient>
    <linearGradient
       id="linearGradient4916-0-5"
       y2="33"
       gradientUnits="userSpaceOnUse"
       x2="11"
       gradientTransform="matrix(1.1428229,0,0,1,-4.570763,-0.04)"
       y1="32"
       x1="11">
      <stop
         id="stop4912-3"
         stop-color="#fff"
         offset="0" />
      <stop
         id="stop4914-5"
         stop-opacity="0"
         stop-color="#fff"
         offset="1" />
    </linearGradient>
    <linearGradient
       id="linearGradient4908-0-6"
       y2="31"
       gradientUnits="userSpaceOnUse"
       x2="11"
       gradientTransform="matrix(1.1428229,0,0,1,-4.570763,-0.04)"
       y1="32"
       x1="11">
      <stop
         id="stop4904-0"
         offset="0" />
      <stop
         id="stop4906-9"
         stop-opacity="0"
         offset="1" />
    </linearGradient>
  </defs>
  <metadata
     id="metadata7">
    <rdf:RDF>
      <cc:Work
         rdf:about="">
        <dc:format>image/svg+xml</dc:format>
        <dc:type
           rdf:resource="http://purl.org/dc/dcmitype/StillImage" />
        <dc:title />
      </cc:Work>
    </rdf:RDF>
  </metadata>
  <path
     id="path9347-92-2"
     style="color:#000000;isolation:auto;mix-blend-mode:normal;solid-color:#000000;fill:url(#linearGradient5997-3);color-rendering:auto;image-rendering:auto;shape-rendering:auto"
     d="M 32,54 C 13.138286,54 3.7965714,39.697 0.88228571,34.354 0.46491429,33.59 0.00194286,32.847 0,32 0.00228571,31.154 0.46491429,30.411 0.88171429,29.647 3.7970286,24.304 13.137714,10.001 31.999429,10.001 c 18.861714,0 28.202285,14.303 31.117714,19.646 0.416731,0.7638 0.879737,1.5071 0.881668,2.3535 -0.0023,0.8464 -0.464948,1.5897 -0.881668,2.3535 C 60.201714,39.696 50.86,53.999 31.999429,53.999 Z"
     inkscape:connector-curvature="0"
     sodipodi:nodetypes="ccccsccccc" />
  <g
     id="g4160">
    <circle
       id="path9667-74-9"
       style="color:#000000;isolation:auto;mix-blend-mode:normal;solid-color:#000000;fill:#fafafa;color-rendering:auto;image-rendering:auto;shape-rendering:auto"
       cy="32"
       cx="32"
       r="13" />
    <path
       id="path9442-2-2"
       style="color:#000000;isolation:auto;mix-blend-mode:normal;solid-color:#000000;fill:#dddbdb;color-rendering:auto;image-rendering:auto;shape-rendering:auto"
       d="m 32,20.958 c -6.0749,0 -11,4.9248 -11,11 0.003,1.4505 0.29277,2.886 0.85273,4.2242 l 4.2239,-1.6855 6.769,5.923 4.2306,-4.2308 2.5384,1.6923 2.1335,-0.84615 c 0.81821,-1.5671 1.248,-3.3084 1.2506,-5.0769 0,-6.0754 -4.9245,-11 -11,-11 z"
       inkscape:connector-curvature="0" />
    <path
       id="path9553-4-7"
       style="color:#000000;isolation:auto;mix-blend-mode:normal;solid-color:#000000;fill:#b6b2b6;color-rendering:auto;image-rendering:auto;shape-rendering:auto"
       d="m 41.748,37.034 -2.1331,0 -2.5384,-2.5384 -4.2306,4.2308 -6.769,-6.7692 -4.2239,4.224 a 11,11 0 0 0 10.147,6.776 11,11 0 0 0 9.7482,-5.923 z"
       inkscape:connector-curvature="0" />
    <ellipse
       id="path9442-0-4-0"
       style="color:#000000;isolation:auto;mix-blend-mode:normal;solid-color:#000000;fill:#b6b2b6;color-rendering:auto;image-rendering:auto;shape-rendering:auto"
       rx="3.3845"
       ry="3.3845999"
       cy="28.607"
       cx="36.23" />
  </g>
  <path
     inkscape:connector-curvature="0"
     d="M 5.7142857e-4,32 C 0.00285714,32.8464 0.46552,33.5897 0.88224,34.3535 c 2.9153143,5.3434 12.257143,19.646 31.117714,19.646 18.861715,0 28.202286,-14.303 31.117715,-19.646 0.417142,-0.764 0.88,-1.508 0.882285,-2.354 l -0.212045,0 c -0.170743,0.461 -0.424515,0.9043 -0.669623,1.3535 C 60.202971,38.6964 50.861143,52.999 32.000571,52.999 13.138857,52.999 3.7982857,38.696 0.88285714,33.353 0.63771429,32.903 0.38388571,32.46 0.21314286,31.999 l -0.21028572,0 z"
     style="color:#000000;isolation:auto;mix-blend-mode:normal;solid-color:#000000;fill:#600445;color-rendering:auto;image-rendering:auto;shape-rendering:auto"
     id="path9347-0-3-9"
     sodipodi:nodetypes="cssccccscccc" />
  <path
     id="rect4799-6-8-3"
     style="color:#000000;opacity:0.1;isolation:auto;mix-blend-mode:normal;solid-color:#000000;fill:url(#linearGradient4916-0-5);color-rendering:auto;image-rendering:auto;shape-rendering:auto"
     d="M 5.7142857e-4,31.96 C 0.00137143,32.309 0.09279771,32.6374 0.21485714,32.96 l 63.57028586,0 C 63.907429,32.637 63.998857,32.309 64,31.96 l -63.99885714,0 z"
     inkscape:connector-curvature="0" />
  <path
     id="rect4799-60-6"
     style="color:#000000;opacity:0.1;isolation:auto;mix-blend-mode:normal;solid-color:#000000;fill:url(#linearGradient4908-0-6);color-rendering:auto;image-rendering:auto;shape-rendering:auto"
     d="M 0.21485714,30.96 C 0.0928,31.283 0.00137143,31.611 5.7142857e-4,31.96 L 63.999429,31.96 c -8e-4,-0.349 -0.09223,-0.6774 -0.214286,-1 l -63.57028586,0 z"
     inkscape:connector-curvature="0" />
  <path
     id="path9347-3-8-0"
     style="color:#000000;opacity:0.1;isolation:auto;mix-blend-mode:normal;solid-color:#000000;color-rendering:auto;image-rendering:auto;shape-rendering:auto"
     d="M 32,10 C 13.138286,10 3.7965714,24.303 0.88228571,29.646 0.46491429,30.41 0.00194286,31.153 0,32 l 63.998857,0 c -0.0023,-0.8464 -0.464948,-1.5897 -0.881668,-2.3535 -2.915315,-5.3 -12.257143,-19.6 -31.117715,-19.6 z"
     inkscape:connector-curvature="0"
     sodipodi:nodetypes="ccccccc" />
</svg>
