<?xml version="1.0" encoding="UTF-8" standalone="no"?>
<!-- Created with Inkscape (http://www.inkscape.org/) -->

<svg
   xmlns:dc="http://purl.org/dc/elements/1.1/"
   xmlns:cc="http://creativecommons.org/ns#"
   xmlns:rdf="http://www.w3.org/1999/02/22-rdf-syntax-ns#"
   xmlns:svg="http://www.w3.org/2000/svg"
   xmlns="http://www.w3.org/2000/svg"
   xmlns:sodipodi="http://sodipodi.sourceforge.net/DTD/sodipodi-0.dtd"
   xmlns:inkscape="http://www.inkscape.org/namespaces/inkscape"
   id="svg2"
   height="64"
   viewBox="0 0 64 64.000001"
   width="64"
   version="1.1"
   inkscape:version="0.91 r13725"
   sodipodi:docname="inkscape.svg">
  <sodipodi:namedview
     pagecolor="#ffffff"
     bordercolor="#666666"
     borderopacity="1"
     objecttolerance="10"
     gridtolerance="10"
     guidetolerance="10"
     inkscape:pageopacity="0"
     inkscape:pageshadow="2"
     inkscape:window-width="2002"
     inkscape:window-height="1369"
     id="namedview25"
     showgrid="false"
     inkscape:snap-smooth-nodes="true"
     inkscape:zoom="1"
     inkscape:cx="28.689149"
     inkscape:cy="24.144832"
     inkscape:window-x="875"
     inkscape:window-y="303"
     inkscape:window-maximized="0"
     inkscape:current-layer="svg2">
    <inkscape:grid
       type="xygrid"
       id="grid4153" />
  </sodipodi:namedview>
  <defs
     id="defs4">
    <linearGradient
       id="linearGradient13617-3"
       y2="1048.4"
       gradientUnits="userSpaceOnUse"
       x2="35"
       gradientTransform="translate(-10e-6,-988.3603)"
       y1="1010.6"
       x1="35">
      <stop
         id="stop13613-6"
         stop-color="#343031"
         offset="0" />
      <stop
         id="stop13615-7"
         stop-color="#0566af"
         offset="1" />
    </linearGradient>
    <linearGradient
       id="linearGradient13625-5"
       y2="1011.4"
       gradientUnits="userSpaceOnUse"
       x2="36"
       gradientTransform="translate(-1e-5,-988.3603)"
       y1="994.36"
       x1="36">
      <stop
         id="stop13621-3"
         stop-color="#fafafa"
         offset="0" />
      <stop
         id="stop13623-5"
         stop-color="#dddbdb"
         offset="1" />
    </linearGradient>
    <linearGradient
       id="linearGradient13576-6"
       y2="1021.4"
       gradientUnits="userSpaceOnUse"
       x2="11"
       gradientTransform="translate(-1e-5,-988.3603)"
       y1="1020.4"
       x1="11">
      <stop
         id="stop13572-2"
         stop-color="#fff"
         offset="0" />
      <stop
         id="stop13574-9"
         stop-opacity="0"
         stop-color="#fff"
         offset="1" />
    </linearGradient>
    <linearGradient
       id="linearGradient13584-1"
       y2="1019.4"
       gradientUnits="userSpaceOnUse"
       x2="13"
       gradientTransform="translate(-1e-5,-988.3603)"
       y1="1020.4"
       x1="13">
      <stop
         id="stop13580-2"
         offset="0" />
      <stop
         id="stop13582-7"
         stop-opacity="0"
         offset="1" />
    </linearGradient>
    <linearGradient
       id="linearGradient13625-5-3"
       y2="1011.4"
       gradientUnits="userSpaceOnUse"
       x2="36"
       gradientTransform="translate(-1e-5,-988.3603)"
       y1="994.35999"
       x1="36">
      <stop
         id="stop13621-3-6"
         stop-color="#fafafa"
         offset="0" />
      <stop
         id="stop13623-5-7"
         stop-color="#dddbdb"
         offset="1" />
    </linearGradient>
    <linearGradient
       id="linearGradient13625-5-35"
       y2="1011.4"
       gradientUnits="userSpaceOnUse"
       x2="36"
       gradientTransform="translate(-1e-5,-987.3603)"
       y1="994.35999"
       x1="36">
      <stop
         id="stop13621-3-62"
         stop-color="#fafafa"
         offset="0" />
      <stop
         id="stop13623-5-9"
         stop-color="#dddbdb"
         offset="1" />
    </linearGradient>
  </defs>
  <metadata
     id="metadata7">
    <rdf:RDF>
      <cc:Work
         rdf:about="">
        <dc:format>image/svg+xml</dc:format>
        <dc:type
           rdf:resource="http://purl.org/dc/dcmitype/StillImage" />
        <dc:title />
      </cc:Work>
    </rdf:RDF>
  </metadata>
  <path
     id="path13349-1-01-0"
     d="M 29.623,4.7829 4.781,29.6289 c -0.5891,0.589 -0.7803,1.495 -0.7813,2.371 0,1.1046 0.44802,2.1043 1.1719,2.8281 1.7381,1.7382 11.312,3.1671 11.312,4.4512 0,1.5455 -5.755,1.5278 -5.5234,3.8437 0.25248,2.5247 13.168,3.1995 13.434,5.586 0.26517,2.3865 -2.5181,2.8727 -2.4297,4.5078 0.10507,1.9438 6.6736,0.3098 6.8945,2.873 0.22098,2.5632 -1.8594,3.9102 5.1406,3.9102 7,0 8.5594,-3.1595 5.2891,-5.0156 -3.2704,-1.8562 -10e-4,-2.4752 4.1973,-4.2871 4.1984,-1.812 6.5859,-3.0487 2.0781,-6.0098 -4.5078,-2.961 -0.13265,-4.1094 5.2148,-5.3027 9.221,-2.4 9.221,-6.3 9.221,-7.4 -9.8e-4,-0.8758 -0.19219,-1.7819 -0.78125,-2.3711 l -24.842,-24.85 C 33.78565,4.1636 32.843792,4 32,4 31.116299,4 30.2136,4.1922 29.623,4.7829 Z M 57.5,43.9997 c -1.3807,0 -4.5,0.8954 -4.5,2 -1e-5,1.1046 3.1193,2 4.5,2 1.3807,0 2.5,-0.8954 2.5,-2 1e-5,-1.1046 -1.1193,-2 -2.5,-2 z m -40,4 c -1.3807,0 -2.5,0.8954 -2.5,2 -10e-6,1.1046 1.1193,2 2.5,2 1.3807,0 3.5,-0.8954 3.5,-2 10e-6,-1.1046 -2.1193,-2 -3.5,-2 z m 34,1 c -1.380712,0 -2.5,0.895431 -2.5,2 0,1.104569 1.119288,2 2.5,2 1.380712,0 2.5,-0.895431 2.5,-2 0,-1.104569 -1.119288,-2 -2.5,-2 z"
     style="color:#000000;isolation:auto;mix-blend-mode:normal;solid-color:#000000;fill:url(#linearGradient13617-3);color-rendering:auto;image-rendering:auto;shape-rendering:auto"
     inkscape:connector-curvature="0"
     sodipodi:nodetypes="scccsscccssccccccsssssssssssssssss" />
  <path
     id="path13349-1-0-9"
     d="m32 5.9997c-0.585-0.0001-0.943 0.1773-0.963 0.1973l-11.918 11.922 4.881 4.881 11-5 6 3 4.51-2.254-12.547-12.549c-0.02-0.02-0.378-0.1974-0.963-0.1973z"
     style="color-rendering:auto;color:#000000;isolation:auto;mix-blend-mode:normal;shape-rendering:auto;solid-color:#000000;image-rendering:auto;fill:#e7e5e5"
     fill="url(#linearGradient13625-5)" />
  <path
     style="color:#000000;isolation:auto;mix-blend-mode:normal;solid-color:#000000;fill:#fcfcfc;color-rendering:auto;image-rendering:auto;shape-rendering:auto"
     d="M 32 6 C 31.415 5.9999 31.057109 6.1772656 31.037109 6.1972656 L 19.119141 18.119141 L 19.619141 18.619141 L 31.037109 7.1972656 C 31.057109 7.1772656 31.415 6.9999 32 7 C 32.585 6.9999 32.942891 7.1772656 32.962891 7.1972656 L 44.84375 19.080078 L 45.509766 18.746094 L 32.962891 6.1972656 C 32.942891 6.1772656 32.585 5.9999 32 6 z "
     id="path13349-1-0-9-5" />
  <g
     id="g19">
    <path
       id="path13349-1-01-2-3"
       style="color:#000000;opacity:0.1;isolation:auto;mix-blend-mode:normal;solid-color:#000000;color-rendering:auto;image-rendering:auto;shape-rendering:auto"
       d="M 29.623,4.7829 4.781,29.6289 c -0.5891,0.589 -0.7803,1.495 -0.7813,2.371 l 56,0 c -9.8e-4,-0.8758 -0.19219,-1.7819 -0.78125,-2.3711 l -24.842,-24.85 C 33.78545,4.1788 32.87732,4 32,4 31.119675,4 30.2136,4.1922 29.623,4.7829 Z"
       inkscape:connector-curvature="0"
       sodipodi:nodetypes="scccccss" />
    <path
       id="rect13568-6"
       style="color:#000000;opacity:0.05;isolation:auto;mix-blend-mode:normal;solid-color:#000000;fill:url(#linearGradient13576-6);color-rendering:auto;image-rendering:auto;shape-rendering:auto"
       d="m 4,32.04 c 0,0.3474 0.0593,0.6787 0.14258,1 l 55.762,0 c 0.0764,-0.4164 0.0957,-0.7765 0.0957,-1 l -56,0 z"
       inkscape:connector-curvature="0" />
    <path
       id="path13349-1-01-7-0"
       style="color:#000000;opacity:1;isolation:auto;mix-blend-mode:normal;solid-color:#000000;fill:#023962;color-rendering:auto;image-rendering:auto;shape-rendering:auto"
       d="M 4.0371,31.34 C 4.012,31.5492 4.0002,31.7604 4,31.9709 c 0,1.1046 0.44801,2.1043 1.1719,2.8281 1.5504,1.5505 9.3191,2.8543 10.982,4.0293 0.20245,-0.1689 0.33008,-0.3562 0.33008,-0.5781 0,-1.2841 -9.5744,-2.713 -11.312,-4.4512 -0.64106,-0.641 -1.046,-1.5039 -1.1348,-2.459 z m 55.938,0.211 c -0.13983,1.5336 -1.1935,4.7351 -9.1953,6.8047 -4.1982,0.9368 -7.7774,1.8505 -6.9492,3.6308 0.66028,-1.1596 3.6147,-1.8867 6.9492,-2.6308 9.22,-2.3 9.22,-6.2 9.22,-7.3 -1.6e-4,-0.1401 -0.0146,-0.2797 -0.0254,-0.4199 z m -48.889,10.885 c -0.0959,0.1977 -0.14954,0.4129 -0.125,0.6583 0.24706,2.4705 12.613,3.1705 13.393,5.4355 0.0572,-0.2552 0.0759,-0.5356 0.041,-0.8496 -0.25273,-2.2746 -11.989,-2.9956 -13.309,-5.2442 z m 42.146,3.0352 c -0.13534,0.1607 -0.23242,0.3263 -0.23242,0.5 -10e-6,1.1046 3.1193,2 4.5,2 1.3807,0 2.5,-0.8954 2.5,-2 0,-0.1737 -0.0358,-0.3393 -0.0879,-0.5 -0.27883,0.8611 -1.2486,1.5 -2.4121,1.5 -1.1636,0 -3.5421,-0.6388 -4.2676,-1.5 z m -5.3535,1.4297 c -0.43162,0.9918 -2.1471,1.7985 -4.3926,2.7676 -3.5036,1.5121 -6.3463,2.196 -5.2949,3.459 0.67989,-0.7369 2.8201,-1.3909 5.2949,-2.459 2.9504,-1.2734 4.9952,-2.2644 4.3926,-3.7676 z m -32.791,2.5703 c -0.052,0.1607 -0.0879,0.3263 -0.0879,0.5 -1e-5,1.1046 1.1193,2 2.5,2 1.3807,0 3.5,-0.8954 3.5,-2 0,-0.1737 -0.0665,-0.3393 -0.16016,-0.5 -0.50213,0.8612 -2.1762,1.5 -3.3398,1.5 -1.1636,0 -2.1333,-0.6389 -2.4121,-1.5 z m 33.994,0.9981 a 2.5,2 0 0 0 -0.082,0.5019 2.5,2 0 0 0 2.5,2 2.5,2 0 0 0 2.5,-2 2.5,2 0 0 0 -0.082,-0.498 2.5,2 0 0 1 -2.418,1.498 2.5,2 0 0 1 -2.418,-1.5019 z m -26.986,2.0859 c -0.0868,0.195 -0.14344,0.4 -0.13086,0.6328 0.10457,1.9346 6.607,0.3284 6.8867,2.8398 0.026,-0.3012 0.0376,-0.621 0.008,-0.9668 -0.2048,-2.3754 -5.8524,-1.1515 -6.7637,-2.5058 z m 18.736,3.9941 c -0.43789,1.2989 -2.6623,2.4219 -6.832,2.4219 -3.97,0 -5.0178,-0.4347 -5.2227,-1.2773 -0.17271,1.4959 -0.0924,2.2773 5.2227,2.2773 5.2216,0 7.4115,-1.7582 6.832,-3.4219 z"
       inkscape:connector-curvature="0" />
  </g>
  <path
     id="rect13566-6"
     opacity=".2"
     style="color-rendering:auto;color:#000000;isolation:auto;mix-blend-mode:normal;shape-rendering:auto;solid-color:#000000;image-rendering:auto"
     d="m4.1094 31.04c-0.0686 0.3263-0.10899 0.6629-0.10937 1h56c-0.00038-0.3371-0.0408-0.6737-0.10938-1h-55.781z"
     fill="url(#linearGradient13584-1)" />
</svg>
