<?xml version="1.0" encoding="UTF-8" standalone="no"?>
<!-- Created with Inkscape (http://www.inkscape.org/) -->
<svg id="svg2" xmlns:rdf="http://www.w3.org/1999/02/22-rdf-syntax-ns#" xmlns="http://www.w3.org/2000/svg" height="64" viewBox="0 0 64 64.000001" width="64" version="1.1" xmlns:cc="http://creativecommons.org/ns#" xmlns:dc="http://purl.org/dc/elements/1.1/">
	<defs id="defs4">
		<linearGradient id="linearGradient5388" y2="1320.4" gradientUnits="userSpaceOnUse" x2="638" gradientTransform="matrix(1.7492 0 0 1.7494 -1119.9 -2277.9)" y1="1320.4" x1="605.99">
			<stop id="stop13941" stop-color="#0566af" offset="0"/>
			<stop id="stop13943" stop-color="#1287de" offset="1"/>
		</linearGradient>
		<linearGradient id="linearGradient5722" y2="36.953" gradientUnits="userSpaceOnUse" x2="23.977" gradientTransform="matrix(2.1538 0 0 2.1535 -19.692 -19.768)" y1="11.271" x1="23.977">
			<stop id="stop7333-5" stop-color="#7dec40" offset="0"/>
			<stop id="stop7335-8" stop-color="#44a410" offset="1"/>
		</linearGradient>
		<linearGradient id="linearGradient4881" x1="-494.36" gradientUnits="userSpaceOnUse" y1="153.5" gradientTransform="translate(526.36,-120)" x2="-493.36" y2="153.5">
			<stop id="stop4877" offset="0"/>
			<stop id="stop4879" stop-opacity="0" offset="1"/>
		</linearGradient>
		<linearGradient id="linearGradient4913" x1="-494.36" gradientUnits="userSpaceOnUse" y1="153.5" gradientTransform="matrix(-1,0,0,1,-462.36,-120)" x2="-493.36" y2="153.5">
			<stop id="stop4909" stop-color="#f5f4f4" offset="0"/>
			<stop id="stop4911" stop-color="#f5f4f4" stop-opacity="0" offset="1"/>
		</linearGradient>
	</defs>
	<metadata id="metadata7">
		<rdf:RDF>
			<cc:Work rdf:about="">
				<dc:format>image/svg+xml</dc:format>
				<dc:type rdf:resource="http://purl.org/dc/dcmitype/StillImage"/>
				<dc:title/>
			</cc:Work>
		</rdf:RDF>
	</metadata>
	<rect id="rect7360-8" rx="27.996" transform="rotate(-90)" height="55.999" width="55.992" y="4.0005" x="-59.992" fill="url(#linearGradient5388)"/>
	<path id="rect7360-8-5" d="m4.0137 31.496c-0.0029 0.167-0.0137 0.332-0.0137 0.5 0 15.51 12.486 27.996 27.996 27.996h0.006c15.51 0 27.996-12.486 27.996-27.996 0-0.168-0.009-0.333-0.012-0.5-0.266 15.276-12.642 27.496-27.984 27.496h-0.006c-15.342 0-27.716-12.22-27.982-27.496z" fill="#023962"/>
	<path id="path7362-0" fill-rule="evenodd" fill="url(#linearGradient5722)" d="m31.999 4.0199c-2.0332 0-4.0105 0.22389-5.9166 0.63089l-2.482 4.9683-3.752-2.8125c-6.729 3.2344-11.941 9.0594-14.356 16.216l5.5073-2.2031 4.2 2.7996 1.4-4.1993 18.2-9.7989-1.109-5.5452c-0.56-0.034-1.122-0.054-1.691-0.054m20.734 9.1936-1.135 3.4047 1.4 1.3997-5.5999 8.3988 2.7999 9.7987 9.2851 1.163c0.33587-1.7991 0.5158-3.5982 0.5158-5.3973 0-4.7936-1.1997-9.2948-3.3061-13.233l-2.294-0.767 0.834-1.671c-0.75-1.111-1.602-2.143-2.498-3.133m-48.178 13.203c-0.308 1.533-0.4846 3.118-0.5341 4.734l9.7783 3.6652-1.4-4.1993-2.7999-4.1995zm9.2441 8.3988 6.9998 16.798v6.0732c3.4289 1.4901 7.2109 2.3256 11.2 2.3256 0.27784 0 0.55137 0 0.82923-0.02199l8.97-15.379-22.399-12.598z"/>
	<path id="rect7360-8-5-2" d="m59.984 31.52c-0.03654 2.0047-0.28578 3.9555-0.71875 5.834l0.21484 0.02734c0.02292-0.11852 0.04107-0.23836 0.0625-0.35742 0.13669-0.78043 0.24877-1.5614 0.32422-2.3418 0.04147-0.42896 0.07365-0.85815 0.0957-1.2871 0.02257-0.46316 0.03516-0.92948 0.03516-1.3984 0-0.09627-0.0028-0.19162-0.0059-0.28711-0.00061-0.06353-0.0068-0.12603-0.0078-0.18945zm-39.184 25.152v0.98242c-0.0019 0.0056-0.002 0.01199-0.0039 0.01758 3.4269 1.4898 7.2118 2.3203 11.199 2.3203h0.0059c0.27706 0 0.5511-0.01357 0.82617-0.02148 0.000269-0.0048 0.0017-0.0089 0.002-0.01367l0.58398-1c-0.46763 0.02302-0.93856 0.03516-1.4121 0.03516h-0.0059c-3.9868 0-7.7697-0.83074-11.195-2.3203z" fill="#255c08"/>
	<g id="g4956" transform="matrix(0 -1 1 0 -462.36 184)">
		<path id="rect4873" opacity=".05" style="color-rendering:auto;color:#000000;isolation:auto;mix-blend-mode:normal;shape-rendering:auto;solid-color:#000000;image-rendering:auto" d="m32 4v56a28 28 0 0 0 1 -0.03516v-55.914a28 28 0 0 0 -1 -0.051z" transform="matrix(0,-1,1,0,120,526.36)" fill="url(#linearGradient4881)"/>
		<path id="rect4873-5" opacity=".05" style="color-rendering:auto;color:#000000;isolation:auto;mix-blend-mode:normal;shape-rendering:auto;solid-color:#000000;image-rendering:auto" d="m32 4a28 28 0 0 0 -1 0.035156v55.914a28 28 0 0 0 1 0.051v-56z" transform="matrix(0,-1,1,0,120,526.36)" fill="url(#linearGradient4913)"/>
		<path id="rect4915" opacity=".1" style="color-rendering:auto;color:#000000;isolation:auto;mix-blend-mode:normal;shape-rendering:auto;solid-color:#000000;image-rendering:auto" d="m32 4v56a28 28 0 0 0 28 -28 28 28 0 0 0 -28 -28z" transform="matrix(0,-1,1,0,120,526.36)"/>
	</g>
</svg>
