<?xml version="1.0" encoding="UTF-8" standalone="no"?>
<!-- Created with Inkscape (http://www.inkscape.org/) -->
<svg id="svg2" xmlns:rdf="http://www.w3.org/1999/02/22-rdf-syntax-ns#" xmlns="http://www.w3.org/2000/svg" height="64" width="64" version="1.1" xmlns:cc="http://creativecommons.org/ns#" xmlns:xlink="http://www.w3.org/1999/xlink" viewBox="0 0 64 64.000001" xmlns:dc="http://purl.org/dc/elements/1.1/">
	<defs id="defs4">
		<linearGradient id="linearGradient6122-1" y2="1096.4" gradientUnits="userSpaceOnUse" x2="474" gradientTransform="translate(-456,-77)" y1="1097.4" x1="474">
			<stop id="stop6150" stop-color="#fff" offset="0"/>
			<stop id="stop6152" stop-color="#fff" stop-opacity="0" offset="1"/>
		</linearGradient>
		<linearGradient id="linearGradient6122" y2="1096.4" gradientUnits="userSpaceOnUse" x2="474" gradientTransform="matrix(1 0 0 -1 -456 2117.7)" y1="1097.4" x1="474">
			<stop id="stop6118" offset="0"/>
			<stop id="stop6120" stop-opacity="0" offset="1"/>
		</linearGradient>
		<linearGradient id="linearGradient6218" y2="672" xlink:href="#linearGradient5936" gradientUnits="userSpaceOnUse" x2="491" gradientTransform="translate(-456 376.36)" y1="616" x1="491"/>
		<linearGradient id="linearGradient5936">
			<stop id="stop5938" stop-color="#e3c599" offset="0"/>
			<stop id="stop5940" stop-color="#af5505" offset="1"/>
		</linearGradient>
		<linearGradient id="linearGradient5685" y2="1096.4" xlink:href="#linearGradient5679" gradientUnits="userSpaceOnUse" x2="-77" gradientTransform="translate(125,-77)" y1="1069.4" x1="-77"/>
		<linearGradient id="linearGradient5679">
			<stop id="stop5681" stop-color="#cfd5d5" offset="0"/>
			<stop id="stop5683" stop-color="#b6b2b6" offset="1"/>
		</linearGradient>
		<linearGradient id="linearGradient5857" y2="1113.3" gradientUnits="userSpaceOnUse" x2="-104.2" gradientTransform="translate(124,-76)" y1="1077.8" x1="-104.2">
			<stop id="stop5853" stop-color="#7a747c" offset="0"/>
			<stop id="stop5855" stop-color="#b6b2b6" offset="1"/>
		</linearGradient>
		<linearGradient id="linearGradient7958" y2="1087.4" xlink:href="#linearGradient5679" gradientUnits="userSpaceOnUse" x2="-95" gradientTransform="translate(124,-76)" y1="1117.4" x1="-95"/>
		<linearGradient id="linearGradient5870" y2="1069.8" gradientUnits="userSpaceOnUse" x2="-89.438" gradientTransform="translate(124,-76)" y1="1123.1" x1="-89.438">
			<stop id="stop5866" stop-color="#343031" offset="0"/>
			<stop id="stop5868" stop-color="#534d52" offset="1"/>
		</linearGradient>
	</defs>
	<metadata id="metadata7">
		<rdf:RDF>
			<cc:Work rdf:about="">
				<dc:format>image/svg+xml</dc:format>
				<dc:type rdf:resource="http://purl.org/dc/dcmitype/StillImage"/>
				<dc:title/>
			</cc:Work>
		</rdf:RDF>
	</metadata>
	<g id="layer1" transform="translate(0 -988.36)">
		<g>
			<path id="path5970-2" style="color-rendering:auto;color:#000000;isolation:auto;mix-blend-mode:normal;shape-rendering:auto;solid-color:#000000;image-rendering:auto" d="m32 992.36c-15.464 0-28 12.536-28 28s12.536 28 28 28c15.068-0.01 27.427-11.942 27.965-27 0.0177-0.3331 0.0294-0.6665 0.0352-1-0.003-1.689-0.17752-3.3599-0.47852-5l-2.5215-3-1.5859 3c0.3512 1.6318 0.58323 3.2991 0.58594 5-0.009 0.3336-0.0256 0.667-0.0488 1-0.53562 12.844-11.096 22.985-23.951 23-13.255 0-24-10.745-24-24s10.745-24 24-24c5.289 0.011 10.426 1.7687 14.613 5h5.9062c-5.2891-5.7253-12.725-8.9868-20.52-9z" fill="url(#linearGradient6218)"/>
			<path id="path5970-2-7" style="color-rendering:auto;color:#000000;isolation:auto;mix-blend-mode:normal;shape-rendering:auto;solid-color:#000000;image-rendering:auto" d="m4.0215 1019.8a28 28 0 0 0 -0.0215 0.586 28 28 0 0 0 28 28 28 28 0 0 0 28 -28 28 28 0 0 0 -0.0215 -0.4141 28 28 0 0 1 -27.979 27.414 28 28 0 0 1 -27.979 -27.586z" fill="#622f02"/>
			<path id="path6071" style="color-rendering:auto;color:#000000;isolation:auto;mix-blend-mode:normal;shape-rendering:auto;solid-color:#000000;image-rendering:auto" d="m32 995.36a24 24 0 0 0 -24 24 24 24 0 0 0 0.0215 0.582 24 24 0 0 1 23.978 -23.582 24 24 0 0 1 14.6 5h1.2305a24 24 0 0 0 -15.83 -6.04z" fill="#cc9f60"/>
			<path id="path6096-5" opacity=".1" style="color-rendering:auto;color:#000000;isolation:auto;mix-blend-mode:normal;shape-rendering:auto;solid-color:#000000;image-rendering:auto" d="m4 1020.4a28 28 0 0 0 28 28 28 28 0 0 0 28 -28h-4a24 24 0 0 1 -24 24 24 24 0 0 1 -24 -24h-4z"/>
			<path id="rect7941" style="color-rendering:auto;color:#000000;isolation:auto;mix-blend-mode:normal;shape-rendering:auto;solid-color:#000000;image-rendering:auto" d="m16 996.36 40 40v4c0 2.216-1.784 4-4 4h-4l-40-40v-4c0-2.216 1.784-4 4-4z" fill="url(#linearGradient5870)"/>
			<path id="rect7941-6" opacity=".2" style="color-rendering:auto;color:#000000;isolation:auto;mix-blend-mode:normal;shape-rendering:auto;solid-color:#000000;image-rendering:auto" d="m36.371 1016.7-8.2969 7.7031 19.926 19.926h4c2.216 0 4-1.784 4-4v-4l-19.629-19.629z"/>
		</g>
		<path id="path7939" d="m36 1007.4-28 28v5c0 3 2 4 4 4h4l3-3v-4l4-4h4l2-2v-4l2-2h4l10-10z" fill-rule="evenodd" fill="url(#linearGradient7958)"/>
		<path id="path7939-0" d="m36 1007.4-28 28v1l28-28 8.4707 7.5293 0.5293-0.5293-9-8z" fill-rule="evenodd" fill="#dddbdb"/>
		<g>
			<path id="rect5674" style="color-rendering:auto;color:#000000;isolation:auto;mix-blend-mode:normal;shape-rendering:auto;solid-color:#000000;image-rendering:auto" d="m34.309 1013.1c-0.25558 0-0.51116 0.097-0.70703 0.2929l-25.602 25.5v1.4141c0 0.4732 0.0646 0.8802 0.15625 1.2578l26.859-26.859c0.39173-0.3918 0.39173-1.0224 0-1.4141-0.19587-0.1958-0.45145-0.2929-0.70703-0.2929z" fill="url(#linearGradient5857)"/>
			<path id="path7934" style="color-rendering:auto;color:#000000;isolation:auto;mix-blend-mode:normal;shape-rendering:auto;solid-color:#000000;image-rendering:auto" d="m60 1005.4a13 13 0 0 0 -13 -13 13 13 0 0 0 -13 13 13 13 0 0 0 13 13 13 13 0 0 0 13 -13zm-6-3a4 4 0 0 1 -4 4 4 4 0 0 1 -4 -4 4 4 0 0 1 4 -4 4 4 0 0 1 4 4z" fill="url(#linearGradient5685)"/>
			<path id="path7934-9" style="color-rendering:auto;color:#000000;isolation:auto;mix-blend-mode:normal;shape-rendering:auto;solid-color:#000000;image-rendering:auto" d="m46.035 1002.9a4 4 0 0 0 -0.0352 0.5059 4 4 0 0 0 4 4 4 4 0 0 0 4 -4 4 4 0 0 0 -0.0352 -0.4942 4 4 0 0 1 -3.9648 3.4942 4 4 0 0 1 -3.9648 -3.5059z" fill="#dddbdb"/>
			<path id="path5813" style="color-rendering:auto;color:#000000;isolation:auto;mix-blend-mode:normal;shape-rendering:auto;solid-color:#000000;image-rendering:auto" d="m47 992.36a13 13 0 0 0 -13 13 13 13 0 0 0 0.0215 0.4218 13 13 0 0 1 12.979 -12.422 13 13 0 0 1 12.979 12.58 13 13 0 0 0 0.0215 -0.58 13 13 0 0 0 -13 -13z" fill="#dddbdb"/>
			<path id="path6091" style="color-rendering:auto;color:#000000;isolation:auto;mix-blend-mode:normal;shape-rendering:auto;solid-color:#000000;image-rendering:auto" d="m49 999.36-1 2h-1.3867c4.5578 3.4985 7.6144 8.4878 8.8008 14h4.1074c-0.95521-5.2047-3.3549-10.072-7.002-14l-3.5195-2z" fill="url(#linearGradient6218)"/>
			<path id="path6094" style="color-rendering:auto;color:#000000;isolation:auto;mix-blend-mode:normal;shape-rendering:auto;solid-color:#000000;image-rendering:auto" d="m47.83 1001.4-0.99024-0.4062-0.24023 0.4062c5.7451 4.4097 9.1917 11.178 9.3789 18.418 0.008-0.1393 0.0155-0.2786 0.0215-0.418-0.0112-6.895-2.9874-13.452-8.1699-18z" fill="#cc9f60"/>
			<path id="rect6114" opacity=".1" style="color-rendering:auto;color:#000000;isolation:auto;mix-blend-mode:normal;shape-rendering:auto;solid-color:#000000;image-rendering:auto" d="m4.0352 1021.4a28 28 0 0 1 -0.0352 -1h4a24 24 0 0 0 0.0488 1h-4.0137zm51.93 0a24 24 0 0 0 0.0352 -1h4a28 28 0 0 1 -0.0508 1h-3.9844z" fill="url(#linearGradient6122)"/>
			<path id="rect6114-7" opacity=".1" style="color-rendering:auto;color:#000000;isolation:auto;mix-blend-mode:normal;shape-rendering:auto;solid-color:#000000;image-rendering:auto" d="m4 1020.4a28 28 0 0 1 0.0508 -1h3.9844a24 24 0 0 0 -0.0352 1h-4zm52 0a24 24 0 0 0 -0.0488 -1h4.0137a28 28 0 0 1 0.0352 1h-4z" fill="url(#linearGradient6122-1)"/>
		</g>
	</g>
</svg>
