<?xml version="1.0" encoding="UTF-8" standalone="no"?>
<!-- Created with Inkscape (http://www.inkscape.org/) -->

<svg
   xmlns:dc="http://purl.org/dc/elements/1.1/"
   xmlns:cc="http://creativecommons.org/ns#"
   xmlns:rdf="http://www.w3.org/1999/02/22-rdf-syntax-ns#"
   xmlns:svg="http://www.w3.org/2000/svg"
   xmlns="http://www.w3.org/2000/svg"
   xmlns:xlink="http://www.w3.org/1999/xlink"
   xmlns:sodipodi="http://sodipodi.sourceforge.net/DTD/sodipodi-0.dtd"
   xmlns:inkscape="http://www.inkscape.org/namespaces/inkscape"
   id="svg2"
   height="64"
   viewBox="0 0 64 64.000001"
   width="64"
   version="1.1"
   inkscape:version="0.91 r13725"
   sodipodi:docname="kfind.svg">
  <sodipodi:namedview
     pagecolor="#ffffff"
     bordercolor="#666666"
     borderopacity="1"
     objecttolerance="10"
     gridtolerance="10"
     guidetolerance="10"
     inkscape:pageopacity="0"
     inkscape:pageshadow="2"
     inkscape:window-width="2579"
     inkscape:window-height="1293"
     id="namedview22"
     showgrid="false"
     inkscape:zoom="11.313708"
     inkscape:cx="14.301947"
     inkscape:cy="37.248773"
     inkscape:window-x="0"
     inkscape:window-y="0"
     inkscape:window-maximized="0"
     inkscape:current-layer="svg2" />
  <defs
     id="defs4">
    <linearGradient
       inkscape:collect="always"
       xlink:href="#linearGradient4436"
       id="linearGradient4442-1"
       x1="40.000034"
       y1="1022.3622"
       x2="56.000027"
       y2="1022.3622"
       gradientUnits="userSpaceOnUse"
       gradientTransform="translate(-82,-1006.3622)" />
    <linearGradient
       inkscape:collect="always"
       id="linearGradient4436">
      <stop
         style="stop-color:#1287de;stop-opacity:1"
         offset="0"
         id="stop4438" />
      <stop
         style="stop-color:#0566af;stop-opacity:1"
         offset="1"
         id="stop4440" />
    </linearGradient>
    <linearGradient
       inkscape:collect="always"
       xlink:href="#linearGradient4428"
       id="linearGradient4434-9"
       x1="36.000015"
       y1="1022.3622"
       x2="60.000046"
       y2="1022.3622"
       gradientUnits="userSpaceOnUse"
       gradientTransform="translate(-14,-1038.3622)" />
    <linearGradient
       inkscape:collect="always"
       id="linearGradient4428">
      <stop
         style="stop-color:#1287de;stop-opacity:1;"
         offset="0"
         id="stop4430" />
      <stop
         style="stop-color:#37a4f5;stop-opacity:1"
         offset="1"
         id="stop4432" />
    </linearGradient>
    <linearGradient
       inkscape:collect="always"
       xlink:href="#linearGradient4436"
       id="linearGradient4442"
       x1="40.000034"
       y1="1022.3622"
       x2="56.000027"
       y2="1022.3622"
       gradientUnits="userSpaceOnUse"
       gradientTransform="translate(-82,-974.36215)" />
    <linearGradient
       inkscape:collect="always"
       xlink:href="#linearGradient4412"
       id="linearGradient4426"
       x1="26.999964"
       y1="1009.3622"
       x2="36.999989"
       y2="1009.3622"
       gradientUnits="userSpaceOnUse"
       gradientTransform="translate(-53,-977.36221)" />
    <linearGradient
       inkscape:collect="always"
       id="linearGradient4412">
      <stop
         style="stop-color:#534d52;stop-opacity:1"
         offset="0"
         id="stop4414" />
      <stop
         style="stop-color:#686067;stop-opacity:1"
         offset="1"
         id="stop4416" />
    </linearGradient>
    <linearGradient
       inkscape:collect="always"
       xlink:href="#linearGradient4428"
       id="linearGradient4434"
       x1="36.000015"
       y1="1022.3622"
       x2="60.000046"
       y2="1022.3622"
       gradientUnits="userSpaceOnUse"
       gradientTransform="translate(-14.00003,-1070.3622)" />
    <linearGradient
       inkscape:collect="always"
       xlink:href="#linearGradient4412"
       id="linearGradient4418"
       x1="32"
       y1="48"
       x2="32"
       y2="20"
       gradientUnits="userSpaceOnUse" />
    <linearGradient
       inkscape:collect="always"
       xlink:href="#linearGradient4643"
       id="linearGradient4649"
       x1="22.999977"
       y1="1009.3622"
       x2="40.999977"
       y2="1009.3622"
       gradientUnits="userSpaceOnUse"
       gradientTransform="translate(-53,-977.36221)" />
    <linearGradient
       inkscape:collect="always"
       id="linearGradient4643">
      <stop
         style="stop-color:#b6b2b6;stop-opacity:1"
         offset="0"
         id="stop4645" />
      <stop
         style="stop-color:#dddbdb;stop-opacity:1"
         offset="1"
         id="stop4647" />
    </linearGradient>
  </defs>
  <metadata
     id="metadata7">
    <rdf:RDF>
      <cc:Work
         rdf:about="">
        <dc:format>image/svg+xml</dc:format>
        <dc:type
           rdf:resource="http://purl.org/dc/dcmitype/StillImage" />
        <dc:title />
      </cc:Work>
    </rdf:RDF>
  </metadata>
  <circle
     r="9"
     cy="31.999977"
     cx="-20.999983"
     id="path4313"
     style="color:#000000;clip-rule:nonzero;display:inline;overflow:visible;visibility:visible;opacity:1;isolation:auto;mix-blend-mode:normal;color-interpolation:sRGB;color-interpolation-filters:linearRGB;solid-color:#000000;solid-opacity:1;fill:url(#linearGradient4649);fill-opacity:1;fill-rule:nonzero;stroke:none;stroke-width:2;stroke-linecap:butt;stroke-linejoin:miter;stroke-miterlimit:4;stroke-dasharray:none;stroke-dashoffset:0;stroke-opacity:1;color-rendering:auto;image-rendering:auto;shape-rendering:auto;text-rendering:auto;enable-background:accumulate"
     transform="matrix(0,-1,1,0,0,0)" />
  <path
     style="color:#000000;clip-rule:nonzero;display:inline;overflow:visible;visibility:visible;opacity:1;isolation:auto;mix-blend-mode:normal;color-interpolation:sRGB;color-interpolation-filters:linearRGB;solid-color:#000000;solid-opacity:1;fill:#e7e5e5;fill-opacity:1;fill-rule:nonzero;stroke:none;stroke-width:2;stroke-linecap:butt;stroke-linejoin:miter;stroke-miterlimit:4;stroke-dasharray:none;stroke-dashoffset:0;stroke-opacity:1;color-rendering:auto;image-rendering:auto;shape-rendering:auto;text-rendering:auto;enable-background:accumulate"
     d="m 32,12 a 9,9 0 0 0 -9,9 9,9 0 0 0 0.0215,0.5762 A 9,9 0 0 1 32.00002,13 9,9 0 0 1 40.97853,21.4238 9,9 0 0 0 41.00003,21 a 9,9 0 0 0 -9,-9 z"
     id="path4313-1"
     inkscape:connector-curvature="0" />
  <path
     style="color:#000000;clip-rule:nonzero;display:inline;overflow:visible;visibility:visible;opacity:1;isolation:auto;mix-blend-mode:normal;color-interpolation:sRGB;color-interpolation-filters:linearRGB;solid-color:#000000;solid-opacity:1;fill:#343031;fill-opacity:1;fill-rule:nonzero;stroke:none;stroke-width:2;stroke-linecap:butt;stroke-linejoin:miter;stroke-miterlimit:4;stroke-dasharray:none;stroke-dashoffset:0;stroke-opacity:1;color-rendering:auto;image-rendering:auto;shape-rendering:auto;text-rendering:auto;enable-background:accumulate"
     d="m 29.61133,14.4297 c -1.76057,0.6421 -3.2699,2.0077 -3.96875,3.668 C 24.84184,20 15,21 15,21 l 8,6 3.17969,-2.1191 c 1.09779,1.6479 2.83275,2.7298 4.75781,3.0273 L 32,21 29.61133,14.4297 Z M 32,21 l 1.0625,6.9082 c 1.92506,-0.2975 3.66002,-1.3794 4.75781,-3.0273 L 41,27 49,21 c 0,0 -9.84184,-1 -10.64258,-2.9023 -0.69885,-1.6603 -2.20818,-3.0259 -3.96875,-3.668 L 32,21 Z"
     id="path4242-5-6-1"
     inkscape:connector-curvature="0" />
  <path
     style="color:#000000;clip-rule:nonzero;display:inline;overflow:visible;visibility:visible;opacity:1;isolation:auto;mix-blend-mode:normal;color-interpolation:sRGB;color-interpolation-filters:linearRGB;solid-color:#000000;solid-opacity:1;fill:url(#linearGradient4418);fill-opacity:1;fill-rule:nonzero;stroke:none;stroke-width:2;stroke-linecap:butt;stroke-linejoin:miter;stroke-miterlimit:4;stroke-dasharray:none;stroke-dashoffset:0;stroke-opacity:1;color-rendering:auto;image-rendering:auto;shape-rendering:auto;text-rendering:auto;enable-background:accumulate"
     d="M 16,20 C 8.26802,20 2,26.268 2,34 l 0,8 c 0,3 3.00003,6 6,6 l 8,0 C 23.73198,48 30,41.732 30,34 30,26.268 23.73198,20 16,20 Z m 32,0 c -7.73198,0 -14,6.268 -14,14 0,7.732 6.26802,14 14,14 l 8,0 c 2.99997,0 6,-3 6,-6 l 0,-8 C 62,26.268 55.73198,20 48,20 Z"
     id="path4176-3-7-9-6"
     inkscape:connector-curvature="0" />
  <circle
     r="12.000013"
     cy="-48.000031"
     cx="33.999985"
     id="path4176-3-7"
     style="color:#000000;clip-rule:nonzero;display:inline;overflow:visible;visibility:visible;opacity:1;isolation:auto;mix-blend-mode:normal;color-interpolation:sRGB;color-interpolation-filters:linearRGB;solid-color:#000000;solid-opacity:1;fill:url(#linearGradient4434);fill-opacity:1;fill-rule:nonzero;stroke:none;stroke-width:2;stroke-linecap:butt;stroke-linejoin:miter;stroke-miterlimit:4;stroke-dasharray:none;stroke-dashoffset:0;stroke-opacity:1;color-rendering:auto;image-rendering:auto;shape-rendering:auto;text-rendering:auto;enable-background:accumulate"
     transform="matrix(0,1,-1,0,0,0)" />
  <ellipse
     ry="4.9999952"
     rx="5.0000134"
     cy="31.999977"
     cx="-20.999983"
     id="path4242-5"
     style="color:#000000;clip-rule:nonzero;display:inline;overflow:visible;visibility:visible;opacity:1;isolation:auto;mix-blend-mode:normal;color-interpolation:sRGB;color-interpolation-filters:linearRGB;solid-color:#000000;solid-opacity:1;fill:url(#linearGradient4426);fill-opacity:1;fill-rule:nonzero;stroke:none;stroke-width:2;stroke-linecap:butt;stroke-linejoin:miter;stroke-miterlimit:4;stroke-dasharray:none;stroke-dashoffset:0;stroke-opacity:1;color-rendering:auto;image-rendering:auto;shape-rendering:auto;text-rendering:auto;enable-background:accumulate"
     transform="matrix(0,-1,1,0,0,0)" />
  <circle
     r="3"
     cy="20.999983"
     cx="31.999977"
     id="path4242"
     style="color:#000000;clip-rule:nonzero;display:inline;overflow:visible;visibility:visible;opacity:1;isolation:auto;mix-blend-mode:normal;color-interpolation:sRGB;color-interpolation-filters:linearRGB;solid-color:#000000;solid-opacity:1;fill:#686067;fill-opacity:1;fill-rule:nonzero;stroke:none;stroke-width:2;stroke-linecap:butt;stroke-linejoin:miter;stroke-miterlimit:4;stroke-dasharray:none;stroke-dashoffset:0;stroke-opacity:1;color-rendering:auto;image-rendering:auto;shape-rendering:auto;text-rendering:auto;enable-background:accumulate" />
  <circle
     r="7.9999952"
     cy="48.000031"
     cx="-33.999985"
     id="path4176-3-7-0"
     style="color:#000000;clip-rule:nonzero;display:inline;overflow:visible;visibility:visible;opacity:1;isolation:auto;mix-blend-mode:normal;color-interpolation:sRGB;color-interpolation-filters:linearRGB;solid-color:#000000;solid-opacity:1;fill:url(#linearGradient4442);fill-opacity:1;fill-rule:nonzero;stroke:none;stroke-width:2;stroke-linecap:butt;stroke-linejoin:miter;stroke-miterlimit:4;stroke-dasharray:none;stroke-dashoffset:0;stroke-opacity:1;color-rendering:auto;image-rendering:auto;shape-rendering:auto;text-rendering:auto;enable-background:accumulate"
     transform="matrix(0,-1,1,0,0,0)" />
  <circle
     r="12.000013"
     cy="-16.000031"
     cx="33.999985"
     id="path4176-3-7-2"
     style="color:#000000;clip-rule:nonzero;display:inline;overflow:visible;visibility:visible;opacity:1;isolation:auto;mix-blend-mode:normal;color-interpolation:sRGB;color-interpolation-filters:linearRGB;solid-color:#000000;solid-opacity:1;fill:url(#linearGradient4434-9);fill-opacity:1;fill-rule:nonzero;stroke:none;stroke-width:2;stroke-linecap:butt;stroke-linejoin:miter;stroke-miterlimit:4;stroke-dasharray:none;stroke-dashoffset:0;stroke-opacity:1;color-rendering:auto;image-rendering:auto;shape-rendering:auto;text-rendering:auto;enable-background:accumulate"
     transform="matrix(0,1,-1,0,0,0)" />
  <circle
     r="7.9999952"
     cy="16.000031"
     cx="-33.999985"
     id="path4176-3-7-0-3"
     style="color:#000000;clip-rule:nonzero;display:inline;overflow:visible;visibility:visible;opacity:1;isolation:auto;mix-blend-mode:normal;color-interpolation:sRGB;color-interpolation-filters:linearRGB;solid-color:#000000;solid-opacity:1;fill:url(#linearGradient4442-1);fill-opacity:1;fill-rule:nonzero;stroke:none;stroke-width:2;stroke-linecap:butt;stroke-linejoin:miter;stroke-miterlimit:4;stroke-dasharray:none;stroke-dashoffset:0;stroke-opacity:1;color-rendering:auto;image-rendering:auto;shape-rendering:auto;text-rendering:auto;enable-background:accumulate"
     transform="matrix(0,-1,1,0,0,0)" />
  <circle
     style="color:#000000;clip-rule:nonzero;display:inline;overflow:visible;visibility:visible;opacity:1;isolation:auto;mix-blend-mode:normal;color-interpolation:sRGB;color-interpolation-filters:linearRGB;solid-color:#000000;solid-opacity:1;fill:#82c8fa;fill-opacity:1;fill-rule:nonzero;stroke:none;stroke-width:2;stroke-linecap:butt;stroke-linejoin:miter;stroke-miterlimit:4;stroke-dasharray:none;stroke-dashoffset:0;stroke-opacity:1;color-rendering:auto;image-rendering:auto;shape-rendering:auto;text-rendering:auto;enable-background:accumulate"
     id="path4504"
     cx="12"
     cy="27.999983"
     r="2" />
  <circle
     style="color:#000000;clip-rule:nonzero;display:inline;overflow:visible;visibility:visible;opacity:1;isolation:auto;mix-blend-mode:normal;color-interpolation:sRGB;color-interpolation-filters:linearRGB;solid-color:#000000;solid-opacity:1;fill:#82c8fa;fill-opacity:1;fill-rule:nonzero;stroke:none;stroke-width:2;stroke-linecap:butt;stroke-linejoin:miter;stroke-miterlimit:4;stroke-dasharray:none;stroke-dashoffset:0;stroke-opacity:1;color-rendering:auto;image-rendering:auto;shape-rendering:auto;text-rendering:auto;enable-background:accumulate"
     id="path4506"
     cx="15"
     cy="30.999983"
     r="1" />
  <circle
     style="color:#000000;clip-rule:nonzero;display:inline;overflow:visible;visibility:visible;opacity:1;isolation:auto;mix-blend-mode:normal;color-interpolation:sRGB;color-interpolation-filters:linearRGB;solid-color:#000000;solid-opacity:1;fill:#82c8fa;fill-opacity:1;fill-rule:nonzero;stroke:none;stroke-width:2;stroke-linecap:butt;stroke-linejoin:miter;stroke-miterlimit:4;stroke-dasharray:none;stroke-dashoffset:0;stroke-opacity:1;color-rendering:auto;image-rendering:auto;shape-rendering:auto;text-rendering:auto;enable-background:accumulate"
     id="path4504-7"
     cx="43"
     cy="27.999983"
     r="2" />
  <circle
     style="color:#000000;clip-rule:nonzero;display:inline;overflow:visible;visibility:visible;opacity:1;isolation:auto;mix-blend-mode:normal;color-interpolation:sRGB;color-interpolation-filters:linearRGB;solid-color:#000000;solid-opacity:1;fill:#82c8fa;fill-opacity:1;fill-rule:nonzero;stroke:none;stroke-width:2;stroke-linecap:butt;stroke-linejoin:miter;stroke-miterlimit:4;stroke-dasharray:none;stroke-dashoffset:0;stroke-opacity:1;color-rendering:auto;image-rendering:auto;shape-rendering:auto;text-rendering:auto;enable-background:accumulate"
     id="path4506-5"
     cx="46"
     cy="30.999983"
     r="1" />
  <path
     style="color:#000000;clip-rule:nonzero;display:inline;overflow:visible;visibility:visible;opacity:1;isolation:auto;mix-blend-mode:normal;color-interpolation:sRGB;color-interpolation-filters:linearRGB;solid-color:#000000;solid-opacity:1;fill:#343031;fill-opacity:1;fill-rule:nonzero;stroke:none;stroke-width:2;stroke-linecap:butt;stroke-linejoin:miter;stroke-miterlimit:4;stroke-dasharray:none;stroke-dashoffset:0;stroke-opacity:1;color-rendering:auto;image-rendering:auto;shape-rendering:auto;text-rendering:auto;enable-background:accumulate"
     d="M 29.97461,33.5 C 29.70918,40.9985 23.5632,47 16,47 L 8,47 C 5.00003,47 2,44 2,41 l 0,1 c 0,3 3.00003,6 6,6 l 8,0 c 7.73198,0 14,-6.268 14,-14 0,-0.1688 -0.0195,-0.3327 -0.0254,-0.5 z m 4.05078,0 c -0.006,0.1673 -0.0254,0.3312 -0.0254,0.5 0,7.732 6.26802,14 14,14 l 8,0 c 2.99997,0 6,-3 6,-6 l 0,-1 c 0,3 -3.00003,6 -6,6 l -8,0 C 40.43679,47 34.29081,40.9985 34.02538,33.5 Z"
     id="path4176-3-7-9-6-8"
     inkscape:connector-curvature="0" />
  <path
     style="color:#000000;clip-rule:nonzero;display:inline;overflow:visible;visibility:visible;opacity:1;isolation:auto;mix-blend-mode:normal;color-interpolation:sRGB;color-interpolation-filters:linearRGB;solid-color:#000000;solid-opacity:1;fill:#82c8fa;fill-opacity:1;fill-rule:nonzero;stroke:none;stroke-width:2;stroke-linecap:butt;stroke-linejoin:miter;stroke-miterlimit:4;stroke-dasharray:none;stroke-dashoffset:0;stroke-opacity:1;color-rendering:auto;image-rendering:auto;shape-rendering:auto;text-rendering:auto;enable-background:accumulate"
     d="M 59.98047,33.4063 A 12.000013,12.000013 0 0 1 48,45 12.000013,12.000013 0 0 1 36.01953,33.5938 12.000013,12.000013 0 0 0 36,34 12.000013,12.000013 0 0 0 48,46 12.000013,12.000013 0 0 0 60,34 12.000013,12.000013 0 0 0 59.9805,33.4063 Z"
     id="path4176-3-7-9"
     inkscape:connector-curvature="0" />
  <path
     style="color:#000000;clip-rule:nonzero;display:inline;overflow:visible;visibility:visible;opacity:1;isolation:auto;mix-blend-mode:normal;color-interpolation:sRGB;color-interpolation-filters:linearRGB;solid-color:#000000;solid-opacity:1;fill:#82c8fa;fill-opacity:1;fill-rule:nonzero;stroke:none;stroke-width:2;stroke-linecap:butt;stroke-linejoin:miter;stroke-miterlimit:4;stroke-dasharray:none;stroke-dashoffset:0;stroke-opacity:1;color-rendering:auto;image-rendering:auto;shape-rendering:auto;text-rendering:auto;enable-background:accumulate"
     d="M 27.98047,33.4063 A 12.000013,12.000013 0 0 1 16,45 12.000013,12.000013 0 0 1 4.019531,33.5938 12.000013,12.000013 0 0 0 4,34 12.000013,12.000013 0 0 0 16,46 12.000013,12.000013 0 0 0 28,34 12.000013,12.000013 0 0 0 27.9805,33.4063 Z"
     id="path4176-3-7-2-4"
     inkscape:connector-curvature="0" />
  <path
     style="color:#000000;clip-rule:nonzero;display:inline;overflow:visible;visibility:visible;opacity:1;isolation:auto;mix-blend-mode:normal;color-interpolation:sRGB;color-interpolation-filters:linearRGB;solid-color:#000000;solid-opacity:1;fill:#534d52;fill-opacity:1;fill-rule:nonzero;stroke:none;stroke-width:2;stroke-linecap:butt;stroke-linejoin:miter;stroke-miterlimit:4;stroke-dasharray:none;stroke-dashoffset:0;stroke-opacity:1;color-rendering:auto;image-rendering:auto;shape-rendering:auto;text-rendering:auto;enable-background:accumulate"
     d="M 32,26 A 4.9999952,5.0000134 0 0 1 27,21 4.9999952,5.0000134 0 0 1 27.0273,20.5156 4.9999952,5.0000134 0 0 0 31.99996,25 4.9999952,5.0000134 0 0 0 36.97261,20.4844 4.9999952,5.0000134 0 0 1 36.99991,21 a 4.9999952,5.0000134 0 0 1 -5,5 z"
     id="path4242-5-0"
     inkscape:connector-curvature="0" />
</svg>
