<?xml version="1.0" encoding="UTF-8" standalone="no"?>
<!-- Created with Inkscape (http://www.inkscape.org/) -->
<svg id="svg2" xmlns:rdf="http://www.w3.org/1999/02/22-rdf-syntax-ns#" xmlns="http://www.w3.org/2000/svg" height="64" viewBox="0 0 64 64.000001" width="64" version="1.1" xmlns:cc="http://creativecommons.org/ns#" xmlns:xlink="http://www.w3.org/1999/xlink" xmlns:dc="http://purl.org/dc/elements/1.1/">
	<defs id="defs4">
		<linearGradient id="linearGradient5722-3" x1="23.977" gradientUnits="userSpaceOnUse" y1="11.271" gradientTransform="matrix(1.0773,0,0,1.0773,2.1396,6.14)" x2="23.977" y2="36.953">
			<stop id="stop7333-5-6" stop-color="#60d61a" offset="0"/>
			<stop id="stop7335-8-7" stop-color="#44a410" offset="1"/>
		</linearGradient>
		<linearGradient id="linearGradient5388-5" x1="605.99" gradientUnits="userSpaceOnUse" y1="1320.4" gradientTransform="matrix(.87504 0 0 .87504 -576.24 -1127.4)" x2="638" y2="1320.4">
			<stop id="stop13941-3" stop-color="#0566af" offset="0"/>
			<stop id="stop13943-5" stop-color="#1287de" offset="1"/>
		</linearGradient>
		<linearGradient id="a-2-9-9" x2="-14.394" gradientUnits="userSpaceOnUse" x1="-44.39" gradientTransform="translate(58.788,33.941)">
			<stop id="stop5718-3" stop-color="#b6b2b6" offset="0"/>
			<stop id="stop5720-6" stop-color="#dddbdb" offset="1"/>
		</linearGradient>
		<linearGradient id="linearGradient5380-5-6" x1="650" xlink:href="#a-2-9-9" gradientUnits="userSpaceOnUse" y1="1310.4" gradientTransform="matrix(0 1 -1 0 1348.4 -590)" x2="594" y2="1310.4"/>
		<linearGradient id="linearGradient4426" y2="1327.4" xlink:href="#a-2-9-9" gradientUnits="userSpaceOnUse" x2="594" gradientTransform="matrix(0 1 -.57075 0 781.6 -590)" y1="1327.4" x1="650.17"/>
		<linearGradient id="linearGradient4881" y2="153.5" gradientUnits="userSpaceOnUse" x2="-493.36" gradientTransform="matrix(-1,0,0,-1,-466.36,184)" y1="153.5" x1="-494.36">
			<stop id="stop4877" offset="0"/>
			<stop id="stop4879" stop-opacity="0" offset="1"/>
		</linearGradient>
		<linearGradient id="linearGradient4913" y2="153.5" gradientUnits="userSpaceOnUse" x2="-493.36" gradientTransform="matrix(1,0,0,-1,522.36,184)" y1="153.5" x1="-494.36">
			<stop id="stop4909" stop-color="#f5f4f4" offset="0"/>
			<stop id="stop4911" stop-color="#f5f4f4" stop-opacity="0" offset="1"/>
		</linearGradient>
	</defs>
	<metadata id="metadata7">
		<rdf:RDF>
			<cc:Work rdf:about="">
				<dc:format>image/svg+xml</dc:format>
				<dc:type rdf:resource="http://purl.org/dc/dcmitype/StillImage"/>
				<dc:title/>
			</cc:Work>
		</rdf:RDF>
	</metadata>
	<g id="layer1">
		<path id="path4671" fill-rule="evenodd" fill="#534d52" d="m17 32 4-13.438 8-3.562 11 3.656 5.562 10.344-2.562 15.375-13 5.625-10-4z"/>
		<rect id="rect7360-8" rx="14.005" transform="rotate(-90)" height="28.01" width="28.01" y="13.99" x="-46.04" fill="url(#linearGradient5388-5)"/>
		<path id="path7362-0" d="m27.995 18.04c-1.017 0-2.006 0.112-2.9594 0.3156l-1.2421 2.4854-1.8767-1.407c-3.3655 1.6181-5.9726 4.5322-7.1803 8.1121l2.7547-1.1021 2.1008 1.4005 0.70025-2.1007 9.1032-4.9018-0.55481-2.774c-0.2801-0.017-0.56128-0.027-0.84569-0.027m10.371 4.5991-0.56774 1.7032 0.70025 0.7002-2.801 4.2015 1.4005 4.9018 4.6443 0.5818c0.168-0.9 0.258-1.8 0.258-2.7 0-2.398-0.60006-4.6497-1.6537-6.62l-1.1473-0.3825 0.41692-0.836c-0.3749-0.5558-0.80152-1.0719-1.2497-1.5674m-24.098 6.6049c-0.15406 0.7671-0.2424 1.56-0.26718 2.368l4.891 1.8335-0.70025-2.1007-1.4005-2.1008zm4.6238 4.2015 3.5012 8.403v3.0381c1.7151 0.7454 3.6068 1.1634 5.602 1.1634 0.13897 0 0.27579 0 0.41477-0.011l4.487-7.693-11.204-6.3023z" fill-rule="evenodd" fill="url(#linearGradient5722-3)"/>
		<path id="path4424-2" style="color-rendering:auto;color:#000000;isolation:auto;mix-blend-mode:normal;shape-rendering:auto;solid-color:#000000;image-rendering:auto" d="m27.999 3.9984c-0.0056-0.0000707-0.01195-0.00191-0.01758-0.00195l-3.9414 0.24414 0.0039 0.00981-0.0098-0.00977-1.0762 8.4707-0.0078 0.0293c-0.55054 0.27388-1.0853 0.62755-1.6055 1.041l-3.3496-3.6426-0.002 0.03711-0.0039-0.03711h-1.9941l-0.002 0.03711-0.0039-0.03711c-0.96428 1.3629-1.8364 2.9176-2.5957 4.6328l0.0059-0.000021 2.6641 7.3379 0.01563 0.0918c-0.4709 1.4727-0.83432 3.0432-1.08 4.6758l-0.04881 0.04103-4.8496 1.9883 0.0039 0.0078c-0.06738 1.0232-0.10267 2.0521-0.10546 3.082 0.0068 1.1347 0.0535 2.2677 0.13867 3.3926l-0.0039 0.0117 4.834 1.8848 0.05468 0.04492c0.26072 1.624 0.63896 3.1826 1.123 4.6406l-0.01563 0.0957-2.6289 7.4219 0.0137 0.002c0.77468 1.6808 1.6589 3.1984 2.6328 4.5234v0.01953l0.0078-0.0078c0.0019 0.0026 0.0041 0.0053 0.0059 0.0078v-0.01372l1.9863-0.0059v0.01953l0.0078-0.0078c0.0019 0.0026 0.0041 0.0053 0.0059 0.0078v-0.01372l3.3223-3.7031c0.51503 0.38921 1.0448 0.71908 1.5879 0.97266l0.0078 0.02734 1.1348 8.4941 0.06444-0.06642-0.02539 0.06641 3.746 0.18359v-13.014c-0.0065 0-0.01298 0.0039-0.01953 0.0039-4.741 0-8.5566-6.6875-8.5566-14.994 0-8.3067 3.8156-14.992 8.5566-14.992 0.0065 0 0.01306 0.0039 0.01953 0.0039z" fill="#7a747c"/>
		<path id="path4424-2-3-1" style="color-rendering:auto;color:#000000;isolation:auto;mix-blend-mode:normal;shape-rendering:auto;solid-color:#000000;image-rendering:auto" d="m27.98 15.998c-0.59263 0-1.1724 0.10566-1.7305 0.30469-0.27905 0.09952-0.55201 0.22163-0.82031 0.36719-2.1469 1.1641-3.925 3.7618-4.9766 7.1621h-0.002c-0.26259 0.84939-0.47848 1.75-0.64453 2.6895l-0.002 0.002c-0.08296 0.46956-0.1503 0.94913-0.20703 1.4375l-0.002 0.002c-0.05671 0.48842-0.09984 0.98547-0.12891 1.4902h-0.002c-0.02905 0.50481-0.04297 1.0184-0.04297 1.5371 0 0.16491 0.01071 0.32471 0.01367 0.48828 0.0062-0.34349 0.0099-0.68863 0.0293-1.0254h0.002c0.02907-0.50476 0.0722-1.0018 0.12891-1.4902l0.002-0.002c0.05673-0.48837 0.12407-0.96794 0.20703-1.4375l0.002-0.002c0.16605-0.9395 0.38194-1.8401 0.64453-2.6895h0.002c1.0515-3.4003 2.8296-5.998 4.9766-7.1621 0.2683-0.14556 0.54126-0.26767 0.82031-0.36719 0.5581-0.19903 1.1378-0.30469 1.7305-0.30469 0.0065 0 0.01295 0.006 0.01953 0.0059v-0.002-0.002-0.99609c-0.0066 0.0001-0.01303-0.0059-0.01953-0.0059zm-17.969 15.59c-0.0015 0.13642-0.0133 0.27172-0.01367 0.4082 0.0068 1.1347 0.05546 2.2697 0.14062 3.3945l-0.0039 0.0098 4.832 1.8848 0.05664 0.04492v-1l-0.05664-0.04492-4.832-1.8848 0.0039-0.0098c-0.07-0.93-0.109-1.866-0.126-2.803zm3.7 17.303-0.211 0.597l0.01563 0.002c0.77468 1.6808 1.6589 3.2004 2.6328 4.5254v0.01953l0.0078-0.0098c0.0019 0.0026 0.0041 0.0073 0.0059 0.0098v-0.01563l1.9863-0.0039v0.01953l0.0078-0.0098c0.0016 0.0021 0.0023 0.0057 0.0039 0.0078l0.002-0.01367 3.3223-3.7031c0.51503 0.38921 1.0448 0.71908 1.5879 0.97266l0.0078 0.0293 1.1348 8.4922 0.06445-0.06641-0.02539 0.06641 3.746 0.18359v-1l-3.7461-0.18359 0.02539-0.06641-0.06445 0.06641-1.1348-8.4922-0.0078-0.0293c-0.54304-0.25358-1.0729-0.58345-1.5879-0.97266l-3.3223 3.7031-0.002 0.01367c-0.0016-0.0021-0.0023-0.0057-0.0039-0.0078l-0.0078 0.0098v-0.01953l-1.9863 0.0039v0.01563c-0.0018-0.0025-0.004-0.0072-0.0059-0.0098l-0.0078 0.0098v-0.01953c-0.8947-1.2173-1.7096-2.6053-2.4375-4.125z" fill="#534d52"/>
		<path id="path4424" style="color-rendering:auto;color:#000000;isolation:auto;mix-blend-mode:normal;shape-rendering:auto;solid-color:#000000;image-rendering:auto" d="m27.999 59.995v-13.014c-0.0065 0-0.01241 0.0039-0.01895 0.0039-4.741 0-8.5579-6.6875-8.5579-14.994 0-8.3067 3.8169-14.992 8.5579-14.992 0.0065 0 0.01242 0.0039 0.01895 0.0039v-13.004c-0.0056-0.0000707-0.0111-0.00191-0.01672-0.00195-0.64991 0.0121-1.2988 0.093601-1.943 0.24414l0.0045 0.00975-0.01003-0.00977-1.0757 8.4707-0.0078 0.0293c-0.93708 0.46618-1.8371 1.1375-2.6765 2.0039l0.0011 0.02344-0.04572-0.02344-4.2349-4.6055-0.0011 0.03711-0.0045-0.03711c-0.96428 1.3629-1.8359 2.9176-2.5951 4.6328h0.0055l2.6654 7.3379 0.01561 0.0918c-0.47097 1.4727-0.83449 3.0432-1.0802 4.6758l-0.05018 0.04099-4.848 1.9883 0.0033 0.0078c-0.06739 1.0232-0.10303 2.0521-0.10582 3.082 0.0068 1.1347 0.05306 2.2677 0.13823 3.3926l-0.0033 0.01175 4.8347 1.8848 0.05465 0.04489c0.26072 1.624 0.63847 3.1826 1.1226 4.6406l-0.01561 0.0957-2.6286 7.4219 0.01335 0.002c0.77468 1.6808 1.658 3.1984 2.6319 4.5234l0.0011 0.01953 0.0067-0.0078c0.0019 0.0026 0.0037 0.0053 0.0055 0.0078l0.0011-0.01368 4.1736-4.6543 0.04572-0.02344v0.02343c0.84605 0.84025 1.7503 1.4851 2.6899 1.9238l0.0078 0.02734 1.1348 8.4941 0.06468-0.06638-0.02564 0.06641c0.57995 0.11756 1.1631 0.1777 1.7469 0.18356z" fill="url(#linearGradient4426)"/>
		<path id="path5706" style="color-rendering:auto;color:#000000;isolation:auto;mix-blend-mode:normal;shape-rendering:auto;solid-color:#000000;image-rendering:auto" d="m55.999 31.996c-0.012-1.1387-0.09404-2.2756-0.24414-3.4043l-0.07032 0.05858 0.03125-0.05859-8.4082-1.8711 0.01564-0.01366c-0.467-1.675-1.15-3.282-2.033-4.781l-0.08203 0.0098 0.002-0.0098 4.6016-7.4121 0.04687-0.0098c-1.3635-1.6895-2.9189-3.2148-4.6348-4.5449l-0.02148 0.26172-0.01953-0.26172-7.3027 4.6465c-1.4988-0.84473-3.0991-1.4947-4.7637-1.9297l-0.0488 0.06252-0.0293-0.0625-1.9863-8.4805 0.0078-0.013704c-1.014-0.1174-2.036-0.1775-3.059-0.1833v13.004c8.2908 0.01832 14.961 6.693 14.961 14.988-0.000001 8.2953-6.6701 14.972-14.961 14.99v13.014c0.0098 0.000071 0.01949 0.0019 0.02929 0.002 1.1387-0.0121 2.2755-0.0936 3.4043-0.24414l-0.05469-0.06445 1.8711-8.4062 0.02538-0.05664 0.05271 0.05667c1.6601-0.46278 3.2533-1.1387 4.7402-2.0098l7.3848 4.582 0.0078-0.11719 0.02344 0.11719c1.6895-1.3635 3.2147-2.9189 4.5449-4.6348l-0.0332-0.002-4.668-7.3359v-0.002l0.08008 0.002c0.8563-1.5107 1.5122-3.1265 1.9512-4.8066l-0.01761-0.01365 8.4316-1.9746-0.02734-0.04492 0.06836 0.04492c0.11001-1.026 0.1697-2.0568 0.1797-3.0898h0.0058z" fill="url(#linearGradient5380-5-6)"/>
		<path id="path4424-2-3" opacity=".1" style="color-rendering:auto;color:#000000;isolation:auto;mix-blend-mode:normal;shape-rendering:auto;solid-color:#000000;image-rendering:auto" d="m27.999 3.9995c-0.0056-0.0000708-0.01096-0.00276-0.0166-0.00274l-3.9429 0.24445 0.0042 0.00967-0.0097-0.00967-1.0759 8.4701-0.0083 0.03038c-0.55054 0.27389-1.086 0.62648-1.6062 1.0399l-3.3491-3.6419-0.0014 0.03729-0.0041-0.03729-1.9943-0.000001-0.0014 0.03729-0.0041-0.03729c-0.96428 1.3629-1.8371 2.9169-2.5964 4.6321l0.0055 0.000007 2.6641 7.3376 0.01657 0.09115c-0.4709 1.4727-0.8343 3.0438-1.08 4.6763l-0.04975 0.0414-4.8489 1.9874 0.0042 0.0097c-0.06738 1.0232-0.10355 2.0513-0.10634 3.0812 0.0068 1.1347 0.05432 2.2684 0.13949 3.3933l-0.0028 0.0111 4.8324 1.8852 0.05523 0.0442c0.26072 1.624 0.63873 3.1838 1.1228 4.6418l-0.0152 0.0953-2.6296 7.4219 0.01522 0.0014c0.77468 1.6808 1.6584 3.1994 2.6323 4.5244v0.01933l0.0083-0.0083c0.0019 0.0026 0.0037 0.0058 0.0055 0.0083v-0.01386l1.986-0.0055v0.01933l0.0083-0.0083c0.0016 0.0021 0.0025 0.0048 0.0041 0.0069l0.0014-0.01244 3.3228-3.704c0.51503 0.38921 1.0438 0.72007 1.5868 0.97365l0.0083 0.02762 1.1352 8.4936 0.0635-0.06633-0.02485 0.06629 3.7455 0.1823v-13.012c-0.0065 0-0.01281 0.0028-0.01934 0.0028-2.0742 0.000001-3.9718-1.2784-5.4497-3.414-0.42226-0.61018-0.81054-1.2916-1.1587-2.0316-0.52244-1.1104-0.95495-2.3544-1.2788-3.7013-0.10798-0.44877-0.20416-0.90822-0.28726-1.3783-0.08308-0.47008-0.15313-0.95016-0.20992-1.4391-0.11359-0.97784-0.17263-1.9903-0.17263-3.0287 0-0.51869 0.01376-1.0323 0.04281-1.5371 0.000029-0.000505 0.0014-0.000894 0.0014-0.0014 0.02907-0.50476 0.07173-1.0018 0.12844-1.4902 0.000061-0.000526 0.0013-0.000828 0.0014-0.0014 0.05673-0.48836 0.12558-0.96813 0.20854-1.4377 0.000096-0.000545 0.0013-0.000836 0.0014-0.0014 0.16605-0.9395 0.38236-1.8395 0.64496-2.6889 0.000176-0.00057 0.0012-0.000792 0.0014-0.0014 1.0515-3.4003 2.8304-5.9981 4.9774-7.1622 0.2683-0.14556 0.5413-0.26785 0.82036-0.36736 0.5581-0.19903 1.1365-0.30384 1.7291-0.30384 0.0065 0 0.01278 0.0056 0.01936 0.0055l0.0014-0.0014-0.0014-0.0014v-13.001z"/>
		<path id="rect4873" opacity=".05" style="color-rendering:auto;color:#000000;isolation:auto;mix-blend-mode:normal;shape-rendering:auto;solid-color:#000000;image-rendering:auto" fill="url(#linearGradient4881)" d="m28 4a28 28 0 0 0 -1 0.035156v13a15 15 0 0 1 1 -0.035v-13zm-1 42.951v12.998a28 28 0 0 0 1 0.051v-13a15 15 0 0 1 -1 -0.04883z"/>
		<path id="rect4873-5" opacity=".05" style="color-rendering:auto;color:#000000;isolation:auto;mix-blend-mode:normal;shape-rendering:auto;solid-color:#000000;image-rendering:auto" fill="url(#linearGradient4913)" d="m28 4v13a15 15 0 0 1 1 0.04883v-12.998a28 28 0 0 0 -1 -0.051zm1 42.965a15 15 0 0 1 -1 0.035v13a28 28 0 0 0 1 -0.03516v-13z"/>
		<path id="path4424-1" opacity=".2" style="color-rendering:auto;color:#000000;isolation:auto;mix-blend-mode:normal;shape-rendering:auto;solid-color:#000000;image-rendering:auto" fill="#fff" d="m27.982 3.9961c-0.64991 0.0121-1.2992 0.093601-1.9434 0.24414l0.0059 0.00977-0.01172-0.00977-1.0742 8.4707-0.0078 0.0293c-0.93708 0.46618-1.8383 1.1375-2.6777 2.0039l0.002 0.02344-0.04687-0.02344-4.2344-4.6055v0.03711l-0.0059-0.03711c-0.96428 1.3629-1.8345 2.9176-2.5938 4.6328h0.0039l0.20312 0.55859c0.71023-1.5386 1.5071-2.9482 2.3867-4.1914l0.0059 0.03711v-0.03711l4.2344 4.6055 0.04687 0.02344-0.002-0.02344c0.83945-0.86637 1.7407-1.5377 2.6777-2.0039l0.0078-0.0293 1.0742-8.4707 0.01172 0.00977-0.0059-0.00977c0.64421-0.15054 1.2934-0.23204 1.9434-0.24414 0.0056 0.0000399 0.01198 0.00188 0.01758 0.00195 1.0228 0.00586 2.0445 0.066019 3.0605 0.18359l-0.0078 0.013672 1.9863 8.4805 0.0293 0.0625 0.04883-0.0625c1.6646 0.43495 3.2648 1.085 4.7637 1.9297l7.3027-4.6465 0.01953 0.26172 0.02148-0.26172c1.5607 1.2098 2.9804 2.5882 4.252 4.0977l0.33594-0.54297 0.04687-0.0098c-1.3635-1.6895-2.9189-3.2148-4.6348-4.5449l-0.02148 0.26172-0.01953-0.26172-7.3027 4.6465c-1.499-0.846-3.099-1.496-4.764-1.931l-0.04883 0.0625-0.0293-0.0625-1.9863-8.4805 0.0078-0.013672c-1.016-0.1177-2.037-0.1779-3.06-0.1838-0.0056-0.0000707-0.01196-0.00191-0.01758-0.00195zm17.562 18.393-0.33398 0.53711-0.002 0.0098 0.08203-0.0098c0.8828 1.4985 1.5662 3.1058 2.0332 4.7812l-0.01563 0.01367 8.4082 1.8711-0.03125 0.05859 0.07031-0.05859c0.12672 0.95287 0.19414 1.9123 0.22266 2.873 0.0038-0.1564 0.01411-0.31224 0.01563-0.46875h0.0059c-0.012-1.1387-0.09404-2.2756-0.24414-3.4043l-0.07031 0.05859 0.03125-0.05859-8.4082-1.8711 0.01563-0.01367c-0.419-1.506-1.021-2.952-1.778-4.318zm-27.612 0.353c-0.393 1.318-0.715 2.696-0.932 4.135l-0.05078 0.04102-4.8477 1.9883 0.0039 0.0078c-0.067 1.023-0.102 2.052-0.105 3.082 0.0012 0.19956 0.01012 0.39824 0.01367 0.59766 0.0098-0.89517 0.03321-1.7901 0.0918-2.6797l-0.0039-0.0078 4.8477-1.9883 0.051-0.041c0.2457-1.6325 0.60905-3.2031 1.0801-4.6758l-0.01563-0.0918-0.13281-0.36719zm1.5039 9.748c-0.0031 0.16749-0.01367 0.33113-0.01367 0.5 0 8.3067 3.8176 14.994 8.5586 14.994 0.0065 0 0.01303-0.0039 0.01953-0.0039 8.2908-0.01832 14.961-6.695 14.961-14.99-0.000001-0.16887-0.01991-0.33252-0.02539-0.5-0.264 8.06-6.814 14.473-14.936 14.49-0.0065 0-0.01299 0.0039-0.01953 0.0039-4.6447 0-8.394-6.4229-8.5449-14.494zm26.225 9.9102c-0.08491 0.15975-0.16267 0.32295-0.25195 0.48047l-0.08008-0.002v0.002l4.3242 6.7969c0.12468-0.15397 0.2555-0.30232 0.37695-0.45898l-0.0332-0.002-4.3359-6.8164zm-27.664 0.04492-2.4941 7.043 0.01367 0.002c0.06336 0.13748 0.13247 0.26707 0.19727 0.40234l2.418-6.8262 0.01563-0.0957c-0.05633-0.16967-0.09694-0.35305-0.15039-0.52539z"/>
	</g>
</svg>
