<?xml version="1.0" encoding="UTF-8" standalone="no"?>
<!-- Created with Inkscape (http://www.inkscape.org/) -->

<svg
   xmlns:dc="http://purl.org/dc/elements/1.1/"
   xmlns:cc="http://creativecommons.org/ns#"
   xmlns:rdf="http://www.w3.org/1999/02/22-rdf-syntax-ns#"
   xmlns:svg="http://www.w3.org/2000/svg"
   xmlns="http://www.w3.org/2000/svg"
   xmlns:xlink="http://www.w3.org/1999/xlink"
   xmlns:sodipodi="http://sodipodi.sourceforge.net/DTD/sodipodi-0.dtd"
   xmlns:inkscape="http://www.inkscape.org/namespaces/inkscape"
   id="svg2"
   height="64"
   viewBox="0 0 64 64.000001"
   width="64"
   version="1.1"
   inkscape:version="0.91 r13725"
   sodipodi:docname="kopete.svg">
  <sodipodi:namedview
     pagecolor="#ffffff"
     bordercolor="#666666"
     borderopacity="1"
     objecttolerance="10"
     gridtolerance="10"
     guidetolerance="10"
     inkscape:pageopacity="0"
     inkscape:pageshadow="2"
     inkscape:window-width="2405"
     inkscape:window-height="1430"
     id="namedview15"
     showgrid="false"
     inkscape:zoom="1"
     inkscape:cx="8.3651163"
     inkscape:cy="30.474653"
     inkscape:window-x="0"
     inkscape:window-y="0"
     inkscape:window-maximized="0"
     inkscape:current-layer="svg2">
    <inkscape:grid
       type="xygrid"
       id="grid4143"
       empspacing="4" />
  </sodipodi:namedview>
  <defs
     id="defs4">
    <linearGradient
       inkscape:collect="always"
       id="linearGradient4146">
      <stop
         style="stop-color:#82c8fa;stop-opacity:1;"
         offset="0"
         id="stop4148" />
      <stop
         style="stop-color:#1287de;stop-opacity:1"
         offset="1"
         id="stop4150" />
    </linearGradient>
    <linearGradient
       inkscape:collect="always"
       id="linearGradient4160">
      <stop
         style="stop-color:#16364e;stop-opacity:1"
         offset="0"
         id="stop4162" />
      <stop
         style="stop-color:#28618c;stop-opacity:1"
         offset="1"
         id="stop4164" />
    </linearGradient>
    <linearGradient
       id="linearGradient13945"
       x1="32"
       gradientUnits="userSpaceOnUse"
       y1="56"
       gradientTransform="matrix(-1,0,0,1,64,4)"
       x2="32"
       y2="8">
      <stop
         id="stop13941"
         stop-color="#0566af"
         offset="0"
         style="stop-color:#1287de;stop-opacity:1" />
      <stop
         id="stop13943"
         stop-color="#1287de"
         offset="1"
         style="stop-color:#82c8fa;stop-opacity:1" />
    </linearGradient>
    <linearGradient
       id="linearGradient5193"
       x1="616.52"
       gradientUnits="userSpaceOnUse"
       y1="235.36"
       gradientTransform="translate(-580,-210)"
       x2="616.52"
       y2="258">
      <stop
         id="stop4996"
         stop-color="#fcfcfc"
         offset="0" />
      <stop
         id="stop4998"
         stop-color="#dddbdb"
         offset="1" />
    </linearGradient>
    <linearGradient
       inkscape:collect="always"
       xlink:href="#linearGradient4160"
       id="linearGradient4166"
       x1="32"
       y1="46"
       x2="32"
       y2="20"
       gradientUnits="userSpaceOnUse" />
    <linearGradient
       inkscape:collect="always"
       xlink:href="#linearGradient4146"
       id="linearGradient4152"
       x1="26"
       y1="12.26352"
       x2="26"
       y2="60"
       gradientUnits="userSpaceOnUse" />
  </defs>
  <metadata
     id="metadata7">
    <rdf:RDF>
      <cc:Work
         rdf:about="">
        <dc:format>image/svg+xml</dc:format>
        <dc:type
           rdf:resource="http://purl.org/dc/dcmitype/StillImage" />
        <dc:title />
      </cc:Work>
    </rdf:RDF>
  </metadata>
  <path
     inkscape:connector-curvature="0"
     d="m 56,12.04 c 2.216,0 4,1.784 4,4 l 0,32 c 0,2.216 -1.784,3.9942 -4,4 l -30,0 c -2,0 -4.7399,1.9098 -6,3.0004 l -5,4.3263 c -0.94507,0.8179 -1.7749,0.9741 -2,0 L 12,55.0404 C 11.54979,53.0921 10,52.04 8,52.04 c -2.2812,0 -4,-1.784 -4,-4 l 0,-32 c 0,-2.216 1.784,-4 4,-4 z"
     style="color:#000000;isolation:auto;mix-blend-mode:normal;solid-color:#000000;fill:url(#linearGradient4152);color-rendering:auto;image-rendering:auto;shape-rendering:auto;fill-opacity:1"
     id="path13936" />
  <path
     inkscape:connector-curvature="0"
     d="m 60,47.04 0,1 c 0,2.216 -1.784,3.9942 -4,4 l -30,0 c -2,0 -4.7399,1.9094 -6,3 l -5,4.3262 c -0.94507,0.8179 -1.7749,0.9741 -2,0 L 12,55.04 c -0.45021,-1.9483 -2,-3 -4,-3 -2.2812,0 -4,-1.784 -4,-4 l 0,-1 c 0,2.216 1.7188,4 4,4 2,0 3.5498,1.0517 4,3 l 1,4.3262 c 0.2251,0.9741 1.0549,0.8179 2,0 L 20,54.04 c 1.2601,-1.0906 4,-3 6,-3 l 30,0 c 2.216,-0.01 4,-1.784 4,-4 z"
     style="color:#000000;isolation:auto;mix-blend-mode:normal;solid-color:#000000;fill:#0566af;color-rendering:auto;image-rendering:auto;shape-rendering:auto"
     id="path13936-6" />
  <path
     style="color:#000000;clip-rule:nonzero;display:inline;overflow:visible;visibility:visible;opacity:1;isolation:auto;mix-blend-mode:normal;color-interpolation:sRGB;color-interpolation-filters:linearRGB;solid-color:#000000;solid-opacity:1;fill:url(#linearGradient4166);fill-opacity:1;fill-rule:nonzero;stroke:none;stroke-width:2;stroke-linecap:butt;stroke-linejoin:miter;stroke-miterlimit:4;stroke-dasharray:none;stroke-dashoffset:0;stroke-opacity:1;color-rendering:auto;image-rendering:auto;shape-rendering:auto;text-rendering:auto;enable-background:accumulate"
     d="m 20,22 0,4 4,0 0,-4 z m 20,-2 c 0,0 4,6 4,12 0,6 -4,12 -4,12 l 2,0 c 0,0 6,-4 6,-12 0,-8 -6,-12 -6,-12 z m -12,10 0,4 8,0 0,-4 z m -8,8 0,4 2,0 0,2 -2,0 c 0,0 0,2 2,2 2,0 2,-2 2,-2 l 0,-2 0,-4 z"
     id="rect4145"
     inkscape:connector-curvature="0"
     sodipodi:nodetypes="ccccccsccsccccccccccccscccc" />
</svg>
