<?xml version="1.0" encoding="UTF-8" standalone="no"?>
<!-- Created with Inkscape (http://www.inkscape.org/) -->
<svg id="svg2" xmlns:rdf="http://www.w3.org/1999/02/22-rdf-syntax-ns#" xmlns="http://www.w3.org/2000/svg" height="64" viewBox="0 0 64 64.000001" width="64" version="1.1" xmlns:cc="http://creativecommons.org/ns#" xmlns:dc="http://purl.org/dc/elements/1.1/">
	<defs id="defs4">
		<linearGradient id="linearGradient5700" x1="30" gradientUnits="userSpaceOnUse" y1="1054.6" gradientTransform="translate(0 -988.36)" x2="30" y2="996.36">
			<stop id="stop5895" stop-color="#343031" offset="0"/>
			<stop id="stop5897" stop-color="#534d52" offset="1"/>
		</linearGradient>
	</defs>
	<metadata id="metadata7">
		<rdf:RDF>
			<cc:Work rdf:about="">
				<dc:format>image/svg+xml</dc:format>
				<dc:type rdf:resource="http://purl.org/dc/dcmitype/StillImage"/>
				<dc:title/>
			</cc:Work>
		</rdf:RDF>
	</metadata>
	<path id="path5891" style="color-rendering:auto;color:#000000;isolation:auto;mix-blend-mode:normal;shape-rendering:auto;solid-color:#000000;image-rendering:auto" fill="url(#linearGradient5700)" d="m37 8h-25c-2.216 0-4 1.784-4 4v40c0 2.216 1.784 4 4 4h40c2.216 0 4-1.784 4-4v-25l-19-19z"/>
	<path id="rect5932-6" style="color-rendering:auto;color:#000000;isolation:auto;mix-blend-mode:normal;shape-rendering:auto;solid-color:#000000;image-rendering:auto" fill="#343031" d="m37 8 19 19v-15c0-2.216-1.784-4-4-4h-15z"/>
	<path id="rect5932-3-6" opacity=".4" style="color-rendering:auto;color:#000000;isolation:auto;mix-blend-mode:normal;shape-rendering:auto;solid-color:#000000;image-rendering:auto" fill="#343031" d="m12 56.04c-2.216 0-4-1.784-4-4v-1c0 2.216 1.784 4 4 4h40c2.216 0 4-1.784 4-4v1c0 2.216-1.784 4-4 4h-40z"/>
	<path id="path5804-8" d="m35 8 21 21v-4l-17-17h-4z" fill-rule="evenodd" fill="#fcfcfc"/>
</svg>
