<?xml version="1.0" encoding="UTF-8" standalone="no"?>
<!-- Created with Inkscape (http://www.inkscape.org/) -->
<svg id="svg2" xmlns:rdf="http://www.w3.org/1999/02/22-rdf-syntax-ns#" xmlns="http://www.w3.org/2000/svg" height="64" viewBox="0 0 64 64.000001" width="64" version="1.1" xmlns:cc="http://creativecommons.org/ns#" xmlns:dc="http://purl.org/dc/elements/1.1/">
	<defs id="defs4">
		<linearGradient id="linearGradient7765" y2="518.86" gradientUnits="userSpaceOnUse" x2="179" gradientTransform="matrix(0 1 -.94444 0 1089.8 -90)" y1="518.86" x1="124">
			<stop id="stop6650" stop-color="#f99133" offset="0"/>
			<stop id="stop6652" stop-color="#af5505" offset="1"/>
		</linearGradient>
		<linearGradient id="linearGradient7767" y2="1030.4" gradientUnits="userSpaceOnUse" x2="16" gradientTransform="matrix(.83333 0 0 .99986 125.33 -510.86)" y1="1029.4" x1="16">
			<stop id="stop4912" stop-color="#fff" offset="0"/>
			<stop id="stop4914" stop-color="#fff" stop-opacity="0" offset="1"/>
		</linearGradient>
		<linearGradient id="linearGradient7769" y2="1030.4" gradientUnits="userSpaceOnUse" x2="16" gradientTransform="matrix(1.1458 0 0 -.94444 116.83 1490.5)" y1="1029.4" x1="16">
			<stop id="stop4904" offset="0"/>
			<stop id="stop4906" stop-opacity="0" offset="1"/>
		</linearGradient>
	</defs>
	<metadata id="metadata7">
		<rdf:RDF>
			<cc:Work rdf:about="">
				<dc:format>image/svg+xml</dc:format>
				<dc:type rdf:resource="http://purl.org/dc/dcmitype/StillImage"/>
				<dc:title/>
			</cc:Work>
		</rdf:RDF>
	</metadata>
	<g id="layer1" transform="translate(0 -988.36)">
		<g id="g5910-0-3" transform="matrix(0 1 -1 0 532.36 868.36)">
			<rect id="rect6214-9-12" style="color-rendering:auto;color:#000000;isolation:auto;mix-blend-mode:normal;shape-rendering:auto;solid-color:#000000;image-rendering:auto" transform="rotate(-90)" ry="4" height="40" width="49" y="132" x="-521.36" fill="#af5505"/>
			<g id="g7800">
				<rect id="rect7783" ry="2" style="color-rendering:auto;color:#000000;isolation:auto;mix-blend-mode:normal;shape-rendering:auto;solid-color:#000000;image-rendering:auto" transform="rotate(-90)" height="36" width="43" y="134" x="-517.36" fill="#dddbdb"/>
				<path id="rect7783-3" style="color-rendering:auto;color:#000000;isolation:auto;mix-blend-mode:normal;shape-rendering:auto;solid-color:#000000;image-rendering:auto" fill="#fcfcfc" d="m17 14c-0.741 0-1.379 0.404-1.725 1h42.45c-0.346-0.596-0.984-1-1.725-1h-39z" transform="matrix(0,-1,1,0,120,532.36)"/>
				<g id="g7870" transform="matrix(0 -1 1 0 -868.36 532.36)">
					<path id="path9667-3-0-9" d="m41.192 1029.6a13 13 0 0 1 -17.549 0.7662 13 13 0 0 1 -2.2927 -17.415 13 13 0 0 1 17.15 -3.9l-6.5 11.258z" style="color-rendering:auto;color:#000000;isolation:auto;mix-blend-mode:normal;shape-rendering:auto;solid-color:#000000;image-rendering:auto" fill="#ac0808"/>
					<path id="path7855" d="m41 1008.8a13 13 0 0 1 6.3888 9.5615 13 13 0 0 1 -3.6964 10.889l-9.192-9.2z" style="color-rendering:auto;color:#000000;isolation:auto;mix-blend-mode:normal;shape-rendering:auto;solid-color:#000000;image-rendering:auto" fill="#44a410"/>
				</g>
				<rect id="rect8018" style="color-rendering:auto;color:#000000;isolation:auto;mix-blend-mode:normal;shape-rendering:auto;solid-color:#000000;image-rendering:auto" transform="rotate(-90)" height="2" width="10" y="166" x="-486.36" fill="#44a410"/>
				<rect id="rect8020" style="color-rendering:auto;color:#000000;isolation:auto;mix-blend-mode:normal;shape-rendering:auto;solid-color:#000000;image-rendering:auto" transform="rotate(-90)" height="2" width="6" y="162" x="-482.36" fill="#ac0808"/>
			</g>
			<path id="rect6214-9-1-0" d="m172 502.36v-26c0-2.216-1.784-4-4-4h-1c2.216 0 4 1.784 4 4v26z" style="color-rendering:auto;color:#000000;isolation:auto;mix-blend-mode:normal;shape-rendering:auto;solid-color:#000000;image-rendering:auto" fill="#622f02"/>
			<path id="path6501-0" opacity=".1" fill-rule="evenodd" d="m132 498.36v6l38.135 2.8711c1.1299-0.91521 1.8652-2.2972 1.8652-3.8711v-27c0-2-2-4-4-4h-10z"/>
			<path id="rect5605-6-4" style="color-rendering:auto;color:#000000;isolation:auto;mix-blend-mode:normal;shape-rendering:auto;solid-color:#000000;image-rendering:auto" transform="matrix(0,-1,1,0,90,1122.4)" fill="url(#linearGradient7765)" d="m607.7 41-3.695 1h-6.78c-1.77 0.275-3.22 1.784-3.22 4v32c0 2.216 1.4514 3.7251 3.2227 4h6.78l14.78 4c1.76 0.313 3.22-1.784 3.22-4v-30z"/>
			<path id="path6286-66" d="m127.97 503.26c0.001 0.1078 0.0117 0.2177 0.0312 0.3282l2.5762 9.5175 10.424-12.74h-9c-2.0775 0-4.0509 1.2786-4.0312 2.8945z" fill="#622f02" fill-rule="evenodd"/>
			<g id="g29">
				<path id="path6286-6-3" d="m130.58 513.1 0.64258 2.375 12.365-15.115h-2.584l-10.424 12.74z" style="color-rendering:auto;text-decoration-color:#000000;color:#000000;isolation:auto;mix-blend-mode:normal;shape-rendering:auto;solid-color:#000000;block-progression:tb;text-decoration-line:none;image-rendering:auto;white-space:normal;text-indent:0;text-transform:none;text-decoration-style:solid" fill="#fcfcfc" fill-rule="evenodd"/>
				<g id="g32">
					<path id="rect5605-5-0-0-0-9" opacity=".1" style="color-rendering:auto;color:#000000;isolation:auto;mix-blend-mode:normal;shape-rendering:auto;solid-color:#000000;image-rendering:auto" d="m132 500.36h40c2.216 0 4.3134 1.4551 4 3.2222l-4 14.778h-40l-4-14.778c-0.31339-1.7671 1.784-3.2222 4-3.2222z"/>
					<path id="rect5605-6-7-9" style="color-rendering:auto;color:#000000;isolation:auto;mix-blend-mode:normal;shape-rendering:auto;solid-color:#000000;image-rendering:auto" transform="matrix(0,-1,1,0,90,1122.4)" fill="#622f02" d="m594 77v1c0 2.216 1.4514 3.7251 3.2227 4h6.78l14.78 4c1.76 0.313 3.22-1.784 3.22-4v-1c0 2.216-1.4556 4.3134-3.2227 4l-14.78-4h-6.78c-1.77-0.275-3.22-1.784-3.22-4z"/>
					<rect id="rect5679-8-5" opacity=".05" style="color-rendering:auto;color:#000000;isolation:auto;mix-blend-mode:normal;shape-rendering:auto;solid-color:#000000;image-rendering:auto" height=".99986" width="40" y="518.36" x="132" fill="url(#linearGradient7767)"/>
					<path id="rect5679-9-5-4" opacity=".05" d="m131.73 517.42 0.27 0.94h40l0.27148-0.94444z" style="color-rendering:auto;color:#000000;isolation:auto;mix-blend-mode:normal;shape-rendering:auto;solid-color:#000000;image-rendering:auto" fill="url(#linearGradient7769)"/>
				</g>
			</g>
		</g>
	</g>
</svg>
