<?xml version="1.0" encoding="UTF-8" standalone="no"?>
<!-- Created with Inkscape (http://www.inkscape.org/) -->
<svg id="svg2" xmlns:rdf="http://www.w3.org/1999/02/22-rdf-syntax-ns#" xmlns="http://www.w3.org/2000/svg" height="64" viewBox="0 0 64 64.000001" width="64" version="1.1" xmlns:cc="http://creativecommons.org/ns#" xmlns:dc="http://purl.org/dc/elements/1.1/">
	<defs id="defs4">
		<linearGradient id="linearGradient8648-2" x1="16" gradientUnits="userSpaceOnUse" y1="1029.4" gradientTransform="matrix(1.1458,0,0,-1,112.83,1539.7)" x2="16" y2="1030.4">
			<stop id="stop7393" offset="0"/>
			<stop id="stop7395" stop-opacity="0" offset="1"/>
		</linearGradient>
		<linearGradient id="linearGradient8646-1" x1="16" gradientUnits="userSpaceOnUse" y1="1029.4" gradientTransform="translate(116,-519)" x2="16" y2="1030.4">
			<stop id="stop7403" stop-color="#fff" offset="0"/>
			<stop id="stop7405" stop-color="#fff" stop-opacity="0" offset="1"/>
		</linearGradient>
		<linearGradient id="linearGradient8644-7" x1="124" gradientUnits="userSpaceOnUse" y1="518.86" gradientTransform="matrix(0,1,-1,0,536.36,-124)" x2="179" y2="518.86">
			<stop id="stop8173" stop-color="#37a4f5" offset="0"/>
			<stop id="stop8175" stop-color="#0566af" offset="1"/>
		</linearGradient>
	</defs>
	<metadata id="metadata7">
		<rdf:RDF>
			<cc:Work rdf:about="">
				<dc:format>image/svg+xml</dc:format>
				<dc:type rdf:resource="http://purl.org/dc/dcmitype/StillImage"/>
				<dc:title/>
			</cc:Work>
		</rdf:RDF>
	</metadata>
	<rect id="rect6214-9-8" style="color-rendering:auto;color:#000000;isolation:auto;mix-blend-mode:normal;shape-rendering:auto;solid-color:#000000;image-rendering:auto" ry="4" height="56" width="26" y="4" x="26" fill="#0566af"/>
	<path id="rect6214-9-1-1" style="color-rendering:auto;color:#000000;isolation:auto;mix-blend-mode:normal;shape-rendering:auto;solid-color:#000000;image-rendering:auto" fill="#023962" d="m26 55v1c0 2.216 1.784 4 4 4h18c2.216 0 4-1.784 4-4v-1c0 2.216-1.784 4-4 4h-18c-2.216 0-4-1.784-4-4z"/>
	<rect id="rect6258-6" style="color-rendering:auto;color:#000000;isolation:auto;mix-blend-mode:normal;shape-rendering:auto;solid-color:#000000;image-rendering:auto" ry="2" height="52" width="31" y="6" x="19" fill="#dddbdb"/>
	<rect id="rect8179" style="color-rendering:auto;color:#000000;isolation:auto;mix-blend-mode:normal;shape-rendering:auto;solid-color:#000000;image-rendering:auto" height="10" width="10" y="16.04" x="36" fill="#82c8fa"/>
	<path id="path8181" style="color-rendering:auto;color:#000000;isolation:auto;mix-blend-mode:normal;shape-rendering:auto;solid-color:#000000;image-rendering:auto" fill="#f1d23b" d="m42 16.04a4 4 0 0 0 4 4v-4h-4z"/>
	<path id="path8208" d="m37 26.04h9v-2l-4-2-5 2z" fill="#44a410" fill-rule="evenodd"/>
	<g id="g25" transform="translate(0,-988.36)">
		<g id="g27" fill="#b6b2b6">
			<rect id="rect8217" style="color-rendering:auto;color:#000000;isolation:auto;mix-blend-mode:normal;shape-rendering:auto;solid-color:#000000;image-rendering:auto" height="2" width="6" y="1018.4" x="40"/>
			<rect id="rect8219" style="color-rendering:auto;color:#000000;isolation:auto;mix-blend-mode:normal;shape-rendering:auto;solid-color:#000000;image-rendering:auto" height="2" width="5" y="1022.4" x="39"/>
			<rect id="rect8221" style="color-rendering:auto;color:#000000;isolation:auto;mix-blend-mode:normal;shape-rendering:auto;solid-color:#000000;image-rendering:auto" height="2" width="11" y="1028.4" x="35"/>
			<rect id="rect8223" style="color-rendering:auto;color:#000000;isolation:auto;mix-blend-mode:normal;shape-rendering:auto;solid-color:#000000;image-rendering:auto" height="2" width="8" y="1032.4" x="38"/>
			<rect id="rect8225" style="color-rendering:auto;color:#000000;isolation:auto;mix-blend-mode:normal;shape-rendering:auto;solid-color:#000000;image-rendering:auto" height="2" width="8" y="1036.4" x="38"/>
			<rect id="rect8227" style="color-rendering:auto;color:#000000;isolation:auto;mix-blend-mode:normal;shape-rendering:auto;solid-color:#000000;image-rendering:auto" height="2" width="3" y="1040.4" x="40"/>
		</g>
		<rect id="rect8177" style="color-rendering:auto;color:#000000;isolation:auto;mix-blend-mode:normal;shape-rendering:auto;solid-color:#000000;image-rendering:auto" ry="0" height="4" width="9" y="998.36" x="35" fill="#7a747c"/>
	</g>
	<path id="rect6258-1-3" style="color-rendering:auto;color:#000000;isolation:auto;mix-blend-mode:normal;shape-rendering:auto;solid-color:#000000;image-rendering:auto" fill="#fcfcfc" d="m21 6c-0.741 0-1.379 0.4042-1.725 1h30.45c-0.346-0.5958-0.984-1-1.725-1h-27z"/>
	<path id="path6501-8" opacity=".1" d="m41 4h-6l-7.8711 54.135c0.91521 1.1299 2.2972 1.8652 3.8711 1.8652h17c2 0 4-2 4-4v-41z" fill-rule="evenodd"/>
	<path id="rect5605-6-1-4-9" d="m25.689 3.0012-3.6942 1h-6.7773c-1.7713 0.27486-3.2227 1.784-3.2227 4v48c0 2.216 1.4514 3.7251 3.2227 4h6.7773l14.777 4c1.7671 0.31339 3.2227-1.784 3.2227-4v-46z" style="color-rendering:auto;color:#000000;isolation:auto;mix-blend-mode:normal;shape-rendering:auto;solid-color:#000000;image-rendering:auto" fill="url(#linearGradient8644-7)"/>
	<path id="path6286-8-4-1" d="m37.1-0.03c-0.1078 0.001-0.2177 0.0117-0.3282 0.0312l-9.5175 2.5762 12.74 10.424v-9c0-2.0775-1.2786-4.0509-2.8945-4.0312z" fill="#023962" fill-rule="evenodd"/>
	<path id="path6286-6-6-4-0" d="m27.26 2.58-2.375 0.6426 15.115 12.365v-2.584l-12.74-10.424z" style="color-rendering:auto;text-decoration-color:#000000;color:#000000;isolation:auto;mix-blend-mode:normal;shape-rendering:auto;solid-color:#000000;block-progression:tb;text-decoration-line:none;image-rendering:auto;white-space:normal;text-indent:0;text-transform:none;text-decoration-style:solid" fill="#fcfcfc" fill-rule="evenodd"/>
	<g id="g45" transform="matrix(0,1,-1,0,532.36,-120)">
		<path id="rect5605-5-0-0-0-3-9-4" opacity=".1" style="color-rendering:auto;color:#000000;isolation:auto;mix-blend-mode:normal;shape-rendering:auto;solid-color:#000000;image-rendering:auto" d="m124 492.36h56c2.216 0 4.3134 1.4551 4 3.2222l-4 14.778h-56l-4-14.778c-0.31339-1.7671 1.784-3.2222 4-3.2222z"/>
		<path id="rect5605-6-7-7-9-1" d="m672 85v1c0 2.216 1.4514 3.7251 3.2227 4h6.78l14.78 4c1.76 0.313 3.22-1.784 3.22-4v-1c0 2.216-1.4556 4.3134-3.2227 4l-14.78-4h-6.78c-1.77-0.275-3.22-1.784-3.22-4z" style="color-rendering:auto;color:#000000;isolation:auto;mix-blend-mode:normal;shape-rendering:auto;solid-color:#000000;image-rendering:auto" fill="#023962" transform="matrix(0,-1,1,0,90,1192.4)"/>
		<rect id="rect5679-8-2-8-8" opacity=".05" style="color-rendering:auto;color:#000000;isolation:auto;mix-blend-mode:normal;shape-rendering:auto;solid-color:#000000;image-rendering:auto" height="1" width="56" y="510.36" x="124" fill="url(#linearGradient8646-1)"/>
		<path id="rect5679-9-5-47-3-6" opacity=".05" d="m123.73 509.36 0.27148 1h56l0.27148-1z" style="color-rendering:auto;color:#000000;isolation:auto;mix-blend-mode:normal;shape-rendering:auto;solid-color:#000000;image-rendering:auto" fill="url(#linearGradient8648-2)"/>
	</g>
</svg>
