<?xml version="1.0" encoding="UTF-8" standalone="no"?>
<!-- Created with Inkscape (http://www.inkscape.org/) -->

<svg
   xmlns:dc="http://purl.org/dc/elements/1.1/"
   xmlns:cc="http://creativecommons.org/ns#"
   xmlns:rdf="http://www.w3.org/1999/02/22-rdf-syntax-ns#"
   xmlns:svg="http://www.w3.org/2000/svg"
   xmlns="http://www.w3.org/2000/svg"
   xmlns:xlink="http://www.w3.org/1999/xlink"
   xmlns:sodipodi="http://sodipodi.sourceforge.net/DTD/sodipodi-0.dtd"
   xmlns:inkscape="http://www.inkscape.org/namespaces/inkscape"
   id="svg2"
   height="64"
   viewBox="0 0 64 64.000001"
   width="64"
   version="1.1"
   inkscape:version="0.91 r13725"
   sodipodi:docname="MaintenanceTool.svg">
  <sodipodi:namedview
     pagecolor="#ffffff"
     bordercolor="#666666"
     borderopacity="1"
     objecttolerance="10"
     gridtolerance="10"
     guidetolerance="10"
     inkscape:pageopacity="0"
     inkscape:pageshadow="2"
     inkscape:window-width="2986"
     inkscape:window-height="1590"
     id="namedview15"
     showgrid="false"
     inkscape:zoom="3.6875"
     inkscape:cx="-36.484115"
     inkscape:cy="-16.488096"
     inkscape:window-x="0"
     inkscape:window-y="0"
     inkscape:window-maximized="0"
     inkscape:current-layer="svg2" />
  <defs
     id="defs4">
    <linearGradient
       inkscape:collect="always"
       xlink:href="#linearGradient4927"
       id="linearGradient5084-5-1"
       gradientUnits="userSpaceOnUse"
       gradientTransform="translate(30,-988.3622)"
       x1="0"
       y1="1040.3622"
       x2="0"
       y2="1000.3622" />
    <linearGradient
       inkscape:collect="always"
       id="linearGradient4927">
      <stop
         style="stop-color:#4e8133;stop-opacity:1"
         offset="0"
         id="stop4929" />
      <stop
         style="stop-color:#60d61a;stop-opacity:1"
         offset="1"
         id="stop4931" />
    </linearGradient>
  </defs>
  <metadata
     id="metadata7">
    <rdf:RDF>
      <cc:Work
         rdf:about="">
        <dc:format>image/svg+xml</dc:format>
        <dc:type
           rdf:resource="http://purl.org/dc/dcmitype/StillImage" />
        <dc:title />
      </cc:Work>
    </rdf:RDF>
  </metadata>
  <path
     style="fill:url(#linearGradient5084-5-1);fill-opacity:1;fill-rule:evenodd;stroke:none;stroke-width:1px;stroke-linecap:butt;stroke-linejoin:miter;stroke-opacity:1"
     d="m 14,12 c -1,0 -2,0 -3.5,1.5 l -5,5 C 4,20 4,21 4,22 l 0,28 c 0,1 1,2 2,2 l 44,0 c 1,0 2,0 3.5,-1.5 l 5,-5 C 60,44 60,43 60,42 l 0,-28 c 0,-1 -1,-2 -2,-2 z"
     id="path4925-2-2-7"
     inkscape:connector-curvature="0"
     sodipodi:nodetypes="sssssssssssss" />
  <path
     style="fill:#2b481c;fill-opacity:1;fill-rule:evenodd;stroke:none;stroke-width:1px;stroke-linecap:butt;stroke-linejoin:miter;stroke-opacity:1"
     d="m 60,41 c 0,1 0,2 -1.5,3.5 l -5,5 C 52,51 51,51 50,51 L 6,51 C 5,51 4,50 4,49 l 0,1 c 0,1 1,2 2,2 l 44,0 c 1,0 2,0 3.5,-1.5 l 5,-5 C 60,44 60,43 60,42 l 0,-1 z"
     id="path4925-6-3-4-7"
     inkscape:connector-curvature="0" />
  <path
     style="color:#000000;clip-rule:nonzero;display:inline;overflow:visible;visibility:visible;opacity:1;isolation:auto;mix-blend-mode:normal;color-interpolation:sRGB;color-interpolation-filters:linearRGB;solid-color:#000000;solid-opacity:1;fill:#e7e5e5;fill-opacity:1;fill-rule:nonzero;stroke:none;stroke-width:2;stroke-linecap:butt;stroke-linejoin:miter;stroke-miterlimit:4;stroke-dasharray:none;stroke-dashoffset:0;stroke-opacity:1;color-rendering:auto;image-rendering:auto;shape-rendering:auto;text-rendering:auto;enable-background:accumulate"
     d="m 32.20508,18.002 a 14.000005,14.000005 0 0 0 -1.86914,0.1132 l -0.76563,4.1973 a 10.000255,10.000255 0 0 0 -2.70312,1.1191 L 23.35352,21.002 a 14.000005,14.000005 0 0 0 -1.25391,1.0976 14.000005,14.000005 0 0 0 -1.09375,1.2598 l 2.42383,3.5058 a 10.000255,10.000255 0 0 0 -1.11914,2.7051 l -4.20899,0.7676 a 14.000005,14.000005 0 0 0 0.0137,3.3262 l 4.19532,0.7656 a 10.000255,10.000255 0 0 0 1.12109,2.7031 l -2.42969,3.5117 a 14.000005,14.000005 0 0 0 1.09766,1.2539 14.000005,14.000005 0 0 0 1.26172,1.0938 l 3.5039,-2.4219 a 10.000255,10.000255 0 0 0 2.70508,1.1192 l 0.76758,4.2089 a 14.000005,14.000005 0 0 0 3.32617,-0.014 l 0.76563,-4.1973 a 10.000255,10.000255 0 0 0 2.70312,-1.1191 l 3.51172,2.4297 a 14.000005,14.000005 0 0 0 1.25391,-1.0997 14.000005,14.000005 0 0 0 1.09375,-1.2597 l -2.42188,-3.5039 a 10.000255,10.000255 0 0 0 1.11914,-2.7051 l 4.20899,-0.7676 a 14.000005,14.000005 0 0 0 -0.0137,-3.3262 L 41.6875,29.5699 a 10.000255,10.000255 0 0 0 -1.11914,-2.7012 l 2.42969,-3.5136 a 14.000005,14.000005 0 0 0 -1.09961,-1.2559 14.000005,14.000005 0 0 0 -1.25977,-1.0918 l -3.5039,2.4219 a 10.000255,10.000255 0 0 0 -2.70508,-1.1191 l -0.76758,-4.209 a 14.000005,14.000005 0 0 0 -1.45703,-0.1 z M 32.08789,26 a 6.0002551,6.0002551 0 0 1 4.1543,1.7578 6.0002551,6.0002551 0 0 1 0,8.4844 6.0002551,6.0002551 0 0 1 -8.48438,0 6.0002551,6.0002551 0 0 1 0,-8.4844 A 6.0002551,6.0002551 0 0 1 32.08789,26 Z"
     id="path5294-8-3"
     inkscape:connector-curvature="0" />
</svg>
