<?xml version="1.0" encoding="UTF-8" standalone="no"?>
<!-- Created with Inkscape (http://www.inkscape.org/) -->

<svg
   xmlns:dc="http://purl.org/dc/elements/1.1/"
   xmlns:cc="http://creativecommons.org/ns#"
   xmlns:rdf="http://www.w3.org/1999/02/22-rdf-syntax-ns#"
   xmlns:svg="http://www.w3.org/2000/svg"
   xmlns="http://www.w3.org/2000/svg"
   xmlns:sodipodi="http://sodipodi.sourceforge.net/DTD/sodipodi-0.dtd"
   xmlns:inkscape="http://www.inkscape.org/namespaces/inkscape"
   id="svg2"
   height="64"
   viewBox="0 0 64 64.000001"
   width="64"
   version="1.1"
   inkscape:version="0.91 r13725"
   sodipodi:docname="mendeley.svg">
  <sodipodi:namedview
     pagecolor="#ffffff"
     bordercolor="#666666"
     borderopacity="1"
     objecttolerance="10"
     gridtolerance="10"
     guidetolerance="10"
     inkscape:pageopacity="0"
     inkscape:pageshadow="2"
     inkscape:window-width="3840"
     inkscape:window-height="2045"
     id="namedview24"
     showgrid="false"
     inkscape:zoom="14.75"
     inkscape:cx="20.047296"
     inkscape:cy="34.585105"
     inkscape:window-x="0"
     inkscape:window-y="0"
     inkscape:window-maximized="1"
     inkscape:current-layer="svg2" />
  <defs
     id="defs4">
    <linearGradient
       id="linearGradient4150-3"
       y2="35"
       gradientUnits="userSpaceOnUse"
       x2="27"
       gradientTransform="translate(8 7)"
       y1="13"
       x1="27">
      <stop
         id="stop7"
         stop-color="#fcfcfc"
         offset="0" />
      <stop
         id="stop9"
         stop-color="#fee2e2"
         offset="1" />
    </linearGradient>
    <linearGradient
       id="linearGradient5859-2-9-5"
       y2="1250.4"
       gradientUnits="userSpaceOnUse"
       x2="843"
       gradientTransform="matrix(1.3333 0 0 1 -1098.7 -1217.4)"
       y1="1249.4"
       x1="843">
      <stop
         id="stop13572-3"
         stop-color="#fff"
         offset="0" />
      <stop
         id="stop13574-5"
         stop-color="#fff"
         stop-opacity="0"
         offset="1" />
    </linearGradient>
    <linearGradient
       id="linearGradient5859-2-6"
       y2="1250.4"
       gradientUnits="userSpaceOnUse"
       x2="843"
       gradientTransform="matrix(1.3333 0 0 1 -1098.7 -1281.3)"
       y1="1249.4"
       x1="843">
      <stop
         id="stop13580-2"
         offset="0" />
      <stop
         id="stop13582-9"
         stop-opacity="0"
         offset="1" />
    </linearGradient>
    <linearGradient
       id="linearGradient5940-1"
       y2="996.36"
       gradientUnits="userSpaceOnUse"
       x2="30"
       gradientTransform="translate(0 -988.26)"
       y1="1044.4"
       x1="30">
      <stop
         id="stop5936-2"
         stop-color="#d71919"
         offset="0"
         style="stop-color:#a84848;stop-opacity:1" />
      <stop
         id="stop5938-7"
         stop-color="#ac0808"
         offset="1"
         style="stop-color:#892b2b;stop-opacity:1" />
    </linearGradient>
  </defs>
  <metadata
     id="metadata7">
    <rdf:RDF>
      <cc:Work
         rdf:about="">
        <dc:format>image/svg+xml</dc:format>
        <dc:type
           rdf:resource="http://purl.org/dc/dcmitype/StillImage" />
        <dc:title />
      </cc:Work>
    </rdf:RDF>
  </metadata>
  <g
     id="layer1">
    <path
       id="rect5932"
       style="color-rendering:auto;color:#000000;isolation:auto;mix-blend-mode:normal;shape-rendering:auto;solid-color:#000000;image-rendering:auto"
       fill="url(#linearGradient5940-1)"
       d="m12 8.0402s30 0.10006 36 0.04002l4-0.04002c2.2159-0.02217 4 1.784 4 4v40c0 2.216-1.784 4-4 4l-40-0.000004c-2.2159-0.02217-4-1.784-4-4v-40c0-2.2158 1.7841-4.0219 4-3.9998z" />
    <path
       id="path30"
       d="m23.52 20.002c-1.3057 0.0407-2.5669 0.63054-3.533 1.5241-0.98184 0.90815-1.6856 2.1559-1.8281 3.4974-0.07128 0.67078-0.002 1.3583 0.21703 1.9951 0.21899 0.6369 0.58949 1.222 1.0812 1.6752 0.57995 0.53445 1.3048 0.8716 1.9708 1.2897 0.33304 0.20908 0.65481 0.44109 0.93068 0.72332 0.27586 0.28223 0.50522 0.61703 0.63153 0.99357 0.11238 0.33504 0.15966 1.697 0.10949 2.0472-0.05017 0.3503-0.17782 0.68829-0.36367 0.98761-0.37169 0.59875-0.971 1.0347-1.6287 1.2678-0.76283 0.27033-1.6032 0.28374-2.3384 0.62396-0.58182 0.26921-1.0712 0.73866-1.3765 1.3095-0.30522 0.57087-0.42612 1.2405-0.35194 1.8858 0.08717 0.75828 0.44414 1.4795 0.97955 2.015 0.53541 0.53547 1.2439 0.88426 1.9865 0.99954 1.0888 0.16899 2.2527-0.18524 3.0442-0.96377 0.39576-0.38926 0.69763-0.87606 0.86615-1.4089 0.16852-0.53292 0.20334-1.1107 0.09385-1.6593-0.08362-0.41887-0.24833-0.81583-0.40082-1.2141-0.15248-0.39842-0.29562-0.80624-0.33238-1.232-0.06491-0.75177 0.21845-1.5166 0.70974-2.0825 0.49129-0.56589 1.1777-0.93825 1.9024-1.1029 0.46757-0.10622 0.95507-0.13001 1.4273-0.04769 0.47222 0.08242 0.9293 0.27133 1.3119 0.56435 0.38263 0.29302 0.68845 0.69129 0.85833 1.1466 0.16988 0.4553 0.19998 0.96762 0.06452 1.4347-0.13874 0.47839-0.43697 0.88868-0.73906 1.2817s-0.6182 0.78776-0.79772 1.2519c-0.19797 0.51186-0.21776 1.089-0.08212 1.6215 0.13564 0.53242 0.42229 1.0208 0.79772 1.4168 0.41534 0.4382 0.9413 0.76641 1.5133 0.94588 0.572 0.178 1.157 0.209 1.756 0.209 0.59867 0 1.2228-0.03106 1.7949-0.21064 0.57202-0.17947 1.098-0.50768 1.5133-0.94588 0.37543-0.39608 0.66208-0.88442 0.79772-1.4168 0.13564-0.53252 0.11585-1.1096-0.08212-1.6215-0.17952-0.46415-0.49562-0.85888-0.79772-1.2519-0.3021-0.39303-0.60033-0.80332-0.73906-1.2817-0.13545-0.4671-0.10536-0.97942 0.06452-1.4347 0.16988-0.45529 0.4757-0.85357 0.85833-1.1466 0.38263-0.29302 0.83972-0.48194 1.3119-0.56435 0.47222-0.08231 0.95972-0.05852 1.4273 0.04769 0.72469 0.16462 1.4111 0.53698 1.9024 1.1029 0.49129 0.56589 0.77464 1.3308 0.70974 2.0825-0.03676 0.42579-0.1799 0.83361-0.33238 1.232-0.15248 0.39832-0.3172 0.79528-0.40082 1.2141-0.10949 0.54859-0.07467 1.1263 0.09385 1.6593 0.16852 0.53282 0.4704 1.0196 0.86615 1.4089 0.79151 0.77853 1.9554 1.1328 3.0442 0.96377 0.74253-0.11527 1.4511-0.46407 1.9865-0.99954 0.53541-0.53547 0.89238-1.2567 0.97955-2.015 0.07419-0.64535-0.04671-1.3149-0.35194-1.8858-0.30523-0.57087-0.79464-1.0403-1.3765-1.3095-0.73526-0.34022-1.5756-0.35364-2.3384-0.62396-0.65768-0.23309-1.257-0.66905-1.6287-1.2678-0.18585-0.29933-0.3135-0.63732-0.36367-0.98761-0.05017-0.3502-0.04199-1.7122 0.07039-2.0472 0.12631-0.37655 0.35566-0.71134 0.63153-0.99357 0.27586-0.28223 0.59764-0.51424 0.93067-0.72332 0.66608-0.41806 1.3909-0.75521 1.9708-1.2897 0.49173-0.45316 0.86223-1.0383 1.0812-1.6752 0.21898-0.6368 0.2883-1.3243 0.21703-1.9951-0.14256-1.3415-0.84627-2.5892-1.8281-3.4974-0.9661-0.8936-2.2273-1.4834-3.533-1.5241-0.65285-0.02035-1.3104 0.0957-1.9122 0.35371-0.60179 0.25802-1.1459 0.65887-1.5622 1.1704-0.47726 0.58644-0.77722 1.2991-1.0519 2.007-0.27468 0.70802-0.5343 1.4298-0.95023 2.0627-0.68588 1.0436-1.7684 2.0348-3.0032 2.0348s-2.3173-0.99127-3.0032-2.0348c-0.41592-0.63284-0.67555-1.3546-0.95023-2.0627-0.27468-0.70792-0.57464-1.4206-1.0519-2.007-0.4163-0.51156-0.96041-0.91241-1.5622-1.1704-0.60179-0.25802-1.2593-0.37406-1.9122-0.35371zm8.4797 9.9281c1.1057 0 2.002 0.911 2.0021 2.0348-0.000054 1.1238-0.89641 2.0348-2.0021 2.0348s-2.002-0.911-2.0021-2.0348c0.000054-1.1238 0.89641-2.0348 2.0021-2.0348z"
       fill="url(#linearGradient4150-3)" />
    <path
       id="rect5932-6"
       opacity=".1"
       style="color-rendering:auto;color:#000000;isolation:auto;mix-blend-mode:normal;shape-rendering:auto;solid-color:#000000;image-rendering:auto"
       d="m12 8.0391c-2.2159 0.0221-4 1.784-4 3.9999v19.961h48v-19.961c0-2.2159-1.784-3.9999-4-3.9999z" />
    <rect
       id="rect5825-4"
       opacity=".1"
       style="color-rendering:auto;color:#000000;isolation:auto;mix-blend-mode:normal;shape-rendering:auto;solid-color:#000000;image-rendering:auto"
       transform="scale(1,-1)"
       ry="0"
       height="1"
       width="48"
       y="-32.04"
       x="8"
       fill="url(#linearGradient5859-2-6)" />
    <rect
       id="rect5825-4-4"
       opacity=".1"
       style="color-rendering:auto;color:#000000;isolation:auto;mix-blend-mode:normal;shape-rendering:auto;solid-color:#000000;image-rendering:auto"
       ry="0"
       height="1"
       width="48"
       y="32.04"
       x="8"
       fill="url(#linearGradient5859-2-9-5)" />
    <path
       id="rect5932-1"
       style="color-rendering:auto;color:#000000;isolation:auto;mix-blend-mode:normal;shape-rendering:auto;solid-color:#000000;image-rendering:auto;fill:#4c1818"
       fill="#600404"
       d="m8 51.041v1c0 2.216 1.7841 3.978 4 4h40c2.216 0 4-1.784 4-4v-1c0 2.216-1.784 4-4 4h-40c-2.2159-0.022-4-1.784-4-4z" />
  </g>
</svg>
