<?xml version="1.0" encoding="UTF-8" standalone="no"?>
<!-- Created with Inkscape (http://www.inkscape.org/) -->

<svg
   xmlns:dc="http://purl.org/dc/elements/1.1/"
   xmlns:cc="http://creativecommons.org/ns#"
   xmlns:rdf="http://www.w3.org/1999/02/22-rdf-syntax-ns#"
   xmlns:svg="http://www.w3.org/2000/svg"
   xmlns="http://www.w3.org/2000/svg"
   xmlns:sodipodi="http://sodipodi.sourceforge.net/DTD/sodipodi-0.dtd"
   xmlns:inkscape="http://www.inkscape.org/namespaces/inkscape"
   id="svg2"
   height="64"
   viewBox="0 0 64 64.000001"
   width="64"
   version="1.1"
   inkscape:version="0.91 r13725"
   sodipodi:docname="minitube.svg">
  <sodipodi:namedview
     pagecolor="#ffffff"
     bordercolor="#666666"
     borderopacity="1"
     objecttolerance="10"
     gridtolerance="10"
     guidetolerance="10"
     inkscape:pageopacity="0"
     inkscape:pageshadow="2"
     inkscape:window-width="2044"
     inkscape:window-height="1336"
     id="namedview33"
     showgrid="false"
     inkscape:zoom="14.75"
     inkscape:cx="19.654144"
     inkscape:cy="27.199467"
     inkscape:window-x="0"
     inkscape:window-y="0"
     inkscape:window-maximized="0"
     inkscape:current-layer="layer1" />
  <defs
     id="defs4">
    <linearGradient
       id="linearGradient9306"
       y2="1001.4"
       gradientUnits="userSpaceOnUse"
       x2="49"
       gradientTransform="translate(0 -988.4)"
       y1="1031.4"
       x1="49">
      <stop
         id="stop7019"
         stop-color="#d71919"
         offset="0" />
      <stop
         id="stop7021"
         stop-color="#ac0808"
         offset="1" />
    </linearGradient>
    <linearGradient
       id="linearGradient9292"
       y2="1030.4"
       gradientUnits="userSpaceOnUse"
       x2="51"
       gradientTransform="translate(0 -988.4)"
       y1="1040.4"
       x1="51">
      <stop
         id="stop5215"
         stop-color="#534d52"
         offset="0" />
      <stop
         id="stop5217"
         stop-color="#343031"
         offset="1" />
    </linearGradient>
    <linearGradient
       id="linearGradient9364"
       y2="1072.4"
       gradientUnits="userSpaceOnUse"
       x2="406"
       gradientTransform="translate(-376,-1036.4)"
       y1="1056.4"
       x1="406">
      <stop
         id="stop9360"
         stop-color="#fafafa"
         offset="0" />
      <stop
         id="stop9362"
         stop-color="#dddbdb"
         offset="1" />
    </linearGradient>
    <linearGradient
       id="linearGradient5177-9-9"
       y2="151"
       gradientUnits="userSpaceOnUse"
       x2="-509.36"
       gradientTransform="translate(526.36,-194)"
       y1="152"
       x1="-509.36">
      <stop
         id="stop7344-2-9"
         offset="0" />
      <stop
         id="stop7346-4-3"
         stop-opacity="0"
         offset="1" />
    </linearGradient>
    <linearGradient
       id="linearGradient5177-3-7-8"
       x1="-509.36"
       gradientUnits="userSpaceOnUse"
       x2="-509.36"
       gradientTransform="translate(526.36 -193)"
       y1="152"
       y2="151">
      <stop
         id="stop9572-3-3"
         stop-opacity="0"
         stop-color="#fff"
         offset="0" />
      <stop
         id="stop9574-3-2"
         stop-color="#fff"
         offset="1" />
    </linearGradient>
    <linearGradient
       id="linearGradient9306-3"
       y2="1001.4"
       gradientUnits="userSpaceOnUse"
       x2="49"
       gradientTransform="translate(0,-988.4)"
       y1="1031.4"
       x1="49">
      <stop
         id="stop7019-6"
         stop-color="#d71919"
         offset="0" />
      <stop
         id="stop7021-7"
         stop-color="#ac0808"
         offset="1" />
    </linearGradient>
    <linearGradient
       id="linearGradient9306-35"
       y2="1001.4"
       gradientUnits="userSpaceOnUse"
       x2="49"
       gradientTransform="translate(0,-987.4)"
       y1="1031.4"
       x1="49">
      <stop
         id="stop7019-62"
         stop-color="#d71919"
         offset="0" />
      <stop
         id="stop7021-9"
         stop-color="#ac0808"
         offset="1" />
    </linearGradient>
  </defs>
  <metadata
     id="metadata7">
    <rdf:RDF>
      <cc:Work
         rdf:about="">
        <dc:format>image/svg+xml</dc:format>
        <dc:type
           rdf:resource="http://purl.org/dc/dcmitype/StillImage" />
        <dc:title />
      </cc:Work>
    </rdf:RDF>
  </metadata>
  <g
     id="layer1">
    <path
       id="rect6772"
       style="color-rendering:auto;color:#000000;isolation:auto;mix-blend-mode:normal;shape-rendering:auto;solid-color:#000000;image-rendering:auto"
       d="m4 42 28 6 28-6v-26.039c0-2.216-1.784-4-4-4h-48c-2.216 0-4 1.784-4 4z"
       fill="url(#linearGradient9306)" />
    <path
       id="path9304"
       style="color-rendering:auto;color:#000000;isolation:auto;mix-blend-mode:normal;shape-rendering:auto;solid-color:#000000;image-rendering:auto"
       fill="url(#linearGradient9292)"
       d="m4 42v6c0 2.216 1.784 4 4 4h48c2.216 0 4-1.784 4-4v-6z" />
    <path
       inkscape:connector-curvature="0"
       d="m 24,20 c -2.216,0 -4,1.784 -4,4 l 0,8 c 0,2.216 1.784,4 4,4 l 16,0 c 2.216,0 4,-1.784 4,-4 l 0,-8 c 0,-2.216 -1.784,-4 -4,-4 z m 5,4 7,4 -7,4 z"
       style="color:#000000;isolation:auto;mix-blend-mode:normal;solid-color:#000000;fill:url(#linearGradient9364);color-rendering:auto;image-rendering:auto;shape-rendering:auto"
       id="rect8213" />
    <path
       inkscape:connector-curvature="0"
       d="M 8.9551,46 C 8.4256,46 8,46.426 8,46.955 l 0,0.09 c 0,0.5295 0.42556,0.9551 0.95508,0.9551 l 15.045,0 0,-2 -15.045,0 z"
       style="color:#000000;isolation:auto;mix-blend-mode:normal;solid-color:#000000;fill:#ec4040;color-rendering:auto;image-rendering:auto;shape-rendering:auto"
       id="rect9296-1" />
    <path
       inkscape:connector-curvature="0"
       d="M 55.045,46 C 55.574,46 56,46.426 56,46.955 l 0,0.09 c 0,0.5296 -0.42556,0.9552 -0.95508,0.9552 l -26.045,0 0,-2 26.045,0 z"
       style="color:#000000;isolation:auto;mix-blend-mode:normal;solid-color:#000000;fill:#7a747c;color-rendering:auto;image-rendering:auto;shape-rendering:auto"
       id="rect9296-1-2-0" />
    <path
       inkscape:connector-curvature="0"
       d="M 31.045,46 C 31.574,46 32,46.426 32,46.955 l 0,0.09 c 0,0.5296 -0.42556,0.9552 -0.95508,0.9552 l -7.0449,0 0,-2 7.0449,0 z"
       style="color:#000000;isolation:auto;mix-blend-mode:normal;solid-color:#000000;fill:#b6b2b6;color-rendering:auto;image-rendering:auto;shape-rendering:auto"
       id="rect9296-1-2" />
    <circle
       r="3"
       cy="47"
       cx="24"
       style="color:#000000;isolation:auto;mix-blend-mode:normal;solid-color:#000000;fill:#fafafa;color-rendering:auto;image-rendering:auto;shape-rendering:auto"
       id="path9308" />
    <path
       id="path9304-4"
       style="color-rendering:auto;color:#000000;isolation:auto;mix-blend-mode:normal;shape-rendering:auto;solid-color:#000000;image-rendering:auto"
       fill="#343031"
       d="m4 47v1c0 2.216 1.784 4 4 4h48c2.216 0 4-1.784 4-4v-1c0 2.216-1.784 4-4 4h-48c-2.216 0-4-1.784-4-4z" />
    <rect
       id="rect5169-4"
       opacity=".1"
       style="color-rendering:auto;color:#000000;isolation:auto;mix-blend-mode:normal;shape-rendering:auto;solid-color:#000000;image-rendering:auto"
       rx="0"
       transform="scale(1,-1)"
       height="1"
       width="56"
       y="-43"
       x="4"
       fill="url(#linearGradient5177-9-9)" />
    <rect
       id="rect5169-2-4"
       opacity=".1"
       style="color-rendering:auto;color:#000000;isolation:auto;mix-blend-mode:normal;shape-rendering:auto;solid-color:#000000;image-rendering:auto"
       rx="0"
       transform="scale(1,-1)"
       height="1"
       width="56"
       y="-42"
       x="4"
       fill="url(#linearGradient5177-3-7-8)" />
    <path
       style="color:#000000;isolation:auto;mix-blend-mode:normal;solid-color:#000000;fill:#d71919;color-rendering:auto;image-rendering:auto;shape-rendering:auto"
       d="M 8 11.960938 C 5.784 11.960938 4 13.744938 4 15.960938 L 4 16.960938 C 4 14.744938 5.784 12.960938 8 12.960938 L 56 12.960938 C 58.216 12.960938 60 14.744937 60 16.960938 L 60 15.960938 C 60 13.744937 58.216 11.960938 56 11.960938 L 8 11.960938 z "
       id="rect6772-5" />
  </g>
</svg>
