<?xml version="1.0" encoding="UTF-8" standalone="no"?>
<!-- Created with Inkscape (http://www.inkscape.org/) -->

<svg
   xmlns:dc="http://purl.org/dc/elements/1.1/"
   xmlns:cc="http://creativecommons.org/ns#"
   xmlns:rdf="http://www.w3.org/1999/02/22-rdf-syntax-ns#"
   xmlns:svg="http://www.w3.org/2000/svg"
   xmlns="http://www.w3.org/2000/svg"
   xmlns:xlink="http://www.w3.org/1999/xlink"
   xmlns:sodipodi="http://sodipodi.sourceforge.net/DTD/sodipodi-0.dtd"
   xmlns:inkscape="http://www.inkscape.org/namespaces/inkscape"
   id="svg2"
   height="64"
   viewBox="0 0 64 64.000001"
   width="64"
   version="1.1"
   inkscape:version="0.91 r13725"
   sodipodi:docname="mixxx.svg">
  <sodipodi:namedview
     pagecolor="#ffffff"
     bordercolor="#666666"
     borderopacity="1"
     objecttolerance="10"
     gridtolerance="10"
     guidetolerance="10"
     inkscape:pageopacity="0"
     inkscape:pageshadow="2"
     inkscape:window-width="2986"
     inkscape:window-height="1590"
     id="namedview15"
     showgrid="false"
     inkscape:zoom="10.429825"
     inkscape:cx="22.791078"
     inkscape:cy="33.594453"
     inkscape:window-x="0"
     inkscape:window-y="0"
     inkscape:window-maximized="0"
     inkscape:current-layer="svg2" />
  <defs
     id="defs4">
    <linearGradient
       inkscape:collect="always"
       xlink:href="#linearGradient4990"
       id="linearGradient5616"
       gradientUnits="userSpaceOnUse"
       gradientTransform="matrix(0,-1,1,0,-988.36218,64)"
       x1="4"
       y1="1020.3622"
       x2="60"
       y2="1020.3622" />
    <linearGradient
       inkscape:collect="always"
       id="linearGradient4990">
      <stop
         style="stop-color:#b6b2b6;stop-opacity:1"
         offset="0"
         id="stop4992" />
      <stop
         style="stop-color:#f5f4f4;stop-opacity:1"
         offset="1"
         id="stop4994" />
    </linearGradient>
    <linearGradient
       inkscape:collect="always"
       xlink:href="#linearGradient4785"
       id="linearGradient5215-1"
       gradientUnits="userSpaceOnUse"
       gradientTransform="matrix(-1,0,0,-0.85714286,67,59.4286)"
       x1="33"
       y1="46.000034"
       x2="33"
       y2="8.6667004" />
    <linearGradient
       inkscape:collect="always"
       id="linearGradient4785">
      <stop
         style="stop-color:#7a747c;stop-opacity:1"
         offset="0"
         id="stop4787" />
      <stop
         style="stop-color:#343031;stop-opacity:1"
         offset="1"
         id="stop4789" />
    </linearGradient>
    <linearGradient
       inkscape:collect="always"
       xlink:href="#linearGradient4793"
       id="linearGradient5213-97"
       gradientUnits="userSpaceOnUse"
       x1="9"
       y1="1036.3622"
       x2="9"
       y2="1004.3622"
       gradientTransform="matrix(-1,0,0,-0.85714286,74,906.5962)" />
    <linearGradient
       inkscape:collect="always"
       id="linearGradient4793">
      <stop
         style="stop-color:#e4720c;stop-opacity:1"
         offset="0"
         id="stop4795" />
      <stop
         style="stop-color:#ac0808;stop-opacity:1"
         offset="1"
         id="stop4797" />
    </linearGradient>
    <linearGradient
       inkscape:collect="always"
       xlink:href="#linearGradient4809"
       id="linearGradient5211-7"
       gradientUnits="userSpaceOnUse"
       x1="40"
       y1="1036.3622"
       x2="40"
       y2="1004.3622"
       gradientTransform="matrix(-1,0,0,-0.85714286,65,906.5962)" />
    <linearGradient
       inkscape:collect="always"
       id="linearGradient4809">
      <stop
         style="stop-color:#0566af;stop-opacity:1"
         offset="0"
         id="stop4811" />
      <stop
         style="stop-color:#44a410;stop-opacity:1"
         offset="1"
         id="stop4813" />
    </linearGradient>
    <linearGradient
       inkscape:collect="always"
       xlink:href="#linearGradient4801"
       id="linearGradient4807-8-7-5"
       x1="24"
       y1="1036.3622"
       x2="24"
       y2="1004.3622"
       gradientUnits="userSpaceOnUse"
       gradientTransform="matrix(-1,0,0,-0.85714286,68,906.5962)" />
    <linearGradient
       inkscape:collect="always"
       id="linearGradient4801">
      <stop
         style="stop-color:#d71919;stop-opacity:1"
         offset="0"
         id="stop4803" />
      <stop
         style="stop-color:#600445;stop-opacity:1"
         offset="1"
         id="stop4805" />
    </linearGradient>
  </defs>
  <metadata
     id="metadata7">
    <rdf:RDF>
      <cc:Work
         rdf:about="">
        <dc:format>image/svg+xml</dc:format>
        <dc:type
           rdf:resource="http://purl.org/dc/dcmitype/StillImage" />
        <dc:title />
      </cc:Work>
    </rdf:RDF>
  </metadata>
  <circle
     style="color:#000000;clip-rule:nonzero;display:inline;overflow:visible;visibility:visible;opacity:1;isolation:auto;mix-blend-mode:normal;color-interpolation:sRGB;color-interpolation-filters:linearRGB;solid-color:#000000;solid-opacity:1;fill:#343031;fill-opacity:1;fill-rule:nonzero;stroke:none;stroke-width:2;stroke-linecap:butt;stroke-linejoin:miter;stroke-miterlimit:4;stroke-dasharray:none;stroke-dashoffset:0;stroke-opacity:1;color-rendering:auto;image-rendering:auto;shape-rendering:auto;text-rendering:auto;enable-background:accumulate"
     id="path4973-9-6"
     cx="32"
     cy="31.999983"
     r="26.999983" />
  <path
     inkscape:connector-curvature="0"
     style="color:#000000;clip-rule:nonzero;display:inline;overflow:visible;visibility:visible;opacity:0.2;isolation:auto;mix-blend-mode:normal;color-interpolation:sRGB;color-interpolation-filters:linearRGB;solid-color:#000000;solid-opacity:1;fill:#000000;fill-opacity:1;fill-rule:nonzero;stroke:none;stroke-width:2;stroke-linecap:butt;stroke-linejoin:miter;stroke-miterlimit:4;stroke-dasharray:none;stroke-dashoffset:0;stroke-opacity:1;color-rendering:auto;image-rendering:auto;shape-rendering:auto;text-rendering:auto;enable-background:accumulate"
     d="M 32,6 A 26,26 0 0 0 6,32 26,26 0 0 0 6.0215,32.5898 26,26 0 0 1 32.00002,7 26,26 0 0 1 57.97854,32.4102 26,26 0 0 0 58.00004,32 a 26,26 0 0 0 -26,-26 z"
     id="path4973-9-7-4" />
  <path
     style="fill:url(#linearGradient4807-8-7-5);fill-opacity:1;fill-rule:evenodd;stroke:none;stroke-width:1px;stroke-linecap:butt;stroke-linejoin:miter;stroke-opacity:1"
     d="m 19,44 4,-2 4,2 18,-24 -4,2 -4,-2 z"
     id="path4698-0-9-3-6-0-6-3-9"
     inkscape:connector-curvature="0"
     sodipodi:nodetypes="ccccccc" />
  <path
     style="fill:url(#linearGradient5211-7);fill-opacity:1;fill-rule:evenodd;stroke:none;stroke-width:1px;stroke-linecap:butt;stroke-linejoin:miter;stroke-opacity:1"
     d="M 19,20 5.66211,37.785156 C 6.12736,39.93726 6.85411,42.024373 7.82617,44 L 9,44 27,20 23,22 Z"
     id="path4698-0-9-3-6-1-0-4"
     inkscape:connector-curvature="0"
     sodipodi:nodetypes="ccccccc" />
  <path
     style="fill:url(#linearGradient5213-97);fill-opacity:1;fill-rule:evenodd;stroke:none;stroke-width:1px;stroke-linecap:butt;stroke-linejoin:miter;stroke-opacity:1"
     d="m 55,20 -18,24 4,-2 4,2 13.33789,-17.785156 C 57.87264,24.06274 57.14589,21.975627 56.17383,20 Z"
     id="path4698-0-9-3-5-7-8"
     inkscape:connector-curvature="0"
     sodipodi:nodetypes="ccccccc" />
  <path
     inkscape:connector-curvature="0"
     style="fill:url(#linearGradient5215-1);fill-opacity:1;fill-rule:evenodd;stroke:none;stroke-width:1px;stroke-linecap:butt;stroke-linejoin:miter;stroke-opacity:1"
     d="M 7.84766,20 A 27,27 0 0 0 5.65039,26.201172 L 19,44 27,44 9,20 7.84766,20 Z M 19,20 37,44 45,44 27,20 19,20 Z m 18,0 18,24 1.15234,0 a 27,27 0 0 0 2.19727,-6.201172 L 45,20 37,20 Z"
     id="path4698-5-8-1" />
  <path
     inkscape:connector-curvature="0"
     style="color:#000000;clip-rule:nonzero;display:inline;overflow:visible;visibility:visible;opacity:1;isolation:auto;mix-blend-mode:normal;color-interpolation:sRGB;color-interpolation-filters:linearRGB;solid-color:#000000;solid-opacity:1;fill:url(#linearGradient5616);fill-opacity:1;fill-rule:nonzero;stroke:none;stroke-width:2;stroke-linecap:butt;stroke-linejoin:miter;stroke-miterlimit:4;stroke-dasharray:none;stroke-dashoffset:0;stroke-opacity:1;color-rendering:auto;image-rendering:auto;shape-rendering:auto;text-rendering:auto;enable-background:accumulate"
     d="M 32,4 A 28,28 0 0 0 4,32 28,28 0 0 0 32,60 28,28 0 0 0 60,32 28,28 0 0 0 32,4 Z m 0,2 A 26,26 0 0 1 58,32 26,26 0 0 1 32,58 26,26 0 0 1 6,32 26,26 0 0 1 32,6 Z"
     id="path4973-5" />
  <path
     inkscape:connector-curvature="0"
     style="color:#000000;clip-rule:nonzero;display:inline;overflow:visible;visibility:visible;opacity:1;isolation:auto;mix-blend-mode:normal;color-interpolation:sRGB;color-interpolation-filters:linearRGB;solid-color:#000000;solid-opacity:1;fill:#98929a;fill-opacity:1;fill-rule:nonzero;stroke:none;stroke-width:2;stroke-linecap:butt;stroke-linejoin:miter;stroke-miterlimit:4;stroke-dasharray:none;stroke-dashoffset:0;stroke-opacity:1;color-rendering:auto;image-rendering:auto;shape-rendering:auto;text-rendering:auto;enable-background:accumulate"
     d="M 59.97852,31.4141 A 28,28 0 0 1 32,59 28,28 0 0 1 4.02148,31.5859 28,28 0 0 0 3.99998,32 a 28,28 0 0 0 28,28 28,28 0 0 0 28,-28 28,28 0 0 0 -0.0215,-0.5859 z"
     id="path4973-93-8" />
</svg>
