<?xml version="1.0" encoding="UTF-8" standalone="no"?>
<!-- Created with Inkscape (http://www.inkscape.org/) -->

<svg
   xmlns:dc="http://purl.org/dc/elements/1.1/"
   xmlns:cc="http://creativecommons.org/ns#"
   xmlns:rdf="http://www.w3.org/1999/02/22-rdf-syntax-ns#"
   xmlns:svg="http://www.w3.org/2000/svg"
   xmlns="http://www.w3.org/2000/svg"
   xmlns:xlink="http://www.w3.org/1999/xlink"
   xmlns:sodipodi="http://sodipodi.sourceforge.net/DTD/sodipodi-0.dtd"
   xmlns:inkscape="http://www.inkscape.org/namespaces/inkscape"
   id="svg2"
   height="64"
   viewBox="0 0 64 64.000001"
   width="64"
   version="1.1"
   inkscape:version="0.91 r13725"
   sodipodi:docname="obs.svg">
  <sodipodi:namedview
     pagecolor="#ffffff"
     bordercolor="#666666"
     borderopacity="1"
     objecttolerance="10"
     gridtolerance="10"
     guidetolerance="10"
     inkscape:pageopacity="0"
     inkscape:pageshadow="2"
     inkscape:window-width="2986"
     inkscape:window-height="1590"
     id="namedview15"
     showgrid="false"
     inkscape:zoom="10.429825"
     inkscape:cx="33.824165"
     inkscape:cy="38.396865"
     inkscape:window-x="0"
     inkscape:window-y="0"
     inkscape:window-maximized="0"
     inkscape:current-layer="svg2" />
  <defs
     id="defs4">
    <linearGradient
       inkscape:collect="always"
       xlink:href="#linearGradient4346"
       id="linearGradient4360"
       x1="33"
       y1="996.36218"
       x2="33"
       y2="1045.3622"
       gradientUnits="userSpaceOnUse"
       gradientTransform="translate(0,-988.3622)" />
    <linearGradient
       inkscape:collect="always"
       id="linearGradient4346">
      <stop
         style="stop-color:#f5f4f4;stop-opacity:1"
         offset="0"
         id="stop4348" />
      <stop
         style="stop-color:#cac6c9;stop-opacity:1"
         offset="1"
         id="stop4350" />
    </linearGradient>
    <linearGradient
       inkscape:collect="always"
       xlink:href="#linearGradient4264"
       id="linearGradient4270-7"
       x1="-525.26782"
       y1="152.00002"
       x2="-468.36221"
       y2="152.00002"
       gradientUnits="userSpaceOnUse"
       gradientTransform="matrix(0.99999882,0,0,0.99999882,526.3617,-183.99982)" />
    <linearGradient
       inkscape:collect="always"
       id="linearGradient4264">
      <stop
         style="stop-color:#343031;stop-opacity:1;"
         offset="0"
         id="stop4266" />
      <stop
         style="stop-color:#534d52;stop-opacity:1"
         offset="1"
         id="stop4268" />
    </linearGradient>
    <linearGradient
       inkscape:collect="always"
       xlink:href="#linearGradient4346"
       id="linearGradient4352"
       x1="3.9999866"
       y1="1020.3622"
       x2="59.999989"
       y2="1020.3622"
       gradientUnits="userSpaceOnUse"
       gradientTransform="translate(-2.96e-5,-1052.3622)" />
  </defs>
  <metadata
     id="metadata7">
    <rdf:RDF>
      <cc:Work
         rdf:about="">
        <dc:format>image/svg+xml</dc:format>
        <dc:type
           rdf:resource="http://purl.org/dc/dcmitype/StillImage" />
        <dc:title />
      </cc:Work>
    </rdf:RDF>
  </metadata>
  <circle
     r="28"
     cy="-31.999977"
     cx="31.999983"
     id="path4213"
     style="color:#000000;clip-rule:nonzero;display:inline;overflow:visible;visibility:visible;opacity:1;isolation:auto;mix-blend-mode:normal;color-interpolation:sRGB;color-interpolation-filters:linearRGB;solid-color:#000000;solid-opacity:1;fill:url(#linearGradient4352);fill-opacity:1;fill-rule:nonzero;stroke:none;stroke-width:2;stroke-linecap:butt;stroke-linejoin:miter;stroke-miterlimit:4;stroke-dasharray:none;stroke-dashoffset:0;stroke-opacity:1;color-rendering:auto;image-rendering:auto;shape-rendering:auto;text-rendering:auto;enable-background:accumulate"
     transform="matrix(0,1,-1,0,0,0)" />
  <circle
     r="25.999983"
     cy="-31.999977"
     cx="31.999983"
     id="path4213-7-3"
     style="color:#000000;clip-rule:nonzero;display:inline;overflow:visible;visibility:visible;opacity:1;isolation:auto;mix-blend-mode:normal;color-interpolation:sRGB;color-interpolation-filters:linearRGB;solid-color:#000000;solid-opacity:1;fill:url(#linearGradient4270-7);fill-opacity:1;fill-rule:nonzero;stroke:none;stroke-width:2;stroke-linecap:butt;stroke-linejoin:miter;stroke-miterlimit:4;stroke-dasharray:none;stroke-dashoffset:0;stroke-opacity:1;color-rendering:auto;image-rendering:auto;shape-rendering:auto;text-rendering:auto;enable-background:accumulate"
     transform="matrix(0,1,-1,0,0,0)" />
  <path
     inkscape:connector-curvature="0"
     id="path4183"
     d="m 18.617331,18.2572 c -0.714734,3.1574 -0.187713,6.5096 1.23934,9.3926 0.900039,0.081 1.802469,0.154 2.690469,0.3129 2.81079,0.5848 5.39056,2.2525 7.03419,4.6108 2.19715,3.0251 2.69529,7.1522 1.38857,10.6416 -1.17679,3.2031 -3.85281,5.802 -7.08956,6.8753 -2.4089,0.8568 -5.044012,0.734 -7.472183,0.026 2.695286,1.2225 5.758753,1.6942 8.670623,1.0829 3.79023,-0.7148 7.27966,-3.1092 9.21208,-6.4543 -1.38855,-2.7096 -1.76878,-5.9392 -0.8832,-8.8678 1.07813,-3.6459 4.09588,-6.6372 7.74894,-7.6864 2.9263,-0.8856 6.19192,-0.503 8.85351,0.9939 2.75063,1.5209 4.76968,4.2161 5.56864,7.2483 -0.0674,-2.2862 -1.05645,-4.4809 -2.32227,-6.3555 -2.45704,-3.5857 -6.66843,-5.8213 -11.00011,-5.9681 -2.01665,3.5856 -6.06918,5.9657 -10.20356,5.7803 -5.32558,0.057 -10.24205,-4.1944 -11.0747,-9.431 -0.65939,-3.4533 0.42113,-7.181 2.80838,-9.75837 0.57996,-0.69307 1.34524,-1.1864096 1.97574,-1.8265296 C 22.13563,10.70755 19.440351,14.2813 18.617331,18.2566 Z"
     style="opacity:1;fill:url(#linearGradient4360);fill-opacity:1"
     inkscape:transform-center-x="-3.8608766"
     inkscape:transform-center-y="-2.2625147" />
  <path
     inkscape:connector-curvature="0"
     id="path4213-3"
     d="M 59.97852,31.4141 A 28,28 0 0 1 32,59 28,28 0 0 1 4.021484,31.5859 28,28 0 0 0 4,32 28,28 0 0 0 32,60 28,28 0 0 0 60,32 28,28 0 0 0 59.9785,31.4141 Z"
     style="color:#000000;clip-rule:nonzero;display:inline;overflow:visible;visibility:visible;opacity:1;isolation:auto;mix-blend-mode:normal;color-interpolation:sRGB;color-interpolation-filters:linearRGB;solid-color:#000000;solid-opacity:1;fill:#b6b2b6;fill-opacity:1;fill-rule:nonzero;stroke:none;stroke-width:2;stroke-linecap:butt;stroke-linejoin:miter;stroke-miterlimit:4;stroke-dasharray:none;stroke-dashoffset:0;stroke-opacity:1;color-rendering:auto;image-rendering:auto;shape-rendering:auto;text-rendering:auto;enable-background:accumulate" />
  <path
     style="color:#000000;clip-rule:nonzero;display:inline;overflow:visible;visibility:visible;opacity:1;isolation:auto;mix-blend-mode:normal;color-interpolation:sRGB;color-interpolation-filters:linearRGB;solid-color:#000000;solid-opacity:1;fill:#343031;fill-opacity:1;fill-rule:nonzero;stroke:none;stroke-width:2;stroke-linecap:butt;stroke-linejoin:miter;stroke-miterlimit:4;stroke-dasharray:none;stroke-dashoffset:0;stroke-opacity:1;color-rendering:auto;image-rendering:auto;shape-rendering:auto;text-rendering:auto;enable-background:accumulate"
     d="M 32,6.0000004 A 25.999983,25.999983 0 0 0 6,32 25.999983,25.999983 0 0 0 6.02148,32.5898 25.999983,25.999983 0 0 1 32,7.0000004 25.999983,25.999983 0 0 1 57.97852,32.4102 25.999983,25.999983 0 0 0 58.00002,32 a 25.999983,25.999983 0 0 0 -26,-25.9999996 z"
     id="path4213-7-3-2"
     inkscape:connector-curvature="0" />
</svg>
