<?xml version="1.0" encoding="UTF-8" standalone="no"?>
<!-- Created with Inkscape (http://www.inkscape.org/) -->

<svg
   xmlns:dc="http://purl.org/dc/elements/1.1/"
   xmlns:cc="http://creativecommons.org/ns#"
   xmlns:rdf="http://www.w3.org/1999/02/22-rdf-syntax-ns#"
   xmlns:svg="http://www.w3.org/2000/svg"
   xmlns="http://www.w3.org/2000/svg"
   xmlns:sodipodi="http://sodipodi.sourceforge.net/DTD/sodipodi-0.dtd"
   xmlns:inkscape="http://www.inkscape.org/namespaces/inkscape"
   id="svg2"
   height="64"
   viewBox="0 0 64 64.000001"
   width="64"
   version="1.1"
   inkscape:version="0.91 r13725"
   sodipodi:docname="okular.svg">
  <sodipodi:namedview
     pagecolor="#ffffff"
     bordercolor="#666666"
     borderopacity="1"
     objecttolerance="10"
     gridtolerance="10"
     guidetolerance="10"
     inkscape:pageopacity="0"
     inkscape:pageshadow="2"
     inkscape:window-width="1913"
     inkscape:window-height="1298"
     id="namedview35"
     showgrid="false"
     inkscape:zoom="11.313708"
     inkscape:cx="34.26621"
     inkscape:cy="27.750518"
     inkscape:window-x="1197"
     inkscape:window-y="501"
     inkscape:window-maximized="0"
     inkscape:current-layer="layer1" />
  <defs
     id="defs4">
    <linearGradient
       id="linearGradient6654-3"
       y2="518.86"
       gradientUnits="userSpaceOnUse"
       x2="179"
       gradientTransform="matrix(0,1,-1,0,532.36,-120)"
       y1="518.86"
       x1="124">
      <stop
         id="stop11375-6"
         stop-color="#82c8fa"
         offset="0"
         style="stop-color:#609ecc;stop-opacity:1" />
      <stop
         id="stop11377-7"
         stop-color="#37a4f5"
         offset="1"
         style="stop-color:#4080b0;stop-opacity:1" />
    </linearGradient>
    <linearGradient
       id="linearGradient5687-7-5"
       y2="1030.4"
       gradientUnits="userSpaceOnUse"
       x2="16"
       gradientTransform="translate(-2.9749e-7 -1047.4)"
       y1="1029.4"
       x1="16">
      <stop
         id="stop4912-3"
         stop-color="#fff"
         offset="0" />
      <stop
         id="stop4914-5"
         stop-color="#fff"
         stop-opacity="0"
         offset="1" />
    </linearGradient>
    <linearGradient
       id="linearGradient6212-6"
       y2="1030.4"
       gradientUnits="userSpaceOnUse"
       x2="16"
       gradientTransform="matrix(0 1.1458 1 0 -1011.3 -3.17)"
       y1="1029.4"
       x1="16">
      <stop
         id="stop4904-2"
         offset="0" />
      <stop
         id="stop4906-9"
         stop-opacity="0"
         offset="1" />
    </linearGradient>
  </defs>
  <metadata
     id="metadata7">
    <rdf:RDF>
      <cc:Work
         rdf:about="">
        <dc:format>image/svg+xml</dc:format>
        <dc:type
           rdf:resource="http://purl.org/dc/dcmitype/StillImage" />
        <dc:title />
      </cc:Work>
    </rdf:RDF>
  </metadata>
  <g
     id="layer1">
    <rect
       id="rect6214-9"
       style="color-rendering:auto;color:#000000;isolation:auto;mix-blend-mode:normal;shape-rendering:auto;solid-color:#000000;image-rendering:auto;fill:#28618c"
       ry="4"
       height="48"
       width="26"
       y="8"
       x="30"
       fill="#1287de" />
    <path
       id="rect6214-9-1"
       style="color-rendering:auto;color:#000000;isolation:auto;mix-blend-mode:normal;shape-rendering:auto;solid-color:#000000;image-rendering:auto;fill:#16364e"
       d="m29.96 51v1c0 2.216 1.784 4 4 4h18c2.216 0 4-1.784 4-4v-1c0 2.216-1.784 4-4 4h-18c-2.216 0-4-1.784-4-4z"
       fill="#0566af" />
    <rect
       id="rect6258"
       style="color-rendering:auto;color:#000000;isolation:auto;mix-blend-mode:normal;shape-rendering:auto;solid-color:#000000;image-rendering:auto"
       ry="2"
       height="44"
       width="31"
       y="10"
       x="23"
       fill="#b6b2b6" />
    <path
       id="path6501"
       d="M 51.5,9 33,8 31.129,54.135 c 0.91521,1.1299 2.2972,1.8652 3.8711,1.8652 l 17,0 c 2,0 4,-2 4,-4 l 0,-38.5 z"
       inkscape:connector-curvature="0"
       style="opacity:0.1;fill-rule:evenodd" />
    <path
       id="rect6258-1"
       style="color-rendering:auto;color:#000000;isolation:auto;mix-blend-mode:normal;shape-rendering:auto;solid-color:#000000;image-rendering:auto"
       fill="#dddbdb"
       d="m25 10 25-2c1.1045-0.088358 2 0.892 2 2v44c0 1.108-0.89553 2.0884-2 2l-25-2c-1.1045-0.08836-2-0.892-2-2v-40c0-1.108 0.89553-1.9116 2-2z" />
    <path
       id="path4320"
       fill-rule="evenodd"
       fill="#ac0808"
       d="m50 7.0801-4 0.3203v23.6l2-1 2 1v-23.92z" />
    <path
       id="path6501-2"
       opacity=".1"
       fill-rule="evenodd"
       d="m45.834 8.334l-18.91 1.5117-1.795 43.289c0.364 0.45 0.821 0.748 1.328 0.982l23.543 1.883c1.104 0.088 2-0.892 2-2v-39.5l-6.166-6.166z" />
    <path
       id="rect6258-1-2"
       style="color-rendering:auto;color:#000000;isolation:auto;mix-blend-mode:normal;shape-rendering:auto;solid-color:#000000;image-rendering:auto"
       fill="#fcfcfc"
       d="m25 10 17-4c1.0785-0.25378 2 0.892 2 2v48c0 1.108-0.92145 2.2538-2 2l-17-4c-1.0785-0.25378-2-0.892-2-2v-40c0-1.108 0.92145-1.7462 2-2z" />
    <path
       id="path6501-2-1"
       opacity=".1"
       fill-rule="evenodd"
       d="m41.596 6.0957l-16.596 3.9043c-1.079 0.254-2 0.892-2 2v40c0 1.108 0.921 1.746 2 2l17 4c0.966 0.077 1.772-0.663 1.959-1.592 0.027-0.132 0.041-0.27 0.041-0.408v-47.5l-2.404-2.4043z" />
    <path
       id="rect5605-6"
       style="color-rendering:auto;color:#000000;isolation:auto;mix-blend-mode:normal;shape-rendering:auto;solid-color:#000000;image-rendering:auto"
       fill="url(#linearGradient6654-3)"
       d="m39.1 3.9707c-0.1078 0.001-0.21762 0.01175-0.32812 0.03125l-20.809 4h-6.7773c-1.77 0.27-3.2207 1.78-3.2207 4v40c0 2.216 1.4514 3.7251 3.2227 4h6.7773l20.777 4c1.77 0.31 3.2295-1.78 3.2305-4l0.02148-48c0.00093-2.0775-1.2786-4.051-2.8945-4.0312z" />
    <path
       id="rect5605-6-7"
       style="color-rendering:auto;color:#000000;isolation:auto;mix-blend-mode:normal;shape-rendering:auto;solid-color:#000000;image-rendering:auto;fill:#28618c"
       d="m8 51v1c0 2.216 1.4514 3.7251 3.2227 4h6.777l20.777 4c1.7671 0.31339 3.2227-1.784 3.2227-4v-1c0 2.216-1.4556 4.3134-3.2227 4l-20.777-4h-6.777c-1.7719-0.275-3.2233-1.784-3.2233-4z"
       fill="#0566af" />
    <path
       id="rect5605-5-0-0-0"
       opacity=".1"
       style="color-rendering:auto;color:#000000;isolation:auto;mix-blend-mode:normal;shape-rendering:auto;solid-color:#000000;image-rendering:auto"
       d="m42 8v48c0 2.216-1.4551 4.3134-3.2222 4l-20.778-4v-48l20.778-4c1.767-0.3134 3.222 1.784 3.222 4z" />
    <rect
       id="rect5679-8"
       opacity=".05"
       style="color-rendering:auto;color:#000000;isolation:auto;mix-blend-mode:normal;shape-rendering:auto;solid-color:#000000;image-rendering:auto"
       transform="rotate(90)"
       height="1"
       width="48"
       y="-18"
       x="8"
       fill="url(#linearGradient5687-7-5)" />
    <path
       id="rect5679-9-5"
       opacity=".05"
       style="color-rendering:auto;color:#000000;isolation:auto;mix-blend-mode:normal;shape-rendering:auto;solid-color:#000000;image-rendering:auto"
       d="m19 7.73-1 0.27148v48l1 0.27148v-48.543z"
       fill="url(#linearGradient6212-6)" />
    <g
       id="g4508"
       fill-rule="evenodd">
      <path
         id="path4383"
         d="m32 40-3-25c-1-2-8-2-8-4 0-1.6562 2.0671 0 9.5312 2 1.4993 0.40174 4.125 27 4.125 27z"
         fill="#343031" />
      <path
         id="path4402"
         d="m30.405 4.3171c0.39991 0.00155 0.75148 0.010771 1.0327 0.010771 1.125 0 3.3751 0.48258 3.3751 6.6182s-1.125 11.03-7.8752 7.7212c-2.25-1.103-4.5001-2.6542-4.5001-6.6182 0-7.3291 5.1681-7.7429 7.9674-7.732z"
         fill="#e2f2fe" />
      <path
         id="path4349-3"
         d="m30.715 24.751c2.932 0.2535 3.5184 3.9419 3.5184 8.291 0 5.7988-2.085 6.2549-3.1274 6.2549-0.26062 0-0.5864 0.0088-0.95697 0.01022-2.594 0.01021-7.3829-0.38079-7.3829-7.3076 0-3.7464 2.085-5.2124 4.1699-6.2549 1.5637-0.78186 2.8017-1.0781 3.779-0.99362z"
         fill="#e2f2fe" />
      <path
         id="path4402-6"
         d="m22.531 10.51c-0.056 0.479-0.093 0.983-0.093 1.539 0 0.091 0.007 0.175 0.009 0.263 0.434 0.175 0.945 0.329 1.477 0.479 0.541-0.125 0.771-0.564 1.422-0.41 0.839 0.199 3.689 1.172 4.242 1.592 0.552 0.42 0.398 2.318 0.486 3.711 0.058 0.905-0.286 1.463-0.541 1.763l0.018 0.151c1.049 0.211 1.899 0.133 2.58-0.184-0.567-3.56-1.137-6.29-1.6-6.414-4.174-1.118-6.619-2.106-8-2.49zm8.184 14.24c-0.17-0.015-0.359-0.003-0.545 0.006l1.73 14.414c0.88-0.278 1.909-1.193 2.231-4.115-0.272-2.497-0.615-5.551-1.018-8.723-0.532-0.911-1.301-1.487-2.398-1.582z"
         fill="#82c8fa" />
      <path
         id="path4349"
         d="m32 3s0 1-1 1c-4 0-9 0-9 8 0 3.5938 2 6 4 7s6 0.76393 6 3-4 2-6 3-4 3.4062-4 7c0 8 5 8 9 8 1 0 1 1 1 1h3s1-2.4375 1-8-2-8-2-11 2-5.4375 2-11-1-8-1-8zm-1.918 1.9902c0.356 0.0014 0.668 0.0098 0.918 0.0098 1 0 3 0.4375 3 6s-1 10-7 7c-2-1-4-2.4062-4-6 0-6.6445 4.5938-7.0196 7.082-7.0098zm0.543 20.057c2.813 0.243 3.375 3.781 3.375 7.953 0 5.5625-2 6-3 6-0.25 0-0.5625 0.0084-0.91797 0.0098-2.488 0.01-7.082-0.365-7.082-7.01 0-3.5938 2-5 4-6 1.5-0.75 2.6875-1.0342 3.625-0.95312z"
         fill="#534d52" />
    </g>
  </g>
</svg>
