<?xml version="1.0" encoding="UTF-8" standalone="no"?>
<!-- Created with Inkscape (http://www.inkscape.org/) -->
<svg id="svg2" xmlns:rdf="http://www.w3.org/1999/02/22-rdf-syntax-ns#" xmlns="http://www.w3.org/2000/svg" height="64" width="64" version="1.1" xmlns:cc="http://creativecommons.org/ns#" xmlns:xlink="http://www.w3.org/1999/xlink" viewBox="0 0 64 64.000001" xmlns:dc="http://purl.org/dc/elements/1.1/">
	<defs id="defs4">
		<linearGradient id="linearGradient4865">
			<stop id="stop4867" stop-color="#fcfcfc" offset="0"/>
			<stop id="stop4869" stop-color="#dddbdb" offset="1"/>
		</linearGradient>
		<linearGradient id="linearGradient4871" y2="178" xlink:href="#linearGradient4865" gradientUnits="userSpaceOnUse" x2="-493.36" gradientTransform="translate(526.36 -1172.4)" y1="126" x1="-493.36"/>
		<linearGradient id="linearGradient4881" y2="153.5" gradientUnits="userSpaceOnUse" x2="-493.36" gradientTransform="matrix(0 -1 1 0 -120 526)" y1="153.5" x1="-494.36">
			<stop id="stop4877" offset="0"/>
			<stop id="stop4879" stop-opacity="0" offset="1"/>
		</linearGradient>
		<linearGradient id="linearGradient4913" y2="153.5" gradientUnits="userSpaceOnUse" x2="-493.36" gradientTransform="matrix(0 1 1 0 -120 1514.7)" y1="153.5" x1="-494.36">
			<stop id="stop4909" stop-color="#f5f4f4" offset="0"/>
			<stop id="stop4911" stop-color="#f5f4f4" stop-opacity="0" offset="1"/>
		</linearGradient>
		<linearGradient id="linearGradient5037" y2="1020.4" gradientUnits="userSpaceOnUse" x2="60" gradientTransform="translate(-1052.4 -1052.4)" y1="1020.4" x1="4">
			<stop id="stop5033" stop-color="#1287de" offset="0"/>
			<stop id="stop5035" stop-color="#0566af" offset="1"/>
		</linearGradient>
		<linearGradient id="linearGradient4810" y2="6" xlink:href="#linearGradient4865" gradientUnits="userSpaceOnUse" x2="38" y1="58" x1="38"/>
	</defs>
	<metadata id="metadata7">
		<rdf:RDF>
			<cc:Work rdf:about="">
				<dc:format>image/svg+xml</dc:format>
				<dc:type rdf:resource="http://purl.org/dc/dcmitype/StillImage"/>
				<dc:title/>
			</cc:Work>
		</rdf:RDF>
	</metadata>
	<g id="layer1" transform="translate(0 -988.36)">
		<circle id="path4333" style="color-rendering:auto;color:#000000;isolation:auto;mix-blend-mode:normal;shape-rendering:auto;solid-color:#000000;image-rendering:auto" transform="matrix(0,-1,-1,0,0,0)" cy="-32" cx="-1020.4" r="28" fill="url(#linearGradient5037)"/>
		<circle id="path4333-7" style="color-rendering:auto;color:#000000;isolation:auto;mix-blend-mode:normal;shape-rendering:auto;solid-color:#000000;image-rendering:auto" transform="scale(1,-1)" cy="-1020.4" cx="32" r="26" fill="url(#linearGradient4871)"/>
		<circle id="path4350" style="color-rendering:auto;color:#000000;isolation:auto;mix-blend-mode:normal;shape-rendering:auto;solid-color:#000000;image-rendering:auto" cy="1001.4" cx="21" r="1" fill="#b6b2b6"/>
		<circle id="path4350-5" style="color-rendering:auto;color:#000000;isolation:auto;mix-blend-mode:normal;shape-rendering:auto;solid-color:#000000;image-rendering:auto" cy="1001.4" cx="43" r="1" fill="#b6b2b6"/>
		<circle id="path4350-3" style="color-rendering:auto;color:#000000;isolation:auto;mix-blend-mode:normal;shape-rendering:auto;solid-color:#000000;image-rendering:auto" cy="1039.4" cx="21" r="1" fill="#dddbdb"/>
		<circle id="path4350-5-5" style="color-rendering:auto;color:#000000;isolation:auto;mix-blend-mode:normal;shape-rendering:auto;solid-color:#000000;image-rendering:auto" cy="1039.4" cx="43" r="1" fill="#dddbdb"/>
		<path id="path4860" style="color-rendering:auto;color:#000000;isolation:auto;mix-blend-mode:normal;shape-rendering:auto;solid-color:#000000;image-rendering:auto" d="m25.184 1021.9 9.8782 1.4796-1.2508-9.824c-3.7343-1.0006-7.5726 1.2155-8.5732 4.9498-0.29638 1.1099-0.31503 2.2757-0.0543 3.3946z" fill="#f99133"/>
		<path id="path4863" style="color-rendering:auto;color:#000000;isolation:auto;mix-blend-mode:normal;shape-rendering:auto;solid-color:#000000;image-rendering:auto" d="m25.184 1021.9c0.5841 2.5176 2.5079 4.5085 5.004 5.1786 2.4967 0.6677 5.1583-0.095 6.9229-1.9828l-1.055-4.7h-4.056z" fill="#ec4040"/>
		<path id="path4394" style="color-rendering:auto;color:#000000;isolation:auto;mix-blend-mode:normal;shape-rendering:auto;solid-color:#000000;image-rendering:auto" d="m33.812 1013.6-1.812 6.8l5.1112 4.7787a7 7 0 0 0 1.6503 -2.967 7 7 0 0 0 -4.9498 -8.5732z" fill="#1287de"/>
		<path id="path4847" style="color-rendering:auto;color:#000000;isolation:auto;mix-blend-mode:normal;shape-rendering:auto;solid-color:#000000;image-rendering:auto" d="m21.943 1007.4-7.943 2l-1.9434 7.9434c0.43018 0.4344 0.91543 0.8107 1.4434 1.1191 3.3482 1.9332 7.6296 0.7859 9.5625-2.5625 1.5791-2.7437 1.1202-6.2058-1.1191-8.4434z" fill="#f99133"/>
		<path id="path4394-2" style="color-rendering:auto;color:#000000;isolation:auto;mix-blend-mode:normal;shape-rendering:auto;solid-color:#000000;image-rendering:auto" d="m16.67 1005.4a7 7 0 0 0 -5.7324 3.4922 7 7 0 0 0 1.1191 8.4434l9.8867-9.8868a7 7 0 0 0 -1.444 -1.1 7 7 0 0 0 -3.83 -0.9z" fill="#40b081"/>
		<path id="path4394-2-1" style="color-rendering:auto;color:#000000;isolation:auto;mix-blend-mode:normal;shape-rendering:auto;solid-color:#000000;image-rendering:auto" d="m42.057 1033.3 7.943-1.9l1.9434-7.9434c-0.43018-0.4344-0.91543-0.8107-1.4434-1.1191-3.3482-1.9332-7.6296-0.7859-9.5625 2.5625-1.5791 2.7437-1.1202 6.2058 1.1191 8.4434z" fill="#1287de"/>
		<path id="path4838" style="color-rendering:auto;color:#000000;isolation:auto;mix-blend-mode:normal;shape-rendering:auto;solid-color:#000000;image-rendering:auto" d="m42.057 1033.3a7 7 0 0 0 1.4434 1.1191 7 7 0 0 0 9.5625 -2.5625 7 7 0 0 0 -1.1191 -8.4434l-9.8867 9.8868z" fill="#ec4040"/>
		<path id="path4844" style="color-rendering:auto;color:#000000;isolation:auto;mix-blend-mode:normal;shape-rendering:auto;solid-color:#000000;image-rendering:auto" d="m38.754 1005.2-5.754-4.8l-7.7539 1.1895c-0.16078 0.5901-0.24352 1.1988-0.24609 1.8105 0 3.866 3.134 7 7 7 3.1658 0 5.9351-2.1314 6.7539-5.1895z" fill="#f99133"/>
		<path id="path4394-2-6" style="color-rendering:auto;color:#000000;isolation:auto;mix-blend-mode:normal;shape-rendering:auto;solid-color:#000000;image-rendering:auto" d="m32 996.36a7 7 0 0 0 -6.7539 5.1895l13.508 3.621a7 7 0 0 0 0.246 -1.7 7 7 0 0 0 -7 -7z" fill="#1287de"/>
		<path id="path4394-2-1-6" style="color-rendering:auto;color:#000000;isolation:auto;mix-blend-mode:normal;shape-rendering:auto;solid-color:#000000;image-rendering:auto" d="m25.246 1035.6 4.754 5.8l8.7539-2.1895c0.16078-0.5901 0.24352-1.1988 0.24609-1.8105 0-3.866-3.134-7-7-7-3.1658 0-5.9351 2.1314-6.7539 5.1895z" fill="#ec4040"/>
		<path id="path4853" style="color-rendering:auto;color:#000000;isolation:auto;mix-blend-mode:normal;shape-rendering:auto;solid-color:#000000;image-rendering:auto" d="m25.246 1035.6a7 7 0 0 0 -0.246 1.8 7 7 0 0 0 7 7 7 7 0 0 0 6.7539 -5.1895l-13.508-3.621z" fill="#40b081"/>
		<path id="path4841" style="color-rendering:auto;color:#000000;isolation:auto;mix-blend-mode:normal;shape-rendering:auto;solid-color:#000000;image-rendering:auto" d="m48.811 1019.1c0.59092-0.1557 1.1589-0.3882 1.6895-0.6914 3.3484-1.9329 4.4957-6.2143 2.5625-9.5625-1.5863-2.7405-4.8148-4.0748-7.873-3.2539l-3.19 8.8z" fill="#40b081"/>
		<path id="path4394-2-6-6" style="color-rendering:auto;color:#000000;isolation:auto;mix-blend-mode:normal;shape-rendering:auto;solid-color:#000000;image-rendering:auto" d="m48.811 1019.1-3.6211-13.508a7 7 0 0 0 -1.6895 0.6914 7 7 0 0 0 -2.5625 9.5625 7 7 0 0 0 7.873 3.2539z" fill="#1287de"/>
		<path id="path4394-2-1-6-8" style="color-rendering:auto;color:#000000;isolation:auto;mix-blend-mode:normal;shape-rendering:auto;solid-color:#000000;image-rendering:auto" d="m15.189 1021.6-2.189 7.8l5.8105 5.7539c0.59092-0.1557 1.1589-0.3882 1.6895-0.6914 3.3484-1.9329 4.4957-6.2143 2.5625-9.5625-1.5863-2.7405-4.8148-4.0748-7.873-3.2539z" fill="#ec4040"/>
		<path id="path4850" style="color-rendering:auto;color:#000000;isolation:auto;mix-blend-mode:normal;shape-rendering:auto;solid-color:#000000;image-rendering:auto" d="m15.189 1021.6a7 7 0 0 0 -1.6895 0.6914 7 7 0 0 0 -2.5625 9.5625 7 7 0 0 0 7.873 3.2539l-3.6211-13.508z" fill="#f99133"/>
		<path id="rect4873" opacity=".05" style="color-rendering:auto;color:#000000;isolation:auto;mix-blend-mode:normal;shape-rendering:auto;solid-color:#000000;image-rendering:auto" d="m4 1020.4h56a28 28 0 0 0 -0.03516 -1h-55.914a28 28 0 0 0 -0.050781 1z" fill="url(#linearGradient4881)"/>
		<path id="rect4873-5" opacity=".05" style="color-rendering:auto;color:#000000;isolation:auto;mix-blend-mode:normal;shape-rendering:auto;solid-color:#000000;image-rendering:auto" d="m4 1020.4a28 28 0 0 0 0.035156 1h55.914a28 28 0 0 0 0.05078 -1h-56z" fill="url(#linearGradient4913)"/>
		<path id="path4394-6-9-2-2" style="color-rendering:auto;color:#000000;isolation:auto;mix-blend-mode:normal;shape-rendering:auto;solid-color:#000000;image-rendering:auto" d="m32 10a5 5 0 0 0 -5 5 5 5 0 0 0 5 5 5 5 0 0 0 5 -5 5 5 0 0 0 -5 -5zm14.883 9.002a5 5 0 0 0 -2.383 0.668 5 5 0 0 0 -1.83 6.83 5 5 0 0 0 6.83 1.83 5 5 0 0 0 1.83 -6.83 5 5 0 0 0 -4.447 -2.498zm-30.119 0.004a5 5 0 0 0 -4.094 2.494 5 5 0 0 0 1.83 6.83 5 5 0 0 0 6.83 -1.83 5 5 0 0 0 -1.83 -6.83 5 5 0 0 0 -2.736 -0.664zm15.236 7.994a5 5 0 0 0 -5 5 5 5 0 0 0 5 5 5 5 0 0 0 5 -5 5 5 0 0 0 -5 -5zm-15.117 8.002a5 5 0 0 0 -2.383 0.668 5 5 0 0 0 -1.83 6.83 5 5 0 0 0 6.83 1.83 5 5 0 0 0 1.83 -6.83 5 5 0 0 0 -4.447 -2.498zm29.881 0.004a5 5 0 0 0 -4.094 2.494 5 5 0 0 0 1.83 6.83 5 5 0 0 0 6.83 -1.83 5 5 0 0 0 -1.83 -6.83 5 5 0 0 0 -2.736 -0.664zm-14.764 8.994a5 5 0 0 0 -5 5 5 5 0 0 0 5 5 5 5 0 0 0 5 -5 5 5 0 0 0 -5 -5z" transform="translate(0 988.36)" fill="url(#linearGradient4810)"/>
		<path id="rect4915" opacity=".1" style="color-rendering:auto;color:#000000;isolation:auto;mix-blend-mode:normal;shape-rendering:auto;solid-color:#000000;image-rendering:auto" d="m4 1020.4h56a28 28 0 0 0 -28 -28 28 28 0 0 0 -28 28z"/>
		<path id="path4333-5" style="color-rendering:auto;color:#000000;isolation:auto;mix-blend-mode:normal;shape-rendering:auto;solid-color:#000000;image-rendering:auto" d="m4.0215 31.414a28 28 0 0 0 -0.0215 0.586 28 28 0 0 0 28 28 28 28 0 0 0 28 -28 28 28 0 0 0 -0.021 -0.414 28 28 0 0 1 -27.979 27.414 28 28 0 0 1 -27.978 -27.586z" transform="translate(0 988.36)" fill="#023962"/>
	</g>
</svg>
