<?xml version="1.0" encoding="UTF-8" standalone="no"?>
<!-- Created with Inkscape (http://www.inkscape.org/) -->

<svg
   xmlns:dc="http://purl.org/dc/elements/1.1/"
   xmlns:cc="http://creativecommons.org/ns#"
   xmlns:rdf="http://www.w3.org/1999/02/22-rdf-syntax-ns#"
   xmlns:svg="http://www.w3.org/2000/svg"
   xmlns="http://www.w3.org/2000/svg"
   xmlns:xlink="http://www.w3.org/1999/xlink"
   xmlns:sodipodi="http://sodipodi.sourceforge.net/DTD/sodipodi-0.dtd"
   xmlns:inkscape="http://www.inkscape.org/namespaces/inkscape"
   width="64"
   height="64"
   viewBox="0 0 64 64.000001"
   id="svg2"
   version="1.1"
   inkscape:version="0.91 r13725"
   sodipodi:docname="preferences-desktop-corners.svg">
  <defs
     id="defs4">
    <linearGradient
       inkscape:collect="always"
       xlink:href="#linearGradient8441"
       id="linearGradient8447"
       x1="28"
       y1="1000.3622"
       x2="28"
       y2="1040.3622"
       gradientUnits="userSpaceOnUse"
       gradientTransform="translate(0,-988.3622)" />
    <linearGradient
       inkscape:collect="always"
       id="linearGradient8441">
      <stop
         style="stop-color:#343031;stop-opacity:1"
         offset="0"
         id="stop8443" />
      <stop
         style="stop-color:#534d52;stop-opacity:1"
         offset="1"
         id="stop8445" />
    </linearGradient>
    <linearGradient
       inkscape:collect="always"
       xlink:href="#linearGradient8391"
       id="linearGradient8397"
       x1="12"
       y1="1020.3622"
       x2="12"
       y2="1019.3622"
       gradientUnits="userSpaceOnUse" />
    <linearGradient
       inkscape:collect="always"
       id="linearGradient8391">
      <stop
         style="stop-color:#000000;stop-opacity:1;"
         offset="0"
         id="stop8393" />
      <stop
         style="stop-color:#000000;stop-opacity:0;"
         offset="1"
         id="stop8395" />
    </linearGradient>
    <linearGradient
       inkscape:collect="always"
       xlink:href="#linearGradient4204"
       id="linearGradient8397-9"
       x1="12"
       y1="1020.3622"
       x2="12"
       y2="1019.3622"
       gradientUnits="userSpaceOnUse"
       gradientTransform="translate(0,-2040.7244)" />
    <linearGradient
       inkscape:collect="always"
       id="linearGradient4204">
      <stop
         style="stop-color:#ffffff;stop-opacity:1;"
         offset="0"
         id="stop4206" />
      <stop
         style="stop-color:#ffffff;stop-opacity:0;"
         offset="1"
         id="stop4208" />
    </linearGradient>
  </defs>
  <sodipodi:namedview
     id="base"
     pagecolor="#ffffff"
     bordercolor="#666666"
     borderopacity="1.0"
     inkscape:pageopacity="0.0"
     inkscape:pageshadow="2"
     inkscape:zoom="1"
     inkscape:cx="60.251093"
     inkscape:cy="20.70678"
     inkscape:document-units="px"
     inkscape:current-layer="g8556"
     showgrid="false"
     units="px"
     inkscape:snap-bbox="true"
     inkscape:bbox-nodes="true"
     inkscape:window-width="1366"
     inkscape:window-height="697"
     inkscape:window-x="0"
     inkscape:window-y="0"
     inkscape:window-maximized="1"
     inkscape:snap-global="true"
     inkscape:object-nodes="true"
     inkscape:snap-object-midpoints="true"
     inkscape:snap-center="true"
     inkscape:snap-smooth-nodes="false"
     inkscape:snap-others="false"
     inkscape:snap-bbox-edge-midpoints="false"
     inkscape:snap-nodes="true">
    <inkscape:grid
       type="xygrid"
       id="grid4136"
       empspacing="4" />
  </sodipodi:namedview>
  <metadata
     id="metadata7">
    <rdf:RDF>
      <cc:Work
         rdf:about="">
        <dc:format>image/svg+xml</dc:format>
        <dc:type
           rdf:resource="http://purl.org/dc/dcmitype/StillImage" />
        <dc:title />
      </cc:Work>
    </rdf:RDF>
  </metadata>
  <g
     inkscape:label="icon"
     inkscape:groupmode="layer"
     id="layer1"
     transform="translate(0,-988.3622)">
    <g
       id="g8210" />
    <g
       id="g8556">
      <path
         style="opacity:1;fill:url(#linearGradient8447);fill-opacity:1;stroke:none;stroke-width:4;stroke-miterlimit:4;stroke-dasharray:none;stroke-opacity:1"
         d="M 20 12 L 4 28 L 4 48 C 4 50.21601 5.7839905 52 8 52 L 48 52 L 60 40 L 60 16 C 60 13.78399 58.21601 12 56 12 L 20 12 z "
         transform="translate(0,988.3622)"
         id="rect8313" />
      <path
         inkscape:connector-curvature="0"
         id="rect8313-6"
         transform="translate(0,988.3622)"
         d="m 4,47 0,1 c 0,2.21601 1.7839905,4 4,4 l 48,0 c 2.21601,0 4,-1.78399 4,-4 l 0,-1 c 0,2.21601 -1.78399,4 -4,4 L 8,51 C 5.7839905,51 4,49.21601 4,47 Z"
         style="opacity:1;fill:#343031;fill-opacity:1;stroke:none;stroke-width:4;stroke-miterlimit:4;stroke-dasharray:none;stroke-opacity:1" />
      <path
         style="opacity:1;fill:#37a4f5;fill-opacity:1;stroke:none;stroke-width:4;stroke-miterlimit:4;stroke-dasharray:none;stroke-opacity:1"
         d="M 16 12 L 4 24 L 4 28 A 16 16 0 0 0 20 12 L 16 12 z "
         transform="translate(0,988.3622)"
         id="path8319" />
      <path
         style="opacity:1;fill:#0566af;fill-opacity:1;stroke:none;stroke-width:4;stroke-miterlimit:4;stroke-dasharray:none;stroke-opacity:1"
         d="M 12 12 L 4 20 L 4 24 A 12 12 0 0 0 16 12 L 12 12 z "
         transform="translate(0,988.3622)"
         id="path8317" />
      <path
         inkscape:connector-curvature="0"
         id="path8315"
         transform="translate(0,988.3622)"
         d="m 8,12 c -2.2160095,0 -4,1.78399 -4,4 l 0,4 a 8,8 0 0 0 8,-8 l -4,0 z"
         style="opacity:1;fill:#37a4f5;fill-opacity:1;stroke:none;stroke-width:4;stroke-miterlimit:4;stroke-dasharray:none;stroke-opacity:1" />
      <path
         style="opacity:1;fill:#37a4f5;fill-opacity:1;stroke:none;stroke-width:4;stroke-miterlimit:4;stroke-dasharray:none;stroke-opacity:1"
         d="M 60 40 A 12 12 0 0 0 48 52 L 52 52 L 60 44 L 60 40 z "
         transform="translate(0,988.3622)"
         id="path8351" />
      <path
         style="opacity:1;fill:#0566af;fill-opacity:1;stroke:none;stroke-width:4;stroke-miterlimit:4;stroke-dasharray:none;stroke-opacity:1"
         d="M 60 44 A 8 8 0 0 0 52 52 L 56 52 L 60 48 L 60 44 z "
         transform="translate(0,988.3622)"
         id="path8353" />
      <path
         inkscape:connector-curvature="0"
         id="path8357"
         transform="translate(0,988.3622)"
         d="m 60,48 a 4,4 0 0 0 -4,4 c 2.21601,0 4,-1.78399 4,-4 z"
         style="opacity:1;fill:#37a4f5;fill-opacity:1;stroke:none;stroke-width:4;stroke-miterlimit:4;stroke-dasharray:none;stroke-opacity:1" />
      <rect
         ry="0"
         y="1019.3622"
         x="4"
         height="1"
         width="56"
         id="rect8389"
         style="opacity:0.1;fill:url(#linearGradient8397);fill-opacity:1;stroke:none;stroke-width:4;stroke-miterlimit:4;stroke-dasharray:none;stroke-opacity:1" />
      <rect
         transform="scale(1,-1)"
         ry="0"
         y="-1021.3622"
         x="4"
         height="1"
         width="56"
         id="rect8389-6"
         style="opacity:0.1;fill:url(#linearGradient8397-9);fill-opacity:1;stroke:none;stroke-width:4;stroke-miterlimit:4;stroke-dasharray:none;stroke-opacity:1" />
      <path
         inkscape:connector-curvature="0"
         id="rect8313-7"
         d="m 8,1000.3622 c -2.216009,0 -4,1.784 -4,4 l 0,16 56,0 0,-16 c 0,-2.216 -1.78399,-4 -4,-4 l -48,0 z"
         style="opacity:0.1;fill:#000000;fill-opacity:1;stroke:none;stroke-width:4;stroke-miterlimit:4;stroke-dasharray:none;stroke-opacity:1" />
      <path
         inkscape:connector-curvature="0"
         id="rect8313-9"
         d="m 60,1035.3622 c 0,2.216 -1.78399,4 -4,4 l -7.953125,0 a 12,12 0 0 0 -0.04687,1 l 8,0 c 2.21601,0 4,-1.784 4,-4 l 0,-1 z"
         style="opacity:1;fill:#0566af;fill-opacity:1;stroke:none;stroke-width:4;stroke-miterlimit:4;stroke-dasharray:none;stroke-opacity:1" />
    </g>
  </g>
</svg>
