<?xml version="1.0" encoding="UTF-8" standalone="no"?>
<!-- Created with Inkscape (http://www.inkscape.org/) -->

<svg
   xmlns:dc="http://purl.org/dc/elements/1.1/"
   xmlns:cc="http://creativecommons.org/ns#"
   xmlns:rdf="http://www.w3.org/1999/02/22-rdf-syntax-ns#"
   xmlns:svg="http://www.w3.org/2000/svg"
   xmlns="http://www.w3.org/2000/svg"
   xmlns:xlink="http://www.w3.org/1999/xlink"
   xmlns:sodipodi="http://sodipodi.sourceforge.net/DTD/sodipodi-0.dtd"
   xmlns:inkscape="http://www.inkscape.org/namespaces/inkscape"
   width="64"
   height="64"
   viewBox="0 0 64 64.000001"
   id="svg2"
   version="1.1"
   inkscape:version="0.91 r13725"
   sodipodi:docname="preferences-desktop-gamma.svg">
  <defs
     id="defs4">
    <linearGradient
       inkscape:collect="always"
       xlink:href="#linearGradient4881"
       id="linearGradient13188-5"
       x1="10"
       y1="1020.3622"
       x2="10"
       y2="1019.3622"
       gradientUnits="userSpaceOnUse"
       gradientTransform="matrix(1.1785714,0,0,-1,-5.71429,2040.7244)" />
    <linearGradient
       id="linearGradient4881"
       y2="153.5"
       gradientUnits="userSpaceOnUse"
       x2="-493.35999"
       gradientTransform="matrix(0,1,1,0,130,1514.7222)"
       y1="153.5"
       x1="-494.35999">
      <stop
         id="stop4877"
         offset="0" />
      <stop
         id="stop4879"
         stop-opacity="0"
         offset="1" />
    </linearGradient>
    <linearGradient
       inkscape:collect="always"
       xlink:href="#linearGradient13182"
       id="linearGradient13188"
       x1="10"
       y1="1020.3622"
       x2="10"
       y2="1019.3622"
       gradientUnits="userSpaceOnUse" />
    <linearGradient
       inkscape:collect="always"
       id="linearGradient13182">
      <stop
         style="stop-color:#ffffff;stop-opacity:1;"
         offset="0"
         id="stop13184" />
      <stop
         style="stop-color:#ffffff;stop-opacity:0;"
         offset="1"
         id="stop13186" />
    </linearGradient>
    <linearGradient
       inkscape:collect="always"
       xlink:href="#linearGradient13272"
       id="linearGradient13278"
       x1="35"
       y1="1003.3622"
       x2="35"
       y2="1036.3622"
       gradientUnits="userSpaceOnUse" />
    <linearGradient
       inkscape:collect="always"
       id="linearGradient13272">
      <stop
         style="stop-color:#b6b2b6;stop-opacity:1"
         offset="0"
         id="stop13274" />
      <stop
         style="stop-color:#98929a;stop-opacity:1"
         offset="1"
         id="stop13276" />
    </linearGradient>
    <linearGradient
       gradientTransform="translate(0,988.3622)"
       inkscape:collect="always"
       xlink:href="#linearGradient13149"
       id="linearGradient13155"
       x1="19"
       y1="52"
       x2="19"
       y2="13"
       gradientUnits="userSpaceOnUse" />
    <linearGradient
       inkscape:collect="always"
       id="linearGradient13149">
      <stop
         style="stop-color:#dddbdb;stop-opacity:1"
         offset="0"
         id="stop13151" />
      <stop
         style="stop-color:#f5f4f4;stop-opacity:1"
         offset="1"
         id="stop13153" />
    </linearGradient>
  </defs>
  <sodipodi:namedview
     id="base"
     pagecolor="#ffffff"
     bordercolor="#666666"
     borderopacity="1.0"
     inkscape:pageopacity="0.0"
     inkscape:pageshadow="2"
     inkscape:zoom="2.8284271"
     inkscape:cx="-58.721531"
     inkscape:cy="-10.668627"
     inkscape:document-units="px"
     inkscape:current-layer="layer1"
     showgrid="false"
     units="px"
     inkscape:snap-bbox="true"
     inkscape:bbox-nodes="true"
     inkscape:window-width="3840"
     inkscape:window-height="2045"
     inkscape:window-x="0"
     inkscape:window-y="0"
     inkscape:window-maximized="1"
     inkscape:snap-global="true"
     inkscape:object-nodes="true"
     inkscape:snap-object-midpoints="true"
     inkscape:snap-center="true"
     inkscape:snap-smooth-nodes="false"
     inkscape:snap-others="false"
     inkscape:snap-bbox-edge-midpoints="false"
     inkscape:snap-nodes="true">
    <inkscape:grid
       type="xygrid"
       id="grid4136"
       empspacing="4" />
  </sodipodi:namedview>
  <metadata
     id="metadata7">
    <rdf:RDF>
      <cc:Work
         rdf:about="">
        <dc:format>image/svg+xml</dc:format>
        <dc:type
           rdf:resource="http://purl.org/dc/dcmitype/StillImage" />
        <dc:title />
      </cc:Work>
    </rdf:RDF>
  </metadata>
  <g
     inkscape:label="icon"
     inkscape:groupmode="layer"
     id="layer1"
     transform="translate(0,-988.3622)">
    <g
       id="g8210" />
    <path
       id="rect9996"
       d="m 8,1000.3622 c -2.21601,0 -4,1.784 -4,4 l 0,16 -3.19922,16 c -0.4432,2.216 1.23888,4 3.77148,4 l 54.85547,0 c 2.5326,0 4.21469,-1.784 3.77149,-4 l -3.19922,-16 0,-16 c 0,-2.216 -1.78399,-4 -4,-4 l -48,0 z"
       style="color:#000000;clip-rule:nonzero;display:inline;overflow:visible;visibility:visible;opacity:1;isolation:auto;mix-blend-mode:normal;color-interpolation:sRGB;color-interpolation-filters:linearRGB;solid-color:#000000;solid-opacity:1;fill:url(#linearGradient13155);fill-opacity:1;fill-rule:nonzero;stroke:none;stroke-width:2;stroke-linecap:butt;stroke-linejoin:miter;stroke-miterlimit:4;stroke-dasharray:none;stroke-dashoffset:0;stroke-opacity:1;color-rendering:auto;image-rendering:auto;shape-rendering:auto;text-rendering:auto;enable-background:accumulate"
       inkscape:connector-curvature="0" />
    <path
       inkscape:connector-curvature="0"
       style="color:#000000;clip-rule:nonzero;display:inline;overflow:visible;visibility:visible;opacity:1;isolation:auto;mix-blend-mode:normal;color-interpolation:sRGB;color-interpolation-filters:linearRGB;solid-color:#000000;solid-opacity:1;fill:url(#linearGradient13278);fill-opacity:1;fill-rule:nonzero;stroke:none;stroke-width:2;stroke-linecap:butt;stroke-linejoin:miter;stroke-miterlimit:4;stroke-dasharray:none;stroke-dashoffset:0;stroke-opacity:1;color-rendering:auto;image-rendering:auto;shape-rendering:auto;text-rendering:auto;enable-background:accumulate"
       d="m 32,1003.3622 a 17,17 0 0 0 -17,17 17,17 0 0 0 17,17 17,17 0 0 0 17,-17 17,17 0 0 0 -17,-17 z m 0,5 a 12.999983,11.999983 0 0 1 13,12 12.999983,11.999983 0 0 1 -13,12 12.999983,11.999983 0 0 1 -13,-12 12.999983,11.999983 0 0 1 13,-12 z"
       id="path13270" />
    <path
       style="color:#000000;clip-rule:nonzero;display:inline;overflow:visible;visibility:visible;opacity:1;isolation:auto;mix-blend-mode:normal;color-interpolation:sRGB;color-interpolation-filters:linearRGB;solid-color:#000000;solid-opacity:1;fill:#534d52;fill-opacity:1;fill-rule:nonzero;stroke:none;stroke-width:2;stroke-linecap:butt;stroke-linejoin:miter;stroke-miterlimit:4;stroke-dasharray:none;stroke-dashoffset:0;stroke-opacity:1;color-rendering:auto;image-rendering:auto;shape-rendering:auto;text-rendering:auto;enable-background:accumulate"
       d="m 32,1007.3622 a 13,13 0 0 0 -13,13 l 2,0 a 11,11 0 0 1 11,-11 11,11 0 0 1 11,11 l 2,0 a 13,13 0 0 0 -13,-13 z"
       id="path10000"
       inkscape:connector-curvature="0" />
    <path
       style="color:#000000;clip-rule:nonzero;display:inline;overflow:visible;visibility:visible;opacity:1;isolation:auto;mix-blend-mode:normal;color-interpolation:sRGB;color-interpolation-filters:linearRGB;solid-color:#000000;solid-opacity:1;fill:#534d52;fill-opacity:1;fill-rule:nonzero;stroke:none;stroke-width:2;stroke-linecap:butt;stroke-linejoin:miter;stroke-miterlimit:4;stroke-dasharray:none;stroke-dashoffset:0;stroke-opacity:1;color-rendering:auto;image-rendering:auto;shape-rendering:auto;text-rendering:auto;enable-background:accumulate"
       d="m 32,1002.3622 a 18,18 0 0 0 -18,18 l 2,0 a 16,16 0 0 1 16,-16 16,16 0 0 1 16,16 l 2,0 a 18,18 0 0 0 -18,-18 z"
       id="path10005"
       inkscape:connector-curvature="0" />
    <path
       style="color:#000000;clip-rule:nonzero;display:inline;overflow:visible;visibility:visible;opacity:1;isolation:auto;mix-blend-mode:normal;color-interpolation:sRGB;color-interpolation-filters:linearRGB;solid-color:#000000;solid-opacity:1;fill:#534d52;fill-opacity:1;fill-rule:nonzero;stroke:none;stroke-width:2;stroke-linecap:butt;stroke-linejoin:miter;stroke-miterlimit:4;stroke-dasharray:none;stroke-dashoffset:0;stroke-opacity:1;color-rendering:auto;image-rendering:auto;shape-rendering:auto;text-rendering:auto;enable-background:accumulate"
       d="m 11,1002.3622 a 5,5 0 0 0 -5,5 5,5 0 0 0 5,5 5,5 0 0 0 5,-5 5,5 0 0 0 -5,-5 z m 0,2 a 3,3 0 0 1 3,3 3,3 0 0 1 -3,3 3,3 0 0 1 -3,-3 3,3 0 0 1 3,-3 z"
       id="path10010"
       inkscape:connector-curvature="0" />
    <path
       inkscape:connector-curvature="0"
       style="color:#000000;clip-rule:nonzero;display:inline;overflow:visible;visibility:visible;opacity:1;isolation:auto;mix-blend-mode:normal;color-interpolation:sRGB;color-interpolation-filters:linearRGB;solid-color:#000000;solid-opacity:1;fill:#534d52;fill-opacity:1;fill-rule:nonzero;stroke:none;stroke-width:2;stroke-linecap:butt;stroke-linejoin:miter;stroke-miterlimit:4;stroke-dasharray:none;stroke-dashoffset:0;stroke-opacity:1;color-rendering:auto;image-rendering:auto;shape-rendering:auto;text-rendering:auto;enable-background:accumulate"
       d="m 53,1002.3622 a 5,5 0 0 0 -5,5 5,5 0 0 0 5,5 5,5 0 0 0 5,-5 5,5 0 0 0 -5,-5 z m 0,2 a 3,3 0 0 1 3,3 3,3 0 0 1 -3,3 3,3 0 0 1 -3,-3 3,3 0 0 1 3,-3 z"
       id="path10010-7" />
    <path
       inkscape:connector-curvature="0"
       style="color:#000000;clip-rule:nonzero;display:inline;overflow:visible;visibility:visible;opacity:1;isolation:auto;mix-blend-mode:normal;color-interpolation:sRGB;color-interpolation-filters:linearRGB;solid-color:#000000;solid-opacity:1;fill:#534d52;fill-opacity:1;fill-rule:nonzero;stroke:none;stroke-width:2;stroke-linecap:butt;stroke-linejoin:miter;stroke-miterlimit:4;stroke-dasharray:none;stroke-dashoffset:0;stroke-opacity:1;color-rendering:auto;image-rendering:auto;shape-rendering:auto;text-rendering:auto;enable-background:accumulate"
       d="m 19,1020.3622 c 0,0 2,0 2,0 -0.2292,2.9174 0.7572,5.7153 2.7897,7.7782 2.0933,2.0629 5.0637,3.2218 8.2103,3.2218 3.1466,0 6.117,-1.1589 8.2103,-3.2218 2.0325,-2.0629 3.0189,-4.8608 2.7897,-7.7782 0,0 2,0 2,0 0.3202,3.4478 -0.8085,6.7544 -3.204,9.1924 -2.4805,2.438 -6.028,3.8076 -9.796,3.8076 -3.768,0 -7.3155,-1.3696 -9.796,-3.8076 -2.3955,-2.438 -3.5242,-5.7446 -3.204,-9.1924 0,0 0,0 0,0"
       id="path10448" />
    <path
       inkscape:connector-curvature="0"
       style="color:#000000;clip-rule:nonzero;display:inline;overflow:visible;visibility:visible;opacity:1;isolation:auto;mix-blend-mode:normal;color-interpolation:sRGB;color-interpolation-filters:linearRGB;solid-color:#000000;solid-opacity:1;fill:#534d52;fill-opacity:1;fill-rule:nonzero;stroke:none;stroke-width:2;stroke-linecap:butt;stroke-linejoin:miter;stroke-miterlimit:4;stroke-dasharray:none;stroke-dashoffset:0;stroke-opacity:1;color-rendering:auto;image-rendering:auto;shape-rendering:auto;text-rendering:auto;enable-background:accumulate"
       d="m 14,1020.3622 c 0,0 2,0 2,0 -0.485,4.2435 0.8357,8.3131 3.772,11.3137 3.0649,3.0006 7.4996,4.6863 12.228,4.6863 4.7284,0 9.1631,-1.6857 12.228,-4.6863 2.9363,-3.0006 4.257,-7.0702 3.772,-11.3137 0,0 2,0 2,0 0.6138,4.7739 -0.8207,9.3523 -4.1149,12.7279 -3.4571,3.3757 -8.4974,5.2721 -13.8851,5.2721 -5.3877,0 -10.428,-1.8964 -13.8851,-5.2721 -3.2942,-3.3756 -4.7287,-7.954 -4.1149,-12.7279 0,0 0,0 0,0"
       id="path10451" />
    <path
       inkscape:connector-curvature="0"
       style="color:#000000;clip-rule:nonzero;display:inline;overflow:visible;visibility:visible;opacity:1;isolation:auto;mix-blend-mode:normal;color-interpolation:sRGB;color-interpolation-filters:linearRGB;solid-color:#000000;solid-opacity:1;fill:#534d52;fill-opacity:1;fill-rule:nonzero;stroke:none;stroke-width:2;stroke-linecap:butt;stroke-linejoin:miter;stroke-miterlimit:4;stroke-dasharray:none;stroke-dashoffset:0;stroke-opacity:1;color-rendering:auto;image-rendering:auto;shape-rendering:auto;text-rendering:auto;enable-background:accumulate"
       d="m 54.2,1028.3622 c 1.4019,0 2.8351,0.5268 3.9942,1.4645 1.1717,0.9376 1.9738,2.2094 2.2201,3.5355 0.2463,1.3261 -0.103,2.5979 -0.9809,3.5355 -0.8903,0.9377 -2.2368,1.4645 -3.7334,1.4645 -1.4966,0 -3.0011,-0.5268 -4.1728,-1.4645 -1.1591,-0.9376 -1.8899,-2.2094 -2.0415,-3.5355 -0.1515,-1.3261 0.269,-2.5979 1.1594,-3.5355 0.8778,-0.9377 2.153,-1.4645 3.5549,-1.4645 0,0 0,0 0,0 m 0.3,2 c -1.7752,0 -3.0416,1.3431 -2.8286,3 0.2131,1.6569 1.8824,3 3.7286,3 0.8866,0 1.6859,-0.3161 2.2186,-0.8787 0.5282,-0.5626 0.7464,-1.3257 0.61,-2.1213 -0.1364,-0.7956 -0.6091,-1.5587 -1.3106,-2.1213 -0.697,-0.5626 -1.5655,-0.8787 -2.418,-0.8787 0,0 0,0 0,0"
       id="path10010-8" />
    <path
       inkscape:connector-curvature="0"
       style="color:#000000;clip-rule:nonzero;display:inline;overflow:visible;visibility:visible;opacity:1;isolation:auto;mix-blend-mode:normal;color-interpolation:sRGB;color-interpolation-filters:linearRGB;solid-color:#000000;solid-opacity:1;fill:#534d52;fill-opacity:1;fill-rule:nonzero;stroke:none;stroke-width:2;stroke-linecap:butt;stroke-linejoin:miter;stroke-miterlimit:4;stroke-dasharray:none;stroke-dashoffset:0;stroke-opacity:1;color-rendering:auto;image-rendering:auto;shape-rendering:auto;text-rendering:auto;enable-background:accumulate"
       d="m 9.8,1028.3622 c 1.4019,0 2.6771,0.5268 3.5549,1.4645 0.8904,0.9376 1.3109,2.2094 1.1594,3.5355 -0.1516,1.3261 -0.8824,2.5979 -2.0415,3.5355 -1.1717,0.9377 -2.6762,1.4645 -4.1728,1.4645 -1.4966,0 -2.8431,-0.5268 -3.7334,-1.4645 -0.8779,-0.9376 -1.2272,-2.2094 -0.9809,-3.5355 0.2463,-1.3261 1.0484,-2.5979 2.2201,-3.5355 1.1591,-0.9377 2.5923,-1.4645 3.9942,-1.4645 0,0 0,0 0,0 m -0.3,2 c -0.8525,0 -1.721,0.3161 -2.418,0.8787 -0.7015,0.5626 -1.1742,1.3257 -1.3106,2.1213 -0.1364,0.7956 0.082,1.5587 0.61,2.1213 0.5327,0.5626 1.332,0.8787 2.2186,0.8787 0.8866,0 1.7807,-0.3161 2.4822,-0.8787 0.697,-0.5626 1.1441,-1.3257 1.2464,-2.1213 0.1023,-0.7956 -0.1415,-1.5587 -0.6742,-2.1213 -0.5282,-0.5626 -1.3019,-0.8787 -2.1544,-0.8787 0,0 0,0 0,0"
       id="path10010-8-9" />
    <path
       inkscape:connector-curvature="0"
       style="color:#000000;clip-rule:nonzero;display:inline;overflow:visible;visibility:visible;opacity:1;isolation:auto;mix-blend-mode:normal;color-interpolation:sRGB;color-interpolation-filters:linearRGB;solid-color:#000000;solid-opacity:1;fill:#686067;fill-opacity:1;fill-rule:nonzero;stroke:none;stroke-width:2;stroke-linecap:butt;stroke-linejoin:miter;stroke-miterlimit:4;stroke-dasharray:none;stroke-dashoffset:0;stroke-opacity:1;color-rendering:auto;image-rendering:auto;shape-rendering:auto;text-rendering:auto;enable-background:accumulate"
       d="m 60.8,1024.3622 -8.2286,0 -1.7142,2 2.2857,2 8.4571,0 -0.8,-4"
       id="rect10061-2-0-3"
       sodipodi:nodetypes="cccccc" />
    <path
       inkscape:connector-curvature="0"
       style="color:#000000;clip-rule:nonzero;display:inline;overflow:visible;visibility:visible;opacity:1;isolation:auto;mix-blend-mode:normal;color-interpolation:sRGB;color-interpolation-filters:linearRGB;solid-color:#000000;solid-opacity:1;fill:#7a747c;fill-opacity:1;fill-rule:nonzero;stroke:none;stroke-width:2;stroke-linecap:butt;stroke-linejoin:miter;stroke-miterlimit:4;stroke-dasharray:none;stroke-dashoffset:0;stroke-opacity:1;color-rendering:auto;image-rendering:auto;shape-rendering:auto;text-rendering:auto;enable-background:accumulate"
       d="m 52.5714,1024.3622 -8.2285,0 -1.8286,2 2.1714,2 8.4572,0 -0.5715,-4"
       id="rect10061-2-6-4-9"
       sodipodi:nodetypes="cccccc" />
    <path
       inkscape:connector-curvature="0"
       style="color:#000000;clip-rule:nonzero;display:inline;overflow:visible;visibility:visible;opacity:1;isolation:auto;mix-blend-mode:normal;color-interpolation:sRGB;color-interpolation-filters:linearRGB;solid-color:#000000;solid-opacity:1;fill:#98929a;fill-opacity:1;fill-rule:nonzero;stroke:none;stroke-width:2;stroke-linecap:butt;stroke-linejoin:miter;stroke-miterlimit:4;stroke-dasharray:none;stroke-dashoffset:0;stroke-opacity:1;color-rendering:auto;image-rendering:auto;shape-rendering:auto;text-rendering:auto;enable-background:accumulate"
       d="m 44.3429,1024.3622 -8.2286,0 -1.9429,2 2.0572,2 8.4571,0 -0.3428,-4"
       id="rect10061-2-6-5-1-2"
       sodipodi:nodetypes="cccccc" />
    <path
       inkscape:connector-curvature="0"
       style="color:#000000;clip-rule:nonzero;display:inline;overflow:visible;visibility:visible;opacity:1;isolation:auto;mix-blend-mode:normal;color-interpolation:sRGB;color-interpolation-filters:linearRGB;solid-color:#000000;solid-opacity:1;fill:#b6b2b6;fill-opacity:1;fill-rule:nonzero;stroke:none;stroke-width:2;stroke-linecap:butt;stroke-linejoin:miter;stroke-miterlimit:4;stroke-dasharray:none;stroke-dashoffset:0;stroke-opacity:1;color-rendering:auto;image-rendering:auto;shape-rendering:auto;text-rendering:auto;enable-background:accumulate"
       d="m 36.1143,1024.3622 -8.2286,0 -2.0571,2 1.9428,2 8.4572,0 -0.1143,-4"
       id="rect10061-2-6-5-8-0-8"
       sodipodi:nodetypes="cccccc" />
    <path
       inkscape:connector-curvature="0"
       style="color:#000000;clip-rule:nonzero;display:inline;overflow:visible;visibility:visible;opacity:1;isolation:auto;mix-blend-mode:normal;color-interpolation:sRGB;color-interpolation-filters:linearRGB;solid-color:#000000;solid-opacity:1;fill:#cac6c9;fill-opacity:1;fill-rule:nonzero;stroke:none;stroke-width:2;stroke-linecap:butt;stroke-linejoin:miter;stroke-miterlimit:4;stroke-dasharray:none;stroke-dashoffset:0;stroke-opacity:1;color-rendering:auto;image-rendering:auto;shape-rendering:auto;text-rendering:auto;enable-background:accumulate"
       d="m 27.8857,1024.3622 -8.2286,0 -2.1714,2 1.8286,2 8.4571,0 0.1143,-4"
       id="rect10061-2-6-5-8-7-4-3"
       sodipodi:nodetypes="cccccc" />
    <path
       inkscape:connector-curvature="0"
       style="color:#000000;clip-rule:nonzero;display:inline;overflow:visible;visibility:visible;opacity:1;isolation:auto;mix-blend-mode:normal;color-interpolation:sRGB;color-interpolation-filters:linearRGB;solid-color:#000000;solid-opacity:1;fill:#dddbdb;fill-opacity:1;fill-rule:nonzero;stroke:none;stroke-width:2;stroke-linecap:butt;stroke-linejoin:miter;stroke-miterlimit:4;stroke-dasharray:none;stroke-dashoffset:0;stroke-opacity:1;color-rendering:auto;image-rendering:auto;shape-rendering:auto;text-rendering:auto;enable-background:accumulate"
       d="m 19.6571,1024.3622 -8.2285,0 -2.2858,2 1.7143,2 8.4572,0 0.3428,-4"
       id="rect10061-2-6-5-8-7-9-8-0"
       sodipodi:nodetypes="cccccc" />
    <path
       inkscape:connector-curvature="0"
       style="color:#000000;clip-rule:nonzero;display:inline;overflow:visible;visibility:visible;opacity:1;isolation:auto;mix-blend-mode:normal;color-interpolation:sRGB;color-interpolation-filters:linearRGB;solid-color:#000000;solid-opacity:1;fill:#e7e5e5;fill-opacity:1;fill-rule:nonzero;stroke:none;stroke-width:2;stroke-linecap:butt;stroke-linejoin:miter;stroke-miterlimit:4;stroke-dasharray:none;stroke-dashoffset:0;stroke-opacity:1;color-rendering:auto;image-rendering:auto;shape-rendering:auto;text-rendering:auto;enable-background:accumulate"
       d="m 11.4286,1024.3622 -8.2286,0 -0.8,4 8.4571,0 0.251,-1.7567 0.3205,-2.2433"
       id="rect10061-2-6-5-8-7-9-6-7-1"
       sodipodi:nodetypes="cccccc" />
    <path
       sodipodi:nodetypes="ccccccc"
       inkscape:connector-curvature="0"
       id="rect10061-3-5"
       d="m 46,1015.3622 -1.79297,5.0605 2.19336,3.9395 14.40039,0 -0.80078,-4 0,-5 z"
       style="color:#000000;clip-rule:nonzero;display:inline;overflow:visible;visibility:visible;opacity:1;isolation:auto;mix-blend-mode:normal;color-interpolation:sRGB;color-interpolation-filters:linearRGB;solid-color:#000000;solid-opacity:1;fill:#ec4040;fill-opacity:1;fill-rule:nonzero;stroke:none;stroke-width:2;stroke-linecap:butt;stroke-linejoin:miter;stroke-miterlimit:4;stroke-dasharray:none;stroke-dashoffset:0;stroke-opacity:1;color-rendering:auto;image-rendering:auto;shape-rendering:auto;text-rendering:auto;enable-background:accumulate" />
    <path
       sodipodi:nodetypes="ccccccc"
       inkscape:connector-curvature="0"
       id="rect10061-3-2"
       d="m 32,1015.3622 -2,5.2129 2,3.7871 14.40039,0 -0.40039,-4 0,-5 z"
       style="color:#000000;clip-rule:nonzero;display:inline;overflow:visible;visibility:visible;opacity:1;isolation:auto;mix-blend-mode:normal;color-interpolation:sRGB;color-interpolation-filters:linearRGB;solid-color:#000000;solid-opacity:1;fill:#60d61a;fill-opacity:1;fill-rule:nonzero;stroke:none;stroke-width:2;stroke-linecap:butt;stroke-linejoin:miter;stroke-miterlimit:4;stroke-dasharray:none;stroke-dashoffset:0;stroke-opacity:1;color-rendering:auto;image-rendering:auto;shape-rendering:auto;text-rendering:auto;enable-background:accumulate" />
    <path
       sodipodi:nodetypes="ccccccc"
       inkscape:connector-curvature="0"
       id="rect10061-3"
       d="m 18,1015.3622 -2.19531,4.9512 1.79492,4.0488 14.40039,0 0,-4 0,-5 z"
       style="color:#000000;clip-rule:nonzero;display:inline;overflow:visible;visibility:visible;opacity:1;isolation:auto;mix-blend-mode:normal;color-interpolation:sRGB;color-interpolation-filters:linearRGB;solid-color:#000000;solid-opacity:1;fill:#37a4f5;fill-opacity:1;fill-rule:nonzero;stroke:none;stroke-width:2;stroke-linecap:butt;stroke-linejoin:miter;stroke-miterlimit:4;stroke-dasharray:none;stroke-dashoffset:0;stroke-opacity:1;color-rendering:auto;image-rendering:auto;shape-rendering:auto;text-rendering:auto;enable-background:accumulate" />
    <path
       sodipodi:nodetypes="ccccccc"
       inkscape:connector-curvature="0"
       id="rect10061"
       d="m 4,1015.3622 0,5 -0.80078,4 14.40039,0 0.40039,-4 0,-5 z"
       style="color:#000000;clip-rule:nonzero;display:inline;overflow:visible;visibility:visible;opacity:1;isolation:auto;mix-blend-mode:normal;color-interpolation:sRGB;color-interpolation-filters:linearRGB;solid-color:#000000;solid-opacity:1;fill:#f1d23b;fill-opacity:1;fill-rule:nonzero;stroke:none;stroke-width:2;stroke-linecap:butt;stroke-linejoin:miter;stroke-miterlimit:4;stroke-dasharray:none;stroke-dashoffset:0;stroke-opacity:1;color-rendering:auto;image-rendering:auto;shape-rendering:auto;text-rendering:auto;enable-background:accumulate" />
    <path
       id="path10456-4-9"
       d="m 0.78515,1036.5321 c -0.32364,2.1348 1.32107,3.8301 3.78711,3.8301 l 54.85547,0 c 2.46605,0 4.11076,-1.6953 3.78711,-3.8301 -0.24423,1.6379 -1.72316,2.8301 -3.78711,2.8301 l -54.85547,0 c -2.06394,0 -3.54288,-1.1922 -3.78711,-2.8301 z"
       style="color:#000000;clip-rule:nonzero;display:inline;overflow:visible;visibility:visible;opacity:1;isolation:auto;mix-blend-mode:normal;color-interpolation:sRGB;color-interpolation-filters:linearRGB;solid-color:#000000;solid-opacity:1;fill:#cac6c9;fill-opacity:1;fill-rule:nonzero;stroke:none;stroke-width:2;stroke-linecap:butt;stroke-linejoin:miter;stroke-miterlimit:4;stroke-dasharray:none;stroke-dashoffset:0;stroke-opacity:1;color-rendering:auto;image-rendering:auto;shape-rendering:auto;text-rendering:auto;enable-background:accumulate"
       inkscape:connector-curvature="0" />
    <path
       inkscape:connector-curvature="0"
       style="color:#000000;clip-rule:nonzero;display:inline;overflow:visible;visibility:visible;opacity:0.1;isolation:auto;mix-blend-mode:normal;color-interpolation:sRGB;color-interpolation-filters:linearRGB;solid-color:#000000;solid-opacity:1;fill:#000000;fill-opacity:1;fill-rule:nonzero;stroke:none;stroke-width:2;stroke-linecap:butt;stroke-linejoin:miter;stroke-miterlimit:4;stroke-dasharray:none;stroke-dashoffset:0;stroke-opacity:1;color-rendering:auto;image-rendering:auto;shape-rendering:auto;text-rendering:auto;enable-background:accumulate"
       d="m 4,1020.3622 c 0,0 56,0 56,0 0,0 3.2,16 3.2,16 0.4432,2.216 -1.2388,4 -3.7714,4 0,0 -54.8572,0 -54.8572,0 -2.5326,0 -4.2146,-1.784 -3.7714,-4 0,0 3.2,-16 3.2,-16 0,0 0,0 0,0"
       id="path10456-4" />
    <rect
       y="1019.3622"
       x="4"
       height="1"
       width="56"
       id="rect13180"
       style="color:#000000;clip-rule:nonzero;display:inline;overflow:visible;visibility:visible;opacity:0.1;isolation:auto;mix-blend-mode:normal;color-interpolation:sRGB;color-interpolation-filters:linearRGB;solid-color:#000000;solid-opacity:1;fill:url(#linearGradient13188);fill-opacity:1;fill-rule:nonzero;stroke:none;stroke-width:2;stroke-linecap:butt;stroke-linejoin:miter;stroke-miterlimit:4;stroke-dasharray:none;stroke-dashoffset:0;stroke-opacity:1;color-rendering:auto;image-rendering:auto;shape-rendering:auto;text-rendering:auto;enable-background:accumulate" />
    <path
       id="rect13180-9"
       d="m 4,1020.3622 -0.19922,1 56.39844,0 -0.19922,-1 -56,0 z"
       style="color:#000000;clip-rule:nonzero;display:inline;overflow:visible;visibility:visible;opacity:0.1;isolation:auto;mix-blend-mode:normal;color-interpolation:sRGB;color-interpolation-filters:linearRGB;solid-color:#000000;solid-opacity:1;fill:url(#linearGradient13188-5);fill-opacity:1;fill-rule:nonzero;stroke:none;stroke-width:2;stroke-linecap:butt;stroke-linejoin:miter;stroke-miterlimit:4;stroke-dasharray:none;stroke-dashoffset:0;stroke-opacity:1;color-rendering:auto;image-rendering:auto;shape-rendering:auto;text-rendering:auto;enable-background:accumulate"
       inkscape:connector-curvature="0" />
    <path
       sodipodi:nodetypes="cccccc"
       inkscape:connector-curvature="0"
       id="rect10061-2-0"
       d="m 4,1012.3622 8,0 2,2 -2,2 -8,0 z"
       style="color:#000000;clip-rule:nonzero;display:inline;overflow:visible;visibility:visible;opacity:1;isolation:auto;mix-blend-mode:normal;color-interpolation:sRGB;color-interpolation-filters:linearRGB;solid-color:#000000;solid-opacity:1;fill:#686067;fill-opacity:1;fill-rule:nonzero;stroke:none;stroke-width:2;stroke-linecap:butt;stroke-linejoin:miter;stroke-miterlimit:4;stroke-dasharray:none;stroke-dashoffset:0;stroke-opacity:1;color-rendering:auto;image-rendering:auto;shape-rendering:auto;text-rendering:auto;enable-background:accumulate" />
    <path
       sodipodi:nodetypes="cccccc"
       inkscape:connector-curvature="0"
       id="rect10061-2-6-4"
       d="m 12,1012.3622 8,0 2,2 -2,2 -8,0 z"
       style="color:#000000;clip-rule:nonzero;display:inline;overflow:visible;visibility:visible;opacity:1;isolation:auto;mix-blend-mode:normal;color-interpolation:sRGB;color-interpolation-filters:linearRGB;solid-color:#000000;solid-opacity:1;fill:#7a747c;fill-opacity:1;fill-rule:nonzero;stroke:none;stroke-width:2;stroke-linecap:butt;stroke-linejoin:miter;stroke-miterlimit:4;stroke-dasharray:none;stroke-dashoffset:0;stroke-opacity:1;color-rendering:auto;image-rendering:auto;shape-rendering:auto;text-rendering:auto;enable-background:accumulate" />
    <path
       sodipodi:nodetypes="cccccc"
       inkscape:connector-curvature="0"
       id="rect10061-2-6-5-1"
       d="m 20,1012.3622 8,0 2,2 -2,2 -8,0 z"
       style="color:#000000;clip-rule:nonzero;display:inline;overflow:visible;visibility:visible;opacity:1;isolation:auto;mix-blend-mode:normal;color-interpolation:sRGB;color-interpolation-filters:linearRGB;solid-color:#000000;solid-opacity:1;fill:#98929a;fill-opacity:1;fill-rule:nonzero;stroke:none;stroke-width:2;stroke-linecap:butt;stroke-linejoin:miter;stroke-miterlimit:4;stroke-dasharray:none;stroke-dashoffset:0;stroke-opacity:1;color-rendering:auto;image-rendering:auto;shape-rendering:auto;text-rendering:auto;enable-background:accumulate" />
    <path
       sodipodi:nodetypes="cccccc"
       inkscape:connector-curvature="0"
       id="rect10061-2-6-5-8-0"
       d="m 28,1012.3622 8,0 2,2 -2,2 -8,0 z"
       style="color:#000000;clip-rule:nonzero;display:inline;overflow:visible;visibility:visible;opacity:1;isolation:auto;mix-blend-mode:normal;color-interpolation:sRGB;color-interpolation-filters:linearRGB;solid-color:#000000;solid-opacity:1;fill:#b6b2b6;fill-opacity:1;fill-rule:nonzero;stroke:none;stroke-width:2;stroke-linecap:butt;stroke-linejoin:miter;stroke-miterlimit:4;stroke-dasharray:none;stroke-dashoffset:0;stroke-opacity:1;color-rendering:auto;image-rendering:auto;shape-rendering:auto;text-rendering:auto;enable-background:accumulate" />
    <path
       sodipodi:nodetypes="cccccc"
       inkscape:connector-curvature="0"
       id="rect10061-2-6-5-8-7-4"
       d="m 36,1012.3622 8,0 2,2 -2,2 -8,0 z"
       style="color:#000000;clip-rule:nonzero;display:inline;overflow:visible;visibility:visible;opacity:1;isolation:auto;mix-blend-mode:normal;color-interpolation:sRGB;color-interpolation-filters:linearRGB;solid-color:#000000;solid-opacity:1;fill:#cac6c9;fill-opacity:1;fill-rule:nonzero;stroke:none;stroke-width:2;stroke-linecap:butt;stroke-linejoin:miter;stroke-miterlimit:4;stroke-dasharray:none;stroke-dashoffset:0;stroke-opacity:1;color-rendering:auto;image-rendering:auto;shape-rendering:auto;text-rendering:auto;enable-background:accumulate" />
    <path
       sodipodi:nodetypes="cccccc"
       inkscape:connector-curvature="0"
       id="rect10061-2-6-5-8-7-9-8"
       d="m 44,1012.3622 8,0 2,2 -2,2 -8,0 z"
       style="color:#000000;clip-rule:nonzero;display:inline;overflow:visible;visibility:visible;opacity:1;isolation:auto;mix-blend-mode:normal;color-interpolation:sRGB;color-interpolation-filters:linearRGB;solid-color:#000000;solid-opacity:1;fill:#dddbdb;fill-opacity:1;fill-rule:nonzero;stroke:none;stroke-width:2;stroke-linecap:butt;stroke-linejoin:miter;stroke-miterlimit:4;stroke-dasharray:none;stroke-dashoffset:0;stroke-opacity:1;color-rendering:auto;image-rendering:auto;shape-rendering:auto;text-rendering:auto;enable-background:accumulate" />
    <path
       id="rect10061-2-6-5-8-7-9-6-7"
       d="m 52,1012.3622 8,0 0,4 -8,0 z"
       style="color:#000000;clip-rule:nonzero;display:inline;overflow:visible;visibility:visible;opacity:1;isolation:auto;mix-blend-mode:normal;color-interpolation:sRGB;color-interpolation-filters:linearRGB;solid-color:#000000;solid-opacity:1;fill:#e7e5e5;fill-opacity:1;fill-rule:nonzero;stroke:none;stroke-width:2;stroke-linecap:butt;stroke-linejoin:miter;stroke-miterlimit:4;stroke-dasharray:none;stroke-dashoffset:0;stroke-opacity:1;color-rendering:auto;image-rendering:auto;shape-rendering:auto;text-rendering:auto;enable-background:accumulate"
       inkscape:connector-curvature="0" />
  </g>
</svg>
