<?xml version="1.0" encoding="UTF-8" standalone="no"?>
<!-- Created with Inkscape (http://www.inkscape.org/) -->

<svg
   xmlns:dc="http://purl.org/dc/elements/1.1/"
   xmlns:cc="http://creativecommons.org/ns#"
   xmlns:rdf="http://www.w3.org/1999/02/22-rdf-syntax-ns#"
   xmlns:svg="http://www.w3.org/2000/svg"
   xmlns="http://www.w3.org/2000/svg"
   xmlns:xlink="http://www.w3.org/1999/xlink"
   xmlns:sodipodi="http://sodipodi.sourceforge.net/DTD/sodipodi-0.dtd"
   xmlns:inkscape="http://www.inkscape.org/namespaces/inkscape"
   width="64"
   height="64"
   viewBox="0 0 64 64.000001"
   id="svg2"
   version="1.1"
   inkscape:version="0.91 r13725"
   sodipodi:docname="preferences-desktop-mouse.svg">
  <defs
     id="defs4">
    <linearGradient
       inkscape:collect="always"
       id="linearGradient4480">
      <stop
         style="stop-color:#b6b2b6;stop-opacity:1"
         offset="0"
         id="stop4482" />
      <stop
         style="stop-color:#e7e5e5;stop-opacity:1"
         offset="1"
         id="stop4484" />
    </linearGradient>
    <linearGradient
       inkscape:collect="always"
       id="linearGradient4472">
      <stop
         style="stop-color:#343031;stop-opacity:1"
         offset="0"
         id="stop4474" />
      <stop
         style="stop-color:#534d52;stop-opacity:1"
         offset="1"
         id="stop4476" />
    </linearGradient>
    <linearGradient
       inkscape:collect="always"
       xlink:href="#linearGradient5464"
       id="linearGradient5470"
       x1="23"
       y1="1059.3622"
       x2="23"
       y2="1016.3622"
       gradientUnits="userSpaceOnUse"
       gradientTransform="translate(0,-988.3622)" />
    <linearGradient
       inkscape:collect="always"
       id="linearGradient5464">
      <stop
         style="stop-color:#4e8133;stop-opacity:1"
         offset="0"
         id="stop5466" />
      <stop
         style="stop-color:#89c369;stop-opacity:1"
         offset="1"
         id="stop5468" />
    </linearGradient>
    <linearGradient
       inkscape:collect="always"
       xlink:href="#linearGradient4472"
       id="linearGradient4478"
       x1="32"
       y1="66"
       x2="32"
       y2="5"
       gradientUnits="userSpaceOnUse" />
    <linearGradient
       inkscape:collect="always"
       xlink:href="#linearGradient4480"
       id="linearGradient4486"
       x1="33"
       y1="1008.3622"
       x2="33"
       y2="1000.3622"
       gradientUnits="userSpaceOnUse" />
    <linearGradient
       inkscape:collect="always"
       xlink:href="#linearGradient5464"
       id="linearGradient4539"
       x1="32"
       y1="1018.3622"
       x2="32"
       y2="1036.3622"
       gradientUnits="userSpaceOnUse"
       gradientTransform="translate(0,-3.4765625e-5)" />
  </defs>
  <sodipodi:namedview
     id="base"
     pagecolor="#ffffff"
     bordercolor="#666666"
     borderopacity="1.0"
     inkscape:pageopacity="0.0"
     inkscape:pageshadow="2"
     inkscape:zoom="1"
     inkscape:cx="41.069178"
     inkscape:cy="41.768881"
     inkscape:document-units="px"
     inkscape:current-layer="layer1"
     showgrid="false"
     units="px"
     inkscape:snap-bbox="true"
     inkscape:bbox-nodes="true"
     inkscape:window-width="1936"
     inkscape:window-height="1511"
     inkscape:window-x="1416"
     inkscape:window-y="110"
     inkscape:window-maximized="0"
     inkscape:snap-global="true"
     inkscape:object-nodes="true"
     inkscape:snap-object-midpoints="true"
     inkscape:snap-center="true"
     inkscape:snap-smooth-nodes="false"
     inkscape:snap-others="false"
     inkscape:snap-bbox-edge-midpoints="false"
     inkscape:snap-nodes="true"
     showguides="false">
    <inkscape:grid
       type="xygrid"
       id="grid4136"
       empspacing="4" />
  </sodipodi:namedview>
  <metadata
     id="metadata7">
    <rdf:RDF>
      <cc:Work
         rdf:about="">
        <dc:format>image/svg+xml</dc:format>
        <dc:type
           rdf:resource="http://purl.org/dc/dcmitype/StillImage" />
        <dc:title />
      </cc:Work>
    </rdf:RDF>
  </metadata>
  <g
     inkscape:label="icon"
     inkscape:groupmode="layer"
     id="layer1"
     transform="translate(0,-988.3622)">
    <path
       style="color:#000000;clip-rule:nonzero;display:inline;overflow:visible;visibility:visible;opacity:1;isolation:auto;mix-blend-mode:normal;color-interpolation:sRGB;color-interpolation-filters:linearRGB;solid-color:#000000;solid-opacity:1;fill:#686067;fill-opacity:1;fill-rule:nonzero;stroke:none;stroke-width:4;stroke-linecap:butt;stroke-linejoin:miter;stroke-miterlimit:4;stroke-dasharray:none;stroke-dashoffset:0;stroke-opacity:1;color-rendering:auto;image-rendering:auto;shape-rendering:auto;text-rendering:auto;enable-background:accumulate"
       d="M 35 0 A 4 4 0 0 0 31 4 L 33 4 A 2 2 0 0 1 35 2 A 2 2 0 0 1 37 4 L 37 16 L 39 16 L 39 4 A 4 4 0 0 0 35 0 z "
       transform="translate(0,988.3622)"
       id="path4281" />
    <path
       style="fill:#343031;fill-rule:evenodd;stroke:none;stroke-width:1px;stroke-linecap:butt;stroke-linejoin:miter;stroke-opacity:1"
       d="m 32,998.3622 -2,-2 1,-4 2,0 1,4 z"
       id="path4156"
       inkscape:connector-curvature="0" />
    <g
       id="g8210" />
    <path
       style="color:#000000;clip-rule:nonzero;display:inline;overflow:visible;visibility:visible;opacity:1;isolation:auto;mix-blend-mode:normal;color-interpolation:sRGB;color-interpolation-filters:linearRGB;solid-color:#000000;solid-opacity:1;fill:url(#linearGradient5470);fill-opacity:1;fill-rule:nonzero;stroke:none;stroke-width:8;stroke-linecap:butt;stroke-linejoin:miter;stroke-miterlimit:4;stroke-dasharray:none;stroke-dashoffset:0;stroke-opacity:1;color-rendering:auto;image-rendering:auto;shape-rendering:auto;text-rendering:auto;enable-background:accumulate"
       d="M 28.095703,4.1914062 C 22.312115,4.7726181 18.478532,6.6331358 16,8.7734375 L 15,20 l 0,26 1,9.246094 C 19,57.830594 24,60 32,60 40,60 45,57.830594 48,55.246094 L 49,46 49,20 48,8.7734375 C 45.521468,6.6331358 41.687885,4.7726181 35.904297,4.1914062 L 34,8 33,8 32,10 31,8 30,8 Z"
       id="rect5294"
       inkscape:connector-curvature="0"
       sodipodi:nodetypes="cccccsccccccccccc"
       transform="translate(0,988.3622)" />
    <path
       style="color:#000000;clip-rule:nonzero;display:inline;overflow:visible;visibility:visible;opacity:1;isolation:auto;mix-blend-mode:normal;color-interpolation:sRGB;color-interpolation-filters:linearRGB;solid-color:#000000;solid-opacity:1;fill:#b5dca0;fill-opacity:1;fill-rule:nonzero;stroke:none;stroke-width:8;stroke-linecap:butt;stroke-linejoin:miter;stroke-miterlimit:4;stroke-dasharray:none;stroke-dashoffset:0;stroke-opacity:1;color-rendering:auto;image-rendering:auto;shape-rendering:auto;text-rendering:auto;enable-background:accumulate"
       d="M 28.095703 4.1914062 C 22.312115 4.7726162 18.478532 6.6331375 16 8.7734375 L 15 20 L 15 21 L 16 9.7734375 C 18.478532 7.6331375 22.312115 5.7726162 28.095703 5.1914062 L 30 9 L 31 9 L 31 8 L 30 8 L 28.095703 4.1914062 z M 35.904297 4.1914062 L 34 8 L 33 8 L 33 9 L 34 9 L 35.904297 5.1914062 C 41.687885 5.7726163 45.521468 7.6331375 48 9.7734375 L 49 21 L 49 20 L 48 8.7734375 C 45.521468 6.6331375 41.687885 4.7726163 35.904297 4.1914062 z "
       transform="translate(0,988.3622)"
       id="rect5294-2" />
    <path
       style="color:#000000;clip-rule:nonzero;display:inline;overflow:visible;visibility:visible;opacity:1;isolation:auto;mix-blend-mode:normal;color-interpolation:sRGB;color-interpolation-filters:linearRGB;solid-color:#000000;solid-opacity:1;fill:#4e8133;fill-opacity:1;fill-rule:nonzero;stroke:none;stroke-width:8;stroke-linecap:butt;stroke-linejoin:miter;stroke-miterlimit:4;stroke-dasharray:none;stroke-dashoffset:0;stroke-opacity:1;color-rendering:auto;image-rendering:auto;shape-rendering:auto;text-rendering:auto;enable-background:accumulate"
       d="m 12,1035.3622 0,1 c 0,3.324 4,12 20,12 16,0 20,-8.676 20,-12 l 0,-1 c 0,3.324 -4,12 -20,12 -16,0 -20,-8.676 -20,-12 z"
       id="rect5294-8"
       inkscape:connector-curvature="0" />
    <path
       style="color:#000000;clip-rule:nonzero;display:inline;overflow:visible;visibility:visible;opacity:1;isolation:auto;mix-blend-mode:normal;color-interpolation:sRGB;color-interpolation-filters:linearRGB;solid-color:#000000;solid-opacity:1;fill:#343031;fill-opacity:1;fill-rule:nonzero;stroke:none;stroke-width:8;stroke-linecap:butt;stroke-linejoin:miter;stroke-miterlimit:4;stroke-dasharray:none;stroke-dashoffset:0;stroke-opacity:1;color-rendering:auto;image-rendering:auto;shape-rendering:auto;text-rendering:auto;enable-background:accumulate"
       d="M 31 8 L 31 10.138672 C 29.273703 10.582364 28 12.13145 28 14 L 28 18 C 28 19.8779 29.285872 21.43449 31.025391 21.869141 C 31.019346 21.913775 31 21.953656 31 22 L 31 27 C 31 27.554 31.446 28 32 28 C 32.554 28 33 27.554 33 27 L 33 22 C 33 21.953656 32.980654 21.913775 32.974609 21.869141 C 34.714128 21.43449 36 19.8779 36 18 L 36 14 C 36 12.13145 34.726297 10.582364 33 10.138672 L 33 8 L 31 8 z "
       transform="translate(0,988.3622)"
       id="rect4160" />
    <rect
       style="color:#000000;clip-rule:nonzero;display:inline;overflow:visible;visibility:visible;opacity:1;isolation:auto;mix-blend-mode:normal;color-interpolation:sRGB;color-interpolation-filters:linearRGB;solid-color:#000000;solid-opacity:1;fill:url(#linearGradient4486);fill-opacity:1;fill-rule:nonzero;stroke:none;stroke-width:8;stroke-linecap:butt;stroke-linejoin:miter;stroke-miterlimit:4;stroke-dasharray:none;stroke-dashoffset:0;stroke-opacity:1;color-rendering:auto;image-rendering:auto;shape-rendering:auto;text-rendering:auto;enable-background:accumulate"
       id="rect4158"
       width="4"
       height="8"
       x="30"
       y="1000.3622"
       ry="2" />
    <path
       style="color:#000000;clip-rule:nonzero;display:inline;overflow:visible;visibility:visible;opacity:1;isolation:auto;mix-blend-mode:normal;color-interpolation:sRGB;color-interpolation-filters:linearRGB;solid-color:#000000;solid-opacity:1;fill:#37a4f5;fill-opacity:1;fill-rule:nonzero;stroke:none;stroke-width:8;stroke-linecap:butt;stroke-linejoin:miter;stroke-miterlimit:4;stroke-dasharray:none;stroke-dashoffset:0;stroke-opacity:1;color-rendering:auto;image-rendering:auto;shape-rendering:auto;text-rendering:auto;enable-background:accumulate"
       d="m 14,1034.1317 0,0.2305 0.0059,0.1543 c -0.01017,-0.1323 -0.0054,-0.2577 -0.0059,-0.3848 z"
       id="path4273" />
    <path
       style="color:#000000;clip-rule:nonzero;display:inline;overflow:visible;visibility:visible;opacity:1;isolation:auto;mix-blend-mode:normal;color-interpolation:sRGB;color-interpolation-filters:linearRGB;solid-color:#000000;solid-opacity:1;fill:#37a4f5;fill-opacity:1;fill-rule:nonzero;stroke:none;stroke-width:8;stroke-linecap:butt;stroke-linejoin:miter;stroke-miterlimit:4;stroke-dasharray:none;stroke-dashoffset:0;stroke-opacity:1;color-rendering:auto;image-rendering:auto;shape-rendering:auto;text-rendering:auto;enable-background:accumulate"
       d="m 50,1034.1317 c -4.59e-4,0.1271 0.0043,0.2525 -0.0059,0.3848 l 0.0059,-0.1543 0,-0.2305 z"
       id="rect5294-9" />
    <rect
       style="color:#000000;clip-rule:nonzero;display:inline;overflow:visible;visibility:visible;opacity:1;isolation:auto;mix-blend-mode:normal;color-interpolation:sRGB;color-interpolation-filters:linearRGB;solid-color:#000000;solid-opacity:1;fill:#89c369;fill-opacity:1;fill-rule:nonzero;stroke:none;stroke-width:4;stroke-linecap:butt;stroke-linejoin:miter;stroke-miterlimit:4;stroke-dasharray:none;stroke-dashoffset:0;stroke-opacity:1;color-rendering:auto;image-rendering:auto;shape-rendering:auto;text-rendering:auto;enable-background:accumulate"
       id="rect4531-5"
       width="8"
       height="10"
       x="28"
       y="-1029.3622"
       ry="4"
       transform="scale(1,-1)" />
    <rect
       style="color:#000000;clip-rule:nonzero;display:inline;overflow:visible;visibility:visible;opacity:1;isolation:auto;mix-blend-mode:normal;color-interpolation:sRGB;color-interpolation-filters:linearRGB;solid-color:#000000;solid-opacity:1;fill:url(#linearGradient4539);fill-opacity:1;fill-rule:nonzero;stroke:none;stroke-width:4;stroke-linecap:butt;stroke-linejoin:miter;stroke-miterlimit:4;stroke-dasharray:none;stroke-dashoffset:0;stroke-opacity:1;color-rendering:auto;image-rendering:auto;shape-rendering:auto;text-rendering:auto;enable-background:accumulate"
       id="rect4531"
       width="8"
       height="10"
       x="28"
       y="1018.3622"
       ry="4" />
    <path
       style="color:#000000;clip-rule:nonzero;display:inline;overflow:visible;visibility:visible;opacity:1;isolation:auto;mix-blend-mode:normal;color-interpolation:sRGB;color-interpolation-filters:linearRGB;solid-color:#000000;solid-opacity:1;fill:url(#linearGradient4478);fill-opacity:1;fill-rule:nonzero;stroke:none;stroke-width:8;stroke-linecap:butt;stroke-linejoin:miter;stroke-miterlimit:4;stroke-dasharray:none;stroke-dashoffset:0;stroke-opacity:1;color-rendering:auto;image-rendering:auto;shape-rendering:auto;text-rendering:auto;enable-background:accumulate"
       d="M 16 8.7734375 C 13.012206 11.353501 12 14.341288 12 16 L 12 48 C 12 49.662 13 52.661594 16 55.246094 L 16 46 C 15.846607 44.0059 18 42 18 40 L 18 26 C 18 24 16 22 16 20 L 16 8.7734375 z M 48 8.7734375 L 48 20 C 48 22 46 24 46 26 L 46 40 C 46 42 48.153393 44.0059 48 46 L 48 55.246094 C 51 52.661594 52 49.662 52 48 L 52 16 C 52 14.341288 50.987794 11.353501 48 8.7734375 z "
       transform="translate(0,988.3622)"
       id="rect5294-6" />
    <path
       style="color:#000000;clip-rule:nonzero;display:inline;overflow:visible;visibility:visible;opacity:1;isolation:auto;mix-blend-mode:normal;color-interpolation:sRGB;color-interpolation-filters:linearRGB;solid-color:#000000;solid-opacity:1;fill:#343031;fill-opacity:1;fill-rule:nonzero;stroke:none;stroke-width:8;stroke-linecap:butt;stroke-linejoin:miter;stroke-miterlimit:4;stroke-dasharray:none;stroke-dashoffset:0;stroke-opacity:1;color-rendering:auto;image-rendering:auto;shape-rendering:auto;text-rendering:auto;enable-background:accumulate"
       d="m 12,47 0,1 c 0,1.662 1,4.661594 4,7.246094 l 0,-1 C 13,51.661594 12,48.662 12,47 Z m 40,0 c 0,1.662 -1,4.661594 -4,7.246094 l 0,1 C 51,52.661594 52,49.662 52,48 Z"
       transform="translate(0,988.3622)"
       id="rect5294-6-7"
       inkscape:connector-curvature="0"
       sodipodi:nodetypes="csccccccsc" />
    <path
       style="color:#000000;clip-rule:nonzero;display:inline;overflow:visible;visibility:visible;opacity:1;isolation:auto;mix-blend-mode:normal;color-interpolation:sRGB;color-interpolation-filters:linearRGB;solid-color:#000000;solid-opacity:1;fill:#dddbdb;fill-opacity:1;fill-rule:nonzero;stroke:none;stroke-width:4;stroke-linecap:butt;stroke-linejoin:miter;stroke-miterlimit:4;stroke-dasharray:none;stroke-dashoffset:0;stroke-opacity:1;color-rendering:auto;image-rendering:auto;shape-rendering:auto;text-rendering:auto;enable-background:accumulate"
       d="m 32,1020.3622 c -1.108,0 -2,0.892 -2,2 l 4,0 c 0,-1.108 -0.892,-2 -2,-2 z m -2,4 c 0,1.108 0.892,2 2,2 1.108,0 2,-0.892 2,-2 l -4,0 z"
       id="rect4524"
       inkscape:connector-curvature="0" />
    <path
       style="color:#000000;clip-rule:nonzero;display:inline;overflow:visible;visibility:visible;opacity:1;isolation:auto;mix-blend-mode:normal;color-interpolation:sRGB;color-interpolation-filters:linearRGB;solid-color:#000000;solid-opacity:1;fill:#98929a;fill-opacity:1;fill-rule:nonzero;stroke:none;stroke-width:8;stroke-linecap:butt;stroke-linejoin:miter;stroke-miterlimit:4;stroke-dasharray:none;stroke-dashoffset:0;stroke-opacity:1;color-rendering:auto;image-rendering:auto;shape-rendering:auto;text-rendering:auto;enable-background:accumulate"
       d="M 30 17 L 30 18 C 30 19.108 30.892 20 32 20 C 33.108 20 34 19.108 34 18 L 34 17 C 34 18.108 33.108 19 32 19 C 30.892 19 30 18.108 30 17 z "
       transform="translate(0,988.3622)"
       id="rect4158-2" />
    <path
       style="color:#000000;clip-rule:nonzero;display:inline;overflow:visible;visibility:visible;opacity:1;isolation:auto;mix-blend-mode:normal;color-interpolation:sRGB;color-interpolation-filters:linearRGB;solid-color:#000000;solid-opacity:1;fill:#98929a;fill-opacity:1;fill-rule:nonzero;stroke:none;stroke-width:4;stroke-linecap:butt;stroke-linejoin:miter;stroke-miterlimit:4;stroke-dasharray:none;stroke-dashoffset:0;stroke-opacity:1;color-rendering:auto;image-rendering:auto;shape-rendering:auto;text-rendering:auto;enable-background:accumulate"
       d="M 13 16 C 12.446 16 12 16.446 12 17 L 12 19 C 12 19.554 12.446 20 13 20 L 14 20 L 14 19 L 14 17 L 14 16 L 13 16 z "
       transform="translate(0,988.3622)"
       id="rect4612" />
    <path
       inkscape:connector-curvature="0"
       style="color:#000000;clip-rule:nonzero;display:inline;overflow:visible;visibility:visible;opacity:1;isolation:auto;mix-blend-mode:normal;color-interpolation:sRGB;color-interpolation-filters:linearRGB;solid-color:#000000;solid-opacity:1;fill:#98929a;fill-opacity:1;fill-rule:nonzero;stroke:none;stroke-width:4;stroke-linecap:butt;stroke-linejoin:miter;stroke-miterlimit:4;stroke-dasharray:none;stroke-dashoffset:0;stroke-opacity:1;color-rendering:auto;image-rendering:auto;shape-rendering:auto;text-rendering:auto;enable-background:accumulate"
       d="m 13,1010.3622 c -0.554,0 -1,0.446 -1,1 l 0,2 c 0,0.554 0.446,1 1,1 l 1,0 0,-1 0,-2 0,-1 -1,0 z"
       id="rect4612-4" />
  </g>
</svg>
