<?xml version="1.0" encoding="UTF-8" standalone="no"?>
<!-- Created with Inkscape (http://www.inkscape.org/) -->

<svg
   xmlns:dc="http://purl.org/dc/elements/1.1/"
   xmlns:cc="http://creativecommons.org/ns#"
   xmlns:rdf="http://www.w3.org/1999/02/22-rdf-syntax-ns#"
   xmlns:svg="http://www.w3.org/2000/svg"
   xmlns="http://www.w3.org/2000/svg"
   xmlns:xlink="http://www.w3.org/1999/xlink"
   xmlns:sodipodi="http://sodipodi.sourceforge.net/DTD/sodipodi-0.dtd"
   xmlns:inkscape="http://www.inkscape.org/namespaces/inkscape"
   width="64"
   height="64"
   viewBox="0 0 64 64.000001"
   id="svg2"
   version="1.1"
   inkscape:version="0.91 r13725"
   sodipodi:docname="preferences-desktop-keyboard.svg">
  <defs
     id="defs4">
    <linearGradient
       inkscape:collect="always"
       xlink:href="#linearGradient13677"
       id="linearGradient13683"
       x1="26"
       y1="1036.3622"
       x2="26"
       y2="1004.3622"
       gradientUnits="userSpaceOnUse" />
    <linearGradient
       inkscape:collect="always"
       id="linearGradient13677">
      <stop
         style="stop-color:#b6b2b6;stop-opacity:1"
         offset="0"
         id="stop13679" />
      <stop
         style="stop-color:#dddbdb;stop-opacity:1"
         offset="1"
         id="stop13681" />
    </linearGradient>
    <linearGradient
       inkscape:collect="always"
       xlink:href="#linearGradient13696"
       id="linearGradient13702"
       x1="29"
       y1="55"
       x2="29"
       y2="22"
       gradientUnits="userSpaceOnUse" />
    <linearGradient
       inkscape:collect="always"
       id="linearGradient13696">
      <stop
         style="stop-color:#343031;stop-opacity:1"
         offset="0"
         id="stop13698" />
      <stop
         style="stop-color:#534d52;stop-opacity:1"
         offset="1"
         id="stop13700" />
    </linearGradient>
  </defs>
  <sodipodi:namedview
     id="base"
     pagecolor="#ffffff"
     bordercolor="#666666"
     borderopacity="1.0"
     inkscape:pageopacity="0.0"
     inkscape:pageshadow="2"
     inkscape:zoom="8"
     inkscape:cx="12.951832"
     inkscape:cy="40.177216"
     inkscape:document-units="px"
     inkscape:current-layer="layer1"
     showgrid="false"
     units="px"
     inkscape:snap-bbox="true"
     inkscape:bbox-nodes="true"
     inkscape:window-width="1936"
     inkscape:window-height="1511"
     inkscape:window-x="1416"
     inkscape:window-y="110"
     inkscape:window-maximized="0"
     inkscape:snap-global="true"
     inkscape:object-nodes="true"
     inkscape:snap-object-midpoints="true"
     inkscape:snap-center="true"
     inkscape:snap-smooth-nodes="false"
     inkscape:snap-others="false"
     inkscape:snap-bbox-edge-midpoints="false"
     inkscape:snap-nodes="true"
     showguides="false">
    <inkscape:grid
       type="xygrid"
       id="grid4136"
       empspacing="4" />
  </sodipodi:namedview>
  <metadata
     id="metadata7">
    <rdf:RDF>
      <cc:Work
         rdf:about="">
        <dc:format>image/svg+xml</dc:format>
        <dc:type
           rdf:resource="http://purl.org/dc/dcmitype/StillImage" />
        <dc:title />
      </cc:Work>
    </rdf:RDF>
  </metadata>
  <g
     inkscape:label="icon"
     inkscape:groupmode="layer"
     id="layer1"
     transform="translate(0,-988.3622)">
    <g
       id="g8210" />
    <g
       id="g13729">
      <path
         id="path4281"
         d="m 35,998.3622 a 4,4 0 0 0 -4,4 l 2,0 a 2,2 0 0 1 2,-2 2,2 0 0 1 2,2 l 0,12 2,0 0,-12 a 4,4 0 0 0 -4,-4 z"
         style="color:#000000;clip-rule:nonzero;display:inline;overflow:visible;visibility:visible;opacity:1;isolation:auto;mix-blend-mode:normal;color-interpolation:sRGB;color-interpolation-filters:linearRGB;solid-color:#000000;solid-opacity:1;fill:#686067;fill-opacity:1;fill-rule:nonzero;stroke:none;stroke-width:4;stroke-linecap:butt;stroke-linejoin:miter;stroke-miterlimit:4;stroke-dasharray:none;stroke-dashoffset:0;stroke-opacity:1;color-rendering:auto;image-rendering:auto;shape-rendering:auto;text-rendering:auto;enable-background:accumulate"
         inkscape:connector-curvature="0" />
      <path
         inkscape:connector-curvature="0"
         id="path4156"
         d="m 32,1008.3622 -2,-2 1,-4 2,0 1,4 z"
         style="fill:#343031;fill-rule:evenodd;stroke:none;stroke-width:1px;stroke-linecap:butt;stroke-linejoin:miter;stroke-opacity:1" />
      <rect
         ry="4.0000172"
         y="1004.3622"
         x="2"
         height="32.000019"
         width="60"
         id="rect13399"
         style="color:#000000;clip-rule:nonzero;display:inline;overflow:visible;visibility:visible;opacity:1;isolation:auto;mix-blend-mode:normal;color-interpolation:sRGB;color-interpolation-filters:linearRGB;solid-color:#000000;solid-opacity:1;fill:url(#linearGradient13683);fill-opacity:1;fill-rule:nonzero;stroke:none;stroke-width:4;stroke-linecap:butt;stroke-linejoin:miter;stroke-miterlimit:4;stroke-dasharray:none;stroke-dashoffset:0;stroke-opacity:1;color-rendering:auto;image-rendering:auto;shape-rendering:auto;text-rendering:auto;enable-background:accumulate" />
      <path
         inkscape:connector-curvature="0"
         id="rect13431"
         transform="translate(0,988.3622)"
         d="m 6,22 0,6 6,0 0,-6 -6,0 z m 8,0 0,6 6,0 0,-6 -6,0 z m 8,0 0,6 6,0 0,-6 -6,0 z m 8,0 0,6 6,0 0,-6 -6,0 z m 8,0 0,6 6,0 0,-6 -6,0 z m 8,0 0,6 12,0 0,-6 -12,0 z m -40,8 0,6 10,0 0,-6 -10,0 z m 12,0 0,6 6,0 0,-6 -6,0 z m 8,0 0,6 6,0 0,-6 -6,0 z m 8,0 0,6 6,0 0,-6 -6,0 z m 8,0 0,6 6,0 0,-6 -6,0 z m 8,0 0,6 8,0 0,-6 -8,0 z m -44,8 0,6 6,0 0,-6 -6,0 z m 8,0 0,6 6,0 0,-6 -6,0 z m 8,0 0,6 22,0 0,-6 -22,0 z m 28,0 0,2 -4,0 0,4 12,0 0,-4 -4,0 0,-2 -4,0 z"
         style="color:#000000;clip-rule:nonzero;display:inline;overflow:visible;visibility:visible;opacity:1;isolation:auto;mix-blend-mode:normal;color-interpolation:sRGB;color-interpolation-filters:linearRGB;solid-color:#000000;solid-opacity:1;fill:url(#linearGradient13702);fill-opacity:1;fill-rule:nonzero;stroke:none;stroke-width:4;stroke-linecap:butt;stroke-linejoin:miter;stroke-miterlimit:4;stroke-dasharray:none;stroke-dashoffset:0;stroke-opacity:1;color-rendering:auto;image-rendering:auto;shape-rendering:auto;text-rendering:auto;enable-background:accumulate" />
      <circle
         r="1"
         cy="1007.3622"
         cx="57"
         id="path13592"
         style="color:#000000;clip-rule:nonzero;display:inline;overflow:visible;visibility:visible;opacity:1;isolation:auto;mix-blend-mode:normal;color-interpolation:sRGB;color-interpolation-filters:linearRGB;solid-color:#000000;solid-opacity:1;fill:#6ca749;fill-opacity:1;fill-rule:nonzero;stroke:none;stroke-width:4;stroke-linecap:butt;stroke-linejoin:miter;stroke-miterlimit:4;stroke-dasharray:none;stroke-dashoffset:0;stroke-opacity:1;color-rendering:auto;image-rendering:auto;shape-rendering:auto;text-rendering:auto;enable-background:accumulate" />
      <circle
         r="1"
         cy="1007.3622"
         cx="53"
         id="path13592-2"
         style="color:#000000;clip-rule:nonzero;display:inline;overflow:visible;visibility:visible;opacity:1;isolation:auto;mix-blend-mode:normal;color-interpolation:sRGB;color-interpolation-filters:linearRGB;solid-color:#000000;solid-opacity:1;fill:#6ca749;fill-opacity:1;fill-rule:nonzero;stroke:none;stroke-width:4;stroke-linecap:butt;stroke-linejoin:miter;stroke-miterlimit:4;stroke-dasharray:none;stroke-dashoffset:0;stroke-opacity:1;color-rendering:auto;image-rendering:auto;shape-rendering:auto;text-rendering:auto;enable-background:accumulate" />
      <circle
         r="1"
         cy="1007.3622"
         cx="49"
         id="path13592-2-0"
         style="color:#000000;clip-rule:nonzero;display:inline;overflow:visible;visibility:visible;opacity:1;isolation:auto;mix-blend-mode:normal;color-interpolation:sRGB;color-interpolation-filters:linearRGB;solid-color:#000000;solid-opacity:1;fill:#6ca749;fill-opacity:1;fill-rule:nonzero;stroke:none;stroke-width:4;stroke-linecap:butt;stroke-linejoin:miter;stroke-miterlimit:4;stroke-dasharray:none;stroke-dashoffset:0;stroke-opacity:1;color-rendering:auto;image-rendering:auto;shape-rendering:auto;text-rendering:auto;enable-background:accumulate" />
      <path
         inkscape:connector-curvature="0"
         id="rect13431-7"
         transform="translate(0,988.3622)"
         d="m 6,27 0,1 6,0 0,-1 -6,0 z m 8,0 0,1 6,0 0,-1 -6,0 z m 8,0 0,1 6,0 0,-1 -6,0 z m 8,0 0,1 6,0 0,-1 -6,0 z m 8,0 0,1 6,0 0,-1 -6,0 z m 8,0 0,1 12,0 0,-1 -12,0 z m -40,8 0,1 10,0 0,-1 -10,0 z m 12,0 0,1 6,0 0,-1 -6,0 z m 8,0 0,1 6,0 0,-1 -6,0 z m 8,0 0,1 6,0 0,-1 -6,0 z m 8,0 0,1 6,0 0,-1 -6,0 z m 8,0 0,1 8,0 0,-1 -8,0 z m -44,8 0,1 6,0 0,-1 -6,0 z m 8,0 0,1 6,0 0,-1 -6,0 z m 8,0 0,1 22,0 0,-1 -22,0 z m 24,0 0,1 12,0 0,-1 -12,0 z"
         style="color:#000000;clip-rule:nonzero;display:inline;overflow:visible;visibility:visible;opacity:1;isolation:auto;mix-blend-mode:normal;color-interpolation:sRGB;color-interpolation-filters:linearRGB;solid-color:#000000;solid-opacity:1;fill:#343031;fill-opacity:1;fill-rule:nonzero;stroke:none;stroke-width:4;stroke-linecap:butt;stroke-linejoin:miter;stroke-miterlimit:4;stroke-dasharray:none;stroke-dashoffset:0;stroke-opacity:1;color-rendering:auto;image-rendering:auto;shape-rendering:auto;text-rendering:auto;enable-background:accumulate" />
      <path
         inkscape:connector-curvature="0"
         id="rect13399-1"
         transform="translate(0,988.3622)"
         d="m 2,43 0,1 c 0,2.21601 1.7839905,4 4,4 l 52,0 c 2.21601,0 4,-1.78399 4,-4 l 0,-1 c 0,2.21601 -1.78399,4 -4,4 L 6,47 C 3.7839905,47 2,45.21601 2,43 Z"
         style="color:#000000;clip-rule:nonzero;display:inline;overflow:visible;visibility:visible;opacity:1;isolation:auto;mix-blend-mode:normal;color-interpolation:sRGB;color-interpolation-filters:linearRGB;solid-color:#000000;solid-opacity:1;fill:#98929a;fill-opacity:1;fill-rule:nonzero;stroke:none;stroke-width:4;stroke-linecap:butt;stroke-linejoin:miter;stroke-miterlimit:4;stroke-dasharray:none;stroke-dashoffset:0;stroke-opacity:1;color-rendering:auto;image-rendering:auto;shape-rendering:auto;text-rendering:auto;enable-background:accumulate" />
    </g>
  </g>
</svg>
