<?xml version="1.0" encoding="UTF-8" standalone="no"?>
<!-- Created with Inkscape (http://www.inkscape.org/) -->

<svg
   xmlns:dc="http://purl.org/dc/elements/1.1/"
   xmlns:cc="http://creativecommons.org/ns#"
   xmlns:rdf="http://www.w3.org/1999/02/22-rdf-syntax-ns#"
   xmlns:svg="http://www.w3.org/2000/svg"
   xmlns="http://www.w3.org/2000/svg"
   xmlns:xlink="http://www.w3.org/1999/xlink"
   xmlns:sodipodi="http://sodipodi.sourceforge.net/DTD/sodipodi-0.dtd"
   xmlns:inkscape="http://www.inkscape.org/namespaces/inkscape"
   id="svg2"
   height="64"
   viewBox="0 0 64 64.000001"
   width="64"
   version="1.1"
   inkscape:version="0.91 r13725"
   sodipodi:docname="preferences-desktop-gaming.svg">
  <sodipodi:namedview
     pagecolor="#ffffff"
     bordercolor="#666666"
     borderopacity="1"
     objecttolerance="10"
     gridtolerance="10"
     guidetolerance="10"
     inkscape:pageopacity="0"
     inkscape:pageshadow="2"
     inkscape:window-width="2415"
     inkscape:window-height="1361"
     id="namedview17"
     showgrid="false"
     inkscape:zoom="1.84375"
     inkscape:cx="-14.571358"
     inkscape:cy="-1.094134"
     inkscape:window-x="0"
     inkscape:window-y="0"
     inkscape:window-maximized="0"
     inkscape:current-layer="svg2" />
  <defs
     id="defs4">
    <linearGradient
       inkscape:collect="always"
       xlink:href="#linearGradient14376"
       id="linearGradient14943"
       x1="4.0000172"
       y1="1020.3622"
       x2="59.999985"
       y2="1020.3622"
       gradientUnits="userSpaceOnUse"
       gradientTransform="translate(-1052.3622,-988.36218)" />
    <linearGradient
       inkscape:collect="always"
       id="linearGradient14376">
      <stop
         style="stop-color:#b6b2b6;stop-opacity:1;"
         offset="0"
         id="stop14378" />
      <stop
         style="stop-color:#e7e5e5;stop-opacity:1"
         offset="1"
         id="stop14380" />
    </linearGradient>
    <linearGradient
       inkscape:collect="always"
       xlink:href="#linearGradient14929"
       id="linearGradient14935"
       x1="8"
       y1="32"
       x2="56"
       y2="32"
       gradientUnits="userSpaceOnUse"
       gradientTransform="matrix(0,1,-1,0,64,988.3622)" />
    <linearGradient
       inkscape:collect="always"
       id="linearGradient14929">
      <stop
         style="stop-color:#7a747c;stop-opacity:1"
         offset="0"
         id="stop14931" />
      <stop
         style="stop-color:#686067;stop-opacity:1"
         offset="1"
         id="stop14933" />
    </linearGradient>
    <linearGradient
       inkscape:collect="always"
       xlink:href="#linearGradient14913"
       id="linearGradient14919"
       x1="19.000019"
       y1="1024.3622"
       x2="45.000019"
       y2="1024.3622"
       gradientUnits="userSpaceOnUse"
       gradientTransform="translate(988.36218,-1052.3622)" />
    <linearGradient
       inkscape:collect="always"
       id="linearGradient14913">
      <stop
         style="stop-color:#534d52;stop-opacity:1"
         offset="0"
         id="stop14915" />
      <stop
         style="stop-color:#686067;stop-opacity:1"
         offset="1"
         id="stop14917" />
    </linearGradient>
  </defs>
  <metadata
     id="metadata7">
    <rdf:RDF>
      <cc:Work
         rdf:about="">
        <dc:format>image/svg+xml</dc:format>
        <dc:type
           rdf:resource="http://purl.org/dc/dcmitype/StillImage" />
        <dc:title />
      </cc:Work>
    </rdf:RDF>
  </metadata>
  <g
     id="g15053"
     transform="translate(0,-988.3622)">
    <circle
       transform="matrix(0,-1,1,0,0,0)"
       r="27.999983"
       cy="32"
       cx="-1020.3622"
       id="path14881-7-9"
       style="color:#000000;clip-rule:nonzero;display:inline;overflow:visible;visibility:visible;opacity:1;isolation:auto;mix-blend-mode:normal;color-interpolation:sRGB;color-interpolation-filters:linearRGB;solid-color:#000000;solid-opacity:1;fill:url(#linearGradient14943);fill-opacity:1;fill-rule:nonzero;stroke:none;stroke-width:4;stroke-linecap:butt;stroke-linejoin:miter;stroke-miterlimit:4;stroke-dasharray:none;stroke-dashoffset:0;stroke-opacity:1;color-rendering:auto;image-rendering:auto;shape-rendering:auto;text-rendering:auto;enable-background:accumulate" />
    <circle
       r="25.999983"
       cy="1020.3622"
       cx="32"
       id="path14881-7"
       style="color:#000000;clip-rule:nonzero;display:inline;overflow:visible;visibility:visible;opacity:1;isolation:auto;mix-blend-mode:normal;color-interpolation:sRGB;color-interpolation-filters:linearRGB;solid-color:#000000;solid-opacity:1;fill:#343031;fill-opacity:1;fill-rule:nonzero;stroke:none;stroke-width:4;stroke-linecap:butt;stroke-linejoin:miter;stroke-miterlimit:4;stroke-dasharray:none;stroke-dashoffset:0;stroke-opacity:1;color-rendering:auto;image-rendering:auto;shape-rendering:auto;text-rendering:auto;enable-background:accumulate" />
    <circle
       transform="matrix(0,1,-1,0,0,0)"
       r="24"
       cy="-32"
       cx="1020.3622"
       id="path14881"
       style="color:#000000;clip-rule:nonzero;display:inline;overflow:visible;visibility:visible;opacity:1;isolation:auto;mix-blend-mode:normal;color-interpolation:sRGB;color-interpolation-filters:linearRGB;solid-color:#000000;solid-opacity:1;fill:#534d52;fill-opacity:1;fill-rule:nonzero;stroke:none;stroke-width:4;stroke-linecap:butt;stroke-linejoin:miter;stroke-miterlimit:4;stroke-dasharray:none;stroke-dashoffset:0;stroke-opacity:1;color-rendering:auto;image-rendering:auto;shape-rendering:auto;text-rendering:auto;enable-background:accumulate" />
    <path
       inkscape:connector-curvature="0"
       id="path14827"
       d="M 56,1020.3622 A 24,24 0 0 0 55.056641,1013.7763 22,22 0 0 1 38.587891,997.29189 24,24 0 0 0 32,996.3622 24,24 0 0 0 25.414062,997.30556 22,22 0 0 1 8.929688,1013.7743 24,24 0 0 0 8,1020.3622 a 24,24 0 0 0 0.943359,6.5859 22,22 0 0 1 16.46875,16.4844 24,24 0 0 0 6.587891,0.9297 24,24 0 0 0 6.582031,-0.9277 22,22 0 0 1 16.47461,-16.4825 A 24,24 0 0 0 56,1020.3622 Z"
       style="color:#000000;clip-rule:nonzero;display:inline;overflow:visible;visibility:visible;opacity:1;isolation:auto;mix-blend-mode:normal;color-interpolation:sRGB;color-interpolation-filters:linearRGB;solid-color:#000000;solid-opacity:1;fill:url(#linearGradient14935);fill-opacity:1;fill-rule:nonzero;stroke:none;stroke-width:4;stroke-linecap:butt;stroke-linejoin:miter;stroke-miterlimit:4;stroke-dasharray:none;stroke-dashoffset:0;stroke-opacity:1;color-rendering:auto;image-rendering:auto;shape-rendering:auto;text-rendering:auto;enable-background:accumulate" />
    <circle
       transform="matrix(0,1,-1,0,0,0)"
       r="13"
       cy="-32"
       cx="1020.3622"
       id="path14823"
       style="color:#000000;clip-rule:nonzero;display:inline;overflow:visible;visibility:visible;opacity:1;isolation:auto;mix-blend-mode:normal;color-interpolation:sRGB;color-interpolation-filters:linearRGB;solid-color:#000000;solid-opacity:1;fill:url(#linearGradient14919);fill-opacity:1;fill-rule:nonzero;stroke:none;stroke-width:4;stroke-linecap:butt;stroke-linejoin:miter;stroke-miterlimit:4;stroke-dasharray:none;stroke-dashoffset:0;stroke-opacity:1;color-rendering:auto;image-rendering:auto;shape-rendering:auto;text-rendering:auto;enable-background:accumulate" />
    <path
       id="path14881-7-9-7"
       transform="translate(0,988.3622)"
       d="M 59.978516,31.414062 A 27.999983,27.999983 0 0 1 32,59 27.999983,27.999983 0 0 1 4.0214844,31.585938 27.999983,27.999983 0 0 0 4,32 27.999983,27.999983 0 0 0 32,60 27.999983,27.999983 0 0 0 60,32 27.999983,27.999983 0 0 0 59.978516,31.414062 Z"
       style="color:#000000;clip-rule:nonzero;display:inline;overflow:visible;visibility:visible;opacity:1;isolation:auto;mix-blend-mode:normal;color-interpolation:sRGB;color-interpolation-filters:linearRGB;solid-color:#000000;solid-opacity:1;fill:#98929a;fill-opacity:1;fill-rule:nonzero;stroke:none;stroke-width:4;stroke-linecap:butt;stroke-linejoin:miter;stroke-miterlimit:4;stroke-dasharray:none;stroke-dashoffset:0;stroke-opacity:1;color-rendering:auto;image-rendering:auto;shape-rendering:auto;text-rendering:auto;enable-background:accumulate"
       inkscape:connector-curvature="0" />
    <path
       id="path14827-5"
       transform="translate(0,988.3622)"
       d="M 32,8 A 24,24 0 0 0 25.414062,8.9433594 22,22 0 0 1 8.9296875,25.412109 24,24 0 0 0 8,32 24,24 0 0 0 8.0234375,32.433594 24,24 0 0 1 8.9296875,26.412109 22,22 0 0 0 25.414062,9.9433594 24,24 0 0 1 32,9 24,24 0 0 1 38.587891,9.9296875 22,22 0 0 0 55.056641,26.414062 24,24 0 0 1 55.976562,32.554688 24,24 0 0 0 56,32 24,24 0 0 0 55.056641,25.414062 22,22 0 0 1 38.587891,8.9296875 24,24 0 0 0 32,8 Z"
       style="color:#000000;clip-rule:nonzero;display:inline;overflow:visible;visibility:visible;opacity:1;isolation:auto;mix-blend-mode:normal;color-interpolation:sRGB;color-interpolation-filters:linearRGB;solid-color:#000000;solid-opacity:1;fill:#98929a;fill-opacity:1;fill-rule:nonzero;stroke:none;stroke-width:4;stroke-linecap:butt;stroke-linejoin:miter;stroke-miterlimit:4;stroke-dasharray:none;stroke-dashoffset:0;stroke-opacity:1;color-rendering:auto;image-rendering:auto;shape-rendering:auto;text-rendering:auto;enable-background:accumulate"
       inkscape:connector-curvature="0" />
    <path
       inkscape:connector-curvature="0"
       id="path14823-0"
       d="M 44.978516,1020.7821 A 13,13 0 0 1 32,1033.3622 13,13 0 0 1 19.021484,1020.9403 13,13 0 0 0 19,1021.3622 a 13,13 0 0 0 13,13 13,13 0 0 0 13,-13 13,13 0 0 0 -0.02148,-0.5801 z"
       style="color:#000000;clip-rule:nonzero;display:inline;overflow:visible;visibility:visible;opacity:1;isolation:auto;mix-blend-mode:normal;color-interpolation:sRGB;color-interpolation-filters:linearRGB;solid-color:#000000;solid-opacity:1;fill:#7a747c;fill-opacity:1;fill-rule:nonzero;stroke:none;stroke-width:4;stroke-linecap:butt;stroke-linejoin:miter;stroke-miterlimit:4;stroke-dasharray:none;stroke-dashoffset:0;stroke-opacity:1;color-rendering:auto;image-rendering:auto;shape-rendering:auto;text-rendering:auto;enable-background:accumulate" />
  </g>
</svg>
