<?xml version="1.0" encoding="UTF-8" standalone="no"?>
<!-- Created with Inkscape (http://www.inkscape.org/) -->

<svg
   xmlns:dc="http://purl.org/dc/elements/1.1/"
   xmlns:cc="http://creativecommons.org/ns#"
   xmlns:rdf="http://www.w3.org/1999/02/22-rdf-syntax-ns#"
   xmlns:svg="http://www.w3.org/2000/svg"
   xmlns="http://www.w3.org/2000/svg"
   xmlns:xlink="http://www.w3.org/1999/xlink"
   xmlns:sodipodi="http://sodipodi.sourceforge.net/DTD/sodipodi-0.dtd"
   xmlns:inkscape="http://www.inkscape.org/namespaces/inkscape"
   width="64"
   height="64"
   viewBox="0 0 64 64.000001"
   id="svg2"
   version="1.1"
   inkscape:version="0.91 r13725"
   sodipodi:docname="preferences-desktop-effects.svg">
  <defs
     id="defs4">
    <linearGradient
       inkscape:collect="always"
       xlink:href="#linearGradient8789"
       id="linearGradient8795"
       x1="28"
       y1="990.11218"
       x2="28"
       y2="1040.3622"
       gradientUnits="userSpaceOnUse"
       gradientTransform="translate(0,-2040.7244)" />
    <linearGradient
       inkscape:collect="always"
       id="linearGradient8789">
      <stop
         style="stop-color:#e4720c;stop-opacity:1;"
         offset="0"
         id="stop8791" />
      <stop
         style="stop-color:#ac0808;stop-opacity:1"
         offset="1"
         id="stop8793" />
    </linearGradient>
  </defs>
  <sodipodi:namedview
     id="base"
     pagecolor="#ffffff"
     bordercolor="#666666"
     borderopacity="1.0"
     inkscape:pageopacity="0.0"
     inkscape:pageshadow="2"
     inkscape:zoom="0.70710678"
     inkscape:cx="-6.7554656"
     inkscape:cy="19.774192"
     inkscape:document-units="px"
     inkscape:current-layer="layer1"
     showgrid="false"
     units="px"
     inkscape:snap-bbox="true"
     inkscape:bbox-nodes="true"
     inkscape:window-width="1366"
     inkscape:window-height="697"
     inkscape:window-x="0"
     inkscape:window-y="0"
     inkscape:window-maximized="1"
     inkscape:snap-global="true"
     inkscape:object-nodes="true"
     inkscape:snap-object-midpoints="true"
     inkscape:snap-center="true"
     inkscape:snap-smooth-nodes="false"
     inkscape:snap-others="false"
     inkscape:snap-bbox-edge-midpoints="false"
     inkscape:snap-nodes="true">
    <inkscape:grid
       type="xygrid"
       id="grid4136"
       empspacing="4" />
  </sodipodi:namedview>
  <metadata
     id="metadata7">
    <rdf:RDF>
      <cc:Work
         rdf:about="">
        <dc:format>image/svg+xml</dc:format>
        <dc:type
           rdf:resource="http://purl.org/dc/dcmitype/StillImage" />
        <dc:title />
      </cc:Work>
    </rdf:RDF>
  </metadata>
  <g
     inkscape:label="icon"
     inkscape:groupmode="layer"
     id="layer1"
     transform="translate(0,-988.3622)">
    <g
       id="g8857"
       transform="translate(0,-3.0000001e-6)">
      <rect
         transform="scale(1,-1)"
         ry="4.00002"
         y="-1040.3622"
         x="4"
         height="40"
         width="56"
         id="rect8636"
         style="opacity:1;fill:url(#linearGradient8795);fill-opacity:1;stroke:none;stroke-width:4;stroke-miterlimit:4;stroke-dasharray:none;stroke-opacity:1" />
      <path
         sodipodi:nodetypes="sssssssss"
         inkscape:connector-curvature="0"
         id="rect8699-5-6"
         d="m 46.000017,1008.3622 7.999966,-2 c 1.074919,-0.2687 2.000017,0.892 2.000017,2 l 0,20 c 0,1.108 -0.925098,2.2687 -2.000017,2 l -7.999966,-2 C 44.925098,1028.0935 44,1027.4702 44,1026.3622 l 0,-16 c 0,-1.108 0.925098,-1.7313 2.000017,-2 z"
         style="opacity:1;fill:#dbb715;fill-opacity:1;stroke:none;stroke-width:4;stroke-miterlimit:4;stroke-dasharray:none;stroke-opacity:1" />
      <path
         transform="translate(0,988.3622)"
         sodipodi:nodetypes="ssscs"
         inkscape:connector-curvature="0"
         id="rect8857-4-3-9-7-9"
         d="m 4,48 c 0,2.216011 1.7839889,4 4,4 l 48,0 c 2.216011,0 4,-1.783989 4,-4 z"
         style="color:#000000;clip-rule:nonzero;display:inline;overflow:visible;visibility:visible;opacity:1;isolation:auto;mix-blend-mode:normal;color-interpolation:sRGB;color-interpolation-filters:linearRGB;solid-color:#000000;solid-opacity:1;fill:#e4720c;fill-opacity:1;fill-rule:nonzero;stroke:none;stroke-width:8;stroke-linecap:butt;stroke-linejoin:miter;stroke-miterlimit:4;stroke-dasharray:none;stroke-dashoffset:0;stroke-opacity:1;color-rendering:auto;image-rendering:auto;shape-rendering:auto;text-rendering:auto;enable-background:accumulate" />
      <path
         sodipodi:nodetypes="sssssssss"
         inkscape:connector-curvature="0"
         id="rect8699-5-6-1"
         d="m 17.999983,1008.3622 -7.999966,-2 C 8.925098,1006.0935 8,1007.2542 8,1008.3622 l 0,20 c 0,1.108 0.925098,2.2687 2.000017,2 l 7.999966,-2 c 1.074919,-0.2687 2.000017,-0.892 2.000017,-2 l 0,-16 c 0,-1.108 -0.925098,-1.7313 -2.000017,-2 z"
         style="opacity:1;fill:#dbb715;fill-opacity:1;stroke:none;stroke-width:4;stroke-miterlimit:4;stroke-dasharray:none;stroke-opacity:1" />
      <path
         id="rect8636-5"
         transform="translate(0,988.3622)"
         d="m 4,47 0,1 c 0,2.216011 1.7839889,4 4,4 l 48,0 c 2.216011,0 4,-1.783989 4,-4 l 0,-1 c 0,2.216011 -1.783989,4 -4,4 L 8,51 C 5.7839889,51 4,49.216011 4,47 Z"
         style="opacity:1;fill:#f99133;fill-opacity:1;stroke:none;stroke-width:4;stroke-miterlimit:4;stroke-dasharray:none;stroke-opacity:1"
         inkscape:connector-curvature="0" />
      <path
         id="rect8699-5-6-8"
         transform="translate(0,988.3622)"
         d="m 44,37 0,1 c 0,1.108 0.925081,1.7313 2,2 l 8,2 c 1.074919,0.2687 2,-0.892 2,-2 l 0,-1 c 0,1.108 -0.925081,2.2687 -2,2 l -8,-2 c -1.074919,-0.2687 -2,-0.892 -2,-2 z"
         style="opacity:1;fill:#f1d23b;fill-opacity:1;stroke:none;stroke-width:4;stroke-miterlimit:4;stroke-dasharray:none;stroke-opacity:1"
         inkscape:connector-curvature="0" />
      <path
         id="rect8699-5-6-1-8"
         transform="translate(0,988.3622)"
         d="m 20,37 c 0,1.108 -0.925081,1.7313 -2,2 l -8,2 C 8.925081,41.2687 8,40.108 8,39 l 0,1 c 0,1.108 0.925081,2.2687 2,2 l 8,-2 c 1.074919,-0.2687 2,-0.892 2,-2 l 0,-1 z"
         style="opacity:1;fill:#f1d23b;fill-opacity:1;stroke:none;stroke-width:4;stroke-miterlimit:4;stroke-dasharray:none;stroke-opacity:1"
         inkscape:connector-curvature="0" />
      <path
         sodipodi:nodetypes="sssssssss"
         inkscape:connector-curvature="0"
         id="rect8699-5"
         d="m 40.000017,1008.3622 7.999966,-4 c 0.991033,-0.4955 2.000017,0.892 2.000017,2 l 0,24 c 0,1.108 -1.008984,2.4955 -2.000017,2 l -7.999966,-4 C 39.008984,1027.8667 38,1027.4702 38,1026.3622 l 0,-16 c 0,-1.108 1.008984,-1.5045 2.000017,-2 z"
         style="opacity:1;fill:#f1d23b;fill-opacity:1;stroke:none;stroke-width:4;stroke-miterlimit:4;stroke-dasharray:none;stroke-opacity:1" />
      <path
         sodipodi:nodetypes="sssssssss"
         inkscape:connector-curvature="0"
         id="rect8699-5-1"
         d="m 23.999983,1008.3622 -7.999966,-4 c -0.991033,-0.4955 -2.000017,0.892 -2.000017,2 l 0,24 c 0,1.108 1.008984,2.4955 2.000017,2 l 7.999966,-4 c 0.991033,-0.4955 2.000017,-0.892 2.000017,-2 l 0,-16 c 0,-1.108 -1.008984,-1.5045 -2.000017,-2 z"
         style="opacity:1;fill:#f1d23b;fill-opacity:1;stroke:none;stroke-width:4;stroke-miterlimit:4;stroke-dasharray:none;stroke-opacity:1" />
      <path
         id="rect8699-5-4"
         transform="translate(0,988.3622)"
         d="m 38,37 0,1 c 0,1.108 1.008967,1.5045 2,2 l 8,4 c 0.991033,0.4955 2,-0.892 2,-2 l 0,-1 c 0,1.108 -1.008967,2.4955 -2,2 l -8,-4 c -0.991033,-0.4955 -2,-0.892 -2,-2 z"
         style="opacity:1;fill:#f7e385;fill-opacity:1;stroke:none;stroke-width:4;stroke-miterlimit:4;stroke-dasharray:none;stroke-opacity:1"
         inkscape:connector-curvature="0" />
      <path
         id="rect8699-5-1-1"
         transform="translate(0,988.3622)"
         d="m 26,37 c 0,1.108 -1.008967,1.5045 -2,2 l -8,4 c -0.991033,0.4955 -2,-0.892 -2,-2 l 0,1 c 0,1.108 1.008967,2.4955 2,2 l 8,-4 c 0.991033,-0.4955 2,-0.892 2,-2 l 0,-1 z"
         style="opacity:1;fill:#f7e385;fill-opacity:1;stroke:none;stroke-width:4;stroke-miterlimit:4;stroke-dasharray:none;stroke-opacity:1"
         inkscape:connector-curvature="0" />
      <rect
         ry="2.0000174"
         y="1008.3622"
         x="20"
         height="20"
         width="24"
         id="rect8699"
         style="opacity:1;fill:#fdf9e3;fill-opacity:1;stroke:none;stroke-width:4;stroke-miterlimit:4;stroke-dasharray:none;stroke-opacity:1" />
      <path
         id="rect8699-0"
         transform="translate(0,988.3622)"
         d="m 20,37 0,1 c 0,1.10801 0.89199,2 2,2 l 20,0 c 1.10801,0 2,-0.89199 2,-2 l 0,-1 c 0,1.10801 -0.89199,2 -2,2 l -20,0 c -1.10801,0 -2,-0.89199 -2,-2 z"
         style="opacity:1;fill:#fcfcfc;fill-opacity:1;stroke:none;stroke-width:4;stroke-miterlimit:4;stroke-dasharray:none;stroke-opacity:1"
         inkscape:connector-curvature="0" />
    </g>
  </g>
</svg>
