<?xml version="1.0" encoding="UTF-8" standalone="no"?>
<!-- Created with Inkscape (http://www.inkscape.org/) -->

<svg
   xmlns:dc="http://purl.org/dc/elements/1.1/"
   xmlns:cc="http://creativecommons.org/ns#"
   xmlns:rdf="http://www.w3.org/1999/02/22-rdf-syntax-ns#"
   xmlns:svg="http://www.w3.org/2000/svg"
   xmlns="http://www.w3.org/2000/svg"
   xmlns:xlink="http://www.w3.org/1999/xlink"
   xmlns:sodipodi="http://sodipodi.sourceforge.net/DTD/sodipodi-0.dtd"
   xmlns:inkscape="http://www.inkscape.org/namespaces/inkscape"
   width="64"
   height="64"
   viewBox="0 0 64 64.000001"
   id="svg2"
   version="1.1"
   inkscape:version="0.91 r13725"
   sodipodi:docname="preferences-desktop-color.svg">
  <defs
     id="defs4">
    <linearGradient
       inkscape:collect="always"
       xlink:href="#linearGradient4904"
       id="linearGradient4910"
       x1="128.00002"
       y1="442.36221"
       x2="176.00002"
       y2="442.36221"
       gradientUnits="userSpaceOnUse"
       gradientTransform="matrix(0,1,-1,0,526.3622,868.36218)" />
    <linearGradient
       inkscape:collect="always"
       id="linearGradient4904">
      <stop
         style="stop-color:#dddbdb;stop-opacity:1"
         offset="0"
         id="stop4906" />
      <stop
         style="stop-color:#b6b2b6;stop-opacity:1"
         offset="1"
         id="stop4908" />
    </linearGradient>
    <linearGradient
       inkscape:collect="always"
       xlink:href="#linearGradient4912"
       id="linearGradient4918"
       x1="132.086"
       y1="432.9939"
       x2="175.99989"
       y2="432.9939"
       gradientUnits="userSpaceOnUse"
       gradientTransform="matrix(0,1,-1,0,526.3622,868.36218)" />
    <linearGradient
       inkscape:collect="always"
       id="linearGradient4912">
      <stop
         style="stop-color:#e7e5e5;stop-opacity:1"
         offset="0"
         id="stop4914" />
      <stop
         style="stop-color:#dddbdb;stop-opacity:1"
         offset="1"
         id="stop4916" />
    </linearGradient>
    <linearGradient
       inkscape:collect="always"
       xlink:href="#linearGradient4920"
       id="linearGradient4926"
       x1="145.26381"
       y1="426.40503"
       x2="176.0004"
       y2="426.40503"
       gradientUnits="userSpaceOnUse"
       gradientTransform="matrix(0,1,-1,0,526.3622,868.36218)" />
    <linearGradient
       inkscape:collect="always"
       id="linearGradient4920">
      <stop
         style="stop-color:#f5f4f4;stop-opacity:1"
         offset="0"
         id="stop4922" />
      <stop
         style="stop-color:#e7e5e5;stop-opacity:1"
         offset="1"
         id="stop4924" />
    </linearGradient>
  </defs>
  <sodipodi:namedview
     id="base"
     pagecolor="#ffffff"
     bordercolor="#666666"
     borderopacity="1.0"
     inkscape:pageopacity="0.0"
     inkscape:pageshadow="2"
     inkscape:zoom="8"
     inkscape:cx="4.597146"
     inkscape:cy="36.559393"
     inkscape:document-units="px"
     inkscape:current-layer="layer1"
     showgrid="false"
     units="px"
     inkscape:snap-bbox="true"
     inkscape:bbox-nodes="true"
     inkscape:window-width="3840"
     inkscape:window-height="2045"
     inkscape:window-x="0"
     inkscape:window-y="0"
     inkscape:window-maximized="1"
     inkscape:snap-global="true"
     inkscape:object-nodes="true"
     inkscape:snap-object-midpoints="true"
     inkscape:snap-center="true"
     inkscape:snap-smooth-nodes="false"
     inkscape:snap-others="false"
     inkscape:snap-bbox-edge-midpoints="false"
     inkscape:snap-nodes="true">
    <inkscape:grid
       type="xygrid"
       id="grid4136"
       empspacing="4" />
  </sodipodi:namedview>
  <metadata
     id="metadata7">
    <rdf:RDF>
      <cc:Work
         rdf:about="">
        <dc:format>image/svg+xml</dc:format>
        <dc:type
           rdf:resource="http://purl.org/dc/dcmitype/StillImage" />
        <dc:title></dc:title>
      </cc:Work>
    </rdf:RDF>
  </metadata>
  <g
     inkscape:label="icon"
     inkscape:groupmode="layer"
     id="layer1"
     transform="translate(0,-988.3622)">
    <g
       id="g8210" />
    <g
       id="g5910-0-5"
       transform="matrix(0,1,-1,0,526.3622,868.36218)">
      <g
         transform="matrix(0,-1,1,0,-868.36218,596.3622)"
         id="g5196">
        <path
           inkscape:connector-curvature="0"
           id="rect4176"
           d="m 82,996.3622 c -2.21601,0 -4,1.78399 -4,4 l 2,3 -2,3 0,2 2,3 -2,3 0,2 2,3 -2,3 0,2 2,3 -2,3 0,8 c 0,3.3137 2.68629,6 6,6 3.31371,0 6,-2.6863 6,-6 l 0,-8 -2,-3 2,-3 0,-2 -2,-3 2,-3 0,-2 -2,-3 2,-3 0,-2 -2,-3 2,-3 c 0,-2.21601 -1.78399,-4 -4,-4 l -4,0 z m 2,39 a 3,3 0 0 1 3,3 3,3 0 0 1 -3,3 3,3 0 0 1 -3,-3 3,3 0 0 1 3,-3 z"
           style="color:#000000;clip-rule:nonzero;display:inline;overflow:visible;visibility:visible;opacity:1;isolation:auto;mix-blend-mode:normal;color-interpolation:sRGB;color-interpolation-filters:linearRGB;solid-color:#000000;solid-opacity:1;fill:url(#linearGradient4910);fill-opacity:1;fill-rule:nonzero;stroke:none;stroke-width:8;stroke-linecap:butt;stroke-linejoin:miter;stroke-miterlimit:4;stroke-dasharray:none;stroke-dashoffset:0;stroke-opacity:1;color-rendering:auto;image-rendering:auto;shape-rendering:auto;text-rendering:auto;enable-background:accumulate" />
        <rect
           style="color:#000000;clip-rule:nonzero;display:inline;overflow:visible;visibility:visible;opacity:1;isolation:auto;mix-blend-mode:normal;color-interpolation:sRGB;color-interpolation-filters:linearRGB;solid-color:#000000;solid-opacity:1;fill:#ec4040;fill-opacity:1;fill-rule:nonzero;stroke:none;stroke-width:8;stroke-linecap:butt;stroke-linejoin:miter;stroke-miterlimit:4;stroke-dasharray:none;stroke-dashoffset:0;stroke-opacity:1;color-rendering:auto;image-rendering:auto;shape-rendering:auto;text-rendering:auto;enable-background:accumulate"
           id="rect4384"
           width="12"
           height="6.0000048"
           x="78.000015"
           y="1000.3622"
           ry="0" />
        <rect
           style="color:#000000;clip-rule:nonzero;display:inline;overflow:visible;visibility:visible;opacity:1;isolation:auto;mix-blend-mode:normal;color-interpolation:sRGB;color-interpolation-filters:linearRGB;solid-color:#000000;solid-opacity:1;fill:#d71919;fill-opacity:1;fill-rule:nonzero;stroke:none;stroke-width:8;stroke-linecap:butt;stroke-linejoin:miter;stroke-miterlimit:4;stroke-dasharray:none;stroke-dashoffset:0;stroke-opacity:1;color-rendering:auto;image-rendering:auto;shape-rendering:auto;text-rendering:auto;enable-background:accumulate"
           id="rect4384-0"
           width="12"
           height="6.0000048"
           x="78.000015"
           y="1008.3622"
           ry="0" />
        <rect
           style="color:#000000;clip-rule:nonzero;display:inline;overflow:visible;visibility:visible;opacity:1;isolation:auto;mix-blend-mode:normal;color-interpolation:sRGB;color-interpolation-filters:linearRGB;solid-color:#000000;solid-opacity:1;fill:#ac0808;fill-opacity:1;fill-rule:nonzero;stroke:none;stroke-width:8;stroke-linecap:butt;stroke-linejoin:miter;stroke-miterlimit:4;stroke-dasharray:none;stroke-dashoffset:0;stroke-opacity:1;color-rendering:auto;image-rendering:auto;shape-rendering:auto;text-rendering:auto;enable-background:accumulate"
           id="rect4384-0-9"
           width="12"
           height="6.0000048"
           x="78.000015"
           y="1016.3622"
           ry="0" />
        <rect
           style="color:#000000;clip-rule:nonzero;display:inline;overflow:visible;visibility:visible;opacity:1;isolation:auto;mix-blend-mode:normal;color-interpolation:sRGB;color-interpolation-filters:linearRGB;solid-color:#000000;solid-opacity:1;fill:#600404;fill-opacity:1;fill-rule:nonzero;stroke:none;stroke-width:8;stroke-linecap:butt;stroke-linejoin:miter;stroke-miterlimit:4;stroke-dasharray:none;stroke-dashoffset:0;stroke-opacity:1;color-rendering:auto;image-rendering:auto;shape-rendering:auto;text-rendering:auto;enable-background:accumulate"
           id="rect4384-0-9-3"
           width="12"
           height="6.0000048"
           x="78.000015"
           y="1024.3622"
           ry="0" />
        <path
           inkscape:connector-curvature="0"
           id="rect4176-9"
           d="m 100.98828,1000.4579 c -1.27987,0.09 -2.49109,0.7947 -3.18359,1.9941 l 0.23242,3.5977 -3.23242,1.5996 -1,1.7305 0.23242,3.5996 -3.23242,1.5976 -1,1.7325 0.23242,3.5976 -3.23242,1.5977 -1,1.7324 0.23242,3.5977 -3.23242,1.5976 -4,6.9278 c -1.65685,2.8697 -0.6725,6.5404 2.19726,8.1972 2.86975,1.6569 6.53846,0.6725 8.19532,-2.1972 l 4,-6.9278 -0.23243,-3.5976 3.23243,-1.5977 1,-1.7324 -0.23243,-3.5977 3.23243,-1.5976 1,-1.7325 -0.23243,-3.5976 3.23243,-1.5996 1,-1.7305 -0.23243,-3.5996 3.23243,-1.5977 c 1.108,-1.9191 0.45427,-4.3568 -1.46485,-5.4648 l -3.46289,-2 c -0.71967,-0.4155 -1.51332,-0.583 -2.28125,-0.5293 z M 84,1035.3622 a 3,3 0 0 1 3,3 3,3 0 0 1 -3,3 3,3 0 0 1 -3,-3 3,3 0 0 1 3,-3 z"
           style="color:#000000;clip-rule:nonzero;display:inline;overflow:visible;visibility:visible;opacity:1;isolation:auto;mix-blend-mode:normal;color-interpolation:sRGB;color-interpolation-filters:linearRGB;solid-color:#000000;solid-opacity:1;fill:url(#linearGradient4918);fill-opacity:1;fill-rule:nonzero;stroke:none;stroke-width:8;stroke-linecap:butt;stroke-linejoin:miter;stroke-miterlimit:4;stroke-dasharray:none;stroke-dashoffset:0;stroke-opacity:1;color-rendering:auto;image-rendering:auto;shape-rendering:auto;text-rendering:auto;enable-background:accumulate" />
        <rect
           style="color:#000000;clip-rule:nonzero;display:inline;overflow:visible;visibility:visible;opacity:1;isolation:auto;mix-blend-mode:normal;color-interpolation:sRGB;color-interpolation-filters:linearRGB;solid-color:#000000;solid-opacity:1;fill:#f1d23b;fill-opacity:1;fill-rule:nonzero;stroke:none;stroke-width:8;stroke-linecap:butt;stroke-linejoin:miter;stroke-miterlimit:4;stroke-dasharray:none;stroke-dashoffset:0;stroke-opacity:1;color-rendering:auto;image-rendering:auto;shape-rendering:auto;text-rendering:auto;enable-background:accumulate"
           id="rect4384-7"
           width="12"
           height="6.0000048"
           x="585.92755"
           y="819.24664"
           transform="matrix(0.8660254,0.5,-0.5,0.8660254,0,0)"
           ry="0" />
        <rect
           style="color:#000000;clip-rule:nonzero;display:inline;overflow:visible;visibility:visible;opacity:1;isolation:auto;mix-blend-mode:normal;color-interpolation:sRGB;color-interpolation-filters:linearRGB;solid-color:#000000;solid-opacity:1;fill:#dbb715;fill-opacity:1;fill-rule:nonzero;stroke:none;stroke-width:8;stroke-linecap:butt;stroke-linejoin:miter;stroke-miterlimit:4;stroke-dasharray:none;stroke-dashoffset:0;stroke-opacity:1;color-rendering:auto;image-rendering:auto;shape-rendering:auto;text-rendering:auto;enable-background:accumulate"
           id="rect4384-0-3"
           width="12"
           height="6.0000048"
           x="585.92755"
           y="827.24664"
           ry="0"
           transform="matrix(0.8660254,0.5,-0.5,0.8660254,0,0)" />
        <rect
           style="color:#000000;clip-rule:nonzero;display:inline;overflow:visible;visibility:visible;opacity:1;isolation:auto;mix-blend-mode:normal;color-interpolation:sRGB;color-interpolation-filters:linearRGB;solid-color:#000000;solid-opacity:1;fill:#a88c0c;fill-opacity:1;fill-rule:nonzero;stroke:none;stroke-width:8;stroke-linecap:butt;stroke-linejoin:miter;stroke-miterlimit:4;stroke-dasharray:none;stroke-dashoffset:0;stroke-opacity:1;color-rendering:auto;image-rendering:auto;shape-rendering:auto;text-rendering:auto;enable-background:accumulate"
           id="rect4384-0-9-6"
           width="12"
           height="6.0000048"
           x="585.92755"
           y="835.24664"
           ry="0"
           transform="matrix(0.8660254,0.5,-0.5,0.8660254,0,0)" />
        <rect
           style="color:#000000;clip-rule:nonzero;display:inline;overflow:visible;visibility:visible;opacity:1;isolation:auto;mix-blend-mode:normal;color-interpolation:sRGB;color-interpolation-filters:linearRGB;solid-color:#000000;solid-opacity:1;fill:#5e4f06;fill-opacity:1;fill-rule:nonzero;stroke:none;stroke-width:8;stroke-linecap:butt;stroke-linejoin:miter;stroke-miterlimit:4;stroke-dasharray:none;stroke-dashoffset:0;stroke-opacity:1;color-rendering:auto;image-rendering:auto;shape-rendering:auto;text-rendering:auto;enable-background:accumulate"
           id="rect4384-0-9-3-1"
           width="12"
           height="6.0000048"
           x="585.92755"
           y="843.24664"
           ry="0"
           transform="matrix(0.8660254,0.5,-0.5,0.8660254,0,0)" />
        <path
           inkscape:connector-curvature="0"
           id="rect4176-9-9"
           d="m 116.18945,1013.6356 c -0.76792,-0.054 -1.55962,0.1158 -2.27929,0.5313 l -1.59766,3.2305 -3.59961,-0.2305 -1.73047,1 -1.59961,3.2305 -3.59765,-0.2305 -1.73243,1 -1.59765,3.2305 -3.59766,-0.2305 -1.73242,1 -1.59766,3.2305 -3.59765,-0.2305 -6.92774,4 c -2.86976,1.6569 -3.85412,5.3255 -2.19726,8.1953 1.65685,2.8697 5.3275,3.8522 8.19726,2.1953 l 6.92774,-4 1.59765,-3.2305 3.59766,0.2305 1.73242,-1 1.59766,-3.2305 3.59765,0.2305 1.73243,-1 1.59765,-3.2305 3.59961,0.2305 1.73047,-1 1.59961,-3.2305 3.59766,0.2305 c 1.91912,-1.108 2.57284,-3.5438 1.46484,-5.4629 l -2,-3.4648 c -0.69251,-1.1995 -1.90567,-1.9047 -3.18555,-1.9942 z M 84,1035.3622 a 3,3 0 0 1 3,3 3,3 0 0 1 -3,3 3,3 0 0 1 -3,-3 3,3 0 0 1 3,-3 z"
           style="color:#000000;clip-rule:nonzero;display:inline;overflow:visible;visibility:visible;opacity:1;isolation:auto;mix-blend-mode:normal;color-interpolation:sRGB;color-interpolation-filters:linearRGB;solid-color:#000000;solid-opacity:1;fill:url(#linearGradient4926);fill-opacity:1;fill-rule:nonzero;stroke:none;stroke-width:8;stroke-linecap:butt;stroke-linejoin:miter;stroke-miterlimit:4;stroke-dasharray:none;stroke-dashoffset:0;stroke-opacity:1;color-rendering:auto;image-rendering:auto;shape-rendering:auto;text-rendering:auto;enable-background:accumulate" />
        <rect
           style="color:#000000;clip-rule:nonzero;display:inline;overflow:visible;visibility:visible;opacity:1;isolation:auto;mix-blend-mode:normal;color-interpolation:sRGB;color-interpolation-filters:linearRGB;solid-color:#000000;solid-opacity:1;fill:#b5dca0;fill-opacity:1;fill-rule:nonzero;stroke:none;stroke-width:8;stroke-linecap:butt;stroke-linejoin:miter;stroke-miterlimit:4;stroke-dasharray:none;stroke-dashoffset:0;stroke-opacity:1;color-rendering:auto;image-rendering:auto;shape-rendering:auto;text-rendering:auto;enable-background:accumulate"
           id="rect4384-7-3"
           width="12"
           height="6.0000048"
           x="935.24854"
           y="408.43411"
           transform="matrix(0.5,0.8660254,-0.8660254,0.5,0,0)"
           ry="0" />
        <rect
           style="color:#000000;clip-rule:nonzero;display:inline;overflow:visible;visibility:visible;opacity:1;isolation:auto;mix-blend-mode:normal;color-interpolation:sRGB;color-interpolation-filters:linearRGB;solid-color:#000000;solid-opacity:1;fill:#89c369;fill-opacity:1;fill-rule:nonzero;stroke:none;stroke-width:8;stroke-linecap:butt;stroke-linejoin:miter;stroke-miterlimit:4;stroke-dasharray:none;stroke-dashoffset:0;stroke-opacity:1;color-rendering:auto;image-rendering:auto;shape-rendering:auto;text-rendering:auto;enable-background:accumulate"
           id="rect4384-0-3-1"
           width="12"
           height="6.0000048"
           x="935.24854"
           y="416.43411"
           ry="0"
           transform="matrix(0.5,0.8660254,-0.8660254,0.5,0,0)" />
        <rect
           style="color:#000000;clip-rule:nonzero;display:inline;overflow:visible;visibility:visible;opacity:1;isolation:auto;mix-blend-mode:normal;color-interpolation:sRGB;color-interpolation-filters:linearRGB;solid-color:#000000;solid-opacity:1;fill:#6ca749;fill-opacity:1;fill-rule:nonzero;stroke:none;stroke-width:8;stroke-linecap:butt;stroke-linejoin:miter;stroke-miterlimit:4;stroke-dasharray:none;stroke-dashoffset:0;stroke-opacity:1;color-rendering:auto;image-rendering:auto;shape-rendering:auto;text-rendering:auto;enable-background:accumulate"
           id="rect4384-0-9-6-9"
           width="12"
           height="6.0000048"
           x="935.24854"
           y="424.43411"
           ry="0"
           transform="matrix(0.5,0.8660254,-0.8660254,0.5,0,0)" />
        <rect
           style="color:#000000;clip-rule:nonzero;display:inline;overflow:visible;visibility:visible;opacity:1;isolation:auto;mix-blend-mode:normal;color-interpolation:sRGB;color-interpolation-filters:linearRGB;solid-color:#000000;solid-opacity:1;fill:#4e8133;fill-opacity:1;fill-rule:nonzero;stroke:none;stroke-width:8;stroke-linecap:butt;stroke-linejoin:miter;stroke-miterlimit:4;stroke-dasharray:none;stroke-dashoffset:0;stroke-opacity:1;color-rendering:auto;image-rendering:auto;shape-rendering:auto;text-rendering:auto;enable-background:accumulate"
           id="rect4384-0-9-3-1-4"
           width="12"
           height="6.0000048"
           x="935.24854"
           y="432.43414"
           ry="0"
           transform="matrix(0.5,0.8660254,-0.8660254,0.5,0,0)" />
        <path
           inkscape:connector-curvature="0"
           id="rect4176-9-9-8"
           d="m 84,1032.3622 c -3.31371,0 -6,2.6863 -6,6 0,3.3137 2.68629,6 6,6 l 8,0 3,-2 3,2 2,0 3,-2 3,2 2,0 3,-2 3,2 2,0 3,-2 3,2 c 2.21601,0 4,-1.784 4,-4 l 0,-4 c 0,-2.216 -1.78399,-4 -4,-4 l -3,2 -3,-2 -2,0 -3,2 -3,-2 -2,0 -3,2 -3,-2 -2,0 -3,2 -3,-2 -8,0 z m 0,3 a 3,3 0 0 1 3,3 3,3 0 0 1 -3,3 3,3 0 0 1 -3,-3 3,3 0 0 1 3,-3 z"
           style="color:#000000;clip-rule:nonzero;display:inline;overflow:visible;visibility:visible;opacity:1;isolation:auto;mix-blend-mode:normal;color-interpolation:sRGB;color-interpolation-filters:linearRGB;solid-color:#000000;solid-opacity:1;fill:#f5f4f4;fill-opacity:1;fill-rule:nonzero;stroke:none;stroke-width:8;stroke-linecap:butt;stroke-linejoin:miter;stroke-miterlimit:4;stroke-dasharray:none;stroke-dashoffset:0;stroke-opacity:1;color-rendering:auto;image-rendering:auto;shape-rendering:auto;text-rendering:auto;enable-background:accumulate" />
        <path
           sodipodi:nodetypes="csssscssc"
           inkscape:connector-curvature="0"
           id="rect4176-9-9-8-1"
           d="m 78.025391,1037.8622 c -0.01368,0.1653 -0.02539,0.3312 -0.02539,0.5 0,3.3137 2.68629,6 6,6 l 37.999999,0 c 2.21601,0 4,-1.784 4,-4 l 0,-1 c 0,2.216 -1.78399,4 -4,4 l -37.999999,0 c -3.14486,0 -5.719872,-2.4209 -5.974609,-5.5 z"
           style="color:#000000;clip-rule:nonzero;display:inline;overflow:visible;visibility:visible;opacity:1;isolation:auto;mix-blend-mode:normal;color-interpolation:sRGB;color-interpolation-filters:linearRGB;solid-color:#000000;solid-opacity:1;fill:#cac6c9;fill-opacity:1;fill-rule:nonzero;stroke:none;stroke-width:8;stroke-linecap:butt;stroke-linejoin:miter;stroke-miterlimit:4;stroke-dasharray:none;stroke-dashoffset:0;stroke-opacity:1;color-rendering:auto;image-rendering:auto;shape-rendering:auto;text-rendering:auto;enable-background:accumulate" />
        <rect
           transform="matrix(0,1,-1,0,0,0)"
           style="color:#000000;clip-rule:nonzero;display:inline;overflow:visible;visibility:visible;opacity:1;isolation:auto;mix-blend-mode:normal;color-interpolation:sRGB;color-interpolation-filters:linearRGB;solid-color:#000000;solid-opacity:1;fill:#82c8fa;fill-opacity:1;fill-rule:nonzero;stroke:none;stroke-width:8;stroke-linecap:butt;stroke-linejoin:miter;stroke-miterlimit:4;stroke-dasharray:none;stroke-dashoffset:0;stroke-opacity:1;color-rendering:auto;image-rendering:auto;shape-rendering:auto;text-rendering:auto;enable-background:accumulate"
           id="rect4384-7-3-4"
           width="12"
           height="6.0000048"
           x="1032.3622"
           y="-122.00002"
           ry="0" />
        <rect
           transform="matrix(0,1,-1,0,0,0)"
           style="color:#000000;clip-rule:nonzero;display:inline;overflow:visible;visibility:visible;opacity:1;isolation:auto;mix-blend-mode:normal;color-interpolation:sRGB;color-interpolation-filters:linearRGB;solid-color:#000000;solid-opacity:1;fill:#37a4f5;fill-opacity:1;fill-rule:nonzero;stroke:none;stroke-width:8;stroke-linecap:butt;stroke-linejoin:miter;stroke-miterlimit:4;stroke-dasharray:none;stroke-dashoffset:0;stroke-opacity:1;color-rendering:auto;image-rendering:auto;shape-rendering:auto;text-rendering:auto;enable-background:accumulate"
           id="rect4384-0-3-1-5"
           width="12"
           height="6.0000048"
           x="1032.3622"
           y="-114.00002"
           ry="0" />
        <rect
           transform="matrix(0,1,-1,0,0,0)"
           style="color:#000000;clip-rule:nonzero;display:inline;overflow:visible;visibility:visible;opacity:1;isolation:auto;mix-blend-mode:normal;color-interpolation:sRGB;color-interpolation-filters:linearRGB;solid-color:#000000;solid-opacity:1;fill:#1287de;fill-opacity:1;fill-rule:nonzero;stroke:none;stroke-width:8;stroke-linecap:butt;stroke-linejoin:miter;stroke-miterlimit:4;stroke-dasharray:none;stroke-dashoffset:0;stroke-opacity:1;color-rendering:auto;image-rendering:auto;shape-rendering:auto;text-rendering:auto;enable-background:accumulate"
           id="rect4384-0-9-6-9-0"
           width="12"
           height="6.0000048"
           x="1032.3622"
           y="-106.00002"
           ry="0" />
        <rect
           transform="matrix(0,1,-1,0,0,0)"
           style="color:#000000;clip-rule:nonzero;display:inline;overflow:visible;visibility:visible;opacity:1;isolation:auto;mix-blend-mode:normal;color-interpolation:sRGB;color-interpolation-filters:linearRGB;solid-color:#000000;solid-opacity:1;fill:#0566af;fill-opacity:1;fill-rule:nonzero;stroke:none;stroke-width:8;stroke-linecap:butt;stroke-linejoin:miter;stroke-miterlimit:4;stroke-dasharray:none;stroke-dashoffset:0;stroke-opacity:1;color-rendering:auto;image-rendering:auto;shape-rendering:auto;text-rendering:auto;enable-background:accumulate"
           id="rect4384-0-9-3-1-4-3"
           width="12"
           height="6.0000048"
           x="1032.3622"
           y="-98.000015"
           ry="0" />
        <path
           inkscape:connector-curvature="0"
           id="path4795"
           d="m 84,1034.3622 a 4,4 0 0 0 -4,4 4,4 0 0 0 4,4 4,4 0 0 0 4,-4 4,4 0 0 0 -4,-4 z m 0,2 a 2,2 0 0 1 2,2 2,2 0 0 1 -2,2 2,2 0 0 1 -2,-2 2,2 0 0 1 2,-2 z"
           style="color:#000000;clip-rule:nonzero;display:inline;overflow:visible;visibility:visible;opacity:1;isolation:auto;mix-blend-mode:normal;color-interpolation:sRGB;color-interpolation-filters:linearRGB;solid-color:#000000;solid-opacity:1;fill:#534d52;fill-opacity:1;fill-rule:nonzero;stroke:none;stroke-width:8;stroke-linecap:butt;stroke-linejoin:miter;stroke-miterlimit:4;stroke-dasharray:none;stroke-dashoffset:0;stroke-opacity:1;color-rendering:auto;image-rendering:auto;shape-rendering:auto;text-rendering:auto;enable-background:accumulate" />
        <path
           inkscape:connector-curvature="0"
           id="rect4384-7-3-4-0"
           d="m 116,1043.3622 0,1 6,0 0,-1 -6,0 z"
           style="color:#000000;clip-rule:nonzero;display:inline;overflow:visible;visibility:visible;opacity:1;isolation:auto;mix-blend-mode:normal;color-interpolation:sRGB;color-interpolation-filters:linearRGB;solid-color:#000000;solid-opacity:1;fill:#37a4f5;fill-opacity:1;fill-rule:nonzero;stroke:none;stroke-width:8;stroke-linecap:butt;stroke-linejoin:miter;stroke-miterlimit:4;stroke-dasharray:none;stroke-dashoffset:0;stroke-opacity:1;color-rendering:auto;image-rendering:auto;shape-rendering:auto;text-rendering:auto;enable-background:accumulate" />
        <path
           inkscape:connector-curvature="0"
           id="rect4384-0-3-1-5-7"
           d="m 108,1043.3622 0,1 6,0 0,-1 -6,0 z"
           style="color:#000000;clip-rule:nonzero;display:inline;overflow:visible;visibility:visible;opacity:1;isolation:auto;mix-blend-mode:normal;color-interpolation:sRGB;color-interpolation-filters:linearRGB;solid-color:#000000;solid-opacity:1;fill:#1287de;fill-opacity:1;fill-rule:nonzero;stroke:none;stroke-width:8;stroke-linecap:butt;stroke-linejoin:miter;stroke-miterlimit:4;stroke-dasharray:none;stroke-dashoffset:0;stroke-opacity:1;color-rendering:auto;image-rendering:auto;shape-rendering:auto;text-rendering:auto;enable-background:accumulate" />
        <path
           inkscape:connector-curvature="0"
           id="rect4384-0-9-6-9-0-8"
           d="m 100,1043.3622 0,1 6,0 0,-1 -6,0 z"
           style="color:#000000;clip-rule:nonzero;display:inline;overflow:visible;visibility:visible;opacity:1;isolation:auto;mix-blend-mode:normal;color-interpolation:sRGB;color-interpolation-filters:linearRGB;solid-color:#000000;solid-opacity:1;fill:#0566af;fill-opacity:1;fill-rule:nonzero;stroke:none;stroke-width:8;stroke-linecap:butt;stroke-linejoin:miter;stroke-miterlimit:4;stroke-dasharray:none;stroke-dashoffset:0;stroke-opacity:1;color-rendering:auto;image-rendering:auto;shape-rendering:auto;text-rendering:auto;enable-background:accumulate" />
        <path
           inkscape:connector-curvature="0"
           id="rect4384-0-9-3-1-4-3-6"
           d="m 92,1043.3622 0,1 6,0 0,-1 -6,0 z"
           style="color:#000000;clip-rule:nonzero;display:inline;overflow:visible;visibility:visible;opacity:1;isolation:auto;mix-blend-mode:normal;color-interpolation:sRGB;color-interpolation-filters:linearRGB;solid-color:#000000;solid-opacity:1;fill:#023962;fill-opacity:1;fill-rule:nonzero;stroke:none;stroke-width:8;stroke-linecap:butt;stroke-linejoin:miter;stroke-miterlimit:4;stroke-dasharray:none;stroke-dashoffset:0;stroke-opacity:1;color-rendering:auto;image-rendering:auto;shape-rendering:auto;text-rendering:auto;enable-background:accumulate" />
      </g>
    </g>
  </g>
</svg>
