<?xml version="1.0" encoding="UTF-8" standalone="no"?>
<!-- Created with Inkscape (http://www.inkscape.org/) -->

<svg
   xmlns:dc="http://purl.org/dc/elements/1.1/"
   xmlns:cc="http://creativecommons.org/ns#"
   xmlns:rdf="http://www.w3.org/1999/02/22-rdf-syntax-ns#"
   xmlns:svg="http://www.w3.org/2000/svg"
   xmlns="http://www.w3.org/2000/svg"
   xmlns:xlink="http://www.w3.org/1999/xlink"
   xmlns:sodipodi="http://sodipodi.sourceforge.net/DTD/sodipodi-0.dtd"
   xmlns:inkscape="http://www.inkscape.org/namespaces/inkscape"
   width="64"
   height="64"
   viewBox="0 0 64 64.000001"
   id="svg2"
   version="1.1"
   inkscape:version="0.91 r13725"
   sodipodi:docname="preferences-desktop-wallpaper.svg">
  <defs
     id="defs4">
    <linearGradient
       gradientUnits="userSpaceOnUse"
       y2="1000.3622"
       x2="51"
       y1="1017.3622"
       x1="51"
       id="linearGradient7274"
       xlink:href="#linearGradient7268"
       inkscape:collect="always" />
    <linearGradient
       id="linearGradient7268"
       inkscape:collect="always">
      <stop
         id="stop7270"
         offset="0"
         style="stop-color:#e4720c;stop-opacity:1" />
      <stop
         id="stop7272"
         offset="1"
         style="stop-color:#9ce0c4;stop-opacity:1" />
    </linearGradient>
    <linearGradient
       gradientTransform="translate(0,988.3622)"
       gradientUnits="userSpaceOnUse"
       y2="35"
       x2="46"
       y1="52"
       x1="46"
       id="linearGradient7360"
       xlink:href="#linearGradient7354"
       inkscape:collect="always" />
    <linearGradient
       id="linearGradient7354"
       inkscape:collect="always">
      <stop
         id="stop7356"
         offset="0"
         style="stop-color:#4080b0;stop-opacity:1" />
      <stop
         id="stop7358"
         offset="1"
         style="stop-color:#e2f2fe;stop-opacity:1" />
    </linearGradient>
    <linearGradient
       inkscape:collect="always"
       xlink:href="#linearGradient8203"
       id="linearGradient8209"
       x1="32"
       y1="1094.3622"
       x2="32"
       y2="1046.3622"
       gradientUnits="userSpaceOnUse" />
    <linearGradient
       inkscape:collect="always"
       id="linearGradient8203">
      <stop
         style="stop-color:#686067;stop-opacity:1"
         offset="0"
         id="stop8205" />
      <stop
         style="stop-color:#98929a;stop-opacity:1"
         offset="1"
         id="stop8207" />
    </linearGradient>
    <linearGradient
       inkscape:collect="always"
       xlink:href="#linearGradient8195"
       id="linearGradient8201"
       x1="38"
       y1="107"
       x2="38"
       y2="58"
       gradientUnits="userSpaceOnUse" />
    <linearGradient
       inkscape:collect="always"
       id="linearGradient8195">
      <stop
         style="stop-color:#98929a;stop-opacity:1"
         offset="0"
         id="stop8197" />
      <stop
         style="stop-color:#b6b2b6;stop-opacity:1"
         offset="1"
         id="stop8199" />
    </linearGradient>
    <linearGradient
       gradientUnits="userSpaceOnUse"
       y2="993.36218"
       x2="18"
       y1="1047.3622"
       x1="18"
       id="linearGradient6992"
       xlink:href="#linearGradient6986"
       inkscape:collect="always" />
    <linearGradient
       id="linearGradient6986"
       inkscape:collect="always">
      <stop
         id="stop6988"
         offset="0"
         style="stop-color:#0566af;stop-opacity:1" />
      <stop
         id="stop6990"
         offset="1"
         style="stop-color:#60cc9f;stop-opacity:1" />
    </linearGradient>
    <linearGradient
       gradientUnits="userSpaceOnUse"
       y2="1029.1617"
       x2="26.400335"
       y1="1029.1617"
       x1="20.000092"
       id="linearGradient7191"
       xlink:href="#linearGradient7126"
       inkscape:collect="always" />
    <linearGradient
       id="linearGradient7126"
       inkscape:collect="always">
      <stop
         id="stop7128"
         offset="0"
         style="stop-color:#f1d23b;stop-opacity:1;" />
      <stop
         id="stop7130"
         offset="1"
         style="stop-color:#f7e385;stop-opacity:1" />
    </linearGradient>
    <linearGradient
       gradientUnits="userSpaceOnUse"
       y2="1000.3622"
       x2="26"
       y1="1040.3622"
       x1="26"
       id="linearGradient7159"
       xlink:href="#linearGradient7118"
       inkscape:collect="always" />
    <linearGradient
       id="linearGradient7118"
       inkscape:collect="always">
      <stop
         id="stop7120"
         offset="0"
         style="stop-color:#e4720c;stop-opacity:1" />
      <stop
         id="stop7122"
         offset="1"
         style="stop-color:#f1d23b;stop-opacity:1" />
    </linearGradient>
    <linearGradient
       gradientUnits="userSpaceOnUse"
       y2="1025.9449"
       x2="34.297298"
       y1="1025.9449"
       x1="23.187481"
       id="linearGradient7193"
       xlink:href="#linearGradient7126"
       inkscape:collect="always" />
    <linearGradient
       gradientUnits="userSpaceOnUse"
       y2="1000.3622"
       x2="24"
       y1="1040.3622"
       x1="24"
       id="linearGradient7161"
       xlink:href="#linearGradient7118"
       inkscape:collect="always" />
    <linearGradient
       gradientUnits="userSpaceOnUse"
       y2="1000.3622"
       x2="20"
       y1="1040.3622"
       x1="20"
       id="linearGradient7195"
       xlink:href="#linearGradient7126"
       inkscape:collect="always" />
    <linearGradient
       gradientUnits="userSpaceOnUse"
       y2="1000.3622"
       x2="20"
       y1="1040.3622"
       x1="20"
       id="linearGradient7163"
       xlink:href="#linearGradient7118"
       inkscape:collect="always" />
    <linearGradient
       gradientTransform="translate(20,0)"
       gradientUnits="userSpaceOnUse"
       y2="1000.3622"
       x2="0"
       y1="1040.3622"
       x1="0"
       id="linearGradient7189"
       xlink:href="#linearGradient7126"
       inkscape:collect="always" />
    <linearGradient
       gradientUnits="userSpaceOnUse"
       y2="1000.3622"
       x2="16"
       y1="1040.3622"
       x1="16"
       id="linearGradient7165"
       xlink:href="#linearGradient7118"
       inkscape:collect="always" />
    <linearGradient
       gradientUnits="userSpaceOnUse"
       y2="1000.3622"
       x2="15"
       y1="1040.3622"
       x1="15"
       id="linearGradient7167"
       xlink:href="#linearGradient7118"
       inkscape:collect="always" />
    <linearGradient
       gradientTransform="translate(0,988.3622)"
       gradientUnits="userSpaceOnUse"
       y2="12"
       x2="18"
       y1="52"
       x1="18"
       id="linearGradient7132"
       xlink:href="#linearGradient7126"
       inkscape:collect="always" />
    <linearGradient
       gradientTransform="translate(0,988.3622)"
       gradientUnits="userSpaceOnUse"
       y2="14"
       x2="19"
       y1="50"
       x1="19"
       id="linearGradient7124"
       xlink:href="#linearGradient7118"
       inkscape:collect="always" />
    <linearGradient
       gradientUnits="userSpaceOnUse"
       y2="57"
       x2="24"
       y1="27"
       x1="24"
       id="linearGradient7230"
       xlink:href="#linearGradient7224"
       inkscape:collect="always" />
    <linearGradient
       id="linearGradient7224"
       inkscape:collect="always">
      <stop
         id="stop7226"
         offset="0"
         style="stop-color:#4e3716;stop-opacity:1;" />
      <stop
         id="stop7228"
         offset="1"
         style="stop-color:#88622c;stop-opacity:1" />
    </linearGradient>
    <linearGradient
       gradientTransform="translate(-39,0)"
       gradientUnits="userSpaceOnUse"
       y2="1020.3622"
       x2="20"
       y1="1020.3622"
       x1="19"
       id="linearGradient7012"
       xlink:href="#linearGradient7006"
       inkscape:collect="always" />
    <linearGradient
       id="linearGradient7006"
       inkscape:collect="always">
      <stop
         id="stop7008"
         offset="0"
         style="stop-color:#ffffff;stop-opacity:1;" />
      <stop
         id="stop7010"
         offset="1"
         style="stop-color:#ffffff;stop-opacity:0;" />
    </linearGradient>
    <linearGradient
       gradientTransform="translate(0,-988.3622)"
       gradientUnits="userSpaceOnUse"
       y2="1020.3622"
       x2="21"
       y1="1020.3622"
       x1="20"
       id="linearGradient7004"
       xlink:href="#linearGradient6998"
       inkscape:collect="always" />
    <linearGradient
       id="linearGradient6998"
       inkscape:collect="always">
      <stop
         id="stop7000"
         offset="0"
         style="stop-color:#000000;stop-opacity:1;" />
      <stop
         id="stop7002"
         offset="1"
         style="stop-color:#000000;stop-opacity:0;" />
    </linearGradient>
    <linearGradient
       inkscape:collect="always"
       xlink:href="#linearGradient7126"
       id="linearGradient4396"
       gradientUnits="userSpaceOnUse"
       x1="20"
       y1="1040.3622"
       x2="20"
       y2="1000.3622" />
    <linearGradient
       inkscape:collect="always"
       xlink:href="#linearGradient7118"
       id="linearGradient4398"
       gradientUnits="userSpaceOnUse"
       x1="20"
       y1="1040.3622"
       x2="20"
       y2="1000.3622" />
    <linearGradient
       inkscape:collect="always"
       xlink:href="#linearGradient7126"
       id="linearGradient4400"
       gradientUnits="userSpaceOnUse"
       x1="20"
       y1="1040.3622"
       x2="20"
       y2="1000.3622" />
    <linearGradient
       inkscape:collect="always"
       xlink:href="#linearGradient7118"
       id="linearGradient4402"
       gradientUnits="userSpaceOnUse"
       x1="20"
       y1="1040.3622"
       x2="20"
       y2="1000.3622" />
    <linearGradient
       inkscape:collect="always"
       xlink:href="#linearGradient7126"
       id="linearGradient4404"
       gradientUnits="userSpaceOnUse"
       x1="20"
       y1="1040.3622"
       x2="20"
       y2="1000.3622" />
  </defs>
  <sodipodi:namedview
     id="base"
     pagecolor="#ffffff"
     bordercolor="#666666"
     borderopacity="1.0"
     inkscape:pageopacity="0.0"
     inkscape:pageshadow="2"
     inkscape:zoom="1"
     inkscape:cx="45.142033"
     inkscape:cy="47.368298"
     inkscape:document-units="px"
     inkscape:current-layer="layer1"
     showgrid="false"
     units="px"
     inkscape:snap-bbox="true"
     inkscape:bbox-nodes="true"
     inkscape:window-width="3840"
     inkscape:window-height="2045"
     inkscape:window-x="0"
     inkscape:window-y="0"
     inkscape:window-maximized="1"
     inkscape:snap-global="true"
     inkscape:object-nodes="true"
     inkscape:snap-object-midpoints="true"
     inkscape:snap-center="true"
     inkscape:snap-smooth-nodes="false"
     inkscape:snap-others="false"
     inkscape:snap-bbox-edge-midpoints="false"
     inkscape:snap-nodes="true">
    <inkscape:grid
       type="xygrid"
       id="grid4136"
       empspacing="4" />
  </sodipodi:namedview>
  <metadata
     id="metadata7">
    <rdf:RDF>
      <cc:Work
         rdf:about="">
        <dc:format>image/svg+xml</dc:format>
        <dc:type
           rdf:resource="http://purl.org/dc/dcmitype/StillImage" />
        <dc:title />
      </cc:Work>
    </rdf:RDF>
  </metadata>
  <g
     inkscape:label="icon"
     inkscape:groupmode="layer"
     id="layer1"
     transform="translate(0,-988.3622)">
    <g
       id="g8210" />
    <g
       id="g8215">
      <g
         id="g7402">
        <rect
           style="color:#000000;clip-rule:nonzero;display:inline;overflow:visible;visibility:visible;opacity:1;isolation:auto;mix-blend-mode:normal;color-interpolation:sRGB;color-interpolation-filters:linearRGB;solid-color:#000000;solid-opacity:1;fill:url(#linearGradient7274);fill-opacity:1;fill-rule:nonzero;stroke:none;stroke-width:8;stroke-linecap:butt;stroke-linejoin:miter;stroke-miterlimit:4;stroke-dasharray:none;stroke-dashoffset:0;stroke-opacity:1;color-rendering:auto;image-rendering:auto;shape-rendering:auto;text-rendering:auto;enable-background:accumulate"
           id="rect5945"
           width="32"
           height="30.000017"
           x="28"
           y="1000.3622"
           ry="4.00002" />
        <path
           inkscape:connector-curvature="0"
           id="path7280-4"
           d="m 60,1022.3622 0,-14 -4,4 -4,2 -6,6 0,2 z"
           style="fill:#600445;fill-rule:evenodd;stroke:none;stroke-width:1px;stroke-linecap:butt;stroke-linejoin:miter;stroke-opacity:1" />
        <path
           sodipodi:nodetypes="ccccccc"
           inkscape:connector-curvature="0"
           id="path7280-9"
           d="m 60,1026.3622 0,-14 -4,3 -4,1 -6,6 0,4 z"
           style="fill:#f99133;fill-rule:evenodd;stroke:none;stroke-width:1px;stroke-linecap:butt;stroke-linejoin:miter;stroke-opacity:1" />
        <path
           inkscape:connector-curvature="0"
           id="path7280"
           d="m 60,1026.3622 0,-14 -4,4 -4,2 -6,6 0,2 z"
           style="fill:#600445;fill-rule:evenodd;stroke:none;stroke-width:1px;stroke-linecap:butt;stroke-linejoin:miter;stroke-opacity:1" />
        <path
           id="rect5945-2"
           d="m 28,1023.3622 0,13 c 0,2.216 1.783989,4 4,4 l 24,0 c 2.216011,0 4,-1.784 4,-4 l 0,-13 -32,0 z"
           style="color:#000000;clip-rule:nonzero;display:inline;overflow:visible;visibility:visible;opacity:1;isolation:auto;mix-blend-mode:normal;color-interpolation:sRGB;color-interpolation-filters:linearRGB;solid-color:#000000;solid-opacity:1;fill:url(#linearGradient7360);fill-opacity:1;fill-rule:nonzero;stroke:none;stroke-width:8;stroke-linecap:butt;stroke-linejoin:miter;stroke-miterlimit:4;stroke-dasharray:none;stroke-dashoffset:0;stroke-opacity:1;color-rendering:auto;image-rendering:auto;shape-rendering:auto;text-rendering:auto;enable-background:accumulate"
           inkscape:connector-curvature="0" />
        <path
           inkscape:connector-curvature="0"
           id="path7278"
           d="m 60,1030.3622 -4,-2 -4,0 -6,-2 14,0 z"
           style="fill:#534d52;fill-rule:evenodd;stroke:none;stroke-width:1px;stroke-linecap:butt;stroke-linejoin:miter;stroke-opacity:1" />
        <path
           sodipodi:nodetypes="ccccccc"
           inkscape:connector-curvature="0"
           id="path7280-5"
           d="m 60,1026.3622 0,-10 -4,3 -4,1 -6,4 0,2 z"
           style="fill:#343031;fill-rule:evenodd;stroke:none;stroke-width:1px;stroke-linecap:butt;stroke-linejoin:miter;stroke-opacity:1" />
        <path
           inkscape:connector-curvature="0"
           id="path7382"
           d="m 50,1012.3622 4,-2 -2,-2 6,-2 -4,0 -2,-2 -7,0 2,8 z"
           style="fill:#af5505;fill-rule:evenodd;stroke:none;stroke-width:1px;stroke-linecap:butt;stroke-linejoin:miter;stroke-opacity:1" />
        <path
           inkscape:connector-curvature="0"
           id="path7376"
           d="m 56,1022.3622 4,-4 0,2 z"
           style="fill:#f99133;fill-rule:evenodd;stroke:none;stroke-width:1px;stroke-linecap:butt;stroke-linejoin:miter;stroke-opacity:1" />
        <path
           inkscape:connector-curvature="0"
           id="path7378"
           d="m 56,1022.3622 4,-2 0,4 z"
           style="fill:#600445;fill-rule:evenodd;stroke:none;stroke-width:1px;stroke-linecap:butt;stroke-linejoin:miter;stroke-opacity:1" />
        <path
           inkscape:connector-curvature="0"
           id="path7380"
           d="m 60,1032.3622 -4,2 -4,0 8,2 z"
           style="fill:#9cc4e0;fill-rule:evenodd;stroke:none;stroke-width:1px;stroke-linecap:butt;stroke-linejoin:miter;stroke-opacity:1" />
      </g>
      <path
         style="opacity:1;fill:#28618c;fill-rule:evenodd;stroke:none;stroke-width:1px;stroke-linecap:butt;stroke-linejoin:miter;stroke-opacity:1"
         d="M 28 47 L 28 48 C 28 50.216 29.783989 52 32 52 L 56 52 C 58.216011 52 60 50.216 60 48 L 60 47 C 60 49.216 58.216011 51 56 51 L 32 51 C 29.783989 51 28 49.216 28 47 z "
         transform="translate(0,988.3622)"
         id="path5964-3" />
      <path
         id="path5964"
         d="m 32,1000.3622 c -2.216011,0 -4,1.784 -4,4 l 0,32 c 0,2.216 1.783989,4 4,4 l 24,0 c 2.216011,0 4,-1.784 4,-4 l 0,-28 -8,-8 -20,0 z"
         style="opacity:0.1;fill:#000000;fill-rule:evenodd;stroke:none;stroke-width:1px;stroke-linecap:butt;stroke-linejoin:miter;stroke-opacity:1"
         inkscape:connector-curvature="0" />
      <g
         transform="translate(0,-50)"
         id="g8211">
        <path
           style="color:#000000;clip-rule:nonzero;display:inline;overflow:visible;visibility:visible;opacity:1;isolation:auto;mix-blend-mode:normal;color-interpolation:sRGB;color-interpolation-filters:linearRGB;solid-color:#000000;solid-opacity:1;fill:url(#linearGradient8209);fill-opacity:1;fill-rule:nonzero;stroke:none;stroke-width:8;stroke-linecap:butt;stroke-linejoin:miter;stroke-miterlimit:4;stroke-dasharray:none;stroke-dashoffset:0;stroke-opacity:1;color-rendering:auto;image-rendering:auto;shape-rendering:auto;text-rendering:auto;enable-background:accumulate"
           d="m 20,1050.3622 25.999983,-4 c 2.190241,-0.337 4.000017,1.784 4.000017,4 l 0,40.0001 c 0,2.216 -1.809788,4.337 -4.000017,4 L 20,1090.3623 Z"
           id="rect5942-3-8"
           inkscape:connector-curvature="0"
           sodipodi:nodetypes="csssscc" />
        <path
           inkscape:connector-curvature="0"
           style="fill:url(#linearGradient8201);fill-opacity:1;fill-rule:evenodd;stroke:none;stroke-width:1px;stroke-linecap:butt;stroke-linejoin:miter;stroke-opacity:1"
           d="m 46.40625,57.964844 c -0.08798,0.0016 -0.178102,0.01384 -0.267578,0.02344 L 50,67 50,62 c 0,-2.0775 -1.590219,-4.0717 -3.59375,-4.035156 z M 41.878906,58.634766 34.078125,59.833984 38,68.199219 41.878906,58.634766 Z M 44,60.400391 l -4,9.933593 4,9.265625 4,-9.933593 -4,-9.265625 z m -14.060547,0.07031 -7.927734,1.21875 L 26,69.400391 29.939453,60.470703 Z M 32,62.199219 l -4,9.134765 4,8.466797 4,-9.134765 -4,-8.466797 z M 50,72 46,82 50,92 50,72 Z M 38,72.800781 34,82 38,91.199219 42,82 38,72.800781 Z M 26,73.599609 22,82 26,90.400391 30,82 26,73.599609 Z m 6,10.59961 -4,8.466797 4,9.134764 4,-8.466796 -4,-9.134765 z m 12,0.201172 -4,9.265625 4,9.933594 4,-9.265626 -4,-9.933593 z M 26,94.599609 22.011719,102.31055 29.939453,103.5293 26,94.599609 Z m 12,1.201172 -3.921875,8.365239 7.800781,1.19921 L 38,95.800781 Z M 50,97 46.138672,106.01172 C 48.265662,106.23996 50,104.16873 50,102 l 0,-5 z"
           transform="translate(0,988.3622)"
           id="path7417" />
      </g>
      <path
         style="color:#000000;clip-rule:nonzero;display:inline;overflow:visible;visibility:visible;opacity:1;isolation:auto;mix-blend-mode:normal;color-interpolation:sRGB;color-interpolation-filters:linearRGB;solid-color:#000000;solid-opacity:1;fill:#534d52;fill-opacity:1;fill-rule:nonzero;stroke:none;stroke-width:8;stroke-linecap:butt;stroke-linejoin:miter;stroke-miterlimit:4;stroke-dasharray:none;stroke-dashoffset:0;stroke-opacity:1;color-rendering:auto;image-rendering:auto;shape-rendering:auto;text-rendering:auto;enable-background:accumulate"
         d="m 20,51 0,1 26,4 c 2.190229,0.337 4,-1.784 4,-4 l 0,-1 c 0,2.216 -1.809771,4.337 -4,4 L 20,51 Z"
         transform="translate(0,988.3622)"
         id="rect5942-3-4"
         inkscape:connector-curvature="0" />
      <path
         inkscape:connector-curvature="0"
         id="path5962"
         d="M 42.533203,996.8954 20,1000.3622 l 0,40 26,4 c 2.190229,0.337 4,-1.784 4,-4 l 0,-36 -7.466797,-7.4668 z"
         style="opacity:0.1;fill:#000000;fill-rule:evenodd;stroke:none;stroke-width:1px;stroke-linecap:butt;stroke-linejoin:miter;stroke-opacity:1" />
      <path
         sodipodi:nodetypes="scsssscssss"
         inkscape:connector-curvature="0"
         id="rect5942"
         d="m 8.0000172,1000.3622 11.9999828,0 15.999983,-8 c 1.982058,-0.99103 4.000017,1.784 4.000017,4 l 0,48 c 0,2.216 -2.017959,4.991 -4.000017,4 l -15.999983,-8 -11.9999828,0 C 5.7840077,1040.3622 4,1038.5782 4,1036.3622 l 0,-32 c 0,-2.216 1.7840077,-4 4.0000172,-4 z"
         style="color:#000000;clip-rule:nonzero;display:inline;overflow:visible;visibility:visible;opacity:1;isolation:auto;mix-blend-mode:normal;color-interpolation:sRGB;color-interpolation-filters:linearRGB;solid-color:#000000;solid-opacity:1;fill:url(#linearGradient6992);fill-opacity:1;fill-rule:nonzero;stroke:none;stroke-width:8;stroke-linecap:butt;stroke-linejoin:miter;stroke-miterlimit:4;stroke-dasharray:none;stroke-dashoffset:0;stroke-opacity:1;color-rendering:auto;image-rendering:auto;shape-rendering:auto;text-rendering:auto;enable-background:accumulate" />
      <path
         inkscape:transform-center-y="-7.9991456"
         sodipodi:nodetypes="ccccc"
         inkscape:connector-curvature="0"
         id="path6013-6"
         d="m 23.200213,1037.9623 c -1.915357,-2.1329 -3.198001,-6.2134 -3.200122,-9.6005 0.0026,-3.3873 1.283533,-6.8271 3.200122,-8.0005 1.915357,1.3104 3.198001,5.5365 3.200122,9.6005 -0.0026,4.0643 -1.283533,7.6502 -3.200122,8.0005 0,0 0,0 0,0"
         style="color:#000000;clip-rule:nonzero;display:inline;overflow:visible;visibility:visible;opacity:1;isolation:auto;mix-blend-mode:normal;color-interpolation:sRGB;color-interpolation-filters:linearRGB;solid-color:#000000;solid-opacity:1;fill:url(#linearGradient7191);fill-opacity:1;fill-rule:nonzero;stroke:none;stroke-width:8;stroke-linecap:butt;stroke-linejoin:miter;stroke-miterlimit:4;stroke-dasharray:none;stroke-dashoffset:0;stroke-opacity:1;color-rendering:auto;image-rendering:auto;shape-rendering:auto;text-rendering:auto;enable-background:accumulate" />
      <path
         inkscape:transform-center-x="-3.9995728"
         inkscape:transform-center-y="-6.9274456"
         sodipodi:nodetypes="ccccc"
         inkscape:connector-curvature="0"
         id="path6013-4-3"
         d="m 29.600116,1038.3756 c -2.110685,-0.6442 -4.615141,-4.3067 -5.97151,-8.0731 -1.352806,-3.5217 -1.637292,-7.6308 -0.428734,-9.9411 2.110684,-0.255 4.615141,2.4847 5.971508,6.3408 1.352807,4.1092 1.637293,9.2871 0.428736,11.6734 0,0 0,0 0,0"
         style="color:#000000;clip-rule:nonzero;display:inline;overflow:visible;visibility:visible;opacity:1;isolation:auto;mix-blend-mode:normal;color-interpolation:sRGB;color-interpolation-filters:linearRGB;solid-color:#000000;solid-opacity:1;fill:url(#linearGradient7159);fill-opacity:1;fill-rule:nonzero;stroke:none;stroke-width:8;stroke-linecap:butt;stroke-linejoin:miter;stroke-miterlimit:4;stroke-dasharray:none;stroke-dashoffset:0;stroke-opacity:1;color-rendering:auto;image-rendering:auto;shape-rendering:auto;text-rendering:auto;enable-background:accumulate" />
      <path
         inkscape:transform-center-x="-6.9274544"
         inkscape:transform-center-y="-3.9995456"
         sodipodi:nodetypes="ccccc"
         inkscape:connector-curvature="0"
         id="path6013-4-8-8"
         d="m 34.285161,1031.9335 c -1.740463,1.6647 -4.79566,0.2985 -7.142834,-2.4413 -2.34573,-2.4982 -4.1194,-6.2423 -3.942711,-9.1305 1.740463,-1.7414 4.795659,-1.4436 7.142833,0.709 2.34573,2.4087 4.1194,7.0755 3.942712,10.8628 0,0 0,0 0,0"
         style="color:#000000;clip-rule:nonzero;display:inline;overflow:visible;visibility:visible;opacity:1;isolation:auto;mix-blend-mode:normal;color-interpolation:sRGB;color-interpolation-filters:linearRGB;solid-color:#000000;solid-opacity:1;fill:url(#linearGradient7193);fill-opacity:1;fill-rule:nonzero;stroke:none;stroke-width:8;stroke-linecap:butt;stroke-linejoin:miter;stroke-miterlimit:4;stroke-dasharray:none;stroke-dashoffset:0;stroke-opacity:1;color-rendering:auto;image-rendering:auto;shape-rendering:auto;text-rendering:auto;enable-background:accumulate" />
      <path
         inkscape:transform-center-x="-7.9991244"
         inkscape:transform-center-y="5.4462494e-05"
         sodipodi:nodetypes="ccccc"
         inkscape:connector-curvature="0"
         id="path6013-4-8-1-5"
         d="m 36,1020.3621 c -0.903902,3.5237 -3.691186,5.5353 -6.400244,5.2003 -2.710128,-0.3388 -5.497699,-2.4973 -6.400242,-5.2003 0.903903,-2.7011 3.691186,-4.8583 6.400243,-5.2002 2.710128,-0.3388 5.497739,1.6742 6.400243,5.2002 0,0 0,0 0,0"
         style="color:#000000;clip-rule:nonzero;display:inline;overflow:visible;visibility:visible;opacity:1;isolation:auto;mix-blend-mode:normal;color-interpolation:sRGB;color-interpolation-filters:linearRGB;solid-color:#000000;solid-opacity:1;fill:url(#linearGradient7161);fill-opacity:1;fill-rule:nonzero;stroke:none;stroke-width:8;stroke-linecap:butt;stroke-linejoin:miter;stroke-miterlimit:4;stroke-dasharray:none;stroke-dashoffset:0;stroke-opacity:1;color-rendering:auto;image-rendering:auto;shape-rendering:auto;text-rendering:auto;enable-background:accumulate" />
      <path
         inkscape:transform-center-x="-6.9274211"
         inkscape:transform-center-y="3.9996177"
         sodipodi:nodetypes="ccccc"
         inkscape:connector-curvature="0"
         id="path6013-4-8-1-2-6"
         d="m 34.285132,1008.7908 c 0.174874,3.787 -1.597639,8.4559 -3.942713,10.8627 -2.347039,2.1564 -5.402891,2.4531 -7.142833,0.7091 -0.174835,-2.8876 1.597679,-6.6337 3.942712,-9.1305 2.347039,-2.7435 5.402966,-4.1092 7.142834,-2.4413 0,0 0,0 0,0"
         style="color:#000000;clip-rule:nonzero;display:inline;overflow:visible;visibility:visible;opacity:1;isolation:auto;mix-blend-mode:normal;color-interpolation:sRGB;color-interpolation-filters:linearRGB;solid-color:#000000;solid-opacity:1;fill:url(#linearGradient4396);fill-opacity:1;fill-rule:nonzero;stroke:none;stroke-width:8;stroke-linecap:butt;stroke-linejoin:miter;stroke-miterlimit:4;stroke-dasharray:none;stroke-dashoffset:0;stroke-opacity:1;color-rendering:auto;image-rendering:auto;shape-rendering:auto;text-rendering:auto;enable-background:accumulate" />
      <path
         inkscape:transform-center-x="-3.9995453"
         inkscape:transform-center-y="6.9275476"
         sodipodi:nodetypes="ccccc"
         inkscape:connector-curvature="0"
         id="path6013-4-8-1-2-9-1"
         d="m 29.600051,1002.3487 c 1.206805,2.388 0.924011,7.5663 -0.428736,11.6734 -1.35505,3.8592 -3.86037,6.5984 -5.971507,6.3408 -1.206691,-2.3109 -0.923897,-6.4209 0.428735,-9.9411 1.35509,-3.7687 3.860475,-7.4314 5.971508,-8.0731 0,0 0,0 0,0"
         style="color:#000000;clip-rule:nonzero;display:inline;overflow:visible;visibility:visible;opacity:1;isolation:auto;mix-blend-mode:normal;color-interpolation:sRGB;color-interpolation-filters:linearRGB;solid-color:#000000;solid-opacity:1;fill:url(#linearGradient4398);fill-opacity:1;fill-rule:nonzero;stroke:none;stroke-width:8;stroke-linecap:butt;stroke-linejoin:miter;stroke-miterlimit:4;stroke-dasharray:none;stroke-dashoffset:0;stroke-opacity:1;color-rendering:auto;image-rendering:auto;shape-rendering:auto;text-rendering:auto;enable-background:accumulate" />
      <path
         inkscape:transform-center-x="0.00011530575"
         inkscape:transform-center-y="7.9991545"
         sodipodi:nodetypes="ccccc"
         inkscape:connector-curvature="0"
         id="path6013-4-8-1-2-9-3-1"
         d="m 23.200122,1002.7621 c 1.915398,0.3529 3.198109,3.9377 3.200121,8.0005 5.6e-5,4.0654 -1.283461,8.292 -3.200123,9.6005 -1.915177,-1.1751 -3.19789,-4.6143 -3.20012,-8.0005 5.8e-5,-3.3877 1.283591,-7.4688 3.200122,-9.6005 0,0 0,0 0,0"
         style="color:#000000;clip-rule:nonzero;display:inline;overflow:visible;visibility:visible;opacity:1;isolation:auto;mix-blend-mode:normal;color-interpolation:sRGB;color-interpolation-filters:linearRGB;solid-color:#000000;solid-opacity:1;fill:url(#linearGradient4400);fill-opacity:1;fill-rule:nonzero;stroke:none;stroke-width:8;stroke-linecap:butt;stroke-linejoin:miter;stroke-miterlimit:4;stroke-dasharray:none;stroke-dashoffset:0;stroke-opacity:1;color-rendering:auto;image-rendering:auto;shape-rendering:auto;text-rendering:auto;enable-background:accumulate" />
      <path
         inkscape:connector-curvature="0"
         id="path6013-4-8-1-2-9-3-9-5"
         d="m 22.800198,1020.3761 c -0.919325,-0.036 -1.892248,-0.511 -2.800107,-1.2453 0,0 0,-11.3932 0,-11.3932 1.086073,0.4967 2.079426,1.5233 2.771981,2.9242 1.355141,2.9343 1.636762,7.2271 0.428141,9.7016 -0.131906,0.015 -0.265407,0.018 -0.400015,0.013 0,0 0,0 0,0"
         style="color:#000000;clip-rule:nonzero;display:inline;overflow:visible;visibility:visible;opacity:1;isolation:auto;mix-blend-mode:normal;color-interpolation:sRGB;color-interpolation-filters:linearRGB;solid-color:#000000;solid-opacity:1;fill:url(#linearGradient4402);fill-opacity:1;fill-rule:nonzero;stroke:none;stroke-width:8;stroke-linecap:butt;stroke-linejoin:miter;stroke-miterlimit:4;stroke-dasharray:none;stroke-dashoffset:0;stroke-opacity:1;color-rendering:auto;image-rendering:auto;shape-rendering:auto;text-rendering:auto;enable-background:accumulate" />
      <path
         inkscape:connector-curvature="0"
         id="path6013-4-8-1-2-9-3-9-0-8-84"
         d="m 20.000091,1023.6115 c 0,0 0,-6.5003 0,-6.5003 1.455666,0.5778 2.663862,1.708 3.200122,3.2501 -0.536992,1.5409 -1.744673,2.6721 -3.200122,3.2502 0,0 0,0 0,0"
         style="color:#000000;clip-rule:nonzero;display:inline;overflow:visible;visibility:visible;opacity:1;isolation:auto;mix-blend-mode:normal;color-interpolation:sRGB;color-interpolation-filters:linearRGB;solid-color:#000000;solid-opacity:1;fill:#dbb715;fill-opacity:1;fill-rule:nonzero;stroke:none;stroke-width:8;stroke-linecap:butt;stroke-linejoin:miter;stroke-miterlimit:4;stroke-dasharray:none;stroke-dashoffset:0;stroke-opacity:1;color-rendering:auto;image-rendering:auto;shape-rendering:auto;text-rendering:auto;enable-background:accumulate" />
      <path
         inkscape:connector-curvature="0"
         id="path6013-4-8-1-2-9-3-9-0-8-8-8"
         d="m 20.000091,1027.2153 c 0,0 0,-7.7876 0,-7.7876 1.22009,-0.1158 2.363464,0.1534 3.200122,0.9336 0.155857,2.5966 -1.23703,5.3967 -3.200122,6.854 0,0 0,0 0,0"
         style="color:#000000;clip-rule:nonzero;display:inline;overflow:visible;visibility:visible;opacity:1;isolation:auto;mix-blend-mode:normal;color-interpolation:sRGB;color-interpolation-filters:linearRGB;solid-color:#000000;solid-opacity:1;fill:#f1d23b;fill-opacity:1;fill-rule:nonzero;stroke:none;stroke-width:8;stroke-linecap:butt;stroke-linejoin:miter;stroke-miterlimit:4;stroke-dasharray:none;stroke-dashoffset:0;stroke-opacity:1;color-rendering:auto;image-rendering:auto;shape-rendering:auto;text-rendering:auto;enable-background:accumulate" />
      <path
         inkscape:connector-curvature="0"
         id="path6013-4-8-1-2-9-3-9-0-8-8-5-1"
         d="m 20.000091,1032.989 c 0,0 0,-11.3971 0,-11.3971 1.040882,-0.8453 2.167045,-1.346 3.200122,-1.2306 1.206802,2.4749 0.924594,6.7666 -0.428141,9.7016 -0.69196,1.4025 -1.685798,2.4296 -2.771981,2.9261 0,0 0,0 0,0"
         style="color:#000000;clip-rule:nonzero;display:inline;overflow:visible;visibility:visible;opacity:1;isolation:auto;mix-blend-mode:normal;color-interpolation:sRGB;color-interpolation-filters:linearRGB;solid-color:#000000;solid-opacity:1;fill:url(#linearGradient7163);fill-opacity:1;fill-rule:nonzero;stroke:none;stroke-width:8;stroke-linecap:butt;stroke-linejoin:miter;stroke-miterlimit:4;stroke-dasharray:none;stroke-dashoffset:0;stroke-opacity:1;color-rendering:auto;image-rendering:auto;shape-rendering:auto;text-rendering:auto;enable-background:accumulate" />
      <path
         inkscape:connector-curvature="0"
         id="path6013-0-0"
         d="m 20.882938,1033.5622 c -0.560346,-1.6749 -0.881787,-3.5069 -0.882847,-5.2004 0.0026,-3.3873 1.283533,-6.8271 3.200122,-8.0005 -1.208558,2.3103 -0.924665,6.4189 0.428141,9.9405 0.557919,1.5191 -2.745416,3.2604 -2.745416,3.2604 0,0 0,0 0,0"
         style="color:#000000;clip-rule:nonzero;display:inline;overflow:visible;visibility:visible;opacity:1;isolation:auto;mix-blend-mode:normal;color-interpolation:sRGB;color-interpolation-filters:linearRGB;solid-color:#000000;solid-opacity:1;fill:url(#linearGradient7189);fill-opacity:1;fill-rule:nonzero;stroke:none;stroke-width:8;stroke-linecap:butt;stroke-linejoin:miter;stroke-miterlimit:4;stroke-dasharray:none;stroke-dashoffset:0;stroke-opacity:1;color-rendering:auto;image-rendering:auto;shape-rendering:auto;text-rendering:auto;enable-background:accumulate" />
      <path
         style="fill:url(#linearGradient4404);fill-opacity:1;fill-rule:evenodd;stroke:none;stroke-width:1px;stroke-linecap:butt;stroke-linejoin:miter;stroke-opacity:1"
         d="m 20,1013.5087 c 0,0 0.976563,1.2754 1.242188,3.5566 C 21.507813,1019.3466 20,1019.3622 20,1019.3622 Z"
         id="path7209"
         inkscape:connector-curvature="0" />
      <path
         inkscape:connector-curvature="0"
         id="path6013-4-8-1-2-9-3-9-0-8-8-5-1-6-8"
         d="m 16.5,1006.4931 c -0.168303,0 -0.335075,0 -0.5,0.012 -1.508363,2.1756 -1.153633,5.996 0.537109,8.9297 0.864999,1.4981 2.105232,2.8025 3.462891,3.6972 l 0,-11.3965 c -1.134898,-0.7479 -2.350542,-1.2093 -3.5,-1.2421 z"
         style="color:#000000;clip-rule:nonzero;display:inline;overflow:visible;visibility:visible;opacity:1;isolation:auto;mix-blend-mode:normal;color-interpolation:sRGB;color-interpolation-filters:linearRGB;solid-color:#000000;solid-opacity:1;fill:url(#linearGradient7165);fill-opacity:1;fill-rule:nonzero;stroke:none;stroke-width:8;stroke-linecap:butt;stroke-linejoin:miter;stroke-miterlimit:4;stroke-dasharray:none;stroke-dashoffset:0;stroke-opacity:1;color-rendering:auto;image-rendering:auto;shape-rendering:auto;text-rendering:auto;enable-background:accumulate" />
      <path
         inkscape:connector-curvature="0"
         id="path6013-4-8-1-2-9-3-9-0-8-8-8-9-1"
         d="m 13.152344,1011.4208 c -1.144716,0.07 -2.19223,0.3749 -3.007813,0.9414 -0.2184847,2.6383 1.996652,5.7676 4.927735,7.4629 1.523088,0.8793 3.281312,1.3873 4.927734,1.4707 l 0,-7.7871 c -0.300763,-0.2169 -0.607668,-0.4262 -0.927734,-0.6113 -1.833536,-1.0586 -4.012063,-1.5932 -5.919922,-1.4766 z"
         style="color:#000000;clip-rule:nonzero;display:inline;overflow:visible;visibility:visible;opacity:1;isolation:auto;mix-blend-mode:normal;color-interpolation:sRGB;color-interpolation-filters:linearRGB;solid-color:#000000;solid-opacity:1;fill:url(#linearGradient7195);fill-opacity:1;fill-rule:nonzero;stroke:none;stroke-width:8;stroke-linecap:butt;stroke-linejoin:miter;stroke-miterlimit:4;stroke-dasharray:none;stroke-dashoffset:0;stroke-opacity:1;color-rendering:auto;image-rendering:auto;shape-rendering:auto;text-rendering:auto;enable-background:accumulate" />
      <path
         inkscape:connector-curvature="0"
         id="path6013-4-8-1-2-9-3-9-0-8-84-5-3"
         d="m 16,1016.3622 c -3.387495,0 -6.871816,1.6043 -8,4 1.129949,2.3941 4.613976,3.9974 8,4 1.374747,0 2.757374,-0.2759 4,-0.75 l 0,-6.5 c -1.242538,-0.4742 -2.625739,-0.7489 -4,-0.75 z"
         style="color:#000000;clip-rule:nonzero;display:inline;overflow:visible;visibility:visible;opacity:1;isolation:auto;mix-blend-mode:normal;color-interpolation:sRGB;color-interpolation-filters:linearRGB;solid-color:#000000;solid-opacity:1;fill:url(#linearGradient7167);fill-opacity:1;fill-rule:nonzero;stroke:none;stroke-width:8;stroke-linecap:butt;stroke-linejoin:miter;stroke-miterlimit:4;stroke-dasharray:none;stroke-dashoffset:0;stroke-opacity:1;color-rendering:auto;image-rendering:auto;shape-rendering:auto;text-rendering:auto;enable-background:accumulate" />
      <path
         inkscape:connector-curvature="0"
         id="path6013-4-8-1-2-9-3-9-0-9-7-8"
         d="m 19.820312,1019.4286 c -1.593382,0.1112 -3.28102,0.6234 -4.748046,1.4688 -2.933627,1.6938 -5.1485328,4.824 -4.927735,7.4628 2.175628,1.5084 5.994075,1.1557 8.927735,-0.5351 0.320339,-0.185 0.626763,-0.3946 0.927734,-0.6113 l 0,-7.7852 c -0.06068,0 -0.118711,0 -0.179688,0 z"
         style="color:#000000;clip-rule:nonzero;display:inline;overflow:visible;visibility:visible;opacity:1;isolation:auto;mix-blend-mode:normal;color-interpolation:sRGB;color-interpolation-filters:linearRGB;solid-color:#000000;solid-opacity:1;fill:url(#linearGradient7132);fill-opacity:1;fill-rule:nonzero;stroke:none;stroke-width:8;stroke-linecap:butt;stroke-linejoin:miter;stroke-miterlimit:4;stroke-dasharray:none;stroke-dashoffset:0;stroke-opacity:1;color-rendering:auto;image-rendering:auto;shape-rendering:auto;text-rendering:auto;enable-background:accumulate" />
      <path
         inkscape:connector-curvature="0"
         id="path6013-4-8-1-2-9-3-9-5-1-8"
         d="m 20,1021.5927 c -1.357535,0.8947 -2.597059,2.1984 -3.462891,3.6953 -1.693688,2.9337 -2.047686,6.7549 -0.537109,8.9297 1.291089,0.1069 2.699062,-0.375 4,-1.2325 l 0,-11.3925 z"
         style="color:#000000;clip-rule:nonzero;display:inline;overflow:visible;visibility:visible;opacity:1;isolation:auto;mix-blend-mode:normal;color-interpolation:sRGB;color-interpolation-filters:linearRGB;solid-color:#000000;solid-opacity:1;fill:url(#linearGradient7124);fill-opacity:1;fill-rule:nonzero;stroke:none;stroke-width:8;stroke-linecap:butt;stroke-linejoin:miter;stroke-miterlimit:4;stroke-dasharray:none;stroke-dashoffset:0;stroke-opacity:1;color-rendering:auto;image-rendering:auto;shape-rendering:auto;text-rendering:auto;enable-background:accumulate" />
      <path
         style="color:#000000;clip-rule:nonzero;display:inline;overflow:visible;visibility:visible;opacity:1;isolation:auto;mix-blend-mode:normal;color-interpolation:sRGB;color-interpolation-filters:linearRGB;solid-color:#000000;solid-opacity:1;fill:#28618c;fill-opacity:1;fill-rule:nonzero;stroke:none;stroke-width:8;stroke-linecap:butt;stroke-linejoin:miter;stroke-miterlimit:4;stroke-dasharray:none;stroke-dashoffset:0;stroke-opacity:1;color-rendering:auto;image-rendering:auto;shape-rendering:auto;text-rendering:auto;enable-background:accumulate"
         d="m 4,47 0,1 c 0,2.216 1.7839905,4 4,4 l 12,0 16,8 c 1.982058,0.991 4,-1.784 4,-4 l 0,-1 c 0,2.216 -2.017942,4.991 -4,4 L 20,51 8,51 C 5.7839905,51 4,49.216 4,47 Z"
         transform="translate(0,988.3622)"
         id="rect5942-8"
         inkscape:connector-curvature="0" />
      <path
         style="color:#000000;clip-rule:nonzero;display:inline;overflow:visible;visibility:visible;opacity:1;isolation:auto;mix-blend-mode:normal;color-interpolation:sRGB;color-interpolation-filters:linearRGB;solid-color:#000000;solid-opacity:1;fill:url(#linearGradient7230);fill-opacity:1;fill-rule:nonzero;stroke:none;stroke-width:8;stroke-linecap:butt;stroke-linejoin:miter;stroke-miterlimit:4;stroke-dasharray:none;stroke-dashoffset:0;stroke-opacity:1;color-rendering:auto;image-rendering:auto;shape-rendering:auto;text-rendering:auto;enable-background:accumulate"
         d="m 25.34375,24.160156 -1.177734,0.697266 -0.966797,-0.332031 -0.964844,1.214843 -1.177734,-0.179687 -0.607422,1.46875 L 20,27.177734 19.050781,27.300781 18.855469,28.8125 17.533203,29.570312 17.931641,31.042969 17,32.25 l 0.931641,1.207031 -0.398438,1.472657 1.322266,0.757812 0.195312,1.511719 L 20,37.322266 l 0.449219,0.140625 0.607422,1.458984 1.177734,-0.197266 0.966797,0.699219 0.964844,-0.849609 1.177734,0.679687 0.607422,-1.449218 1.208984,-0.05469 0.15625,-1.833984 1.056641,-0.851563 -0.318359,-1.867187 0.746093,-1.517578 -0.746093,-1.503907 0.318359,-1.873047 -1.056641,-0.833984 -0.15625,-1.832031 -1.208984,-0.03516 -0.607422,-1.441406 z"
         id="path6244-3"
         transform="translate(0,988.3622)"
         inkscape:connector-curvature="0" />
      <path
         style="color:#000000;clip-rule:nonzero;display:inline;overflow:visible;visibility:visible;opacity:1;isolation:auto;mix-blend-mode:normal;color-interpolation:sRGB;color-interpolation-filters:linearRGB;solid-color:#000000;solid-opacity:1;fill:#4e3716;fill-opacity:1;fill-rule:nonzero;stroke:none;stroke-width:8;stroke-linecap:butt;stroke-linejoin:miter;stroke-miterlimit:4;stroke-dasharray:none;stroke-dashoffset:0;stroke-opacity:1;color-rendering:auto;image-rendering:auto;shape-rendering:auto;text-rendering:auto;enable-background:accumulate"
         d="m 28.222656,28.183594 -0.167968,0.992187 0.126953,0.25586 0.191406,-1.128907 -0.150391,-0.11914 z m -10.455078,1.251953 -0.234375,0.134765 0.197266,0.732422 0.201172,-0.259765 -0.164063,-0.607422 z m 10.78711,1.746094 -0.5,1.015625 0.126953,0.742187 0.61914,-1.259765 -0.246093,-0.498047 z M 17.386719,31.75 17,32.25 17.730469,33.197266 17.931641,32.457031 17.386719,31.75 Z m 0.380859,2.314453 -0.234375,0.865235 1.322266,0.757812 0.195312,1.511719 L 20,37.322266 l 0.449219,0.140625 0.607422,1.458984 1.177734,-0.197266 0.966797,0.699219 0.964844,-0.849609 1.177734,0.679687 0.607422,-1.449218 1.208984,-0.05469 0.15625,-1.833984 1.056641,-0.851563 -0.150391,-0.878906 -0.90625,0.730469 -0.15625,1.833984 -1.208984,0.05469 -0.607422,1.449218 -1.177734,-0.679687 -0.964844,0.849609 -0.966797,-0.699219 -1.177734,0.197266 L 20.449219,36.462891 20,36.322266 19.050781,36.199219 18.855469,34.6875 17.767578,34.064453 Z"
         transform="translate(0,988.3622)"
         id="path6244-3-9"
         inkscape:connector-curvature="0" />
      <path
         sodipodi:nodetypes="csssscc"
         inkscape:connector-curvature="0"
         id="rect5942-6"
         d="m 20,1000.3622 15.999983,-8 c 1.982058,-0.99103 4.000017,1.784 4.000017,4 l 0,48 c 0,2.216 -2.017959,4.991 -4.000017,4 L 20,1040.3622 Z"
         style="color:#000000;clip-rule:nonzero;display:inline;overflow:visible;visibility:visible;opacity:0.1;isolation:auto;mix-blend-mode:normal;color-interpolation:sRGB;color-interpolation-filters:linearRGB;solid-color:#000000;solid-opacity:1;fill:#000000;fill-opacity:1;fill-rule:nonzero;stroke:none;stroke-width:8;stroke-linecap:butt;stroke-linejoin:miter;stroke-miterlimit:4;stroke-dasharray:none;stroke-dashoffset:0;stroke-opacity:1;color-rendering:auto;image-rendering:auto;shape-rendering:auto;text-rendering:auto;enable-background:accumulate" />
      <g
         id="g7219">
        <rect
           transform="scale(-1,1)"
           y="1000.3622"
           x="-20"
           height="40"
           width="1"
           id="rect6994"
           style="color:#000000;clip-rule:nonzero;display:inline;overflow:visible;visibility:visible;opacity:0.1;isolation:auto;mix-blend-mode:normal;color-interpolation:sRGB;color-interpolation-filters:linearRGB;solid-color:#000000;solid-opacity:1;fill:url(#linearGradient7012);fill-opacity:1;fill-rule:nonzero;stroke:none;stroke-width:8;stroke-linecap:butt;stroke-linejoin:miter;stroke-miterlimit:4;stroke-dasharray:none;stroke-dashoffset:0;stroke-opacity:1;color-rendering:auto;image-rendering:auto;shape-rendering:auto;text-rendering:auto;enable-background:accumulate" />
        <path
           id="rect6996"
           transform="translate(0,988.3622)"
           d="m 21,11.5 -1,0.5 0,40 1,0.5 0,-41 z"
           style="color:#000000;clip-rule:nonzero;display:inline;overflow:visible;visibility:visible;opacity:0.1;isolation:auto;mix-blend-mode:normal;color-interpolation:sRGB;color-interpolation-filters:linearRGB;solid-color:#000000;solid-opacity:1;fill:url(#linearGradient7004);fill-opacity:1;fill-rule:nonzero;stroke:none;stroke-width:8;stroke-linecap:butt;stroke-linejoin:miter;stroke-miterlimit:4;stroke-dasharray:none;stroke-dashoffset:0;stroke-opacity:1;color-rendering:auto;image-rendering:auto;shape-rendering:auto;text-rendering:auto;enable-background:accumulate"
           inkscape:connector-curvature="0" />
      </g>
    </g>
  </g>
</svg>
