<?xml version="1.0" encoding="UTF-8" standalone="no"?>
<!-- Created with Inkscape (http://www.inkscape.org/) -->

<svg
   xmlns:dc="http://purl.org/dc/elements/1.1/"
   xmlns:cc="http://creativecommons.org/ns#"
   xmlns:rdf="http://www.w3.org/1999/02/22-rdf-syntax-ns#"
   xmlns:svg="http://www.w3.org/2000/svg"
   xmlns="http://www.w3.org/2000/svg"
   xmlns:xlink="http://www.w3.org/1999/xlink"
   xmlns:sodipodi="http://sodipodi.sourceforge.net/DTD/sodipodi-0.dtd"
   xmlns:inkscape="http://www.inkscape.org/namespaces/inkscape"
   width="64"
   height="64"
   viewBox="0 0 64 64.000001"
   id="svg2"
   version="1.1"
   inkscape:version="0.91 r13725"
   sodipodi:docname="preferences-system-time.svg">
  <defs
     id="defs4">
    <linearGradient
       inkscape:collect="always"
       xlink:href="#linearGradient9324"
       id="linearGradient9330"
       x1="-4"
       y1="1020.3622"
       x2="60"
       y2="1020.3622"
       gradientUnits="userSpaceOnUse"
       gradientTransform="translate(-1052.3622,-988.36218)" />
    <linearGradient
       inkscape:collect="always"
       id="linearGradient9324">
      <stop
         style="stop-color:#98929a;stop-opacity:1"
         offset="0"
         id="stop9326" />
      <stop
         style="stop-color:#b6b2b6;stop-opacity:1"
         offset="1"
         id="stop9328" />
    </linearGradient>
    <linearGradient
       inkscape:collect="always"
       xlink:href="#linearGradient4435"
       id="linearGradient4441"
       x1="8"
       y1="1020.3622"
       x2="56"
       y2="1020.3622"
       gradientUnits="userSpaceOnUse"
       gradientTransform="translate(988.36217,-988.36222)" />
    <linearGradient
       inkscape:collect="always"
       id="linearGradient4435">
      <stop
         style="stop-color:#e7e5e5;stop-opacity:1;"
         offset="0"
         id="stop4437" />
      <stop
         style="stop-color:#f5f4f4;stop-opacity:1"
         offset="1"
         id="stop4439" />
    </linearGradient>
  </defs>
  <sodipodi:namedview
     id="base"
     pagecolor="#ffffff"
     bordercolor="#666666"
     borderopacity="1.0"
     inkscape:pageopacity="0.0"
     inkscape:pageshadow="2"
     inkscape:zoom="2.8284271"
     inkscape:cx="13.955493"
     inkscape:cy="50.335801"
     inkscape:document-units="px"
     inkscape:current-layer="layer1"
     showgrid="false"
     units="px"
     inkscape:snap-bbox="true"
     inkscape:bbox-nodes="true"
     inkscape:window-width="1366"
     inkscape:window-height="697"
     inkscape:window-x="0"
     inkscape:window-y="0"
     inkscape:window-maximized="1"
     inkscape:snap-global="true"
     inkscape:object-nodes="true"
     inkscape:snap-object-midpoints="true"
     inkscape:snap-center="true"
     inkscape:snap-smooth-nodes="false"
     inkscape:snap-others="false"
     inkscape:snap-bbox-edge-midpoints="false"
     inkscape:snap-nodes="true">
    <inkscape:grid
       type="xygrid"
       id="grid4136"
       empspacing="4" />
  </sodipodi:namedview>
  <metadata
     id="metadata7">
    <rdf:RDF>
      <cc:Work
         rdf:about="">
        <dc:format>image/svg+xml</dc:format>
        <dc:type
           rdf:resource="http://purl.org/dc/dcmitype/StillImage" />
        <dc:title />
      </cc:Work>
    </rdf:RDF>
  </metadata>
  <g
     inkscape:label="icon"
     inkscape:groupmode="layer"
     id="layer1"
     transform="translate(0,-988.3622)">
    <g
       id="g8210" />
    <circle
       style="opacity:1;fill:url(#linearGradient9330);fill-opacity:1;stroke:none;stroke-width:4;stroke-linecap:round;stroke-linejoin:round;stroke-miterlimit:4;stroke-dasharray:none;stroke-opacity:1"
       id="path9281"
       cx="-1020.3622"
       cy="32"
       r="28"
       transform="matrix(0,-1,1,0,0,0)" />
    <circle
       style="opacity:1;fill:url(#linearGradient4441);fill-opacity:1;stroke:none;stroke-width:4;stroke-linecap:round;stroke-linejoin:round;stroke-miterlimit:4;stroke-dasharray:none;stroke-opacity:1"
       id="path9281-6"
       cx="1020.3622"
       cy="32"
       r="24"
       transform="matrix(0,1,1,0,0,0)" />
    <rect
       style="opacity:1;fill:#343031;fill-opacity:1;stroke:none;stroke-width:4;stroke-linecap:round;stroke-linejoin:round;stroke-miterlimit:4;stroke-dasharray:none;stroke-opacity:1"
       id="rect9307"
       width="4"
       height="6"
       x="30"
       y="998.36218"
       ry="1" />
    <rect
       style="opacity:1;fill:#343031;fill-opacity:1;stroke:none;stroke-width:4;stroke-linecap:round;stroke-linejoin:round;stroke-miterlimit:4;stroke-dasharray:none;stroke-opacity:1"
       id="rect9309"
       width="6"
       height="4"
       x="48"
       y="1018.3622"
       ry="1" />
    <rect
       style="opacity:1;fill:#343031;fill-opacity:1;stroke:none;stroke-width:4;stroke-linecap:round;stroke-linejoin:round;stroke-miterlimit:4;stroke-dasharray:none;stroke-opacity:1"
       id="rect9311"
       width="6"
       height="4"
       x="10"
       y="1018.3622"
       ry="1" />
    <rect
       style="opacity:1;fill:#343031;fill-opacity:1;stroke:none;stroke-width:4;stroke-linecap:round;stroke-linejoin:round;stroke-miterlimit:4;stroke-dasharray:none;stroke-opacity:1"
       id="rect9313"
       width="4"
       height="6"
       x="30"
       y="1036.3622"
       ry="1" />
    <path
       inkscape:connector-curvature="0"
       style="opacity:1;fill:#ac0808;fill-opacity:1;stroke:none;stroke-width:4;stroke-linecap:round;stroke-linejoin:round;stroke-miterlimit:4;stroke-dasharray:none;stroke-opacity:1"
       d="m 42.022973,1003.0478 c -0.479778,-0.277 -1.089026,-0.1137 -1.366026,0.3661 l -0.08691,0.1505 a 3,3 0 0 0 -3.145136,1.4475 3,3 0 0 0 0.319941,3.4459 l -6.587891,11.4106 c -0.277,0.4797 -0.113752,1.089 0.366026,1.366 0.479778,0.277 1.089025,0.1137 1.366025,-0.366 l 6.586914,-11.4089 a 3,3 0 0 0 3.145137,-1.4476 3,3 0 0 0 -0.319941,-3.4458 l 0.08789,-0.1522 c 0.277,-0.4798 0.113753,-1.0891 -0.366025,-1.3661 z"
       id="rect9298" />
    <circle
       style="opacity:1;fill:#e7e5e5;fill-opacity:1;stroke:none;stroke-width:4;stroke-linecap:round;stroke-linejoin:round;stroke-miterlimit:4;stroke-dasharray:none;stroke-opacity:1"
       id="path9302"
       cx="537.91687"
       cy="851.65338"
       r="1"
       transform="matrix(0.8660254,0.5,-0.5,0.8660254,0,0)" />
    <path
       style="opacity:1;fill:#343031;fill-opacity:1;stroke:none;stroke-width:4;stroke-linecap:round;stroke-linejoin:round;stroke-miterlimit:4;stroke-dasharray:none;stroke-opacity:1"
       d="m 33.860916,1019.1492 c -0.892508,-0.6566 -2.178051,-0.2275 -2.732051,0.7321 -0.554,0.9595 -0.282815,2.2874 0.732051,2.732 l 8.294229,3.634 c 0.507434,0.2223 1.089025,0.1137 1.366025,-0.366 0.277,-0.4798 0.08023,-1.0378 -0.366025,-1.3661 z"
       id="rect9315"
       inkscape:connector-curvature="0"
       sodipodi:nodetypes="sssssss"
       inkscape:transform-center-x="-4.2859697"
       inkscape:transform-center-y="2.2336698" />
    <path
       inkscape:connector-curvature="0"
       style="opacity:1;fill:#7a747c;fill-opacity:1;stroke:none;stroke-width:4;stroke-linecap:round;stroke-linejoin:round;stroke-miterlimit:4;stroke-dasharray:none;stroke-opacity:1"
       d="M 59.978516,1019.7763 A 28,28 0 0 1 32,1047.3622 28,28 0 0 1 4.0214844,1019.9481 28,28 0 0 0 4,1020.3622 a 28,28 0 0 0 28,28 28,28 0 0 0 28,-28 28,28 0 0 0 -0.02148,-0.5859 z"
       id="path9281-8" />
    <path
       style="opacity:1;fill:#98929a;fill-opacity:1;stroke:none;stroke-width:4;stroke-linecap:round;stroke-linejoin:round;stroke-miterlimit:4;stroke-dasharray:none;stroke-opacity:1"
       d="m 32,995.3622 a 24,24 0 0 0 -24,24 24,24 0 0 0 0.021484,0.582 A 24,24 0 0 1 32,996.3622 a 24,24 0 0 1 23.978516,23.418 24,24 0 0 0 0.02148,-0.418 24,24 0 0 0 -24,-24 z"
       id="path9281-6-3"
       inkscape:connector-curvature="0" />
  </g>
</svg>
