<?xml version="1.0" encoding="UTF-8" standalone="no"?>
<!-- Created with Inkscape (http://www.inkscape.org/) -->

<svg
   xmlns:dc="http://purl.org/dc/elements/1.1/"
   xmlns:cc="http://creativecommons.org/ns#"
   xmlns:rdf="http://www.w3.org/1999/02/22-rdf-syntax-ns#"
   xmlns:svg="http://www.w3.org/2000/svg"
   xmlns="http://www.w3.org/2000/svg"
   xmlns:xlink="http://www.w3.org/1999/xlink"
   xmlns:sodipodi="http://sodipodi.sourceforge.net/DTD/sodipodi-0.dtd"
   xmlns:inkscape="http://www.inkscape.org/namespaces/inkscape"
   id="svg2"
   height="64"
   viewBox="0 0 64 64.000001"
   width="64"
   version="1.1"
   inkscape:version="0.91 r13725"
   sodipodi:docname="qtcreator.svg">
  <sodipodi:namedview
     pagecolor="#ffffff"
     bordercolor="#666666"
     borderopacity="1"
     objecttolerance="10"
     gridtolerance="10"
     guidetolerance="10"
     inkscape:pageopacity="0"
     inkscape:pageshadow="2"
     inkscape:window-width="2986"
     inkscape:window-height="1590"
     id="namedview15"
     showgrid="false"
     inkscape:zoom="3.6875"
     inkscape:cx="19.380292"
     inkscape:cy="-14.318604"
     inkscape:window-x="0"
     inkscape:window-y="0"
     inkscape:window-maximized="0"
     inkscape:current-layer="svg2" />
  <defs
     id="defs4">
    <linearGradient
       inkscape:collect="always"
       xlink:href="#linearGradient4927"
       id="linearGradient5084-5"
       gradientUnits="userSpaceOnUse"
       gradientTransform="translate(30,-988.3622)"
       x1="0"
       y1="1040.3622"
       x2="0"
       y2="1000.3622" />
    <linearGradient
       inkscape:collect="always"
       id="linearGradient4927">
      <stop
         style="stop-color:#4e8133;stop-opacity:1"
         offset="0"
         id="stop4929" />
      <stop
         style="stop-color:#60d61a;stop-opacity:1"
         offset="1"
         id="stop4931" />
    </linearGradient>
  </defs>
  <metadata
     id="metadata7">
    <rdf:RDF>
      <cc:Work
         rdf:about="">
        <dc:format>image/svg+xml</dc:format>
        <dc:type
           rdf:resource="http://purl.org/dc/dcmitype/StillImage" />
        <dc:title />
      </cc:Work>
    </rdf:RDF>
  </metadata>
  <path
     style="fill:url(#linearGradient5084-5);fill-opacity:1;fill-rule:evenodd;stroke:none;stroke-width:1px;stroke-linecap:butt;stroke-linejoin:miter;stroke-opacity:1"
     d="m 14,12 c -1,0 -2,0 -3.5,1.5 l -5,5 C 4,20 4,21 4,22 l 0,28 c 0,1 1,2 2,2 l 44,0 c 1,0 2,0 3.5,-1.5 l 5,-5 C 60,44 60,43 60,42 l 0,-28 c 0,-1 -1,-2 -2,-2 z"
     id="path4925-2-2"
     inkscape:connector-curvature="0"
     sodipodi:nodetypes="sssssssssssss" />
  <path
     style="fill:#2b481c;fill-opacity:1;fill-rule:evenodd;stroke:none;stroke-width:1px;stroke-linecap:butt;stroke-linejoin:miter;stroke-opacity:1"
     d="m 60,41 c 0,1 0,2 -1.5,3.5 l -5,5 C 52,51 51,51 50,51 L 6,51 C 5,51 4,50 4,49 l 0,1 c 0,1 1,2 2,2 l 44,0 c 1,0 2,0 3.5,-1.5 l 5,-5 C 60,44 60,43 60,42 l 0,-1 z"
     id="path4925-6-3-4"
     inkscape:connector-curvature="0" />
  <path
     style="fill:#cac6c9;fill-rule:evenodd;stroke:none;stroke-width:1px;stroke-linecap:butt;stroke-linejoin:miter;stroke-opacity:1"
     d="M 20,44 C 20,38 21.79257,30.669 26.23082,26.2309 30.66908,21.7926 38,20 44,20 l -9,15 z"
     id="path5191-4-7"
     inkscape:connector-curvature="0"
     sodipodi:nodetypes="caccc" />
  <path
     style="fill:#dddbdb;fill-rule:evenodd;stroke:none;stroke-width:1px;stroke-linecap:butt;stroke-linejoin:miter;stroke-opacity:1"
     d="M 20,44 44,20 C 44,26 42.20742,33.331 37.76918,37.7691 33.33092,42.2074 26,44 20,44 Z"
     id="path5191-44"
     inkscape:connector-curvature="0"
     sodipodi:nodetypes="ccac" />
</svg>
