<?xml version="1.0" encoding="UTF-8" standalone="no"?>
<!-- Created with Inkscape (http://www.inkscape.org/) -->

<svg
   xmlns:dc="http://purl.org/dc/elements/1.1/"
   xmlns:cc="http://creativecommons.org/ns#"
   xmlns:rdf="http://www.w3.org/1999/02/22-rdf-syntax-ns#"
   xmlns:svg="http://www.w3.org/2000/svg"
   xmlns="http://www.w3.org/2000/svg"
   xmlns:xlink="http://www.w3.org/1999/xlink"
   xmlns:sodipodi="http://sodipodi.sourceforge.net/DTD/sodipodi-0.dtd"
   xmlns:inkscape="http://www.inkscape.org/namespaces/inkscape"
   id="svg2"
   height="64"
   viewBox="0 0 64 64.000001"
   width="64"
   version="1.1"
   inkscape:version="0.91 r13725"
   sodipodi:docname="QtProject-designer.svg">
  <sodipodi:namedview
     pagecolor="#ffffff"
     bordercolor="#666666"
     borderopacity="1"
     objecttolerance="10"
     gridtolerance="10"
     guidetolerance="10"
     inkscape:pageopacity="0"
     inkscape:pageshadow="2"
     inkscape:window-width="2986"
     inkscape:window-height="1590"
     id="namedview15"
     showgrid="false"
     inkscape:zoom="3.6875"
     inkscape:cx="-36.484115"
     inkscape:cy="-16.488096"
     inkscape:window-x="0"
     inkscape:window-y="0"
     inkscape:window-maximized="0"
     inkscape:current-layer="svg2" />
  <defs
     id="defs4">
    <linearGradient
       gradientTransform="matrix(1.7500006,0,0,1.7500006,-1405.4706,-1114.1417)"
       inkscape:collect="always"
       xlink:href="#linearGradient5334"
       id="linearGradient5340-5"
       x1="823.32843"
       y1="630.99536"
       x2="834.88477"
       y2="642.5517"
       gradientUnits="userSpaceOnUse" />
    <linearGradient
       inkscape:collect="always"
       id="linearGradient5334">
      <stop
         style="stop-color:#1287de;stop-opacity:1"
         offset="0"
         id="stop5336" />
      <stop
         style="stop-color:#0566af;stop-opacity:1"
         offset="1"
         id="stop5338" />
    </linearGradient>
    <linearGradient
       inkscape:collect="always"
       xlink:href="#linearGradient4927"
       id="linearGradient5084-6-9"
       gradientUnits="userSpaceOnUse"
       gradientTransform="translate(30,-988.3622)"
       x1="0"
       y1="1040.3622"
       x2="0"
       y2="1000.3622" />
    <linearGradient
       inkscape:collect="always"
       id="linearGradient4927">
      <stop
         style="stop-color:#4e8133;stop-opacity:1"
         offset="0"
         id="stop4929" />
      <stop
         style="stop-color:#60d61a;stop-opacity:1"
         offset="1"
         id="stop4931" />
    </linearGradient>
  </defs>
  <metadata
     id="metadata7">
    <rdf:RDF>
      <cc:Work
         rdf:about="">
        <dc:format>image/svg+xml</dc:format>
        <dc:type
           rdf:resource="http://purl.org/dc/dcmitype/StillImage" />
        <dc:title />
      </cc:Work>
    </rdf:RDF>
  </metadata>
  <path
     style="fill:url(#linearGradient5084-6-9);fill-opacity:1;fill-rule:evenodd;stroke:none;stroke-width:1px;stroke-linecap:butt;stroke-linejoin:miter;stroke-opacity:1"
     d="m 14,12 c -1,0 -2,0 -3.5,1.5 l -5,5 C 4,20 4,21 4,22 l 0,28 c 0,1 1,2 2,2 l 44,0 c 1,0 2,0 3.5,-1.5 l 5,-5 C 60,44 60,43 60,42 l 0,-28 c 0,-1 -1,-2 -2,-2 z"
     id="path4925-2-6-3"
     inkscape:connector-curvature="0"
     sodipodi:nodetypes="sssssssssssss" />
  <path
     style="fill:#2b481c;fill-opacity:1;fill-rule:evenodd;stroke:none;stroke-width:1px;stroke-linecap:butt;stroke-linejoin:miter;stroke-opacity:1"
     d="m 60,41 c 0,1 0,2 -1.5,3.5 l -5,5 C 52,51 51,51 50,51 L 6,51 C 5,51 4,50 4,49 l 0,1 c 0,1 1,2 2,2 l 44,0 c 1,0 2,0 3.5,-1.5 l 5,-5 C 60,44 60,43 60,42 l 0,-1 z"
     id="path4925-6-3-2-7"
     inkscape:connector-curvature="0" />
  <circle
     style="color:#000000;clip-rule:nonzero;display:inline;overflow:visible;visibility:visible;opacity:1;isolation:auto;mix-blend-mode:normal;color-interpolation:sRGB;color-interpolation-filters:linearRGB;solid-color:#000000;solid-opacity:1;fill:url(#linearGradient5340-5);fill-opacity:1;fill-rule:nonzero;stroke:none;stroke-width:2;stroke-linecap:butt;stroke-linejoin:miter;stroke-miterlimit:4;stroke-dasharray:none;stroke-dashoffset:0;stroke-opacity:1;color-rendering:auto;image-rendering:auto;shape-rendering:auto;text-rendering:auto;enable-background:accumulate"
     id="path5294-8"
     cx="45.254601"
     cy="0.00015640078"
     r="14.000005"
     transform="matrix(0.70710678,0.70710678,-0.70710678,0.70710678,0,0)" />
  <path
     style="color:#000000;clip-rule:nonzero;display:inline;overflow:visible;visibility:visible;opacity:1;isolation:auto;mix-blend-mode:normal;color-interpolation:sRGB;color-interpolation-filters:linearRGB;solid-color:#000000;solid-opacity:1;fill:#f5f4f4;fill-opacity:1;fill-rule:nonzero;stroke:none;stroke-width:2;stroke-linecap:butt;stroke-linejoin:miter;stroke-miterlimit:4;stroke-dasharray:none;stroke-dashoffset:0;stroke-opacity:1;color-rendering:auto;image-rendering:auto;shape-rendering:auto;text-rendering:auto;enable-background:accumulate"
     d="m 35.62124,24.4999 c -0.38345,0 -0.76679,0.1455 -1.06055,0.4395 l -8.56057,8.5605 0,4.5001 4.50001,0 8.56057,-8.5606 c 0.58769,-0.5877 0.58754,-1.5336 0,-2.1211 L 36.68178,24.9394 C 36.38802,24.6456 36.0047,24.4999 35.62124,24.4999 Z"
     id="rect5296-6"
     inkscape:connector-curvature="0"
     sodipodi:nodetypes="sccccsscs" />
</svg>
