<?xml version="1.0" encoding="UTF-8" standalone="no"?>
<!-- Created with Inkscape (http://www.inkscape.org/) -->
<svg id="svg2" xmlns:rdf="http://www.w3.org/1999/02/22-rdf-syntax-ns#" xmlns="http://www.w3.org/2000/svg" height="64" viewBox="0 0 64 64.000001" width="64" version="1.1" xmlns:cc="http://creativecommons.org/ns#" xmlns:dc="http://purl.org/dc/elements/1.1/">
	<defs id="defs4">
		<linearGradient id="linearGradient13945" x1="32" gradientUnits="userSpaceOnUse" y1="56" gradientTransform="translate(0 992.36)" x2="32" y2="8">
			<stop id="stop13941" stop-color="#0566af" offset="0"/>
			<stop id="stop13943" stop-color="#1287de" offset="1"/>
		</linearGradient>
		<linearGradient id="linearGradient5193" x1="616.52" gradientUnits="userSpaceOnUse" y1="235.36" gradientTransform="translate(-580 778.36)" x2="616.52" y2="258">
			<stop id="stop4996" stop-color="#fcfcfc" offset="0"/>
			<stop id="stop4998" stop-color="#dddbdb" offset="1"/>
		</linearGradient>
	</defs>
	<metadata id="metadata7">
		<rdf:RDF>
			<cc:Work rdf:about="">
				<dc:format>image/svg+xml</dc:format>
				<dc:type rdf:resource="http://purl.org/dc/dcmitype/StillImage"/>
				<dc:title/>
			</cc:Work>
		</rdf:RDF>
	</metadata>
	<g id="layer1" transform="translate(0 -988.36)">
		<path id="path13936" style="color-rendering:auto;color:#000000;isolation:auto;mix-blend-mode:normal;shape-rendering:auto;solid-color:#000000;image-rendering:auto" fill="url(#linearGradient13945)" d="m8 1000.4c-2.216 0-4 1.784-4 4v32c0 2.216 1.784 3.9942 4 4h30c2 0 4.7399 1.9098 6 3.0004l5 4.3263c0.94507 0.8179 1.7749 0.9741 2 0l1-4.3263c0.45021-1.9483 2-3.0004 4-3.0004 2.2812 0 4-1.784 4-4v-32c0-2.216-1.784-4-4-4z"/>
		<path id="rect5130" style="color-rendering:auto;color:#000000;isolation:auto;mix-blend-mode:normal;shape-rendering:auto;solid-color:#000000;image-rendering:auto" fill="url(#linearGradient5193)" d="m11.441 1024.4-0.48633 2h-2.0098l-0.48633 2h2.0098l-0.97266 4h-2.0098l-0.48633 2h2.0098l-0.48829 2h2.0098l0.48633-2h4.0176l-0.48633 2h2.0098l0.48633-2h2.0098l0.48633-2h-2.0098l0.97266-4h2.0098l0.48633-2h-2.0098l0.48829-2h-2.0098l-0.48633 2h-4.0176l0.48633-2h-2.0098zm1.0371 4h4.0176l-0.97461 4h-4.0176l0.97461-4zm35.521 4a2 2 0 0 0 -2 2 2 2 0 0 0 2 2 2 2 0 0 0 2 -2 2 2 0 0 0 -2 -2zm6 0a2 2 0 0 0 -2 2 2 2 0 0 0 2 2 2 2 0 0 0 2 -2 2 2 0 0 0 -2 -2z"/>
		<path id="path13936-6" style="color-rendering:auto;color:#000000;isolation:auto;mix-blend-mode:normal;shape-rendering:auto;solid-color:#000000;image-rendering:auto" fill="#023962" d="m4 1035.4v1c0 2.216 1.784 3.9942 4 4h30c2 0 4.7399 1.9094 6 3l5 4.3262c0.94507 0.8179 1.7749 0.9741 2 0l1-4.3262c0.45021-1.9483 2-3 4-3 2.2812 0 4-1.784 4-4v-1c0 2.216-1.7188 4-4 4-2 0-3.5498 1.0517-4 3l-1 4.3262c-0.2251 0.9741-1.0549 0.8179-2 0l-5-4.3262c-1.2601-1.0906-4-3-6-3h-30c-2.216-0.01-4-1.784-4-4z"/>
	</g>
</svg>
