<?xml version="1.0" encoding="UTF-8" standalone="no"?>
<!-- Created with Inkscape (http://www.inkscape.org/) -->

<svg
   xmlns:dc="http://purl.org/dc/elements/1.1/"
   xmlns:cc="http://creativecommons.org/ns#"
   xmlns:rdf="http://www.w3.org/1999/02/22-rdf-syntax-ns#"
   xmlns:svg="http://www.w3.org/2000/svg"
   xmlns="http://www.w3.org/2000/svg"
   xmlns:xlink="http://www.w3.org/1999/xlink"
   xmlns:sodipodi="http://sodipodi.sourceforge.net/DTD/sodipodi-0.dtd"
   xmlns:inkscape="http://www.inkscape.org/namespaces/inkscape"
   id="svg2"
   height="64"
   viewBox="0 0 64 64.000001"
   width="64"
   version="1.1"
   inkscape:version="0.91 r13725"
   sodipodi:docname="qupzilla.svg">
  <sodipodi:namedview
     pagecolor="#ffffff"
     bordercolor="#666666"
     borderopacity="1"
     objecttolerance="10"
     gridtolerance="10"
     guidetolerance="10"
     inkscape:pageopacity="0"
     inkscape:pageshadow="2"
     inkscape:window-width="3840"
     inkscape:window-height="2045"
     id="namedview15"
     showgrid="false"
     inkscape:zoom="3.6875"
     inkscape:cx="32"
     inkscape:cy="29.830508"
     inkscape:window-x="0"
     inkscape:window-y="0"
     inkscape:window-maximized="1"
     inkscape:current-layer="svg2" />
  <defs
     id="defs4">
    <linearGradient
       id="b-3-2"
       y1="11.853139"
       x1="23.288126"
       y2="31.855639"
       x2="23.288126"
       gradientUnits="userSpaceOnUse"
       gradientTransform="matrix(1.399825,0,0,1.399825,-1.5993,-1.5923196)">
      <stop
         stop-color="#fcfcfc"
         id="stop12-2-5"
         style="stop-color:#fcfcfc;stop-opacity:1" />
      <stop
         offset="1"
         stop-color="#eff1f1"
         id="stop14-0-47"
         style="stop-color:#dddbdb;stop-opacity:1" />
    </linearGradient>
    <linearGradient
       id="c-6"
       y1="22.568756"
       x1="28.742001"
       y2="39.38567"
       x2="28.742001"
       gradientUnits="userSpaceOnUse"
       gradientTransform="matrix(1.399825,0,0,1.399825,-1.5993,-1.5923096)">
      <stop
         stop-color="#4ce0c6"
         id="stop17-1"
         style="stop-color:#9ce0c4;stop-opacity:1" />
      <stop
         offset="1"
         stop-color="#31bfa6"
         id="stop21-6"
         style="stop-color:#40b081;stop-opacity:1" />
    </linearGradient>
    <linearGradient
       id="linearGradient4913"
       y2="153.5"
       gradientUnits="userSpaceOnUse"
       x2="-493.35999"
       gradientTransform="matrix(0,-1,1,0,-120,-462.36)"
       y1="153.5"
       x1="-494.35999">
      <stop
         id="stop4909"
         stop-color="#f5f4f4"
         offset="0" />
      <stop
         id="stop4911"
         stop-color="#f5f4f4"
         stop-opacity="0"
         offset="1" />
    </linearGradient>
    <linearGradient
       id="linearGradient4881"
       y2="153.5"
       gradientUnits="userSpaceOnUse"
       x2="-493.35999"
       gradientTransform="matrix(0,1,1,0,-120,526.36)"
       y1="153.5"
       x1="-494.35999">
      <stop
         id="stop4877"
         offset="0" />
      <stop
         id="stop4879"
         stop-opacity="0"
         offset="1" />
    </linearGradient>
    <linearGradient
       inkscape:collect="always"
       xlink:href="#linearGradient4978"
       id="linearGradient4984-6"
       x1="-522.36218"
       y1="152.00002"
       x2="-466.36221"
       y2="152.00002"
       gradientUnits="userSpaceOnUse"
       gradientTransform="translate(526.3622,-184.00001)" />
    <linearGradient
       inkscape:collect="always"
       id="linearGradient4978">
      <stop
         style="stop-color:#40b081;stop-opacity:1"
         offset="0"
         id="stop4980" />
      <stop
         style="stop-color:#0566af;stop-opacity:1"
         offset="1"
         id="stop4982" />
    </linearGradient>
  </defs>
  <metadata
     id="metadata7">
    <rdf:RDF>
      <cc:Work
         rdf:about="">
        <dc:format>image/svg+xml</dc:format>
        <dc:type
           rdf:resource="http://purl.org/dc/dcmitype/StillImage" />
        <dc:title />
      </cc:Work>
    </rdf:RDF>
  </metadata>
  <circle
     r="28"
     cy="-32"
     cx="31.999983"
     id="path4900-9"
     style="color:#000000;clip-rule:nonzero;display:inline;overflow:visible;visibility:visible;opacity:1;isolation:auto;mix-blend-mode:normal;color-interpolation:sRGB;color-interpolation-filters:linearRGB;solid-color:#000000;solid-opacity:1;fill:url(#linearGradient4984-6);fill-opacity:1;fill-rule:nonzero;stroke:none;stroke-width:2;stroke-linecap:butt;stroke-linejoin:miter;stroke-miterlimit:4;stroke-dasharray:none;stroke-dashoffset:0;stroke-opacity:1;color-rendering:auto;image-rendering:auto;shape-rendering:auto;text-rendering:auto;enable-background:accumulate"
     transform="matrix(0,1,-1,0,0,0)" />
  <path
     id="path4900"
     d="M 59.97852,31.4141 A 28,28 0 0 1 32,59 28,28 0 0 1 4.02148,31.5859 28,28 0 0 0 3.99998,32 a 28,28 0 0 0 28,28 28,28 0 0 0 28,-28 28,28 0 0 0 -0.0215,-0.5859 z"
     style="color:#000000;clip-rule:nonzero;display:inline;overflow:visible;visibility:visible;opacity:1;isolation:auto;mix-blend-mode:normal;color-interpolation:sRGB;color-interpolation-filters:linearRGB;solid-color:#000000;solid-opacity:1;fill:#023962;fill-opacity:1;fill-rule:nonzero;stroke:none;stroke-width:2;stroke-linecap:butt;stroke-linejoin:miter;stroke-miterlimit:4;stroke-dasharray:none;stroke-dashoffset:0;stroke-opacity:1;color-rendering:auto;image-rendering:auto;shape-rendering:auto;text-rendering:auto;enable-background:accumulate"
     inkscape:connector-curvature="0" />
  <path
     inkscape:connector-curvature="0"
     id="rect4873"
     style="color:#000000;opacity:0.05;isolation:auto;mix-blend-mode:normal;solid-color:#000000;fill:url(#linearGradient4881);color-rendering:auto;image-rendering:auto;shape-rendering:auto"
     d="m 4,32 56,0 a 28,28 0 0 1 -0.0352,1 l -55.914,0 a 28,28 0 0 1 -0.051,-1 z" />
  <path
     inkscape:connector-curvature="0"
     id="rect4873-5"
     style="color:#000000;opacity:0.05;isolation:auto;mix-blend-mode:normal;solid-color:#000000;fill:url(#linearGradient4913);color-rendering:auto;image-rendering:auto;shape-rendering:auto"
     d="m 4,32 a 28,28 0 0 1 0.0352,-1 l 55.914,0 a 28,28 0 0 1 0.051,1 l -56,0 z" />
  <path
     inkscape:connector-curvature="0"
     id="rect4915"
     style="color:#000000;opacity:0.1;isolation:auto;mix-blend-mode:normal;solid-color:#000000;color-rendering:auto;image-rendering:auto;shape-rendering:auto"
     d="m 4,32 56,0 A 28,28 0 0 1 32,60 28,28 0 0 1 4,32 Z" />
  <path
     sodipodi:nodetypes="cccccc"
     style="fill:url(#c-6);fill-rule:evenodd"
     inkscape:connector-curvature="0"
     d="M 23.43937,30.3909 9.99913,32.0035 9.50219,45.089 C 31.06089,31.2952 45.99475,53.53 60,44.6019 48.8014,44.6019 39.46037,27.678 25.70429,32.0035 Z"
     id="path38" />
  <path
     id="path40-4"
     d="m 21.98242,14.9121 c -3.06734,-0.076 -6.51608,0.2457 -10.45703,1.1328 -0.39159,0.4773 -0.75581,0.9748 -1.10937,1.4766 A 25.999996,25.999996 0 0 0 6,32 25.999996,25.999996 0 0 0 9.57422,45.0938 C 29.06649,21.1236 40.23426,38.1203 55.80273,25.0039 43.99171,27.3661 38.54607,15.3231 21.98242,14.9121 Z"
     style="fill:url(#b-3-2);fill-rule:evenodd"
     inkscape:connector-curvature="0" />
  <path
     style="fill:#fcfcfc;fill-rule:evenodd"
     d="m 21.98242,14.912109 c -3.06734,-0.076 -6.51608,0.245713 -10.45703,1.132813 -0.39159,0.4773 -0.75581,0.974762 -1.10937,1.476562 l 1.10937,-0.476562 c 3.94095,-0.8871 7.38969,-1.208813 10.45703,-1.132813 15.81315,0.392378 21.49643,11.376348 32.25586,10.316407 0.51691,-0.377435 1.03797,-0.781048 1.56445,-1.22461 -11.81102,2.3622 -17.25666,-9.680797 -33.82031,-10.091797 z"
     id="path40"
     inkscape:connector-curvature="0"
     sodipodi:nodetypes="cccccccc" />
</svg>
