<?xml version="1.0" encoding="UTF-8" standalone="no"?>
<svg
   xmlns:dc="http://purl.org/dc/elements/1.1/"
   xmlns:cc="http://creativecommons.org/ns#"
   xmlns:rdf="http://www.w3.org/1999/02/22-rdf-syntax-ns#"
   xmlns:svg="http://www.w3.org/2000/svg"
   xmlns="http://www.w3.org/2000/svg"
   xmlns:xlink="http://www.w3.org/1999/xlink"
   xmlns:sodipodi="http://sodipodi.sourceforge.net/DTD/sodipodi-0.dtd"
   xmlns:inkscape="http://www.inkscape.org/namespaces/inkscape"
   version="1.1"
   width="64"
   viewBox="0 0 64 64.000001"
   height="64"
   id="svg2"
   inkscape:version="0.91 r13725"
   sodipodi:docname="spectacle.svg">
  <sodipodi:namedview
     pagecolor="#ffffff"
     bordercolor="#666666"
     borderopacity="1"
     objecttolerance="10"
     gridtolerance="10"
     guidetolerance="10"
     inkscape:pageopacity="0"
     inkscape:pageshadow="2"
     inkscape:window-width="3840"
     inkscape:window-height="2045"
     id="namedview37"
     showgrid="true"
     inkscape:zoom="29.5"
     inkscape:cx="31.015149"
     inkscape:cy="34.053538"
     inkscape:window-x="0"
     inkscape:window-y="0"
     inkscape:window-maximized="1"
     inkscape:current-layer="svg2">
    <inkscape:grid
       type="xygrid"
       id="grid4173" />
  </sodipodi:namedview>
  <defs
     id="defs4">
    <linearGradient
       inkscape:collect="always"
       id="linearGradient4175">
      <stop
         style="stop-color:#e4720c;stop-opacity:1;"
         offset="0"
         id="stop4177" />
      <stop
         style="stop-color:#f99133;stop-opacity:1"
         offset="1"
         id="stop4179" />
    </linearGradient>
    <linearGradient
       inkscape:collect="always"
       id="linearGradient4165">
      <stop
         style="stop-color:#f99133;stop-opacity:1;"
         offset="0"
         id="stop4167" />
      <stop
         style="stop-color:#f1d23b;stop-opacity:1"
         offset="1"
         id="stop4169" />
    </linearGradient>
    <linearGradient
       y2="962.86"
       y1="1002.6"
       gradientTransform="translate(58.788,-954.44)"
       x2="11"
       gradientUnits="userSpaceOnUse"
       x1="11"
       id="linearGradient5203-4">
      <stop
         offset="0"
         stop-color="#b6b2b6"
         id="stop7328-7-5" />
      <stop
         offset="1"
         stop-color="#dddbdb"
         id="stop7330-0-4" />
    </linearGradient>
    <linearGradient
       x1="20"
       y1="1000.4"
       gradientTransform="translate(0,-1044.42)"
       x2="20"
       gradientUnits="userSpaceOnUse"
       y2="1032.4"
       id="linearGradient7024-1">
      <stop
         style="stop-color:#e4720c;stop-opacity:1"
         offset="0"
         stop-color="#60cc9f"
         id="stop7019-0" />
      <stop
         style="stop-color:#ec4040;stop-opacity:1"
         offset="1"
         stop-color="#0566af"
         id="stop7021-3" />
    </linearGradient>
    <linearGradient
       y2="44"
       y1="12"
       gradientTransform="matrix(-1,0,0,-1,64,56.06)"
       x2="14"
       gradientUnits="userSpaceOnUse"
       x1="14"
       id="linearGradient7015-5">
      <stop
         style="stop-color:#f7e385;stop-opacity:1"
         offset="0"
         stop-color="#9ce0c4"
         id="stop7011-3" />
      <stop
         style="stop-color:#f99133;stop-opacity:1"
         offset="1"
         stop-color="#37a4f5"
         id="stop7013-5" />
    </linearGradient>
    <linearGradient
       x1="35"
       y1="996.36"
       gradientTransform="translate(0,-988.38)"
       x2="35"
       gradientUnits="userSpaceOnUse"
       y2="1044.4"
       id="linearGradient4200">
      <stop
         offset="0"
         stop-color="#334545"
         id="stop5215" />
      <stop
         offset="1"
         stop-color="#172525"
         id="stop5217" />
    </linearGradient>
    <linearGradient
       y2="962.86"
       x2="11"
       y1="1002.6"
       x1="11"
       gradientTransform="translate(58.788,-950.42)"
       gradientUnits="userSpaceOnUse"
       id="linearGradient4232"
       xlink:href="#linearGradient5203-4" />
    <linearGradient
       y2="1044.4"
       x2="35"
       y1="996.36"
       x1="35"
       gradientTransform="translate(0,-984.36)"
       gradientUnits="userSpaceOnUse"
       id="linearGradient4234"
       xlink:href="#linearGradient4200" />
    <linearGradient
       inkscape:collect="always"
       xlink:href="#linearGradient4165"
       id="linearGradient4171"
       x1="49"
       y1="16"
       x2="49"
       y2="48"
       gradientUnits="userSpaceOnUse" />
    <linearGradient
       inkscape:collect="always"
       xlink:href="#linearGradient4175"
       id="linearGradient4181"
       x1="32"
       y1="-16"
       x2="32"
       y2="-48"
       gradientUnits="userSpaceOnUse" />
  </defs>
  <metadata
     id="metadata7">
    <rdf:RDF>
      <cc:Work
         rdf:about="">
        <dc:format>image/svg+xml</dc:format>
        <dc:type
           rdf:resource="http://purl.org/dc/dcmitype/StillImage" />
        <dc:title />
      </cc:Work>
    </rdf:RDF>
  </metadata>
  <rect
     style="color:#000000;clip-rule:nonzero;display:inline;overflow:visible;visibility:visible;opacity:1;isolation:auto;mix-blend-mode:normal;color-interpolation:sRGB;color-interpolation-filters:linearRGB;solid-color:#000000;solid-opacity:1;fill:#7a747c;fill-opacity:1;fill-rule:nonzero;stroke:none;stroke-width:2;stroke-linecap:butt;stroke-linejoin:miter;stroke-miterlimit:4;stroke-dasharray:none;stroke-dashoffset:0;stroke-opacity:1;color-rendering:auto;image-rendering:auto;shape-rendering:auto;text-rendering:auto;enable-background:accumulate"
     id="rect4183"
     width="18"
     height="6.4237289"
     x="23"
     y="48.576271" />
  <rect
     fill="#b6b2b6"
     x="21"
     y="54.02"
     width="22"
     height="2"
     ry=".000017383"
     style="color-rendering:auto;color:#000000;isolation:auto;mix-blend-mode:normal;shape-rendering:auto;solid-color:#000000;image-rendering:auto;fill:#cac6c9"
     id="rect6778-1" />
  <g
     transform="translate(0,4.02)"
     id="g4153">
    <rect
       id="rect6768-2"
       style="color:#000000;isolation:auto;mix-blend-mode:normal;solid-color:#000000;fill:url(#linearGradient5203-4);color-rendering:auto;image-rendering:auto;shape-rendering:auto"
       ry="4"
       height="40"
       width="56"
       y="7.98"
       x="4" />
    <rect
       id="rect6772-9"
       style="color:#000000;isolation:auto;mix-blend-mode:normal;solid-color:#000000;fill:url(#linearGradient4200);color-rendering:auto;image-rendering:auto;shape-rendering:auto"
       ry="4"
       height="36"
       width="56"
       y="9.9799995"
       x="4" />
    <rect
       id="rect6774-9"
       style="color:#000000;isolation:auto;mix-blend-mode:normal;solid-color:#000000;fill:url(#linearGradient7024-1);color-rendering:auto;image-rendering:auto;shape-rendering:auto"
       ry="2"
       height="32"
       width="52"
       y="-44.02"
       x="6"
       transform="scale(1,-1)" />
    <path
       id="path6780-2"
       d="m 56,44.02 c 1.108,0 2,-0.892 2,-2 l 0,-28 c 0,-1.108 -0.89199,-2 -2,-2 l -8.9414,0 a 22,22 0 0 1 6.941,16 22,22 0 0 1 -6.9219,16 l 8.922,0 z m -12.041,0 a 20,20 0 0 0 8.041,-16 20,20 0 0 0 -8.0352,-16 l -3.7559,0 a 18,18 0 0 1 9.791,16 18,18 0 0 1 -9.7637,16 l 3.7226,0 z m -20.168,0 a 18,18 0 0 1 -9.791,-16 18,18 0 0 1 9.7637,-16 l -3.7226,0 a 20,20 0 0 0 -8.041,16 20,20 0 0 0 8.0352,16 l 3.7559,0 z m -6.8496,0 A 22,22 0 0 1 10,28.02 a 22,22 0 0 1 6.9219,-16 L 8,12.02 c -1.108,0 -2,0.892 -2,2 l 0,28 c 0,1.108 0.89199,2 2,2 l 8.9414,0 z m 15.453,-0.014 a 16,16 0 0 0 9.7051,-3.5879 l -5.6992,-8.33 a 6,6 0 0 1 -2.041,1.4414 l -1.9648,10.476 z m -2.0234,-0.07 1.8613,-9.9238 a 6,6 0 0 1 -0.232,0 6,6 0 0 1 -2.2305,-0.4336 l -8.7852,6.0098 a 16,16 0 0 0 9.3867,4.3398 z m 13.207,-4.9004 a 16,16 0 0 0 4.3379,-9.3886 l -9.9238,-1.8614 a 6,6 0 0 1 0.008,0.2344 6,6 0 0 1 -0.4336,2.2266 l 6.0117,8.789 z m -23.977,-0.9179 8.3281,-5.6993 a 6,6 0 0 1 -1.4395,-2.039 l -10.477,-1.9649 a 16,16 0 0 0 3.587,9.703 z M 32,32.0177 a 4,4 0 0 0 4,-4 4,4 0 0 0 -4,-4 4,4 0 0 0 -4,4 4,4 0 0 0 4,4 z m -5.9922,-3.7676 a 6,6 0 0 1 -0.008,-0.2324 6,6 0 0 1 0.43555,-2.2285 l -6.0137,-8.7871 a 16,16 0 0 0 -4.3379,9.3886 l 9.9238,1.8594 z m 21.979,-0.6289 a 16,16 0 0 0 -3.5879,-9.7031 l -8.3301,5.6992 a 6,6 0 0 1 1.4394,2.0391 l 10.479,1.9648 z m -20.387,-3.6719 a 6,6 0 0 1 2.041,-1.4414 l 1.9629,-10.476 a 16,16 0 0 0 -9.7031,3.5879 l 5.6992,8.33 z m 6.627,-1.498 8.7891,-6.0117 a 16,16 0 0 0 -9.3887,-4.3379 l -1.8594,9.9238 a 6,6 0 0 1 0.23242,-0.01 6,6 0 0 1 2.2266,0.4336 z"
       style="color:#000000;isolation:auto;mix-blend-mode:normal;solid-color:#000000;fill:url(#linearGradient7015-5);color-rendering:auto;image-rendering:auto;shape-rendering:auto" />
  </g>
  <path
     id="rect6778-1-3"
     d="M 21 55.019531 L 21 56.019531 L 43 56.019531 L 43 55.019531 L 21 55.019531 z "
     style="color:#000000;isolation:auto;mix-blend-mode:normal;solid-color:#000000;fill:#7a747c;color-rendering:auto;image-rendering:auto;shape-rendering:auto" />
  <rect
     x="4"
     y="12"
     width="56"
     height="40"
     ry="4"
     style="color:#000000;isolation:auto;mix-blend-mode:normal;solid-color:#000000;fill:url(#linearGradient4232);color-rendering:auto;image-rendering:auto;shape-rendering:auto"
     id="rect6768-2-7" />
  <rect
     x="4"
     y="14"
     width="56"
     height="36"
     ry="4"
     style="color:#000000;isolation:auto;mix-blend-mode:normal;solid-color:#000000;fill:url(#linearGradient4234);color-rendering:auto;image-rendering:auto;shape-rendering:auto"
     id="rect6772-9-0" />
  <rect
     transform="scale(1,-1)"
     x="6"
     y="-48.040001"
     width="52"
     height="32"
     ry="2"
     style="color:#000000;isolation:auto;mix-blend-mode:normal;solid-color:#000000;fill:url(#linearGradient4181);color-rendering:auto;image-rendering:auto;shape-rendering:auto;fill-opacity:1"
     id="rect6774-9-9" />
  <path
     style="color:#000000;isolation:auto;mix-blend-mode:normal;solid-color:#000000;fill:url(#linearGradient4171);color-rendering:auto;image-rendering:auto;shape-rendering:auto;fill-opacity:1"
     d="m 56,48.04 c 1.108,0 2,-0.892 2,-2 l 0,-28 c 0,-1.108 -0.89199,-2 -2,-2 l -8.9414,0 a 22,22 0 0 1 6.941,16 22,22 0 0 1 -6.9219,16 l 8.922,0 z m -12.041,0 a 20,20 0 0 0 8.041,-16 20,20 0 0 0 -8.0352,-16 l -3.7559,0 a 18,18 0 0 1 9.791,16 18,18 0 0 1 -9.7637,16 l 3.7226,0 z m -20.168,0 a 18,18 0 0 1 -9.791,-16 18,18 0 0 1 9.7637,-16 l -3.7226,0 a 20,20 0 0 0 -8.041,16 20,20 0 0 0 8.0352,16 l 3.7559,0 z m -6.8496,0 A 22,22 0 0 1 10,32.04 a 22,22 0 0 1 6.9219,-16 L 8,16.04 c -1.108,0 -2,0.892 -2,2 l 0,28 c 0,1.108 0.89199,2 2,2 l 8.9414,0 z m 15.453,-0.014 a 16,16 0 0 0 9.7051,-3.5879 l -5.6992,-8.33 a 6,6 0 0 1 -2.041,1.4414 l -1.9648,10.476 z m -2.0234,-0.07 1.8613,-9.9238 a 6,6 0 0 1 -0.232,0 6,6 0 0 1 -2.2305,-0.4336 l -8.7852,6.0098 a 16,16 0 0 0 9.3867,4.3398 z m 13.207,-4.9004 a 16,16 0 0 0 4.3379,-9.3886 l -9.9238,-1.8614 a 6,6 0 0 1 0.008,0.2344 6,6 0 0 1 -0.4336,2.2266 l 6.0117,8.789 z m -23.977,-0.9179 8.3281,-5.6993 a 6,6 0 0 1 -1.4395,-2.039 l -10.477,-1.9649 a 16,16 0 0 0 3.587,9.703 z M 32,36.0377 a 4,4 0 0 0 4,-4 4,4 0 0 0 -4,-4 4,4 0 0 0 -4,4 4,4 0 0 0 4,4 z m -5.9922,-3.7676 a 6,6 0 0 1 -0.008,-0.2324 6,6 0 0 1 0.43555,-2.2285 l -6.0137,-8.7871 a 16,16 0 0 0 -4.3379,9.3886 l 9.9238,1.8594 z m 21.979,-0.6289 a 16,16 0 0 0 -3.5879,-9.7031 l -8.3301,5.6992 a 6,6 0 0 1 1.4394,2.0391 l 10.479,1.9648 z m -20.387,-3.6719 a 6,6 0 0 1 2.041,-1.4414 l 1.9629,-10.476 a 16,16 0 0 0 -9.7031,3.5879 l 5.6992,8.33 z m 6.627,-1.498 8.7891,-6.0117 a 16,16 0 0 0 -9.3887,-4.3379 l -1.8594,9.9238 a 6,6 0 0 1 0.23242,-0.01 6,6 0 0 1 2.2266,0.4336 z"
     id="path6780-2-3" />
  <path
     id="rect6768-2-7-2"
     d="M 4 47 L 4 48 C 4 50.216 5.784 52 8 52 L 56 52 C 58.216 52 60 50.216 60 48 L 60 47 C 60 49.216 58.216 51 56 51 L 8 51 C 5.784 51 4 49.216 4 47 z "
     style="color:#000000;isolation:auto;mix-blend-mode:normal;solid-color:#000000;fill:#98929a;color-rendering:auto;image-rendering:auto;shape-rendering:auto" />
  <path
     id="rect6774-9-9-9"
     d="M 6 45.039062 L 6 46.039062 C 6 47.147062 6.892 48.039062 8 48.039062 L 56 48.039062 C 57.108 48.039062 58 47.147062 58 46.039062 L 58 45.039062 C 58 46.147062 57.108 47.039062 56 47.039062 L 8 47.039062 C 6.892 47.039062 6 46.147062 6 45.039062 z "
     style="color:#000000;isolation:auto;mix-blend-mode:normal;solid-color:#000000;fill:#fdf9e3;color-rendering:auto;image-rendering:auto;shape-rendering:auto" />
  <path
     id="rect6768-2-7-0"
     d="M 8 12 C 5.784 12 4 13.784 4 16 L 4 17 C 4 14.784 5.784 13 8 13 L 56 13 C 58.216 13 60 14.784 60 17 L 60 16 C 60 13.784 58.216 12 56 12 L 8 12 z "
     style="color:#000000;isolation:auto;mix-blend-mode:normal;solid-color:#000000;fill:#e7e5e5;color-rendering:auto;image-rendering:auto;shape-rendering:auto" />
  <path
     id="rect6774-9-9-9-3"
     d="M 15.976562 47.039062 A 22 22 0 0 0 16.941406 48.039062 L 20.035156 48.039062 A 20 20 0 0 1 18.837891 47.039062 L 15.976562 47.039062 z M 22.091797 47.039062 A 18 18 0 0 0 23.791016 48.039062 L 40.236328 48.039062 A 18 18 0 0 0 41.923828 47.039062 L 37.496094 47.039062 A 16 16 0 0 1 32.394531 48.025391 L 32.580078 47.039062 L 30.542969 47.039062 L 30.371094 47.955078 L 30.371094 47.947266 A 16 16 0 0 1 26.496094 47.039062 L 22.091797 47.039062 z M 45.169922 47.039062 A 20 20 0 0 1 43.958984 48.039062 L 47.078125 48.039062 A 22 22 0 0 0 48.037109 47.039062 L 45.169922 47.039062 z "
     style="color:#000000;isolation:auto;mix-blend-mode:normal;solid-color:#000000;fill:#f1d23b;color-rendering:auto;image-rendering:auto;shape-rendering:auto" />
</svg>
