<?xml version="1.0" encoding="UTF-8" standalone="no"?>
<svg
   xmlns:dc="http://purl.org/dc/elements/1.1/"
   xmlns:cc="http://creativecommons.org/ns#"
   xmlns:rdf="http://www.w3.org/1999/02/22-rdf-syntax-ns#"
   xmlns:svg="http://www.w3.org/2000/svg"
   xmlns="http://www.w3.org/2000/svg"
   xmlns:xlink="http://www.w3.org/1999/xlink"
   xmlns:sodipodi="http://sodipodi.sourceforge.net/DTD/sodipodi-0.dtd"
   xmlns:inkscape="http://www.inkscape.org/namespaces/inkscape"
   height="64"
   width="64"
   version="1.1"
   id="svg132"
   sodipodi:docname="sublime.svg"
   inkscape:version="0.92.4 5da689c313, 2019-01-14">
  <metadata
     id="metadata138">
    <rdf:RDF>
      <cc:Work
         rdf:about="">
        <dc:format>image/svg+xml</dc:format>
        <dc:type
           rdf:resource="http://purl.org/dc/dcmitype/StillImage" />
        <dc:title></dc:title>
      </cc:Work>
    </rdf:RDF>
  </metadata>
  <defs
     id="defs136">
    <linearGradient
       inkscape:collect="always"
       xlink:href="#a"
       id="linearGradient967"
       gradientUnits="userSpaceOnUse"
       gradientTransform="matrix(2.0493244,0,0,2.0493244,-40.748525,-2096.5791)"
       x1="37.736294"
       y1="1056.5404"
       x2="37.589489"
       y2="1039.0248" />
    <linearGradient
       inkscape:collect="always"
       xlink:href="#b"
       id="linearGradient986"
       gradientUnits="userSpaceOnUse"
       gradientTransform="matrix(0.42334779,-0.05351663,0.05801633,0.41696304,434.81409,-178.3249)"
       x1="-989.66583"
       y1="433.28394"
       x2="-1003.6364"
       y2="317.35452" />
  </defs>
  <sodipodi:namedview
     pagecolor="#ffffff"
     bordercolor="#666666"
     borderopacity="1"
     objecttolerance="10"
     gridtolerance="10"
     guidetolerance="10"
     inkscape:pageopacity="0"
     inkscape:pageshadow="2"
     inkscape:window-width="1366"
     inkscape:window-height="699"
     id="namedview134"
     showgrid="false"
     inkscape:zoom="4.9166667"
     inkscape:cx="34.12308"
     inkscape:cy="30.630763"
     inkscape:window-x="0"
     inkscape:window-y="0"
     inkscape:window-maximized="1"
     inkscape:current-layer="g130" />
  <linearGradient
     id="a">
    <stop
       offset="0"
       stop-color="#fc7816"
       id="stop2" />
    <stop
       offset="1"
       stop-color="#ffac01"
       id="stop4" />
  </linearGradient>
  <linearGradient
     id="b"
     gradientTransform="matrix(0.35600995,0,0,0.3512235,240.525,893.33752)"
     gradientUnits="userSpaceOnUse"
     x1="-989.66583"
     x2="-1003.6364"
     y1="433.28394"
     y2="317.35452">
    <stop
       offset="0"
       stop-color="#292926"
       id="stop7" />
    <stop
       offset="1"
       stop-color="#484b4d"
       id="stop9" />
  </linearGradient>
  <linearGradient
     id="c"
     gradientTransform="matrix(0.35549809,0,0,0.35079564,81.583509,925.45618)"
     gradientUnits="userSpaceOnUse"
     x1="-1092.9117"
     x2="-1060.2551"
     xlink:href="#a"
     y1="203.09911"
     y2="104.85291" />
  <linearGradient
     id="d"
     gradientUnits="userSpaceOnUse"
     x1="37.736294"
     x2="37.589489"
     xlink:href="#a"
     y1="1056.5404"
     y2="1039.0248"
     gradientTransform="matrix(1.7097512,0,0,1.7097512,-35.022783,-745.75114)" />
  <g
     transform="matrix(1.1986097,0,0,1.1986097,1.2301226,-1202.7145)"
     id="g130"
     style="stroke-width:0.76477104">
    <rect
       height="40.214249"
       ry="0.75061053"
       transform="matrix(0.94911544,-0.31492838,0.30720731,0.95164262,0,0)"
       width="31.911476"
       x="-309.6644"
       y="964.93665"
       id="rect14"
       style="fill:url(#c);stroke-width:0.76477104"
       rx="0.75061053" />
    <path
       style="fill:#4b4b4b;fill-opacity:1;stroke-width:0.76474112"
       d="m 45.82307,1027.9267 -35.126795,4.9135 5.744371,23.8498 c 0.108997,0.4329 0.546752,0.6984 0.980993,0.5948 l 33.000922,-7.8712 c 0.434241,-0.1035 0.695294,-0.5356 0.586296,-0.9686 z"
       id="path989"
       inkscape:connector-curvature="0"
       sodipodi:nodetypes="ccccccc" />
    <path
       style="fill:url(#linearGradient986);stroke-width:0.91662616"
       d="M 51.773438,4.3027344 11.427734,9.4023438 c -0.530861,0.067108 -0.89796,0.548144 -0.824218,1.0781252 l 3.447265,24.777343 42.25586,-5.380859 -3.44336,-24.7402342 C 52.78954,4.6067378 52.304299,4.2356266 51.773438,4.3027344 Z"
       id="rect16"
       transform="matrix(0.83429994,0,0,0.83429994,-1.0262912,1003.4246)"
       inkscape:connector-curvature="0" />
    <path
       d="m 29.395576,1016.7121 c -0.89305,0 -1.785339,0.111 -2.645063,0.295 -3.438901,0.7275 -6.463888,2.9153 -6.899881,6.5929 -0.287,2.629 0.490704,4.5207 1.823493,5.8177 1.332786,1.2968 3.157696,2.0219 4.982874,2.5916 1.825178,0.5696 3.665766,0.9844 5.022956,1.5529 0.678591,0.2858 1.229528,0.6065 1.603067,0.9719 0.357993,0.3502 0.54678,0.7368 0.60449,1.2356 -0.13059,1.0853 -0.572091,1.765 -1.259076,2.2142 -0.701509,0.4589 -1.677821,0.6774 -2.758617,0.6815 -2.161589,0 -4.709546,-0.8492 -6.038229,-1.7567 -0.666203,-0.5363 -1.372628,-0.7681 -2.037235,-0.678 -0.676847,0.089 -1.25405,0.4798 -1.760039,0.9852 l -0.03671,0.034 -0.03013,0.043 c -0.773336,1.1601 -0.783409,3.0138 0.594473,4.1445 h 0.0034 c 2.615121,2.1581 7.176217,3.1009 11.21147,2.4047 2.01843,-0.3483 3.912996,-1.1198 5.336891,-2.4248 1.423889,-1.3049 2.352709,-3.1558 2.417961,-5.5238 0.06552,-2.4891 -0.94788,-4.2447 -2.438003,-5.4235 -1.490122,-1.1792 -3.419624,-1.832 -5.283451,-2.3713 -1.863828,-0.5398 -3.675033,-0.9685 -4.886023,-1.5731 -0.605495,-0.3013 -1.048562,-0.6444 -1.305834,-1.0221 -0.255393,-0.3748 -0.358668,-0.7908 -0.260497,-1.4027 0.160017,-0.7784 0.557454,-1.2754 1.152207,-1.6295 0.597525,-0.3562 1.406426,-0.5443 2.297734,-0.5715 1.782613,-0.055 3.87018,0.5472 5.05969,1.3025 1.263424,0.9019 2.778956,0.4561 3.516733,-0.5476 0.743723,-1.0115 0.715523,-2.6362 -0.657925,-3.7473 h -0.0034 -0.0068 c -1.299638,-0.9979 -2.929168,-1.6545 -4.665602,-1.9703 -0.868214,-0.1573 -1.762033,-0.2335 -2.655084,-0.2212 z"
       id="path128"
       inkscape:connector-curvature="0"
       style="fill:url(#d);stroke-width:0.76477104"
       inkscape:transform-center-x="-22.255726"
       inkscape:transform-center-y="12.866683" />
    <path
       style="fill:url(#linearGradient967);stroke-width:0.91666198"
       d="m 36.464844,15.925781 c -1.070419,0 -2.141402,0.132972 -3.171875,0.353516 -4.1219,0.871988 -7.746946,3.494337 -8.269531,7.902344 -0.344001,3.151145 0.588053,5.420012 2.185546,6.974609 1.597491,1.554357 3.784981,2.422621 5.972657,3.105469 1.020796,0.318569 1.840495,0.593801 2.808593,0.86914 l 5.675782,-4.771484 c -0.766763,-0.276743 -1.535603,-0.56149 -2.308594,-0.785156 -2.234002,-0.64701 -4.403965,-1.160086 -5.855469,-1.884766 -0.725752,-0.361141 -1.256084,-0.771894 -1.564453,-1.224609 -0.306117,-0.449239 -0.430169,-0.948212 -0.3125,-1.681641 0.191798,-0.932998 0.667983,-1.528697 1.380859,-1.953125 0.7162,-0.426945 1.685576,-0.652945 2.753907,-0.685547 2.136657,-0.06592 4.638695,0.655237 6.064453,1.560547 1.514352,1.081026 3.330537,0.546795 4.214843,-0.65625 C 46.930496,21.836434 46.896228,19.890369 45.25,18.558594 H 45.2461 45.2383 C 43.680542,17.362501 41.72781,16.573833 39.646503,16.195312 38.605854,16.006771 37.533329,15.916898 36.46291,15.931641 Z"
       id="path945"
       inkscape:connector-curvature="0"
       transform="matrix(0.83429994,0,0,0.83429994,-1.0262912,1003.4246)" />
  </g>
</svg>
