<?xml version="1.0" encoding="UTF-8" standalone="no"?>
<!-- Created with Inkscape (http://www.inkscape.org/) -->

<svg
   xmlns:dc="http://purl.org/dc/elements/1.1/"
   xmlns:cc="http://creativecommons.org/ns#"
   xmlns:rdf="http://www.w3.org/1999/02/22-rdf-syntax-ns#"
   xmlns:svg="http://www.w3.org/2000/svg"
   xmlns="http://www.w3.org/2000/svg"
   xmlns:xlink="http://www.w3.org/1999/xlink"
   xmlns:sodipodi="http://sodipodi.sourceforge.net/DTD/sodipodi-0.dtd"
   xmlns:inkscape="http://www.inkscape.org/namespaces/inkscape"
   id="svg2"
   height="64"
   viewBox="0 0 64 64.000001"
   width="64"
   version="1.1"
   inkscape:version="0.91 r13725"
   sodipodi:docname="system-run.svg">
  <sodipodi:namedview
     pagecolor="#ffffff"
     bordercolor="#666666"
     borderopacity="1"
     objecttolerance="10"
     gridtolerance="10"
     guidetolerance="10"
     inkscape:pageopacity="0"
     inkscape:pageshadow="2"
     inkscape:window-width="2986"
     inkscape:window-height="1590"
     id="namedview15"
     showgrid="false"
     inkscape:zoom="3.6875"
     inkscape:cx="-33.898305"
     inkscape:cy="27.661016"
     inkscape:window-x="0"
     inkscape:window-y="0"
     inkscape:window-maximized="0"
     inkscape:current-layer="svg2" />
  <defs
     id="defs4">
    <linearGradient
       id="linearGradient4377-2"
       y2="60"
       gradientUnits="userSpaceOnUse"
       x2="32"
       gradientTransform="matrix(1.1666656,0,0,1.1666656,-5.3333,-5.33333)"
       y1="4"
       x1="32">
      <stop
         id="stop4373-06"
         stop-color="#dddbdb"
         offset="0" />
      <stop
         id="stop4375-1"
         stop-color="#b6b2b6"
         offset="1" />
    </linearGradient>
    <linearGradient
       inkscape:collect="always"
       xlink:href="#linearGradient4616"
       id="linearGradient4622-5"
       x1="-0.8125"
       y1="32"
       x2="69.760857"
       y2="32"
       gradientUnits="userSpaceOnUse"
       gradientTransform="matrix(0,-1,-1,0,64,64)" />
    <linearGradient
       inkscape:collect="always"
       id="linearGradient4616">
      <stop
         style="stop-color:#b6b2b6;stop-opacity:1;"
         offset="0"
         id="stop4618" />
      <stop
         style="stop-color:#98929a;stop-opacity:1"
         offset="1"
         id="stop4620" />
    </linearGradient>
    <linearGradient
       inkscape:collect="always"
       xlink:href="#linearGradient4797"
       id="linearGradient4803"
       x1="174"
       y1="1020.3622"
       x2="174"
       y2="1019.3622"
       gradientUnits="userSpaceOnUse" />
    <linearGradient
       inkscape:collect="always"
       id="linearGradient4797">
      <stop
         style="stop-color:#000000;stop-opacity:1;"
         offset="0"
         id="stop4799" />
      <stop
         style="stop-color:#000000;stop-opacity:0;"
         offset="1"
         id="stop4801" />
    </linearGradient>
    <linearGradient
       inkscape:collect="always"
       xlink:href="#linearGradient4831"
       id="linearGradient4803-7"
       x1="174"
       y1="1020.3622"
       x2="174"
       y2="1019.3622"
       gradientUnits="userSpaceOnUse"
       gradientTransform="translate(0,-2040.7244)" />
    <linearGradient
       inkscape:collect="always"
       id="linearGradient4831">
      <stop
         style="stop-color:#ffffff;stop-opacity:1;"
         offset="0"
         id="stop4833" />
      <stop
         style="stop-color:#ffffff;stop-opacity:0;"
         offset="1"
         id="stop4835" />
    </linearGradient>
    <linearGradient
       inkscape:collect="always"
       xlink:href="#linearGradient4483"
       id="linearGradient4489-0"
       x1="7.6972542"
       y1="1020.3622"
       x2="50.040783"
       y2="1020.3622"
       gradientUnits="userSpaceOnUse"
       gradientTransform="matrix(0.72222291,0,0,0.72222291,-1043.4733,-928.92896)" />
    <linearGradient
       inkscape:collect="always"
       id="linearGradient4483">
      <stop
         style="stop-color:#1287de;stop-opacity:1"
         offset="0"
         id="stop4485" />
      <stop
         style="stop-color:#0566af;stop-opacity:1"
         offset="1"
         id="stop4487" />
    </linearGradient>
    <linearGradient
       inkscape:collect="always"
       xlink:href="#linearGradient4264"
       id="linearGradient4756"
       x1="173"
       y1="1020.3622"
       x2="211"
       y2="1020.3622"
       gradientUnits="userSpaceOnUse"
       gradientTransform="translate(-160.00004,-1052.3622)" />
    <linearGradient
       inkscape:collect="always"
       id="linearGradient4264">
      <stop
         style="stop-color:#343031;stop-opacity:1;"
         offset="0"
         id="stop4266" />
      <stop
         style="stop-color:#534d52;stop-opacity:1"
         offset="1"
         id="stop4268" />
    </linearGradient>
  </defs>
  <metadata
     id="metadata7">
    <rdf:RDF>
      <cc:Work
         rdf:about="">
        <dc:format>image/svg+xml</dc:format>
        <dc:type
           rdf:resource="http://purl.org/dc/dcmitype/StillImage" />
        <dc:title />
      </cc:Work>
    </rdf:RDF>
  </metadata>
  <circle
     style="color:#000000;clip-rule:nonzero;display:inline;overflow:visible;visibility:visible;opacity:1;isolation:auto;mix-blend-mode:normal;color-interpolation:sRGB;color-interpolation-filters:linearRGB;solid-color:#000000;solid-opacity:1;fill:url(#linearGradient4756);fill-opacity:1;fill-rule:nonzero;stroke:none;stroke-width:2;stroke-linecap:butt;stroke-linejoin:miter;stroke-miterlimit:4;stroke-dasharray:none;stroke-dashoffset:0;stroke-opacity:1;color-rendering:auto;image-rendering:auto;shape-rendering:auto;text-rendering:auto;enable-background:accumulate"
     id="path4624-7"
     cx="31.999983"
     cy="-32"
     r="19"
     transform="matrix(0,1,-1,0,0,0)" />
  <g
     transform="translate(-160,-988.3622)"
     id="g4871">
    <circle
       transform="matrix(0,-1,-1,0,0,0)"
       r="13"
       cy="-192"
       cx="-1020.3622"
       id="path4412-2-6"
       style="color:#000000;clip-rule:nonzero;display:inline;overflow:visible;visibility:visible;opacity:1;isolation:auto;mix-blend-mode:normal;color-interpolation:sRGB;color-interpolation-filters:linearRGB;solid-color:#000000;solid-opacity:1;fill:url(#linearGradient4489-0);fill-opacity:1;fill-rule:nonzero;stroke:none;stroke-width:2;stroke-linecap:butt;stroke-linejoin:miter;stroke-miterlimit:4;stroke-dasharray:none;stroke-dashoffset:0;stroke-opacity:1;color-rendering:auto;image-rendering:auto;shape-rendering:auto;text-rendering:auto;enable-background:accumulate" />
    <path
       inkscape:connector-curvature="0"
       id="path4412-2-2-3"
       d="M 204.97852,1019.7821 A 13,13 0 0 1 192,1032.3622 a 13,13 0 0 1 -12.97852,-12.4219 13,13 0 0 0 -0.0215,0.4219 13,13 0 0 0 13,13 13,13 0 0 0 13,-13 13,13 0 0 0 -0.0215,-0.5801 z"
       style="color:#000000;clip-rule:nonzero;display:inline;overflow:visible;visibility:visible;opacity:1;isolation:auto;mix-blend-mode:normal;color-interpolation:sRGB;color-interpolation-filters:linearRGB;solid-color:#000000;solid-opacity:1;fill:#1287de;fill-opacity:1;fill-rule:nonzero;stroke:none;stroke-width:2;stroke-linecap:butt;stroke-linejoin:miter;stroke-miterlimit:4;stroke-dasharray:none;stroke-dashoffset:0;stroke-opacity:1;color-rendering:auto;image-rendering:auto;shape-rendering:auto;text-rendering:auto;enable-background:accumulate" />
  </g>
  <g
     transform="translate(-160,-988.3622)"
     id="g4866">
    <rect
       ry="1.7382812e-05"
       y="1019.3622"
       x="172"
       height="1"
       width="40"
       id="rect4795"
       style="color:#000000;clip-rule:nonzero;display:inline;overflow:visible;visibility:visible;opacity:0.1;isolation:auto;mix-blend-mode:normal;color-interpolation:sRGB;color-interpolation-filters:linearRGB;solid-color:#000000;solid-opacity:1;fill:url(#linearGradient4803);fill-opacity:1;fill-rule:nonzero;stroke:none;stroke-width:2;stroke-linecap:butt;stroke-linejoin:miter;stroke-miterlimit:4;stroke-dasharray:none;stroke-dashoffset:0;stroke-opacity:1;color-rendering:auto;image-rendering:auto;shape-rendering:auto;text-rendering:auto;enable-background:accumulate" />
    <rect
       transform="scale(1,-1)"
       ry="1.7382812e-05"
       y="-1021.3622"
       x="172"
       height="1"
       width="40"
       id="rect4795-8"
       style="color:#000000;clip-rule:nonzero;display:inline;overflow:visible;visibility:visible;opacity:0.1;isolation:auto;mix-blend-mode:normal;color-interpolation:sRGB;color-interpolation-filters:linearRGB;solid-color:#000000;solid-opacity:1;fill:url(#linearGradient4803-7);fill-opacity:1;fill-rule:nonzero;stroke:none;stroke-width:2;stroke-linecap:butt;stroke-linejoin:miter;stroke-miterlimit:4;stroke-dasharray:none;stroke-dashoffset:0;stroke-opacity:1;color-rendering:auto;image-rendering:auto;shape-rendering:auto;text-rendering:auto;enable-background:accumulate" />
    <path
       inkscape:connector-curvature="0"
       id="path4624-7-1"
       transform="translate(0,988.3622)"
       d="m 192,13 a 19,19 0 0 0 -19,19 l 38,0 A 19,19 0 0 0 192,13 Z"
       style="color:#000000;clip-rule:nonzero;display:inline;overflow:visible;visibility:visible;opacity:0.1;isolation:auto;mix-blend-mode:normal;color-interpolation:sRGB;color-interpolation-filters:linearRGB;solid-color:#000000;solid-opacity:1;fill:#000000;fill-opacity:1;fill-rule:nonzero;stroke:none;stroke-width:2;stroke-linecap:butt;stroke-linejoin:miter;stroke-miterlimit:4;stroke-dasharray:none;stroke-dashoffset:0;stroke-opacity:1;color-rendering:auto;image-rendering:auto;shape-rendering:auto;text-rendering:auto;enable-background:accumulate" />
  </g>
  <path
     style="color:#000000;clip-rule:nonzero;display:inline;overflow:visible;visibility:visible;opacity:1;isolation:auto;mix-blend-mode:normal;color-interpolation:sRGB;color-interpolation-filters:linearRGB;solid-color:#000000;solid-opacity:1;fill:url(#linearGradient4622-5);fill-opacity:1;fill-rule:nonzero;stroke:none;stroke-width:2;stroke-linecap:butt;stroke-linejoin:miter;stroke-miterlimit:4;stroke-dasharray:none;stroke-dashoffset:0;stroke-opacity:1;color-rendering:auto;image-rendering:auto;shape-rendering:auto;text-rendering:auto;enable-background:accumulate"
     d="M 55,32 A 22.999983,22.999983 0 0 1 32,55 22.999983,22.999983 0 0 1 9,32 22.999983,22.999983 0 0 1 32,9 22.999983,22.999983 0 0 1 55,32 Z m -5,0 A 18,18 0 0 0 32,14 18,18 0 0 0 14,32 18,18 0 0 0 32,50 18,18 0 0 0 50,32 Z"
     id="path4412-6"
     inkscape:connector-curvature="0" />
  <path
     style="color:#000000;isolation:auto;mix-blend-mode:normal;solid-color:#000000;fill:url(#linearGradient4377-2);color-rendering:auto;image-rendering:auto;shape-rendering:auto"
     d="M 32,4 A 27.999975,27.999975 0 0 0 29.87891,4.0898 L 29.13672,8.20113 A 24,24 0 0 0 25.52539,8.89254 L 23.29492,5.42379 a 27.999975,27.999975 0 0 0 -3.9375,1.5957 l 0.88867,4.08985 a 24,24 0 0 0 -3.07031,2.02156 l -3.39062,-2.3536 a 27.999975,27.999975 0 0 0 -3.01953,2.9922 l 2.3789,3.4258 A 24,24 0 0 0 11.0918,20.2422 L 7.04688,19.3633 a 27.999975,27.999975 0 0 0 -1.63672,3.9238 l 3.50195,2.25 A 24,24 0 0 0 8.18945,29.1387 L 4.10547,29.877 A 27.999975,27.999975 0 0 0 4,32 27.999975,27.999975 0 0 0 4.0898,34.1211 l 4.11133,0.7422 a 24,24 0 0 0 0.6914,3.6113 l -3.46875,2.2305 a 27.999975,27.999975 0 0 0 1.59571,3.9375 l 4.08984,-0.8887 a 24,24 0 0 0 2.02148,3.0703 l -2.35351,3.3906 a 27.999975,27.999975 0 0 0 2.99219,3.0196 l 3.42578,-2.3789 a 24,24 0 0 0 3.04687,2.0527 l -0.8789,4.0449 a 27.999975,27.999975 0 0 0 3.92382,1.6367 l 2.25,-3.5019 a 24,24 0 0 0 3.60157,0.7226 l 0.73828,4.084 A 27.999975,27.999975 0 0 0 31.99996,60 27.999975,27.999975 0 0 0 34.12105,59.912 l 0.74414,-4.1152 a 24,24 0 0 0 3.60938,-0.6895 l 2.23047,3.4688 a 27.999975,27.999975 0 0 0 3.9375,-1.5957 l -0.88867,-4.0899 a 24,24 0 0 0 3.07031,-2.0215 l 3.39062,2.3536 a 27.999975,27.999975 0 0 0 3.01954,-2.9903 l -2.37891,-3.4277 a 24,24 0 0 0 2.05273,-3.0469 l 4.04493,0.8789 a 27.999975,27.999975 0 0 0 1.63671,-3.9238 l -3.50195,-2.25 a 24,24 0 0 0 0.72266,-3.5996 l 4.08398,-0.7403 A 27.999975,27.999975 0 0 0 59.99996,32 27.999975,27.999975 0 0 0 59.91016,29.8789 l -4.11133,-0.7422 a 24,24 0 0 0 -0.6914,-3.6113 l 3.46875,-2.2305 a 27.999975,27.999975 0 0 0 -1.59571,-3.9375 l -4.08984,0.8887 a 24,24 0 0 0 -2.02148,-3.0703 l 2.35351,-3.3906 a 27.999975,27.999975 0 0 0 -2.99219,-3.01957 l -3.42578,2.37887 a 24,24 0 0 0 -3.04687,-2.0527 l 0.8789,-4.04492 A 27.999975,27.999975 0 0 0 40.7129,5.41016 l -2.25,3.50195 A 24,24 0 0 0 34.86133,8.18945 L 34.12305,4.10547 A 27.999975,27.999975 0 0 0 32,4 Z m 0,6 A 21.999983,21.999983 0 0 1 54,32 21.999983,21.999983 0 0 1 32,54 21.999983,21.999983 0 0 1 10,32 21.999983,21.999983 0 0 1 32,10 Z"
     id="path4197-6-5"
     inkscape:connector-curvature="0" />
  <path
     inkscape:connector-curvature="0"
     id="rect8213-9"
     d="m 28,27 9,5 -9,5 z"
     style="color:#000000;isolation:auto;mix-blend-mode:normal;solid-color:#000000;fill:#e7e5e5;color-rendering:auto;image-rendering:auto;shape-rendering:auto" />
  <path
     inkscape:connector-curvature="0"
     style="color:#000000;clip-rule:nonzero;display:inline;overflow:visible;visibility:visible;opacity:1;isolation:auto;mix-blend-mode:normal;color-interpolation:sRGB;color-interpolation-filters:linearRGB;solid-color:#000000;solid-opacity:1;fill:#98929a;fill-opacity:1;fill-rule:nonzero;stroke:none;stroke-width:2;stroke-linecap:butt;stroke-linejoin:miter;stroke-miterlimit:4;stroke-dasharray:none;stroke-dashoffset:0;stroke-opacity:1;color-rendering:auto;image-rendering:auto;shape-rendering:auto;text-rendering:auto;enable-background:accumulate"
     d="M 32,10 A 21.999983,21.999983 0 0 0 10,32 21.999983,21.999983 0 0 0 10.0215,32.585938 21.999983,21.999983 0 0 1 32,11 21.999983,21.999983 0 0 1 53.97852,32.414062 21.999983,21.999983 0 0 0 54,32 21.999983,21.999983 0 0 0 32,10 Z"
     id="path4624-7-4" />
</svg>
