<?xml version="1.0" encoding="UTF-8" standalone="no"?>
<!-- Created with Inkscape (http://www.inkscape.org/) -->

<svg
   xmlns:dc="http://purl.org/dc/elements/1.1/"
   xmlns:cc="http://creativecommons.org/ns#"
   xmlns:rdf="http://www.w3.org/1999/02/22-rdf-syntax-ns#"
   xmlns:svg="http://www.w3.org/2000/svg"
   xmlns="http://www.w3.org/2000/svg"
   xmlns:xlink="http://www.w3.org/1999/xlink"
   xmlns:sodipodi="http://sodipodi.sourceforge.net/DTD/sodipodi-0.dtd"
   xmlns:inkscape="http://www.inkscape.org/namespaces/inkscape"
   id="svg2"
   height="64"
   viewBox="0 0 64 64.000001"
   width="64"
   version="1.1"
   inkscape:version="0.91 r13725"
   sodipodi:docname="utilities-system-monitor.svg">
  <sodipodi:namedview
     pagecolor="#ffffff"
     bordercolor="#666666"
     borderopacity="1"
     objecttolerance="10"
     gridtolerance="10"
     guidetolerance="10"
     inkscape:pageopacity="0"
     inkscape:pageshadow="2"
     inkscape:window-width="3840"
     inkscape:window-height="2045"
     id="namedview21"
     showgrid="false"
     inkscape:zoom="11.313708"
     inkscape:cx="26.089024"
     inkscape:cy="36.614154"
     inkscape:window-x="0"
     inkscape:window-y="0"
     inkscape:window-maximized="1"
     inkscape:current-layer="svg2" />
  <defs
     id="defs4">
    <linearGradient
       inkscape:collect="always"
       xlink:href="#linearGradient5630"
       id="linearGradient5636"
       x1="112"
       y1="996.36218"
       x2="112"
       y2="1046.3622"
       gradientUnits="userSpaceOnUse"
       gradientTransform="translate(-80,-988.3622)" />
    <linearGradient
       inkscape:collect="always"
       id="linearGradient5630">
      <stop
         style="stop-color:#343031;stop-opacity:1;"
         offset="0"
         id="stop5632" />
      <stop
         style="stop-color:#534d52;stop-opacity:1"
         offset="1"
         id="stop5634" />
    </linearGradient>
    <linearGradient
       inkscape:collect="always"
       xlink:href="#linearGradient4881"
       id="linearGradient4578"
       x1="107"
       y1="32"
       x2="107"
       y2="31"
       gradientUnits="userSpaceOnUse"
       gradientTransform="translate(-80,0)" />
    <linearGradient
       id="linearGradient4881"
       y2="153.5"
       gradientUnits="userSpaceOnUse"
       x2="-493.35999"
       gradientTransform="matrix(0,1,1,0,130,1514.7222)"
       y1="153.5"
       x1="-494.35999">
      <stop
         id="stop4877"
         offset="0" />
      <stop
         id="stop4879"
         stop-opacity="0"
         offset="1" />
    </linearGradient>
    <linearGradient
       inkscape:collect="always"
       xlink:href="#linearGradient9969-8"
       id="linearGradient4586"
       x1="116"
       y1="32"
       x2="116"
       y2="33"
       gradientUnits="userSpaceOnUse"
       gradientTransform="translate(-80,0)" />
    <linearGradient
       id="linearGradient9969-8"
       y2="1030.4"
       gradientUnits="userSpaceOnUse"
       x2="16"
       gradientTransform="translate(-576.3622,-863.43998)"
       y1="1029.4"
       x1="16">
      <stop
         id="stop7403-3-9"
         stop-color="#fff"
         offset="0" />
      <stop
         id="stop7405-5-7"
         stop-opacity="0"
         stop-color="#fff"
         offset="1" />
    </linearGradient>
    <linearGradient
       inkscape:collect="always"
       xlink:href="#linearGradient5622"
       id="linearGradient5628"
       x1="116"
       y1="992.36218"
       x2="116"
       y2="1048.3622"
       gradientUnits="userSpaceOnUse"
       gradientTransform="translate(-80,-988.3622)" />
    <linearGradient
       inkscape:collect="always"
       id="linearGradient5622">
      <stop
         style="stop-color:#dddbdb;stop-opacity:1"
         offset="0"
         id="stop5624" />
      <stop
         style="stop-color:#b6b2b6;stop-opacity:1"
         offset="1"
         id="stop5626" />
    </linearGradient>
    <linearGradient
       inkscape:collect="always"
       xlink:href="#linearGradient4592"
       id="linearGradient4598"
       x1="116"
       y1="13.370873"
       x2="116"
       y2="56"
       gradientUnits="userSpaceOnUse"
       gradientTransform="translate(-80,0)" />
    <linearGradient
       inkscape:collect="always"
       id="linearGradient4592">
      <stop
         style="stop-color:#f1d23b;stop-opacity:1"
         offset="0"
         id="stop4594" />
      <stop
         style="stop-color:#89c369;stop-opacity:1"
         offset="1"
         id="stop4596" />
    </linearGradient>
  </defs>
  <metadata
     id="metadata7">
    <rdf:RDF>
      <cc:Work
         rdf:about="">
        <dc:format>image/svg+xml</dc:format>
        <dc:type
           rdf:resource="http://purl.org/dc/dcmitype/StillImage" />
        <dc:title />
      </cc:Work>
    </rdf:RDF>
  </metadata>
  <path
     style="color:#000000;clip-rule:nonzero;display:inline;overflow:visible;visibility:visible;opacity:1;isolation:auto;mix-blend-mode:normal;color-interpolation:sRGB;color-interpolation-filters:linearRGB;solid-color:#000000;solid-opacity:1;fill:#534d52;fill-opacity:1;fill-rule:nonzero;stroke:none;stroke-width:2;stroke-linecap:butt;stroke-linejoin:miter;stroke-miterlimit:4;stroke-dasharray:none;stroke-dashoffset:0;stroke-opacity:1;color-rendering:auto;image-rendering:auto;shape-rendering:auto;text-rendering:auto;enable-background:accumulate"
     d="m 32,4.99487 c -8.23723,0 -17.727318,2.23657 -23.679618,5.96459 C 5.002891,15.8887 5.007919,21.8111 5,28.1377 5.01561,43.6649 16.566405,56.762 31.96987,58.718 47.39724,56.7898 58.98055,43.6851 59,28.1377 58.993,21.814 59.00096,15.8943 55.68715,10.96515 49.73365,7.2341 40.24088,4.99487 32,4.99487 Z"
     id="path5529"
     inkscape:connector-curvature="0"
     sodipodi:nodetypes="scccccs" />
  <path
     style="color:#000000;font-style:normal;font-variant:normal;font-weight:normal;font-stretch:normal;font-size:medium;line-height:normal;font-family:sans-serif;text-indent:0;text-align:start;text-decoration:none;text-decoration-line:none;text-decoration-style:solid;text-decoration-color:#000000;letter-spacing:normal;word-spacing:normal;text-transform:none;direction:ltr;block-progression:tb;writing-mode:lr-tb;baseline-shift:baseline;text-anchor:start;white-space:normal;clip-rule:nonzero;display:inline;overflow:visible;visibility:visible;opacity:1;isolation:auto;mix-blend-mode:normal;color-interpolation:sRGB;color-interpolation-filters:linearRGB;solid-color:#000000;solid-opacity:1;fill:url(#linearGradient5636);fill-opacity:1;fill-rule:nonzero;stroke:none;stroke-width:8;stroke-linecap:butt;stroke-linejoin:miter;stroke-miterlimit:4;stroke-dasharray:none;stroke-dashoffset:0;stroke-opacity:1;color-rendering:auto;image-rendering:auto;shape-rendering:auto;text-rendering:auto;enable-background:accumulate"
     d="m 32,4.99414 c -8.23723,0 -17.727387,2.23682 -23.679688,5.96484 C 5.002821,15.8882 5.007919,21.8121 5,28.1387 5.01561,43.6659 16.596538,57.128 32,59.084 47.42737,57.1558 58.98055,43.6861 59,28.1387 58.993,21.815 59.001,15.894 55.6875,10.96484 49.734,7.23379 40.24088,4.99414 32,4.99414 Z M 32,8 c 7.46827,0 16.32279,2.16783 21.61133,5.1777 C 55.7923,16.9652 55.99371,21.8325 56,28 55.9806,41.9643 45.76999,54.0248 32,56 18.256275,53.9987 8.018835,41.9476 8,28.0059 l 0,-0.012 C 8.0078,21.8227 8.211633,16.9541 10.396484,13.1658 15.683941,10.16317 24.59236,8 32,8 Z"
     id="path5529-1"
     inkscape:connector-curvature="0"
     sodipodi:nodetypes="scccccssccccccs" />
  <path
     inkscape:connector-curvature="0"
     style="color:#000000;font-style:normal;font-variant:normal;font-weight:normal;font-stretch:normal;font-size:medium;line-height:normal;font-family:sans-serif;text-indent:0;text-align:start;text-decoration:none;text-decoration-line:none;text-decoration-style:solid;text-decoration-color:#000000;letter-spacing:normal;word-spacing:normal;text-transform:none;direction:ltr;block-progression:tb;writing-mode:lr-tb;baseline-shift:baseline;text-anchor:start;white-space:normal;clip-rule:nonzero;display:inline;overflow:visible;visibility:visible;opacity:0.2;isolation:auto;mix-blend-mode:normal;color-interpolation:sRGB;color-interpolation-filters:linearRGB;solid-color:#000000;solid-opacity:1;fill:#000000;fill-opacity:1;fill-rule:nonzero;stroke:none;stroke-width:8;stroke-linecap:butt;stroke-linejoin:miter;stroke-miterlimit:4;stroke-dasharray:none;stroke-dashoffset:0;stroke-opacity:1;color-rendering:auto;image-rendering:auto;shape-rendering:auto;text-rendering:auto;enable-background:accumulate"
     d="m 32,4.9941406 c -8.23723,0 -17.727386,2.2368238 -23.679688,5.9648434 C 5.002821,15.888204 5.007919,21.812072 5,28.138672 5.0013,29.442804 5.0901,30.730598 5.25,32 l 53.5,0 C 58.9094,30.73076 58.99837,29.442731 59,28.138672 58.993,21.814972 59.001,15.894004 55.6875,10.964844 49.734,7.2337938 40.24088,4.9941406 32,4.9941406 Z"
     id="path5529-1-1" />
  <path
     style="color:#000000;clip-rule:nonzero;display:inline;overflow:visible;visibility:visible;opacity:0.1;isolation:auto;mix-blend-mode:normal;color-interpolation:sRGB;color-interpolation-filters:linearRGB;solid-color:#000000;solid-opacity:1;fill:url(#linearGradient4578);fill-opacity:1;fill-rule:nonzero;stroke:none;stroke-width:2;stroke-linecap:butt;stroke-linejoin:miter;stroke-miterlimit:4;stroke-dasharray:none;stroke-dashoffset:0;stroke-opacity:1;color-rendering:auto;image-rendering:auto;shape-rendering:auto;text-rendering:auto;enable-background:accumulate"
     d="m 5.134766,31 c 0.03123,0.33518 0.07335,0.667486 0.115234,1 l 53.5,0 c 0.0418,-0.332468 0.0841,-0.66486 0.11523,-1 L 5.134766,31 Z"
     id="rect4465"
     inkscape:connector-curvature="0" />
  <path
     style="color:#000000;clip-rule:nonzero;display:inline;overflow:visible;visibility:visible;opacity:0.1;isolation:auto;mix-blend-mode:normal;color-interpolation:sRGB;color-interpolation-filters:linearRGB;solid-color:#000000;solid-opacity:1;fill:url(#linearGradient4586);fill-opacity:1;fill-rule:nonzero;stroke:none;stroke-width:2;stroke-linecap:butt;stroke-linejoin:miter;stroke-miterlimit:4;stroke-dasharray:none;stroke-dashoffset:0;stroke-opacity:1;color-rendering:auto;image-rendering:auto;shape-rendering:auto;text-rendering:auto;enable-background:accumulate"
     d="m 5.25,32 c 0.0422,0.334999 0.09169,0.667913 0.144531,1 l 53.212889,0 c 0.0526,-0.331937 0.10053,-0.665148 0.14258,-1 l -53.5,0 z"
     id="rect4467"
     inkscape:connector-curvature="0" />
  <path
     style="color:#000000;font-style:normal;font-variant:normal;font-weight:normal;font-stretch:normal;font-size:medium;line-height:normal;font-family:sans-serif;text-indent:0;text-align:start;text-decoration:none;text-decoration-line:none;text-decoration-style:solid;text-decoration-color:#000000;letter-spacing:normal;word-spacing:normal;text-transform:none;direction:ltr;block-progression:tb;writing-mode:lr-tb;baseline-shift:baseline;text-anchor:start;white-space:normal;clip-rule:nonzero;display:inline;overflow:visible;visibility:visible;opacity:1;isolation:auto;mix-blend-mode:normal;color-interpolation:sRGB;color-interpolation-filters:linearRGB;solid-color:#000000;solid-opacity:1;fill:url(#linearGradient5628);fill-opacity:1;fill-rule:nonzero;stroke:none;stroke-width:4;stroke-linecap:butt;stroke-linejoin:miter;stroke-miterlimit:4;stroke-dasharray:none;stroke-dashoffset:0;stroke-opacity:1;color-rendering:auto;image-rendering:auto;shape-rendering:auto;text-rendering:auto;enable-background:accumulate"
     d="M 32,4 C 23.45769,4 13.616115,6.31945 7.443359,10.18555 4.002998,15.2973 4.008212,21.439 4,28 4.01619,44.1022 16.02604,57.9715 32,60 47.99876,58.0004 59.97983,44.1232 60,28 59.993,21.4421 60.001,15.3031 56.56445,10.19141 50.39045,6.32217 40.5461,4 32,4 Z m 0,2 C 40.01146,6 49.37695,8.25671 55.08789,11.6836 57.88243,16.1194 57.99357,21.6129 58,28.002 57.9792,43.0459 46.88553,56.0124 32,58 17.142659,55.9823 6.018017,43.0244 6,28.0039 6.008,21.6136 6.122689,16.1167 8.919922,11.6816 14.629597,8.25374 23.99207,6 32,6 Z"
     id="path5529-7"
     inkscape:connector-curvature="0"
     sodipodi:nodetypes="scccccsscccccs" />
  <path
     style="color:#000000;font-style:normal;font-variant:normal;font-weight:normal;font-stretch:normal;font-size:medium;line-height:normal;font-family:sans-serif;text-indent:0;text-align:start;text-decoration:none;text-decoration-line:none;text-decoration-style:solid;text-decoration-color:#000000;letter-spacing:normal;word-spacing:normal;text-transform:none;direction:ltr;block-progression:tb;writing-mode:lr-tb;baseline-shift:baseline;text-anchor:start;white-space:normal;clip-rule:nonzero;display:inline;overflow:visible;visibility:visible;opacity:1;isolation:auto;mix-blend-mode:normal;color-interpolation:sRGB;color-interpolation-filters:linearRGB;solid-color:#000000;solid-opacity:1;fill:#7a747c;fill-opacity:1;fill-rule:nonzero;stroke:none;stroke-width:4;stroke-linecap:butt;stroke-linejoin:miter;stroke-miterlimit:4;stroke-dasharray:none;stroke-dashoffset:0;stroke-opacity:1;color-rendering:auto;image-rendering:auto;shape-rendering:auto;text-rendering:auto;enable-background:accumulate"
     d="M 59.99805,27.115234 C 59.92084,43.189052 47.96046,57.005187 32,59 16.072133,56.977353 4.088998,43.181481 4.003906,27.138672 4.003299,27.426558 4.000362,27.710428 4,28 4.01619,44.1022 16.02604,57.9715 32,60 47.99876,58.0004 59.97983,44.1232 60,28 59.99968,27.702452 59.999,27.411001 59.998,27.115234 Z"
     id="path5529-7-1"
     inkscape:connector-curvature="0"
     sodipodi:nodetypes="ccccccc" />
  <path
     style="fill:url(#linearGradient4598);fill-opacity:1;fill-rule:evenodd;stroke:none;stroke-width:1px;stroke-linecap:butt;stroke-linejoin:miter;stroke-opacity:1"
     d="m 24,20 -4,0 -4,6 -4,4 -3.708984,2 C 10.040423,44.18966 19.588801,54.192737 32,56 42.32325,54.519209 50.64595,47.370112 54.17383,38 L 48,38 l -4,-2 -4,2 -4,0 -4,-8 -4,-2 z"
     id="path4343"
     inkscape:connector-curvature="0"
     sodipodi:nodetypes="cccccccccccccc" />
  <path
     inkscape:connector-curvature="0"
     style="fill:#b5dca0;fill-opacity:1;fill-rule:evenodd;stroke:none;stroke-width:1px;stroke-linecap:butt;stroke-linejoin:miter;stroke-opacity:1"
     d="M 8.458984,31.910156 8.291016,32 C 10.040423,44.1897 19.588801,54.1927 32,56 42.32325,54.5192 50.64595,47.3701 54.17383,38 l -0.41406,0 C 50.02898,46.872731 41.95042,53.57268 32,55 19.901465,53.23823 10.544312,43.681656 8.458984,31.910156 Z"
     id="path4343-9" />
</svg>
