<?xml version="1.0" encoding="UTF-8" standalone="no"?>
<!-- Created with Inkscape (http://www.inkscape.org/) -->

<svg
   xmlns:dc="http://purl.org/dc/elements/1.1/"
   xmlns:cc="http://creativecommons.org/ns#"
   xmlns:rdf="http://www.w3.org/1999/02/22-rdf-syntax-ns#"
   xmlns:svg="http://www.w3.org/2000/svg"
   xmlns="http://www.w3.org/2000/svg"
   xmlns:xlink="http://www.w3.org/1999/xlink"
   xmlns:sodipodi="http://sodipodi.sourceforge.net/DTD/sodipodi-0.dtd"
   xmlns:inkscape="http://www.inkscape.org/namespaces/inkscape"
   id="svg2"
   height="64"
   viewBox="0 0 64 64.000001"
   width="64"
   version="1.1"
   inkscape:version="0.91 r13725"
   sodipodi:docname="vlc.svg">
  <sodipodi:namedview
     pagecolor="#ffffff"
     bordercolor="#666666"
     borderopacity="1"
     objecttolerance="10"
     gridtolerance="10"
     guidetolerance="10"
     inkscape:pageopacity="0"
     inkscape:pageshadow="2"
     inkscape:window-width="2367"
     inkscape:window-height="1646"
     id="namedview27"
     showgrid="false"
     inkscape:zoom="1"
     inkscape:cx="27.494071"
     inkscape:cy="38.890987"
     inkscape:window-x="0"
     inkscape:window-y="0"
     inkscape:window-maximized="0"
     inkscape:current-layer="svg2"
     inkscape:snap-bbox="true"
     inkscape:bbox-nodes="true">
    <inkscape:grid
       type="xygrid"
       id="grid4191" />
  </sodipodi:namedview>
  <defs
     id="defs4">
    <linearGradient
       id="linearGradient6213">
      <stop
         id="stop6215"
         stop-color="#f99133"
         offset="0" />
      <stop
         id="stop6217"
         stop-color="#af5505"
         offset="1" />
    </linearGradient>
    <linearGradient
       id="linearGradient6282"
       y2="52"
       gradientUnits="userSpaceOnUse"
       y1="4"
       x2="32"
       x1="32"
       gradientTransform="matrix(0.88135593,0,0,1,3.79661,0)">
      <stop
         id="stop6278"
         stop-color="#fcfcfc"
         offset="0" />
      <stop
         id="stop6280"
         stop-color="#dddbdb"
         offset="1" />
    </linearGradient>
    <linearGradient
       id="linearGradient6290"
       x1="36"
       xlink:href="#linearGradient6213"
       gradientUnits="userSpaceOnUse"
       x2="36"
       gradientTransform="translate(50,-988.36)"
       y1="1031.3"
       y2="1063.1" />
    <linearGradient
       id="linearGradient6361"
       x1="34"
       xlink:href="#linearGradient6213"
       gradientUnits="userSpaceOnUse"
       x2="34"
       gradientTransform="matrix(0.88135593,0,0,1,3.79661,-988.36)"
       y1="992.36"
       y2="1040.4" />
    <linearGradient
       id="linearGradient4165"
       y2="28"
       gradientUnits="userSpaceOnUse"
       x2="32"
       gradientTransform="translate(-63)"
       y1="28"
       x1="31">
      <stop
         id="stop4161"
         stop-color="#fff"
         offset="0" />
      <stop
         id="stop4163"
         stop-color="#fff"
         stop-opacity="0"
         offset="1" />
    </linearGradient>
    <linearGradient
       id="linearGradient4197"
       y2="28"
       gradientUnits="userSpaceOnUse"
       x2="33"
       y1="28"
       x1="32">
      <stop
         id="stop4193"
         offset="0" />
      <stop
         id="stop4195"
         stop-opacity="0"
         offset="1" />
    </linearGradient>
    <linearGradient
       inkscape:collect="always"
       xlink:href="#linearGradient6213"
       id="linearGradient5624"
       x1="23"
       y1="999.48718"
       x2="23"
       y2="1024.7372"
       gradientUnits="userSpaceOnUse"
       gradientTransform="translate(0,-952.3622)" />
    <linearGradient
       inkscape:collect="always"
       xlink:href="#linearGradient6213"
       id="linearGradient5632"
       x1="22"
       y1="23"
       x2="22"
       y2="8"
       gradientUnits="userSpaceOnUse"
       gradientTransform="translate(0,36)" />
    <linearGradient
       id="linearGradient6361-3"
       x1="34"
       xlink:href="#linearGradient6213"
       gradientUnits="userSpaceOnUse"
       x2="34"
       gradientTransform="matrix(0.88135593,0,0,1,3.79661,-988.36)"
       y1="992.35999"
       y2="1040.4" />
    <linearGradient
       id="linearGradient6361-35"
       x1="34"
       xlink:href="#linearGradient6213"
       gradientUnits="userSpaceOnUse"
       x2="34"
       gradientTransform="matrix(0.88135593,0,0,1,3.79661,-987.36)"
       y1="992.35999"
       y2="1040.4" />
  </defs>
  <metadata
     id="metadata7">
    <rdf:RDF>
      <cc:Work
         rdf:about="">
        <dc:format>image/svg+xml</dc:format>
        <dc:type
           rdf:resource="http://purl.org/dc/dcmitype/StillImage" />
        <dc:title />
      </cc:Work>
    </rdf:RDF>
  </metadata>
  <path
     style="color:#000000;clip-rule:nonzero;display:inline;overflow:visible;visibility:visible;opacity:1;isolation:auto;mix-blend-mode:normal;color-interpolation:sRGB;color-interpolation-filters:linearRGB;solid-color:#000000;solid-opacity:1;fill:url(#linearGradient5632);fill-opacity:1;fill-rule:nonzero;stroke:none;stroke-width:8;stroke-linecap:butt;stroke-linejoin:miter;stroke-miterlimit:4;stroke-dasharray:none;stroke-dashoffset:0;stroke-opacity:1;color-rendering:auto;image-rendering:auto;shape-rendering:auto;text-rendering:auto;enable-background:accumulate"
     d="m 20,44 c -1.10801,0 -2.10801,0.446 -2.831,1.169 l -8,8 45.662,0 -8,-8 C 46.10801,44.446 45.10801,44 44,44 l -12,0 z"
     id="rect5493-8"
     inkscape:connector-curvature="0"
     sodipodi:nodetypes="ssccsscs" />
  <path
     style="color:#000000;clip-rule:nonzero;display:inline;overflow:visible;visibility:visible;opacity:1;isolation:auto;mix-blend-mode:normal;color-interpolation:sRGB;color-interpolation-filters:linearRGB;solid-color:#000000;solid-opacity:1;fill:url(#linearGradient5624);fill-opacity:1;fill-rule:nonzero;stroke:none;stroke-width:8;stroke-linecap:butt;stroke-linejoin:miter;stroke-miterlimit:4;stroke-dasharray:none;stroke-dashoffset:0;stroke-opacity:1;color-rendering:auto;image-rendering:auto;shape-rendering:auto;text-rendering:auto;enable-background:accumulate"
     d="m 12,52 c -2.21601,0 -4,1.78399 -4,4 l 0,4 48,0 0,-4 c 0,-2.21601 -1.78399,-4 -4,-4 l -40,0 z"
     id="rect5493"
     inkscape:connector-curvature="0" />
  <rect
     style="color:#000000;clip-rule:nonzero;display:inline;overflow:visible;visibility:visible;opacity:1;isolation:auto;mix-blend-mode:normal;color-interpolation:sRGB;color-interpolation-filters:linearRGB;solid-color:#000000;solid-opacity:1;fill:#af5505;fill-opacity:1;fill-rule:nonzero;stroke:none;stroke-width:2;stroke-linecap:round;stroke-linejoin:miter;stroke-miterlimit:4;stroke-dasharray:none;stroke-dashoffset:0;stroke-opacity:1;color-rendering:auto;image-rendering:auto;shape-rendering:auto;text-rendering:auto;enable-background:accumulate"
     id="rect4196"
     width="48"
     height="1"
     x="8"
     y="59"
     ry="0" />
  <path
     id="path6359"
     d="m 29.796611,4 c -0.592272,0 -1.398713,0.3482 -1.542373,1 l -1.542373,7 2.423728,5 -4.627119,5 -2.203389,10 2.423729,5 -4.627119,5 L 19,47 c 0,0 1.542373,3 13,3 11.457627,0 13,-3 13,-3 L 43.898305,42 39.271186,37 41.694915,32 39.491526,22 34.864407,17 37.288135,12 35.745762,5 C 35.602102,4.3482 34.795661,4 34.203389,4 Z"
     style="fill:url(#linearGradient6361);fill-rule:evenodd"
     inkscape:connector-curvature="0"
     sodipodi:nodetypes="sccccccccsccccccccss" />
  <path
     id="rect6246"
     style="color:#000000;isolation:auto;mix-blend-mode:normal;solid-color:#000000;fill:url(#linearGradient6282);color-rendering:auto;image-rendering:auto;shape-rendering:auto"
     d="m 26.711865,12.04 -2.203391,10 c 0,0 2.491526,0.96 7.491526,1 5,0.04 7.491526,-1 7.491526,-1 l -2.203391,-10 c 0,0 -2.288135,1.04 -5.288135,1 -3,-0.04 -5.288135,-1 -5.288135,-1 z m -4.40678,20 -2.20339,10 c 0,0 0.898305,1.96 11.898305,2 11,0.04 11.898305,-2 11.898305,-2 l -2.20339,-10 c 0,0 -1.694915,2.04 -9.694915,2 -8,-0.04 -9.694915,-2 -9.694915,-2 z"
     inkscape:connector-curvature="0"
     sodipodi:nodetypes="ccsccscccsccsc" />
  <path
     style="fill:#af5505;fill-rule:evenodd"
     d="M 19.171875,47.214844 19,48 c 0,0 1.542373,3 13,3 11.457627,0 13,-3 13,-3 L 44.828125,47.214844 C 44.24747,47.883239 41.66321,50 32,50 22.33679,50 19.75253,47.883239 19.171875,47.214844 Z"
     id="path6359-9"
     inkscape:connector-curvature="0"
     sodipodi:nodetypes="ccsccsc" />
  <path
     style="color:#000000;clip-rule:nonzero;display:inline;overflow:visible;visibility:visible;opacity:1;isolation:auto;mix-blend-mode:normal;color-interpolation:sRGB;color-interpolation-filters:linearRGB;solid-color:#000000;solid-opacity:1;fill:#f99133;fill-opacity:1;fill-rule:nonzero;stroke:none;stroke-width:8;stroke-linecap:butt;stroke-linejoin:miter;stroke-miterlimit:4;stroke-dasharray:none;stroke-dashoffset:0;stroke-opacity:1;color-rendering:auto;image-rendering:auto;shape-rendering:auto;text-rendering:auto;enable-background:accumulate"
     d="M 12 52 C 9.78399 52 8 53.78399 8 56 L 8 57 C 8 54.78399 9.78399 53 12 53 L 52 53 C 54.21601 53 56 54.78399 56 57 L 56 56 C 56 53.78399 54.21601 52 52 52 L 12 52 z "
     id="rect5493-0" />
</svg>
