<?xml version="1.0" encoding="UTF-8" standalone="no"?>
<!-- Created with Inkscape (http://www.inkscape.org/) -->

<svg
   xmlns:dc="http://purl.org/dc/elements/1.1/"
   xmlns:cc="http://creativecommons.org/ns#"
   xmlns:rdf="http://www.w3.org/1999/02/22-rdf-syntax-ns#"
   xmlns:svg="http://www.w3.org/2000/svg"
   xmlns="http://www.w3.org/2000/svg"
   xmlns:xlink="http://www.w3.org/1999/xlink"
   xmlns:sodipodi="http://sodipodi.sourceforge.net/DTD/sodipodi-0.dtd"
   xmlns:inkscape="http://www.inkscape.org/namespaces/inkscape"
   id="svg2"
   height="64"
   viewBox="0 0 64 64.000001"
   width="64"
   version="1.1"
   inkscape:version="0.91 r13725"
   sodipodi:docname="wine.svg">
  <sodipodi:namedview
     pagecolor="#ffffff"
     bordercolor="#666666"
     borderopacity="1"
     objecttolerance="10"
     gridtolerance="10"
     guidetolerance="10"
     inkscape:pageopacity="0"
     inkscape:pageshadow="2"
     inkscape:window-width="2546"
     inkscape:window-height="1531"
     id="namedview15"
     showgrid="false"
     inkscape:zoom="3.6875"
     inkscape:cx="32"
     inkscape:cy="29.830508"
     inkscape:window-x="0"
     inkscape:window-y="0"
     inkscape:window-maximized="0"
     inkscape:current-layer="svg2" />
  <defs
     id="defs4">
    <linearGradient
       inkscape:collect="always"
       xlink:href="#linearGradient4531"
       id="linearGradient4537-3"
       x1="205"
       y1="1009.3622"
       x2="205"
       y2="1042.3622"
       gradientUnits="userSpaceOnUse"
       gradientTransform="translate(-170,-988.3622)" />
    <linearGradient
       inkscape:collect="always"
       id="linearGradient4531">
      <stop
         style="stop-color:#d71919;stop-opacity:1;"
         offset="0"
         id="stop4533" />
      <stop
         style="stop-color:#ac0808;stop-opacity:1"
         offset="1"
         id="stop4535" />
    </linearGradient>
  </defs>
  <metadata
     id="metadata7">
    <rdf:RDF>
      <cc:Work
         rdf:about="">
        <dc:format>image/svg+xml</dc:format>
        <dc:type
           rdf:resource="http://purl.org/dc/dcmitype/StillImage" />
        <dc:title />
      </cc:Work>
    </rdf:RDF>
  </metadata>
  <rect
     style="color:#000000;clip-rule:nonzero;display:inline;overflow:visible;visibility:visible;opacity:1;isolation:auto;mix-blend-mode:normal;color-interpolation:sRGB;color-interpolation-filters:linearRGB;solid-color:#000000;solid-opacity:1;fill:#e2f2fe;fill-opacity:1;fill-rule:nonzero;stroke:none;stroke-width:2;stroke-linecap:butt;stroke-linejoin:miter;stroke-miterlimit:4;stroke-dasharray:none;stroke-dashoffset:0;stroke-opacity:1;color-rendering:auto;image-rendering:auto;shape-rendering:auto;text-rendering:auto;enable-background:accumulate"
     id="rect4539-6"
     width="44"
     height="44"
     x="10"
     y="9.9999828"
     ry="2.00002" />
  <path
     sodipodi:nodetypes="sscccscccssccsscccccsscc"
     inkscape:connector-curvature="0"
     style="color:#000000;clip-rule:nonzero;display:inline;overflow:visible;visibility:visible;opacity:1;isolation:auto;mix-blend-mode:normal;color-interpolation:sRGB;color-interpolation-filters:linearRGB;solid-color:#000000;solid-opacity:1;fill:#609ecc;fill-opacity:1;fill-rule:nonzero;stroke:none;stroke-width:2;stroke-linecap:butt;stroke-linejoin:miter;stroke-miterlimit:4;stroke-dasharray:none;stroke-dashoffset:0;stroke-opacity:1;color-rendering:auto;image-rendering:auto;shape-rendering:auto;text-rendering:auto;enable-background:accumulate"
     d="M 12,8 C 9.78396,8 8,9.784 8,12 l 0,18 22,0 0,-22 z m 22,0 0,22 22,0 0,-18 C 56,9.784 54.21604,8 52,8 Z M 8,34 8,52 c 0,2.216 1.78396,4 4,4 l 18,0 0,-22 z m 26,0 0,22 18,0 c 2.21604,0 4,-1.784 4,-4 l 0,-18 z"
     id="rect4356-3-2" />
  <path
     sodipodi:nodetypes="sccccsccccccsscccccsscc"
     inkscape:connector-curvature="0"
     style="fill:#ac0808;fill-rule:evenodd;stroke:none;stroke-width:1px;stroke-linecap:butt;stroke-linejoin:miter;stroke-opacity:1"
     d="M 16.3457,17.2324 C 13.5783,17.1574 10.79867,17.8336 8,19.6348 L 8,30 30,30 30,22.4688 C 25.12992,19.8466 21.25726,17.3661 16.3457,17.2324 Z M 34,23.5313 34,30 56,30 56,25.3652 C 48.23427,30.3631 41.61411,27.6308 34,23.5313 Z M 8,34 8,52 c 0,2.216 1.78396,4 4,4 l 18,0 0,-22 z m 26,0 0,22 18,0 c 2.21604,0 4,-1.784 4,-4 l 0,-18 z"
     id="path4397-5-5-6" />
  <path
     sodipodi:nodetypes="sscccscccssccsscccccsscc"
     style="color:#000000;clip-rule:nonzero;display:inline;overflow:visible;visibility:visible;opacity:1;isolation:auto;mix-blend-mode:normal;color-interpolation:sRGB;color-interpolation-filters:linearRGB;solid-color:#000000;solid-opacity:1;fill:#9cc4e0;fill-opacity:1;fill-rule:nonzero;stroke:none;stroke-width:2;stroke-linecap:butt;stroke-linejoin:miter;stroke-miterlimit:4;stroke-dasharray:none;stroke-dashoffset:0;stroke-opacity:1;color-rendering:auto;image-rendering:auto;shape-rendering:auto;text-rendering:auto;enable-background:accumulate"
     d="m 12,10 c -1.10801,0 -2,0.89199 -2,2 l 0,18 20,0 0,-20 z m 22,0 0,20 20,0 0,-18 c 0,-1.10801 -0.89199,-2 -2,-2 z m -24,24 0,18 c 0,1.108 0.89199,2 2,2 l 18,0 0,-20 z m 24,0 0,20 18,0 c 1.10801,0 2,-0.892 2,-2 l 0,-18 z"
     id="rect4356-3-6-1"
     inkscape:connector-curvature="0" />
  <path
     sodipodi:nodetypes="ccccccccccccsscccccsscc"
     style="fill:url(#linearGradient4537-3);fill-opacity:1;fill-rule:evenodd;stroke:none;stroke-width:1px;stroke-linecap:butt;stroke-linejoin:miter;stroke-opacity:1"
     d="M 16.3457,17.2324 C 14.23864,17.1754 12.12429,17.553 10,18.5293 L 10,30 30,30 30,22.4688 C 25.12992,19.8466 21.25726,17.3661 16.3457,17.2324 Z M 34,23.5313 34,30 54,30 54,26.4707 C 46.924,29.7228 40.95935,27.2783 34,23.5313 Z M 10,34 10,52 c 0,1.108 0.89199,2 2,2 l 18,0 0,-20 z m 24,0 0,20 18,0 c 1.10801,0 2,-0.892 2,-2 l 0,-18 z"
     id="path4397-8"
     inkscape:connector-curvature="0" />
  <circle
     style="color:#000000;clip-rule:nonzero;display:inline;overflow:visible;visibility:visible;opacity:1;isolation:auto;mix-blend-mode:normal;color-interpolation:sRGB;color-interpolation-filters:linearRGB;solid-color:#000000;solid-opacity:1;fill:#d71919;fill-opacity:1;fill-rule:nonzero;stroke:none;stroke-width:2;stroke-linecap:butt;stroke-linejoin:miter;stroke-miterlimit:4;stroke-dasharray:none;stroke-dashoffset:0;stroke-opacity:1;color-rendering:auto;image-rendering:auto;shape-rendering:auto;text-rendering:auto;enable-background:accumulate"
     id="path4430-7"
     cx="50"
     cy="22.999983"
     r="2" />
  <circle
     style="color:#000000;clip-rule:nonzero;display:inline;overflow:visible;visibility:visible;opacity:1;isolation:auto;mix-blend-mode:normal;color-interpolation:sRGB;color-interpolation-filters:linearRGB;solid-color:#000000;solid-opacity:1;fill:#d71919;fill-opacity:1;fill-rule:nonzero;stroke:none;stroke-width:2;stroke-linecap:butt;stroke-linejoin:miter;stroke-miterlimit:4;stroke-dasharray:none;stroke-dashoffset:0;stroke-opacity:1;color-rendering:auto;image-rendering:auto;shape-rendering:auto;text-rendering:auto;enable-background:accumulate"
     id="path4430-3-9"
     cx="45"
     cy="17.999983"
     r="1" />
  <path
     sodipodi:nodetypes="ccccc"
     inkscape:connector-curvature="0"
     style="color:#000000;clip-rule:nonzero;display:inline;overflow:visible;visibility:visible;opacity:1;isolation:auto;mix-blend-mode:normal;color-interpolation:sRGB;color-interpolation-filters:linearRGB;solid-color:#000000;solid-opacity:1;fill:#ec4040;fill-opacity:1;fill-rule:nonzero;stroke:none;stroke-width:2;stroke-linecap:butt;stroke-linejoin:miter;stroke-miterlimit:4;stroke-dasharray:none;stroke-dashoffset:0;stroke-opacity:1;color-rendering:auto;image-rendering:auto;shape-rendering:auto;text-rendering:auto;enable-background:accumulate"
     d="m 8,34 0,1 22,0 0,-1 z"
     id="path4503-2" />
  <path
     sodipodi:nodetypes="ccccc"
     inkscape:connector-curvature="0"
     style="color:#000000;clip-rule:nonzero;display:inline;overflow:visible;visibility:visible;opacity:1;isolation:auto;mix-blend-mode:normal;color-interpolation:sRGB;color-interpolation-filters:linearRGB;solid-color:#000000;solid-opacity:1;fill:#ec4040;fill-opacity:1;fill-rule:nonzero;stroke:none;stroke-width:2;stroke-linecap:butt;stroke-linejoin:miter;stroke-miterlimit:4;stroke-dasharray:none;stroke-dashoffset:0;stroke-opacity:1;color-rendering:auto;image-rendering:auto;shape-rendering:auto;text-rendering:auto;enable-background:accumulate"
     d="m 34,34 0,1 22,0 0,-1 z"
     id="rect4356-3-9-0" />
  <path
     style="fill:#600404;fill-rule:evenodd;stroke:none;stroke-width:1px;stroke-linecap:butt;stroke-linejoin:miter;stroke-opacity:1"
     d="m 8,51 0,1 c 0,2.216 1.78396,4 4,4 l 18,0 0,-1 -18,0 C 9.78396,55 8,53.216 8,51 Z m 48,0 c 0,2.216 -1.78396,4 -4,4 l -18,0 0,1 18,0 c 2.21604,0 4,-1.784 4,-4 z"
     id="path4397-5-5-2-2"
     inkscape:connector-curvature="0"
     sodipodi:nodetypes="cssccsccsccssc" />
</svg>
