<?xml version="1.0" encoding="UTF-8" standalone="no"?>
<svg
   xmlns:dc="http://purl.org/dc/elements/1.1/"
   xmlns:cc="http://creativecommons.org/ns#"
   xmlns:rdf="http://www.w3.org/1999/02/22-rdf-syntax-ns#"
   xmlns:svg="http://www.w3.org/2000/svg"
   xmlns="http://www.w3.org/2000/svg"
   xmlns:xlink="http://www.w3.org/1999/xlink"
   xmlns:sodipodi="http://sodipodi.sourceforge.net/DTD/sodipodi-0.dtd"
   xmlns:inkscape="http://www.inkscape.org/namespaces/inkscape"
   height="48"
   width="48"
   version="1.1"
   id="svg91"
   sodipodi:docname="desktop.svg"
   inkscape:version="0.92.4 5da689c313, 2019-01-14">
  <metadata
     id="metadata97">
    <rdf:RDF>
      <cc:Work
         rdf:about="">
        <dc:format>image/svg+xml</dc:format>
        <dc:type
           rdf:resource="http://purl.org/dc/dcmitype/StillImage" />
      </cc:Work>
    </rdf:RDF>
  </metadata>
  <defs
     id="defs95" />
  <sodipodi:namedview
     pagecolor="#ffffff"
     bordercolor="#666666"
     borderopacity="1"
     objecttolerance="10"
     gridtolerance="10"
     guidetolerance="10"
     inkscape:pageopacity="0"
     inkscape:pageshadow="2"
     inkscape:window-width="1366"
     inkscape:window-height="697"
     id="namedview93"
     showgrid="false"
     inkscape:zoom="11.313709"
     inkscape:cx="25.106332"
     inkscape:cy="19.74727"
     inkscape:window-x="0"
     inkscape:window-y="0"
     inkscape:window-maximized="1"
     inkscape:current-layer="svg91" />
  <linearGradient
     id="a">
    <stop
       offset="0"
       stop-color="#fff"
       id="stop2" />
    <stop
       offset="1"
       stop-color="#fff"
       stop-opacity="0"
       id="stop4" />
  </linearGradient>
  <radialGradient
     id="b"
     cx="64.07962"
     cy="114.47154"
     gradientTransform="matrix(.00685262 0 0 .00664948 15.474236 26.345827)"
     gradientUnits="userSpaceOnUse"
     r="60.700505">
    <stop
       offset="0"
       stop-color="#552b00"
       id="stop7" />
    <stop
       offset="1"
       stop-color="#673400"
       stop-opacity="0"
       id="stop9" />
  </radialGradient>
  <linearGradient
     id="c"
     gradientTransform="matrix(.01722412 0 0 .0173183 14.067681 39.190114)"
     gradientUnits="userSpaceOnUse"
     x1="67.629204"
     x2="67.629204"
     y1="-2.194174"
     y2="78.850853">
    <stop
       offset=".1302"
       stop-color="#fff"
       id="stop12" />
    <stop
       offset=".5"
       stop-color="#fff"
       stop-opacity=".168627"
       id="stop14" />
  </linearGradient>
  <linearGradient
     id="d"
     gradientTransform="matrix(.5722634 0 0 1.0135211 -188.25918 -1.645523)"
     gradientUnits="userSpaceOnUse"
     x1="119.50323"
     x2="119.50323"
     y1="68.103523"
     y2="92.11721">
    <stop
       offset="0"
       stop-color="#2e3436"
       id="stop17" />
    <stop
       offset=".72189999"
       id="stop19" />
    <stop
       offset="1"
       stop-color="#2e3436"
       id="stop21" />
  </linearGradient>
  <filter
     id="e">
    <feBlend
       in2="BackgroundImage"
       mode="multiply"
       id="feBlend24" />
  </filter>
  <filter
     id="f">
    <feBlend
       in2="BackgroundImage"
       mode="multiply"
       id="feBlend27" />
  </filter>
  <radialGradient
     id="g"
     cx="68.5"
     cy="53.25"
     fx="95"
     fy="24.009691"
     gradientTransform="matrix(.33189109 -.00767101 .00643391 .28142013 8.017567 13.772051)"
     gradientUnits="userSpaceOnUse"
     r="46"
     xlink:href="#a" />
  <linearGradient
     id="h"
     gradientTransform="matrix(.30550822 0 0 .30717886 -28.803756 12.028523)"
     gradientUnits="userSpaceOnUse"
     x1="136"
     x2="185.47314"
     y1="-52.021385"
     y2="108.25474">
    <stop
       offset="0"
       stop-color="#4dc7ff"
       id="stop31" />
    <stop
       offset="1"
       stop-color="#c6f4ff"
       stop-opacity="0"
       id="stop33" />
  </linearGradient>
  <radialGradient
     id="i"
     cx="117.73584"
     cy="17.530439"
     fx="117.14628"
     fy="17.449625"
     gradientTransform="matrix(.1717837 .25401886 -.73289008 .50106226 38.92412 -21.715468)"
     gradientUnits="userSpaceOnUse"
     r="3.270288"
     xlink:href="#a" />
  <radialGradient
     id="j"
     cx="64.008812"
     cy="18.148415"
     gradientTransform="matrix(.42284217 .0000001 0 .03372615 2.656992 16.776224)"
     gradientUnits="userSpaceOnUse"
     r="55.999996"
     xlink:href="#a" />
  <linearGradient
     id="k"
     gradientUnits="userSpaceOnUse"
     x1="8.900793"
     x2="36.102071"
     y1="22.998819"
     y2="22.998819">
    <stop
       offset="0"
       stop-color="#edcb68"
       id="stop38" />
    <stop
       offset=".505"
       stop-color="#efcd68"
       id="stop40" />
    <stop
       offset="1"
       stop-color="#fcde7b"
       id="stop42" />
  </linearGradient>
  <linearGradient
     id="l"
     gradientUnits="userSpaceOnUse"
     x1="15.000955"
     x2="15.000955"
     y1="37.999774"
     y2="18.00228">
    <stop
       offset="0"
       stop-color="#ffe390"
       id="stop45" />
    <stop
       offset="1"
       stop-color="#ffe9a2"
       id="stop47" />
  </linearGradient>
  <linearGradient
     id="m"
     gradientUnits="userSpaceOnUse"
     x1="16.800011"
     x2="22.59781"
     y1="44.795369"
     y2="42.263083">
    <stop
       offset="0"
       stop-opacity=".392"
       id="stop50" />
    <stop
       offset="1"
       stop-opacity="0"
       id="stop52" />
  </linearGradient>
  <path
     d="m0 0h48v48h-48z"
     fill="none"
     id="path55" />
  <path
     d="m9 5.004h23.5c1.001 0 1.5.503 1.5 1.5v19.496l3.001 4.002v8.496c0 1.002-.499 1.5-1.5 1.5h-26.501z"
     fill="url(#k)"
     id="path57" />
  <rect
     fill="url(#d)"
     filter="url(#f)"
     height="74.404709"
     opacity=".673913"
     rx=".378766"
     ry="5.188345"
     transform="matrix(-.97720003 0 0 .30717886 -70.430562 11.874933)"
     width=".231432"
     x="-119.9827"
     y="17.3125"
     id="rect59" />
  <rect
     fill="#0089ff"
     height="79.834694"
     opacity=".779891"
     rx="7.438342"
     ry="7.397887"
     transform="matrix(.30550822 0 0 .30717886 4.472614 7.904419)"
     width="111.88236"
     x="26.611155"
     y="29.098221"
     id="rect61"
     style="fill:#008aff;fill-opacity:1" />
  <path
     d="m13.387476 16.845944c-.430342 0-.773317.344851-.773317.777547v.307178c0-.432695.342975-.900418.773317-.900418h32.670282c.430342 0 .773318.467723.773318.900418v-.307178c0-.432696-.342976-.777547-.773318-.777547z"
     id="path63"
     fill="url(#j)" />
  <path
     d="m138.60911 31.394492c.0295.155908.0312.303636.0312.46875v-.40625c0-.01096.00014-.02032 0-.03125-.009-.0124-.0224-.01901-.0312-.03125z"
     fill="#03274c"
     fill-opacity=".470414"
     filter="url(#e)"
     transform="matrix(.30550822 0 0 .30717886 4.472614 7.904419)"
     id="path65" />
  <path
     d="m13.986251 38.599494c-.281847 0-.515545.234976-.515545.518364v2.207848h.152754v-2.207848c0-.200956.162927-.364775.362791-.364775h31.639194c.199861 0 .362791.163819.362791.364775v2.207848h.152755v-2.207848c0-.283388-.233699-.518364-.515546-.518364z"
     fill="#fff"
     fill-opacity=".37574"
     id="path67" />
  <path
     d="m44.794289 16.789795h1.377087c.404096 0 .660964.343631.651753.718733l-.02102.856137-.168194-.739872c-.07541-.331741-.173718-.603962-.620215-.665885z"
     id="path69"
     fill-rule="evenodd"
     fill="url(#i)" />
  <path
     d="m14.977927 26.660496c-.02575.268558-.09371.632838.01844.714549.156646.114126.725422-.280165.918868-.280413.193446-.000247.76328.392622.919636.278095.111624-.08176.04292-.443979.01613-.712231h-.09527c.0082.08546.02018.177431.02996.266507.01101.100277.01842.196462.0146.26728-.0033.06197-.02003.0951-.02151.100423-.0055-.000198-.0425.0065-.102181-.0093-.06821-.01805-.157372-.05528-.248924-.09656-.09155-.04128-.186201-.0871-.272741-.123598-.08654-.0365-.159214-.06654-.239705-.06643-.08049.000099-.154026.03048-.240473.06721-.08645.03673-.180525.08285-.271972.124371-.09145.04152-.180757.07833-.248924.09656-.05965.01595-.0959.0098-.101414.01004-.0014-.0053-.01878-.03847-.02228-.100423-.004-.07081.0031-.166976.01383-.26728.0096-.08989.0212-.182727.0292-.268825z"
     fill="url(#b)"
     id="path71" />
  <path
     d="m16.562 46.394 7.238-4.596-9-1.002 1.762 5.594"
     fill="url(#m)"
     opacity=".25"
     id="path73" />
  <path
     d="m13.51868 16.943385c-.430342 0-.773318.344851-.773318.777546v23.019215c0 .167136.05495.314819.143207.44157l33.710922-23.758364c-.117611-.280515-.393278-.479967-.716035-.479967z"
     id="path75"
     fill="url(#h)" />
  <path
     d="m14.377034 38.868618c-.156903 0-.286414.130216-.286414.28798v1.958266h31.635376v-1.958266c0-.15776-.119964-.28798-.276867-.28798z"
     fill="#00060b"
     fill-opacity=".614407"
     id="path77"
     style="fill:#ffffff;fill-opacity:0.614407" />
  <path
     d="m16.100127 39.941967c-.0206-.233493-.05294-.394837-.05345-.397539-.0077-.04173-.06824-.102147-.109362-.109914-.004-.000765-.389421-.07601-.775245-.07098h-.000886c-.385806-.005-.771205.07021-.775245.07098-.04114.0078-.101673.06819-.109326.109914-.000373.002-.01882.08668-.03669.23628v.300559c0 .06248.04128.134745.09177.160885-.000035-.0018.07983.229516.758025.229516.678213 0 .923849-.358057.923778-.35408.04766-.03217.08663-.1092.08663-.171695 0-.0013 0-.0026 0-.0039z"
     fill="url(#c)"
     opacity=".7"
     stroke-width=".056379"
     id="path79" />
  <path
     d="m15.265567 39.501831 31.066366-21.905691"
     fill="none"
     stroke="url(#g)"
     stroke-width=".2"
     id="path81" />
  <path
     d="m41.147236 39.452539c-.05673.0041-.108997.01634-.153164.03267-.05821.0211-.10694.04891-.146201.08634-.03858.03743-.0672.08098-.08818.130664-.02099.04968-.035.102183-.04177.158667l.287764.01634c.0095-.06601.02853-.114332.06033-.147.03249-.03335.08064-.049.141558-.049.0616 0 .107428.0137.139238.04433.03182.03063.04874.07836.04874.142331 0 .04356-.0121.08488-.03713.12367-.02505.03879-.05918.07788-.09979.116667-.01631.01557-.03755.03284-.05569.049h.366662c.0293-.03721.05386-.07692.07427-.119001.0264-.05444.03945-.114627.03945-.182004 0-.06397-.0092-.120647-.03015-.17033-.02099-.05036-.05221-.09362-.09282-.128336-.04062-.03471-.09128-.06164-.150848-.07934-.05956-.01837-.127052-.02568-.204214-.02568-.02032 0-.03911-.0012-.05802 0zm1.9099 0c-.06362 0-.124153.007-.181011.02334-.05685.01567-.106845.03966-.150842.07233-.04332.03267-.07997.07399-.109069.123674-.02844.04968-.04757.107623-.05569.174993l.285439.02101c.0054-.05989.02679-.104996.06266-.137665.03655-.03266.08499-.049.143879-.049.06295 0 .109069.01496.141563.049.03316.03335.05105.08079.05105.14 0 .03948-.0083.07214-.02322.098-.01488.02519-.03433.04404-.05802.05834-.02371.01428-.04913.02488-.07891.03032-.02911.0054-.05743.0093-.08586.0093h-.09515v.091h.380593c.02966-.0088.05711-.0199.08122-.03266.03858-.0211.07078-.04608.09515-.07467.02505-.02927.04351-.06193.05569-.098.01219-.03675.01858-.07447.01858-.116666-.000006-.0524-.0096-.103053-.02783-.149332-.01827-.04628-.04729-.08662-.08587-.121336-.03858-.03471-.08828-.06124-.148526-.08166-.06024-.02043-.131888-.03035-.21582-.03035zm-3.079511.02101-.359699.233336v.226329l.343458-.217v.441004h.285439v-.683668zm4.304818 0-.443243.683669h.234386l.169407-.259004c.0075-.01155.01604-.02636.02554-.042.01014-.01564.01906-.03101.02786-.04666.0095-.01634.01809-.03072.02551-.04433.0075-.01428.01286-.02519.01625-.03267-.0012.0102-.0033.02362-.0046.042-.000611.01769-.000916.03626-.0024.056-.000611.01975-.0015.03928-.0024.05833v.04667.221666h.271518v-.68367zm-2.288167.382665v.287003h.292401v-.287003zm-2.032892.436338v.406004h-.355062v.212332h.967716v-.212332h-.327215v-.406004zm1.08607 0c-.02578.02264-.05045.04311-.07658.06767-.05077.04764-.0995.100822-.146204.158667-.0467.05717-.08587.122211-.118354.193674v.19833h1.000203v-.235668h-.66371c.01894-.04424.04728-.08488.08587-.123664.03926-.03879.08258-.07856.129954-.116673.04738-.03811.09612-.07651.146204-.116666.01051-.0083.02007-.01711.03015-.02568zm1.856518 0v.0047h.09979c.02841 0 .05869.0022.0905.007s.06111.0137.08818.02798c.02774.01361.0497.0348.0673.06066.01827.02587.02783.0598.02783.102672 0 .0701-.01781.122306-.0557.156329-.0379.03403-.09177.05134-.160126.05134-.03723 0-.06972-.0068-.09747-.01634-.02707-.0102-.05067-.02362-.06962-.042-.01894-.01837-.03259-.04015-.04409-.06533-.01081-.02586-.01915-.05338-.02322-.084l-.29008.02568c.0061.05104.01915.09965.03945.149338.02099.04968.05221.09586.09283.135328.04129.0388.09418.06952.157804.09334.0643.02384.143298.035.236708.035.08393 0 .155192-.0089.218142-.02801.06362-.01975.117483-.04725.160126-.084.04264-.03675.07416-.08128.09515-.132999.02166-.0524.03249-.112001.03249-.177338-.000006-.04219-.005-.08157-.01857-.119001-.01317-.0371-.03369-.07097-.06034-.10033zm.847043 0-.07194.109666v.217003h.649782v.291667h.271518v-.291667h.192616v-.214666h-.192616v-.112003h-.271518v.112003h-.417715l.07426-.112003zm-1.756739.331332v.287004h.292401v-.287004z"
     fill="#d5d5d5"
     opacity=".703804"
     id="path83"
     style="fill:#000000;fill-opacity:1" />
  <path
     d="m9 5.004 8.412 6.89c.238.227.616.756.586 1.11v20.997l-.998 1.587v10.413c-.003.14-.03.393-.438.393l-7.56-6.395z"
     fill="url(#l)"
     id="path85" />
  <path
     d="m10.144 39.81-.03-32.546m-.552-.616v32.78"
     fill="none"
     stroke="#eecb66"
     stroke-width=".2"
     id="path87" />
  <path
     d="m9.09 5.09-.19.226 8.29 6.85c.138.138.257.217.355.387.113.189.177.474.166.595v20.822l-.96 1.542.25.16 1.008-1.622v-20.895a1.454 1.454 0 0 0 -.211-.731 1.923 1.923 0 0 0 -.357-.478l-.063-.062z"
     fill="#fff"
     opacity=".478"
     id="path89" />
</svg>
