<?xml version="1.0" encoding="UTF-8" standalone="no"?>
<svg
   xmlns:dc="http://purl.org/dc/elements/1.1/"
   xmlns:cc="http://creativecommons.org/ns#"
   xmlns:rdf="http://www.w3.org/1999/02/22-rdf-syntax-ns#"
   xmlns:svg="http://www.w3.org/2000/svg"
   xmlns="http://www.w3.org/2000/svg"
   xmlns:xlink="http://www.w3.org/1999/xlink"
   xmlns:sodipodi="http://sodipodi.sourceforge.net/DTD/sodipodi-0.dtd"
   xmlns:inkscape="http://www.inkscape.org/namespaces/inkscape"
   height="48"
   width="48"
   version="1.1"
   id="svg65"
   sodipodi:docname="folder-music.svg"
   inkscape:version="0.92.4 5da689c313, 2019-01-14">
  <metadata
     id="metadata71">
    <rdf:RDF>
      <cc:Work
         rdf:about="">
        <dc:format>image/svg+xml</dc:format>
        <dc:type
           rdf:resource="http://purl.org/dc/dcmitype/StillImage" />
      </cc:Work>
    </rdf:RDF>
  </metadata>
  <defs
     id="defs69">
    <filter
       inkscape:collect="always"
       style="color-interpolation-filters:sRGB"
       id="filter867"
       x="-0.052742689"
       width="1.1054854"
       y="-0.13809875"
       height="1.2761975">
      <feGaussianBlur
         inkscape:collect="always"
         stdDeviation="0.15383284"
         id="feGaussianBlur869" />
    </filter>
  </defs>
  <sodipodi:namedview
     pagecolor="#ffffff"
     bordercolor="#666666"
     borderopacity="1"
     objecttolerance="10"
     gridtolerance="10"
     guidetolerance="10"
     inkscape:pageopacity="0"
     inkscape:pageshadow="2"
     inkscape:window-width="1920"
     inkscape:window-height="1053"
     id="namedview67"
     showgrid="false"
     inkscape:zoom="6.9532168"
     inkscape:cx="-30.406657"
     inkscape:cy="12.200588"
     inkscape:window-x="1366"
     inkscape:window-y="0"
     inkscape:window-maximized="1"
     inkscape:current-layer="g63" />
  <filter
     id="a"
     color-interpolation-filters="sRGB">
    <feGaussianBlur
       stdDeviation=".61029092"
       id="feGaussianBlur2" />
  </filter>
  <filter
     id="b"
     color-interpolation-filters="sRGB"
     height="1.320931"
     width="1.12257"
     x="-.061285"
     y="-.160466">
    <feGaussianBlur
       stdDeviation=".17874765"
       id="feGaussianBlur5" />
  </filter>
  <radialGradient
     id="c"
     cx="72.5"
     cy="103.75"
     gradientTransform="matrix(1,0,0,0.35714286,0,66.696429)"
     gradientUnits="userSpaceOnUse"
     r="3.5">
    <stop
       offset="0"
       id="stop8" />
    <stop
       offset="1"
       stop-opacity="0"
       id="stop10" />
  </radialGradient>
  <radialGradient
     id="d"
     cx="22.501722"
     cy="91.356857"
     fx="19.835222"
     fy="86.023857"
     gradientTransform="matrix(0.6862309,-0.2788753,0.2607269,0.6833644,-0.067421,33.863485)"
     gradientUnits="userSpaceOnUse"
     r="14">
    <stop
       offset="0"
       stop-color="#fff"
       id="stop13" />
    <stop
       offset=".5"
       stop-color="#fff"
       stop-opacity=".708861"
       id="stop15" />
    <stop
       offset="1"
       stop-color="#fff"
       stop-opacity="0"
       id="stop17" />
  </radialGradient>
  <linearGradient
     id="e"
     gradientUnits="userSpaceOnUse"
     x1="36.325435"
     x2="42.123234"
     xlink:href="#h"
     y1="38.312269"
     y2="35.779983" />
  <linearGradient
     id="f"
     gradientUnits="userSpaceOnUse"
     x1="8.900793"
     x2="36.102071"
     y1="22.998819"
     y2="22.998819">
    <stop
       offset="0"
       stop-color="#edcb68"
       id="stop21" />
    <stop
       offset=".505"
       stop-color="#efcd68"
       id="stop23" />
    <stop
       offset="1"
       stop-color="#fcde7b"
       id="stop25" />
  </linearGradient>
  <linearGradient
     id="g"
     gradientUnits="userSpaceOnUse"
     x1="15.000955"
     x2="15.000955"
     y1="37.999774"
     y2="18.00228">
    <stop
       offset="0"
       stop-color="#ffe390"
       id="stop28" />
    <stop
       offset="1"
       stop-color="#ffe9a2"
       id="stop30" />
  </linearGradient>
  <linearGradient
     id="h">
    <stop
       offset="0"
       stop-opacity=".392"
       id="stop33" />
    <stop
       offset="1"
       stop-opacity="0"
       id="stop35" />
  </linearGradient>
  <linearGradient
     id="i"
     gradientUnits="userSpaceOnUse"
     x1="16.800011"
     x2="22.59781"
     xlink:href="#h"
     y1="44.795369"
     y2="42.263083" />
  <path
     d="m36.087424 39.910949 7.238-4.596-9-1.002 1.762 5.594"
     fill="url(#e)"
     opacity=".25"
     id="path39" />
  <path
     d="m0 0h48v48h-48z"
     fill="none"
     id="path41" />
  <path
     d="m16.562 46.394 7.238-4.596-9-1.002 1.762 5.594"
     fill="url(#i)"
     opacity=".25"
     id="path43" />
  <path
     d="m9 5.004h23.5c1.001 0 1.5.503 1.5 1.5v19.496l3.001 4.002v8.496c0 1.002-.499 1.5-1.5 1.5h-26.501z"
     fill="url(#f)"
     id="path45" />
  <path
     d="m9 5.004 8.412 6.89c.238.227.616.756.586 1.11v20.997l-.998 1.587v10.413c-.003.14-.03.393-.438.393l-7.56-6.395z"
     fill="url(#g)"
     id="path47" />
  <path
     d="m10.144 39.81-.03-32.546m-.552-.616v32.78"
     fill="none"
     stroke="#eecb66"
     stroke-width=".2"
     id="path49" />
  <path
     d="m9.09 5.09-.19.226 8.29 6.85c.138.138.257.217.355.387.113.189.177.474.166.595v20.822l-.96 1.542.25.16 1.008-1.622v-20.895a1.454 1.454 0 0 0 -.211-.731 1.923 1.923 0 0 0 -.357-.478l-.063-.062z"
     fill="#fff"
     opacity=".478"
     id="path51" />
  <g
     transform="translate(81.55609,-977.09554)"
     id="g63"
     style="enable-background:new">
    <ellipse
       cx="72.5"
       cy="103.75"
       rx="3.5"
       ry="1.25"
       transform="matrix(1.8272871,-0.23473919,0,1.8590393,-186.0091,847.39242)"
       id="ellipse53"
       style="opacity:0.34;fill:url(#c);stroke-width:0.73388588;filter:url(#filter867)" />
    <path
       d="m -48.036265,990.55195 3.482855,-0.0205 v 26.47105 l -3.482855,-1.2285 z"
       id="path55"
       inkscape:connector-curvature="0"
       style="fill:#009cff;stroke-width:3.25063872" />
    <path
       d="m -61.810106,1020.9207 c 1.321675,2.8691 6.174026,3.8873 10.837832,2.2748 4.664129,-1.6129 7.441736,-5.1051 6.120436,-7.9742 -1.321636,-2.8687 -6.242931,-4.0281 -10.906699,-2.4154 -4.663767,1.613 -7.373205,5.2461 -6.051569,8.1148 z"
       id="path57"
       inkscape:connector-curvature="0"
       style="fill:#009cff;stroke-width:2.34575796" />
    <path
       d="m 34.447549,87.550082 c -7.626375,4.164496 -12.096252,10.313936 -9.566387,13.160718 1.100762,1.23833 3.231368,1.53678 4.823819,1.56891 4.124595,0.0834 9.446953,-1.428 14.234531,-4.042258 7.625626,-4.163549 12.09604,-10.314544 9.565214,-13.160989 -1.100763,-1.238336 -3.231366,-1.536781 -4.823822,-1.568919 -4.125344,-0.0825 -9.445778,1.428283 -14.233355,4.042538 z"
       transform="matrix(0.40543133,-0.04964616,0.0415141,0.34067527,-77.446489,987.60192)"
       id="path59"
       inkscape:connector-curvature="0"
       style="opacity:0.8;fill:url(#d);stroke-width:4.13291883;filter:url(#a)" />
    <path
       d="m -40.431174,995.31946 c -2.196799,-1.69949 -3.306017,-3.76911 -4.122238,-4.78803 l -0.03735,6.81922 c 14.863439,4.05195 5.262749,14.81785 5.262749,14.81785 10.980105,-7.325 0.918799,-15.28505 -1.103157,-16.84904 z"
       id="path61"
       inkscape:connector-curvature="0"
       style="fill:#009cff;stroke-width:3.25063896" />
  </g>
</svg>
