<svg height="48" width="48" xmlns="http://www.w3.org/2000/svg" xmlns:xlink="http://www.w3.org/1999/xlink"><linearGradient id="a" gradientUnits="userSpaceOnUse" x1="5.652649" x2="7.652649" xlink:href="#n" y1="57.60675" y2="57.60675"/><linearGradient id="b" gradientUnits="userSpaceOnUse" x1="3.75" x2="8" y1="18" y2="18"><stop offset="0" stop-color="#7b7b7b"/><stop offset="1" stop-color="#a8a8a8"/></linearGradient><linearGradient id="c" gradientUnits="userSpaceOnUse" x1="28.557367" x2="30.557367" xlink:href="#n" y1="45.063515" y2="45.063515"/><linearGradient id="d" gradientUnits="userSpaceOnUse" x1="39.882687" x2="41.882687" xlink:href="#n" y1="-16.810888" y2="-16.810888"/><linearGradient id="e"><stop offset="0" stop-color="#fff"/><stop offset="1" stop-color="#a4c0e4"/></linearGradient><linearGradient id="f" gradientUnits="userSpaceOnUse" x1="51.945301" x2="190.9458" xlink:href="#e" y1="52.356701" y2="154.02319"/><linearGradient id="g" gradientUnits="userSpaceOnUse" x1="45.809101" x2="184.8096" xlink:href="#e" y1="60.7463" y2="162.4128"/><linearGradient id="h" gradientUnits="userSpaceOnUse" x1="54.420399" x2="193.4209" xlink:href="#e" y1="48.972401" y2="150.6389"/><linearGradient id="i" gradientUnits="userSpaceOnUse" x1="66.608398" x2="205.6089" xlink:href="#e" y1="32.309299" y2="133.9758"/><linearGradient id="j" gradientUnits="userSpaceOnUse" x1="65.852997" x2="204.8535" xlink:href="#e" y1="33.341599" y2="135.0081"/><linearGradient id="k" gradientUnits="userSpaceOnUse" x1="54.9575" x2="193.95799" xlink:href="#e" y1="48.237999" y2="149.9045"/><filter id="l"><feGaussianBlur stdDeviation=".47881728"/></filter><linearGradient id="m"><stop offset="0" stop-color="#4b4a57"/><stop offset="1"/></linearGradient><radialGradient id="n" cx="308.4458" cy="-306.1936" gradientTransform="matrix(.95 0 0 -.95 -282.3963 -266.2798)" gradientUnits="userSpaceOnUse" r="108.3108" xlink:href="#m"/><radialGradient id="o" cx="357.5249" cy="-322.5447" gradientTransform="matrix(.95 0 0 -.8769 -282.3963 -263.2589)" gradientUnits="userSpaceOnUse" r="125.8389"><stop offset="0" stop-color="#4b4a57"/><stop offset=".7396"/></radialGradient><radialGradient id="p" cx="308.42529" cy="-306.1936" gradientTransform="matrix(.95 0 0 -.95 -282.3963 -266.2798)" gradientUnits="userSpaceOnUse" r="108.3234" xlink:href="#m"/><filter id="q" height="2.136312" width="1.024518" x="-.012259" y="-.568156"><feGaussianBlur stdDeviation=".3269045"/></filter><filter id="r"><feGaussianBlur stdDeviation=".88181593"/></filter><filter id="s" height="2.900559" width="1.048115" x="-.024058" y="-.950279"><feGaussianBlur stdDeviation=".79189944"/></filter><linearGradient id="t" gradientTransform="matrix(.74423291 0 0 .79211418 53.211784 1058.6933)" gradientUnits="userSpaceOnUse" x1="35.889088" x2="35.889088" y1="24" y2="37.535038"><stop offset="0" stop-color="#5a5868"/><stop offset="1" stop-color="#30333d"/></linearGradient><linearGradient id="u" gradientTransform="matrix(.81763198 0 0 -1.0663486 -199.96354 769.05955)" gradientUnits="userSpaceOnUse" x1="382.2173" x2="382.2173" y1="-305.7478" y2="-303.5359"><stop offset="0" stop-opacity="0"/><stop offset="1"/></linearGradient><linearGradient id="v" gradientTransform="matrix(1.1565084 0 0 1.160284 38.570727 1032.0728)" gradientUnits="userSpaceOnUse" x1="68.75" x2="68.75" xlink:href="#o" y1="50.379852" y2="41.686016"/><linearGradient id="w" gradientTransform="matrix(1.1184033 -.29473019 .29967523 1.0999482 -16.35767 1027.53)" gradientUnits="userSpaceOnUse" x1="95.84655" x2="95.18277" xlink:href="#p" y1="67.891441" y2="59.370586"/><linearGradient id="x" gradientTransform="matrix(1.1184033 -.29473019 .29967523 1.0999482 -16.35767 1027.53)" gradientUnits="userSpaceOnUse" x1="89.90535" x2="85.329956" xlink:href="#p" y1="59.699619" y2="59.788147"/><linearGradient id="y" gradientTransform="matrix(.81673514 0 0 -1.1940717 -487.11253 704.31119)" gradientUnits="userSpaceOnUse" x1="385.71771" x2="385.37964" y1="-310.14319" y2="-298.66953"><stop offset="0" stop-color="#a2a2a2"/><stop offset="1" stop-color="#fff"/></linearGradient><linearGradient id="z" gradientTransform="matrix(.81668006 0 0 -1.2152751 -199.6438 723.28224)" gradientUnits="userSpaceOnUse" x1="375.79907" x2="375.79907" y1="-295.38995" y2="-303.76532"><stop offset="0" stop-color="#b7b8b9"/><stop offset=".18851049" stop-color="#ececec"/><stop offset=".25718147" stop-color="#fafafa"/><stop offset=".30111277" stop-color="#fff"/><stop offset=".5313" stop-color="#fafafa"/><stop offset=".8449" stop-color="#ebecec"/><stop offset="1" stop-color="#e1e2e3"/></linearGradient><linearGradient id="A" gradientTransform="matrix(1.1837974 0 0 -1.1189357 37.818357 1178.4378)" gradientUnits="userSpaceOnUse" x1="67.083908" x2="67.083908" y1="81.242638" y2="46.436012"><stop offset="0" stop-color="#fff"/><stop offset="1" stop-color="#fff" stop-opacity="0"/></linearGradient><radialGradient id="B" cx="390.47781" cy="-374.30042" fx="390.47781" fy="-374.30042" gradientTransform="matrix(.77567289 0 0 -.66929491 -193.36677 862.64433)" gradientUnits="userSpaceOnUse" r="125.8389" xlink:href="#o"/><linearGradient id="C" gradientUnits="userSpaceOnUse" x1="8.900793" x2="36.102071" y1="22.998819" y2="22.998819"><stop offset="0" stop-color="#edcb68"/><stop offset=".505" stop-color="#efcd68"/><stop offset="1" stop-color="#fcde7b"/></linearGradient><linearGradient id="D" gradientUnits="userSpaceOnUse" x1="15.000955" x2="15.000955" y1="37.999774" y2="18.00228"><stop offset="0" stop-color="#ffe390"/><stop offset="1" stop-color="#ffe9a2"/></linearGradient><linearGradient id="E" gradientUnits="userSpaceOnUse" x1="16.800011" x2="22.59781" y1="44.795369" y2="42.263083"><stop offset="0" stop-opacity=".392"/><stop offset="1" stop-opacity="0"/></linearGradient><path d="m0 0h48v48h-48z" fill="none"/><path d="m16.562 46.394 7.238-4.596-9-1.002 1.762 5.594" fill="url(#E)" opacity=".25"/><path d="m9 5.004h23.5c1.001 0 1.5.503 1.5 1.5v19.496l3.001 4.002v8.496c0 1.002-.499 1.5-1.5 1.5h-26.501z" fill="url(#C)"/><path d="m9 5.004 8.412 6.89c.238.227.616.756.586 1.11v20.997l-.998 1.587v10.413c-.003.14-.03.393-.438.393l-7.56-6.395z" fill="url(#D)"/><path d="m10.144 39.81-.03-32.546m-.552-.616v32.78" fill="none" stroke="#eecb66" stroke-width=".2"/><path d="m9.09 5.09-.19.226 8.29 6.85c.138.138.257.217.355.387.113.189.177.474.166.595v20.822l-.96 1.542.25.16 1.008-1.622v-20.895a1.454 1.454 0 0 0 -.211-.731 1.923 1.923 0 0 0 -.357-.478l-.063-.062z" fill="#fff" opacity=".478"/><g enable-background="new" stroke-width="8.725331" transform="matrix(.32939019 0 0 .33255985 -3.707084 -336.481629)"><g stroke-width="8.725331"><path d="m75.586205 1090.7914h74.000008v55.216652h-74.000008z" fill="url(#B)"/><path d="m76.475296 51.447872h1.662019v25.869806h-1.662019z" fill="url(#k)" opacity=".8" transform="matrix(.5728052 0 0 .80960197 54.828746 1060.3558)"/><path d="m107.28869 51.448311h1.662017v25.869806h-1.662017z" fill="url(#j)" opacity=".8" transform="matrix(.5728052 0 0 .80960197 61.178675 1060.3554)"/><path d="m46.953808 49.752163h90.67701v1.689386h-90.67701z" fill="url(#i)" opacity=".8" transform="matrix(.80898447 0 0 .5693751 38.245012 1072.6805)"/><path d="m78.067465 1092.2797v34.1625c10.26216-2.1876 22.727185-5.75 37.518745-11.4341 12.03647-4.6254 23.31382-8.6014 33.5091-11.9936v-10.7348z" fill="url(#A)" opacity=".2"/><path d="m75.578995 1083.1254h74.016525v9.282271h-74.016525z" fill="url(#z)"/></g><path d="m40.148251 32.125724 7.79261 1.81214-9.79261 10.06214-2.14825-.04994v-11.95006z" fill-rule="evenodd" filter="url(#l)" opacity=".5" transform="matrix(.80546523 0 0 .78625429 49.805173 1059.0071)"/><g stroke-width="8.725331"><path d="m114.85524 1092.4076h12.38612l6.16305-9.2823h-12.32611z" fill="url(#v)"/><path d="m19.498863 42.927895h63.999973v7.999998h-63.999973z" filter="url(#r)" opacity=".6" transform="matrix(1.1184033 -.29473019 .29967523 1.0999482 38.528648 1035.4701)"/><path d="m137.98542 1092.4076h11.55642v-9.3579l-5.33336.076z" fill="url(#v)"/><path d="m-211.8712 1057.8759h74.0215v9.120317h-74.0215z" fill="url(#y)" transform="matrix(.96698649 -.25482766 .26286379 .96483295 0 0)"/><path d="m147.17586 1064.601-5.26758 1.3882-8.35738-7.229 11.22757-2.9588z" fill="url(#w)"/><path d="m131.51823 1068.7272-11.97802 3.1566-8.35739-7.229 11.91999-3.1413z" fill="url(#w)"/><path d="m84.545276 1081.1059-8.94722 2.3578-2.397399-8.7996 2.929204-.7719z" fill="url(#x)"/><path d="m109.15016 1074.6218-11.97802 3.1566-8.357396-7.229 11.919996-3.1412z" fill="url(#w)"/><path d="m91.725077 1092.4076h12.386113l6.16306-9.2823h-12.326118z" fill="url(#v)"/><path d="m75.580055 1092.7347h73.937637v2.358763h-73.937637z" fill="url(#u)"/><path d="m46.9538 75.785812h90.613449v1.672028h-90.613449z" fill="url(#h)" opacity=".8" transform="matrix(.80898435 0 0 .5693751 38.296454 1079.9055)"/><path d="m46.035206 95.851723h91.47271v1.756315h-91.47271z" fill="url(#g)" opacity=".8" transform="matrix(.80898435 0 0 .5693751 38.344446 1083.4325)"/><path d="m96.448738 78.367371h1.662014v14.790503h-1.662014z" fill="url(#f)" transform="matrix(.5728052 0 0 .90112936 61.387857 1053.389)"/><g fill="#fff"><path d="m59.077 71.67.322-1.741 2.772-2.181c3.437-2.86 5.522-4.854 5.522-6.961 0-1.056-.666-2.018-2.153-2.018-1.328 0-2.384.484-3.116.987l-.596-1.927c1.122-.756 2.773-1.307 4.331-1.307 2.909 0 4.305 1.811 4.305 3.874 0 3.09-2.656 5.497-5.68 7.927l-1.376 1.029v.048h5.751l-.435 2.271h-9.647z" transform="matrix(1.0060686 0 0 .9020399 21.515247 1055.0875)"/><path d="m95.758 71.67.732-3.827h-6.367l.342-1.787 7.471-9.278h3.161l-1.697 8.979h1.856l-.395 2.087h-1.85l-.734 3.827zm1.123-5.914.82-4.008c.186-.871.439-1.811.646-2.656h-.094c-.639.96-1.146 1.785-1.834 2.702l-3.207 3.918-.021.044z" transform="matrix(1.0290222 0 0 .91754524 13.41562 1053.9762)"/><path d="m131.887 59.067h-5.18l-.914 2.979c.252-.043.434-.043.688-.043.753 0 1.971.206 2.861.825 1.125.687 1.697 1.943 1.697 3.297 0 3.667-3.022 5.795-6.526 5.795-1.652 0-3.026-.435-3.575-.848l.732-2.128c.572.341 1.693.733 2.929.733 1.856 0 3.667-1.239 3.667-3.069 0-1.444-.825-2.549-3.641-2.549-.689 0-1.168.049-1.766.095l2.107-7.377h7.377z" transform="matrix(1.0044808 0 0 .90239724 9.977323 1054.8372)"/><g transform="matrix(.80898435 0 0 .78625429 39.962403 1063.7246)"><path d="m103.396 82.257c0 .704-.244 1.383-.685 1.817-.359.346-.846.552-1.426.552-.998 0-1.557-.705-1.557-1.604 0-.696.255-1.39.705-1.821.363-.345.852-.551 1.41-.551 1.017 0 1.553.684 1.553 1.607zm-2.313-.63c-.308.309-.479.907-.479 1.366 0 .544.245.948.808.948.239 0 .467-.107.646-.28.303-.305.468-.937.468-1.383 0-.479-.172-.944-.776-.944-.262 0-.489.114-.667.293z"/><path d="m105.495 84.567-.262-.779c-.074-.234-.136-.419-.206-.656h-.012c-.124.216-.228.411-.396.688l-.449.749h-.992l1.441-1.97-.672-1.885h.867l.232.735c.07.244.119.413.18.641h.016c.144-.261.239-.445.365-.651l.447-.725h.982l-1.404 1.89.736 1.965z"/><path d="m107.659 84.567.297-1.573-.752-2.28h.883l.244.979c.069.318.108.499.151.694h.011c.114-.206.229-.423.391-.704l.58-.971h.982l-1.664 2.265-.3 1.59z"/><path d="m113.096 84.388c-.295.098-.76.217-1.241.217-.533 0-.972-.135-1.29-.422-.311-.271-.482-.693-.482-1.188 0-.721.297-1.346.785-1.762.436-.359 1.03-.56 1.697-.56.505 0 .879.098 1.025.172l-.244.695c-.18-.08-.477-.155-.818-.155-.385 0-.729.107-.982.309-.332.262-.558.716-.558 1.242 0 .648.386.976.991.976.189 0 .325-.03.418-.071l.152-.812h-.592l.123-.656h1.399z"/><path d="m116.262 82.93h-1.37l-.175.931h1.535l-.131.707h-2.358l.729-3.854h2.279l-.136.703h-1.453l-.157.825h1.371z"/><path d="m116.715 84.567.732-3.854h.967l.51 1.469c.15.492.256.895.347 1.317h.019c.016-.396.067-.82.176-1.385l.264-1.401h.766l-.724 3.854h-.853l-.541-1.54c-.17-.521-.271-.866-.375-1.344l-.017.01c-.048.375-.14.916-.255 1.524l-.249 1.35z"/></g><path d="m32.000008 47.836678h63.999992v1.380907h-63.999992z" filter="url(#q)" opacity=".2" transform="matrix(1.1565084 0 0 1.6804659 38.570727 1003.813)"/></g></g><path d="m79.167588 1077.704 10.306741 7.9212-10.306741 7.9211-3.587535-.04v-15.9027l3.587535.1002z" fill="url(#t)" fill-rule="evenodd"/><g stroke-width="8.725331"><g fill-rule="evenodd" transform="matrix(.79944623 0 0 .78625429 50.551528 1059.0071)"><ellipse cx="5.875" cy="18" fill="url(#b)" rx="2.125" ry="2" transform="matrix(.4705882 0 0 -.5 32.235294 36)"/><path d="m39.882687-17.060888h2v.5h-2z" fill="url(#d)" opacity=".5" transform="matrix(.5 .8660254 -.8660254 .5 0 0)"/></g><g fill-rule="evenodd" transform="matrix(.80452748 0 0 .80112235 49.834123 1058.3755)"><ellipse cx="5.875" cy="18" fill="url(#b)" rx="2.125" ry="2" transform="matrix(.4705882 0 0 -.5 32.211834 50)"/><path d="m28.557367 44.813515h2v.5h-2z" fill="url(#c)" opacity=".5" transform="matrix(.9921016 -.1254369 .1254369 .9921016 0 0)"/></g><g fill-rule="evenodd" transform="matrix(.80452748 0 0 .80112235 48.225062 1058.3755)"><ellipse cx="5.875" cy="18" fill="url(#b)" rx="2.125" ry="2" transform="matrix(.4705882 0 0 -.5 44.211835 43)"/><path d="m5.652649 57.35675h2v.5h-2z" fill="url(#a)" opacity=".5" transform="matrix(.67537499 -.73747449 .73747449 .67537499 0 0)"/></g><path d="m32.000008 47.836678h63.999992v1.380907h-63.999992z" fill="#fff" filter="url(#q)" opacity=".2" transform="matrix(1.0423182 -.29196234 .42130341 1.515176 25.56398 1010.7884)"/></g><rect filter="url(#s)" height="2" opacity=".662857" rx="3.035913" ry="3.006978" width="75" x="75.586205" y="1145.0081"/></g></svg>