<svg height="48" width="48" xmlns="http://www.w3.org/2000/svg" xmlns:xlink="http://www.w3.org/1999/xlink"><radialGradient id="a" cx="61.056499" cy="76.883453" fx="61.716747" fy="76.228065" gradientTransform="matrix(.06549861 .00137777 -.00144765 .06882041 60.112185 97.224722)" gradientUnits="userSpaceOnUse" r="61.056499"><stop offset="0"/><stop offset="1" stop-opacity="0"/></radialGradient><filter id="b" height="1.381607" width="1.206704" x="-.103352" y="-.190803"><feGaussianBlur stdDeviation=".3445067"/></filter><linearGradient id="c" gradientUnits="userSpaceOnUse" x1="8.900793" x2="36.102071" y1="22.998819" y2="22.998819"><stop offset="0" stop-color="#edcb68"/><stop offset=".505" stop-color="#efcd68"/><stop offset="1" stop-color="#fcde7b"/></linearGradient><linearGradient id="d" gradientUnits="userSpaceOnUse" x1="15.000955" x2="15.000955" y1="37.999774" y2="18.00228"><stop offset="0" stop-color="#ffe390"/><stop offset="1" stop-color="#ffe9a2"/></linearGradient><linearGradient id="e" gradientUnits="userSpaceOnUse" x1="34.416259" x2="38.065926" xlink:href="#f" y1="39.158323" y2="35.615878"/><linearGradient id="f"><stop offset="0" stop-opacity=".392"/><stop offset="1" stop-opacity="0"/></linearGradient><linearGradient id="g" gradientUnits="userSpaceOnUse" x1="16.800011" x2="22.59781" xlink:href="#f" y1="44.795369" y2="42.263083"/><path d="m0 0h48v48h-48z" fill="none"/><path d="m35.508978 39.158188 7.270127-4.351383h-7.642199z" fill="url(#e)" opacity=".25"/><path d="m16.562 46.394 7.238-4.596-9-1.002 1.762 5.594" fill="url(#g)" opacity=".25"/><path d="m9 5.004h23.5c1.001 0 1.5.503 1.5 1.5v19.496l3.001 4.002v8.496c0 1.002-.499 1.5-1.5 1.5h-26.501z" fill="url(#c)"/><path d="m9 5.004 8.412 6.89c.238.227.616.756.586 1.11v20.997l-.998 1.587v10.413c-.003.14-.03.393-.438.393l-7.56-6.395z" fill="url(#d)"/><path d="m10.144 39.81-.03-32.546m-.552-.616v32.78" fill="none" stroke="#eecb66" stroke-width=".2"/><path d="m9.09 5.09-.19.226 8.29 6.85c.138.138.257.217.355.387.113.189.177.474.166.595v20.822l-.96 1.542.25.16 1.008-1.622v-20.895a1.454 1.454 0 0 0 -.211-.731 1.923 1.923 0 0 0 -.357-.478l-.063-.062z" fill="#fff" opacity=".478"/><g enable-background="new" stroke-width="2.887834" transform="matrix(.34628034 0 0 .34628034 11.48997 9.23521)"><path d="m68 102.6c0 .36819-1.790862.66667-4.000001.66667-2.209138 0-3.999999-.29848-3.999999-.66667s1.790861-3.66667 3.999999-3.66667c2.209139 0 4.000001 3.29848 4.000001 3.66667z" fill="url(#a)" filter="url(#b)" opacity=".3" transform="matrix(1.0911192 0 0 1.0911192 -7.700489 -10.523219)"/><g stroke-width="2.887834" transform="matrix(1 0 0 .9756098 -72.426501 80.585366)"><path d="m148.99955-19.714186v-43.914858h-28.88537v43.914858h-19.01485l33.45753 39.725458 33.45688-39.725458z" fill="#0774d9"/><path d="m123.54193-60.113837v42.442189c0 2.122075-1.29771 3.841595-2.89863 3.841595 0 0-5.00126 0-9.7053 0 6.19969 8.5286977 20.6019 28.338909 23.61953 32.490333 3.01762-4.151424 17.42042-23.9616353 23.61953-32.490333-4.70465 0-9.70533 0-9.70533 0-1.6015 0-2.89921-1.71952-2.89921-3.841595 0 0 0-35.982477 0-42.442189-4.1126 0-17.91918 0-22.03059 0z" fill="#009cff"/><path d="m135.47522 20.334581c-.23995.260898-.57258.406006-.91836.406006-.34577 0-.67774-.145108-.91834-.406006l-6.27723-6.76452 6.27723 7.453224c.2406.285709.57191.447358.91769.447358.34577 0 .67775-.161649.91768-.447358l6.27593-7.451715z" fill="#fff"/></g></g></svg>